<?xml version="1.0" standalone="no"?>
<!DOCTYPE svg PUBLIC "-//W3C//DTD SVG 1.1//EN" "http://www.w3.org/Graphics/SVG/1.1/DTD/svg11.dtd" >
<svg xmlns="http://www.w3.org/2000/svg">
<metadata></metadata>
<defs>
<font id="klimaitalic" horiz-adv-x="1212" >
<font-face units-per-em="2048" ascent="1565" descent="-483" />
<missing-glyph horiz-adv-x="386" />
<glyph horiz-adv-x="0" />
<glyph unicode="&#xd;" horiz-adv-x="451" />
<glyph unicode=" "  horiz-adv-x="386" />
<glyph unicode="&#x09;" horiz-adv-x="386" />
<glyph unicode="&#xa0;" horiz-adv-x="386" />
<glyph unicode="!" horiz-adv-x="302" d="M86 342l84 569l86 616h43l-86 -616l-84 -569h-43zM66.5 -6q-16.5 0 -32 13t-15.5 34t17 35t33 14t30.5 -14t14.5 -35t-15.5 -34t-32 -13z" />
<glyph unicode="&#x22;" horiz-adv-x="532" d="M168 1065l64 462h43l-64 -462h-43zM441 1065l64 462h43l-64 -462h-43z" />
<glyph unicode="#" horiz-adv-x="1231" d="M439 849h376l53 314h-373zM331 468l59 338h-257l7 43h256l53 314h-268l6 43h269l53 321h45l-53 -321h375l53 321h45l-53 -321h283l-6 -43h-284l-54 -314h295l-6 -43h-295l-58 -338h-45l57 338h-375l-55 -338h-47z" />
<glyph unicode="$" horiz-adv-x="1141" d="M232 1157q-9 -62 5.5 -113t45.5 -87t79 -62.5t101 -42.5t116 -25l94 677q-184 -10 -300.5 -98t-140.5 -249zM987 394q11 82 -3.5 145.5t-46.5 104.5t-84.5 70t-109 43.5t-128.5 22.5l-106 -752q67 2 130.5 17t122 45t104.5 72t78 101.5t43 130.5zM474 -232h-46l30 217 q-77 4 -150.5 30.5t-131 67.5t-100 91t-63.5 103l41 18q43 -105 152.5 -182t257.5 -85l108 757q-69 10 -128.5 28.5t-111.5 49.5t-86.5 71.5t-50 97.5t-6.5 125q27 179 156 279.5t334 110.5l31 220h45l-31 -218h3q81 0 148 -16t114 -44.5t78 -56.5t58 -64l-41 -26 q-24 34 -50 59t-68 51t-104.5 40t-141.5 14h-2l-96 -683q470 -53 410 -429q-12 -82 -47 -149t-85.5 -114t-115 -79.5t-135 -48.5t-146.5 -18z" />
<glyph unicode="%" horiz-adv-x="1597" d="M458 854q-60 0 -112.5 24t-90 67.5t-56.5 108.5t-12 142q5 76 33.5 140t72.5 106.5t100 66.5t116 24q131 0 209 -91.5t67 -245.5q-14 -160 -104 -251t-223 -91zM129 0l1281 1527h57l-1282 -1527h-56zM460 897q112 0 191 79t91 220q10 134 -57 214t-178 80q-69 0 -129 -34 t-101 -102.5t-47 -157.5q-11 -136 56.5 -217.5t173.5 -81.5zM1118 -8q-60 0 -112 24t-89.5 67t-56.5 108t-13 142q6 76 35 140t73 107t100 67t117 24q130 0 207.5 -92t65.5 -246q-13 -160 -103 -250.5t-224 -90.5zM1122 35q112 0 190 78.5t90 219.5q11 134 -56.5 214.5 t-177.5 80.5q-106 0 -186.5 -80.5t-91.5 -214.5q-10 -135 58 -216.5t174 -81.5z" />
<glyph unicode="&#x26;" horiz-adv-x="1377" d="M527 870q46 19 77.5 32.5t76.5 35.5t76 41t65.5 46t57 54.5t39.5 62t23 71.5q21 134 -45 209.5t-191 75.5q-120 0 -209.5 -78t-109.5 -207q-6 -47 0 -90.5t25.5 -82t36 -64t43.5 -60t35 -46.5zM131 374q0 -64 21 -123.5t61.5 -109t107.5 -79t150 -29.5q63 0 132 21.5 t132 58t116.5 77t100.5 85.5l-443 546q-170 -69 -274 -189.5t-104 -257.5zM1170 0l-189 240q-263 -250 -517 -250q-85 0 -158 32t-121 85t-74.5 120t-26.5 136q0 156 105.5 287t294.5 208q-3 4 -12.5 15t-18.5 22t-22.5 29t-24 35.5t-23 41t-20 46t-15 51t-7 55.5t2.5 60 q23 149 124 238.5t244 89.5q67 0 122.5 -23.5t92.5 -65.5t53 -104t5 -135q-8 -59 -42.5 -113t-78.5 -92.5t-104 -74t-107 -56.5t-99 -40q-1 0 107.5 -133t216.5 -266l109 -132l263 266h55l-290 -299l208 -273h-53z" />
<glyph unicode="'" horiz-adv-x="259" d="M168 1065l64 462h43l-64 -462h-43z" />
<glyph unicode="(" horiz-adv-x="558" d="M279 -168q-26 40 -51.5 97.5t-51.5 138.5t-41 170.5t-19.5 194.5t13.5 210q42 273 140 479t269 403l32 -35q-154 -167 -258 -383.5t-140 -468.5q-16 -134 -10.5 -252t31.5 -224.5t56.5 -183t64.5 -126.5z" />
<glyph unicode=")" horiz-adv-x="558" d="M288 1514q26 -40 51.5 -97t52 -138t41.5 -171t19.5 -195t-13.5 -209q-42 -274 -140 -480t-269 -402l-32 34q154 167 258 383.5t140 468.5q16 134 10.5 252t-31.5 224.5t-56.5 183t-64.5 126.5z" />
<glyph unicode="*" horiz-adv-x="675" d="M260 1071l-36 33l168 176l-185 62l19 43l180 -65l33 221h45l-32 -221l204 71l11 -45l-209 -76l121 -182l-39 -23l-117 182z" />
<glyph unicode="+" horiz-adv-x="1113" d="M484 286l56 385h-386l8 43h384l54 378h43l-54 -378h385l-6 -43h-385l-56 -385h-43z" />
<glyph unicode="," horiz-adv-x="259" d="M-54 -271l118 347h43l-117 -347h-44z" />
<glyph unicode="-" horiz-adv-x="769" d="M80 521l6 43h577l-7 -43h-576z" />
<glyph unicode="." horiz-adv-x="353" d="M92.5 -6q-16.5 0 -32 13t-15.5 34t16.5 35t32.5 14t31 -14t15 -35t-15.5 -34t-32 -13z" />
<glyph unicode="/" horiz-adv-x="556" d="M-47 0l638 1529h47l-638 -1529h-47z" />
<glyph unicode="0" horiz-adv-x="1274" d="M546 -26q-112 0 -202 46.5t-153.5 142t-84.5 242t5 346.5q28 198 89 352t147.5 252t193.5 148t231 50q109 0 197 -50t149 -151.5t81 -254t-7 -357.5q-29 -196 -88 -344t-143 -240t-187.5 -137t-227.5 -45zM552 17q109 0 202 42.5t171 128.5t133.5 226t82.5 326 q26 196 11.5 340.5t-67 240t-133 142.5t-184.5 47q-109 0 -206 -46t-177.5 -137.5t-139.5 -238.5t-85 -337q-25 -190 -8 -328.5t74 -228.5t139 -133.5t187 -43.5z" />
<glyph unicode="1" horiz-adv-x="624" d="M338 0l214 1484l-398 -153l-10 37l410 159h46l-220 -1527h-42z" />
<glyph unicode="2" horiz-adv-x="1122" d="M17 0l7 45l682 684q116 116 176 190.5t82 126t31 120.5q10 65 -6.5 127t-56 110t-107 77.5t-152.5 29.5q-75 0 -142 -24t-120.5 -68.5t-96 -100t-78.5 -125.5l-43 17q77 157 199 250.5t283 93.5q90 0 165 -32t122.5 -85t69.5 -123.5t11 -146.5q-18 -120 -77 -212.5 t-224 -256.5l-650 -650h839l-8 -47h-906z" />
<glyph unicode="3" horiz-adv-x="1106" d="M462 -2q-87 0 -164.5 29t-132 78.5t-88 115t-38.5 136.5h41q6 -63 36 -119.5t79 -100.5t120 -70t153 -26q194 0 318.5 100t149.5 274q12 84 -7 149.5t-71.5 114t-148 74.5t-229.5 27l6 41q238 19 365.5 101.5t150.5 243.5q22 156 -63 250t-264 94q-78 0 -147.5 -26.5 t-119.5 -71t-85.5 -94.5t-57.5 -105h-46q22 61 63.5 119.5t98.5 109t135.5 81t162.5 30.5q130 0 219.5 -51.5t126 -138.5t20.5 -197q-13 -87 -51.5 -154t-97.5 -109.5t-130 -66t-155 -30.5q88 -5 160.5 -33t124 -76t74 -120.5t9.5 -161.5q-27 -195 -161.5 -306t-355.5 -111z " />
<glyph unicode="4" horiz-adv-x="1057" d="M686 0l56 396h-701l6 45l839 1081h62l-156 -1083h174l-7 -43h-174l-56 -396h-43zM103 439h646l146 1022z" />
<glyph unicode="5" horiz-adv-x="1176" d="M495 -26q-80 0 -147.5 21t-115 57t-83 86t-55.5 104t-28 115h45q11 -71 38 -129.5t72 -106.5t117 -75t165 -27q92 0 176.5 35.5t148.5 96t108 142t57 171.5q29 209 -69 333t-292 124q-67 0 -132 -19t-112.5 -48.5t-80.5 -59.5t-51 -57l-65 10l129 780h788l-4 -43h-743 l-111 -678l8 8.5t25 22.5t40.5 30.5t57 33.5t70.5 31t86 23t99 9q214 0 325.5 -135.5t79.5 -360.5q-16 -103 -63 -193.5t-117 -157.5t-165 -105t-201 -38z" />
<glyph unicode="6" horiz-adv-x="1171" d="M492 -2q-96 0 -178 39.5t-134 104t-76 149.5t-12 173q29 181 189 377l558 712h53l-557 -714q120 101 297 101q100 0 182 -38t133.5 -102.5t73 -151.5t7.5 -182q-13 -96 -56 -181t-110.5 -149t-163 -101t-206.5 -37zM501 41q95 -1 179.5 32t146.5 90t103.5 135t54.5 166 q18 118 -21.5 217t-128.5 157.5t-209 58.5q-94 0 -180 -35.5t-149 -95.5t-106 -138.5t-56 -163.5q-17 -116 24 -213.5t131.5 -154t210.5 -55.5z" />
<glyph unicode="7" horiz-adv-x="1038" d="M146 0l895 1484h-856l4 43h910l-5 -35l-894 -1492h-54z" />
<glyph unicode="8" horiz-adv-x="1165" d="M484 -17q-89 0 -169 28.5t-139 80t-88 130t-14 170.5q9 66 40 125.5t74 104t98 82.5t110 63t113 41q-45 13 -84 31.5t-77.5 49t-63.5 69t-36.5 94t-2.5 120.5q10 70 48 136.5t96.5 119t141 84.5t173.5 32t164.5 -30t118.5 -81t65.5 -117t12.5 -140q-18 -152 -125.5 -250 t-270.5 -122q53 -9 105 -28t102.5 -53t86.5 -77.5t53.5 -107t7.5 -136.5q-18 -127 -93.5 -222.5t-191.5 -146t-255 -50.5zM602 823q191 35 297.5 125t122.5 226q8 67 -8.5 126t-55 104.5t-105 71.5t-152.5 26q-83 -1 -158 -29.5t-127.5 -75t-86 -105t-41.5 -120.5 q-19 -143 59.5 -226t254.5 -123zM488 26q123 0 227.5 44t175.5 130.5t88 201.5q10 68 -7.5 126t-54 99.5t-92 73.5t-116 52t-130.5 32q-118 -28 -216.5 -83t-165 -136.5t-78.5 -173.5q-13 -83 11.5 -153t76.5 -116t125 -71.5t156 -25.5z" />
<glyph unicode="9" horiz-adv-x="1149" d="M306 0l560 714q-26 -21 -47 -34.5t-57.5 -31t-86 -26.5t-109.5 -9q-93 0 -173 38t-133.5 102t-78 151t-11.5 182q15 96 59.5 181t112.5 149.5t163 101.5t203 37q96 0 178 -39.5t133.5 -104.5t75.5 -150t11 -173q-9 -59 -31.5 -118.5t-56.5 -114t-53 -81t-47 -62.5 l-559 -712h-53zM572 656q126 0 232.5 55.5t173.5 154t85 222.5q17 115 -24 212t-131 154t-209 58q-92 1 -176.5 -32t-148 -90.5t-106 -135.5t-55.5 -166q-16 -119 23.5 -217.5t128 -156.5t207.5 -58z" />
<glyph unicode=":" horiz-adv-x="353" d="M219.5 903q-16.5 0 -32 13t-15.5 34t16.5 35.5t33.5 14.5q15 0 30 -14t15 -36q0 -21 -15.5 -34t-32 -13zM98.5 37q-16.5 0 -32 13t-15.5 34t17 35t33 14t30.5 -14t14.5 -35t-15.5 -34t-32 -13z" />
<glyph unicode=";" horiz-adv-x="341" d="M221.5 903q-16.5 0 -32 13t-15.5 34t16.5 35.5t33.5 14.5q15 0 30 -14t15 -36q0 -21 -15.5 -34t-32 -13zM-43 -222l119 347h43l-119 -347h-43z" />
<glyph unicode="&#x3c;" horiz-adv-x="1214" d="M952 43l-853 466l6 35l985 460l-4 -52l-920 -429l793 -431z" />
<glyph unicode="=" horiz-adv-x="1295" d="M197 966l8 43h993l-6 -43h-995zM133 513l7 43h993l-6 -43h-994z" />
<glyph unicode="&#x3e;" horiz-adv-x="1214" d="M226 987l853 -466l-6 -35l-985 -460l4 52l921 429l-794 431z" />
<glyph unicode="?" horiz-adv-x="981" d="M359 338q40 277 301 487q246 195 265 330q11 75 -9 142t-64 114.5t-108.5 75t-139.5 27.5q-161 0 -268 -84.5t-151 -225.5l-41 7q45 157 166.5 251.5t302.5 94.5q110 0 197.5 -54.5t130 -147t27.5 -200.5q-5 -40 -24 -80.5t-43 -73.5t-63.5 -72.5t-72 -68t-81.5 -68.5 q-241 -195 -282 -454h-43zM357 0q-17 0 -28.5 10t-10.5 31q0 21 11.5 33t27.5 12t27.5 -12t11.5 -33q-3 -41 -39 -41z" />
<glyph unicode="@" horiz-adv-x="1883" d="M909 -207q-112 0 -219.5 28t-200 80.5t-167.5 129t-123.5 173t-68 212.5t0.5 249q26 184 108 346t203 278t279 183t330 67q102 0 200.5 -30t182 -84t152 -132t113 -169.5t62.5 -201t2 -223.5q-18 -122 -48 -217.5t-67.5 -158t-84.5 -103.5t-96.5 -58.5t-105.5 -17.5 q-47 0 -86 20t-66.5 59.5t-37.5 99t1 137.5q-10 -30 -24.5 -58t-40 -59t-57 -53t-78.5 -37t-102 -15q-65 0 -122.5 29t-98.5 80.5t-59 130t-5 171.5q28 188 138.5 301t269.5 113q50 0 91.5 -19t67 -47t42.5 -62.5t23.5 -64.5t5.5 -53l29 196l45 -2l-82 -547 q-21 -133 23.5 -205t129.5 -72q46 0 88 16t83.5 53.5t75 95t60.5 145.5t43 200q18 110 1.5 212.5t-56 191t-104 161.5t-143.5 125t-174 80.5t-195 28.5q-156 0 -304.5 -63.5t-265 -173.5t-198 -266t-107.5 -333q-18 -123 -1 -232t61 -201t114.5 -164.5t158 -122.5t192 -77 t217.5 -27q54 0 109.5 8t83.5 17l28 8l2.5 -7.5t4 -14t4 -15.5l1.5 -6q-26 -11 -111 -22t-127 -11zM878 281q119 0 207 99t111 258q8 60 7.5 115t-16 103.5t-40.5 85t-66 57.5t-94 21q-133 0 -233.5 -104.5t-123.5 -268.5q-24 -164 47 -265t201 -101z" />
<glyph unicode="A" horiz-adv-x="1309" d="M267 503h744l-235 976zM-47 0l800 1527h58l365 -1527h-45l-109 460h-779l-241 -460h-49z" />
<glyph unicode="B" horiz-adv-x="1231" d="M60 0l219 1527h454q95 0 172.5 -31.5t126 -85.5t71 -126.5t13.5 -154.5q-7 -64 -31 -120t-57 -93.5t-72.5 -65t-76 -41t-68.5 -15.5q32 -3 72 -18.5t83.5 -48.5t77 -78t50 -113.5t5.5 -148.5q-29 -189 -163 -288t-362 -99h-514zM224 813h464q81 0 150 24.5t116.5 68 t77.5 101t39 124.5q10 70 -7 133t-58.5 112.5t-113 78.5t-163.5 29h-409zM111 43h468q205 0 328 91t149 258q13 88 -10.5 160.5t-75.5 119.5t-126 72.5t-163 25.5h-464z" />
<glyph unicode="C" horiz-adv-x="1367" d="M669 -19q-67 0 -131 13.5t-126.5 42t-114.5 74t-94.5 109.5t-66.5 147.5t-31 188.5t14 234q24 166 76.5 298t120 216.5t151.5 140.5t168 79t173 23q142 0 255.5 -55t184 -162t79.5 -251h-43q-20 199 -146.5 311t-333.5 112q-82 0 -159 -21.5t-155.5 -74t-141 -131.5 t-112 -203.5t-72.5 -281.5q-15 -110 -15.5 -201t17 -165.5t44 -133t66 -103t84.5 -75.5t98.5 -50.5t108 -28.5t112.5 -9q117 0 224.5 53.5t184.5 143t118 202.5h46q-35 -92 -89.5 -170t-127 -140t-167 -97t-199.5 -35z" />
<glyph unicode="D" horiz-adv-x="1324" d="M60 0l219 1527h435q136 0 243 -50t182 -152.5t100 -259t-4 -370.5q-52 -358 -235.5 -526.5t-504.5 -168.5h-435zM109 43h392q301 0 471 160t220 492q26 169 13.5 298.5t-51.5 222.5t-106.5 152.5t-151.5 87.5t-186 28h-392z" />
<glyph unicode="E" d="M60 0l219 1527h948l-4 -43h-905l-99 -690h697l-9 -43h-696l-102 -708h923l-6 -43h-966z" />
<glyph unicode="F" horiz-adv-x="1169" d="M160 0l261 1529h902l-9 -43h-858l-112 -655h714l-7 -43h-713l-135 -788h-43z" />
<glyph unicode="G" horiz-adv-x="1362" d="M602 -24q-98 0 -181.5 29.5t-153.5 91.5t-111.5 158.5t-54 230t17.5 306.5q32 195 97 340t158.5 236t210 135t258.5 44q97 0 183.5 -35t146.5 -93.5t95.5 -136.5t36.5 -162h-45q-1 70 -30 137.5t-81.5 123t-135 89.5t-180.5 34q-127 0 -233 -40.5t-193.5 -124 t-149.5 -220t-93 -319.5q-31 -168 -21 -297t46.5 -220.5t101.5 -150t144.5 -86t175.5 -27.5q265 0 417 173.5t207 519.5h-517l4 43h560l-4 -43q-29 -186 -80 -320.5t-132 -229t-196 -140.5t-268 -46z" />
<glyph unicode="H" horiz-adv-x="1274" d="M60 0l219 1527h45l-109 -753h881l110 753h44l-222 -1527h-43l105 731h-881l-106 -731h-43z" />
<glyph unicode="I" horiz-adv-x="347" d="M60 0l219 1527h43l-219 -1527h-43z" />
<glyph unicode="J" horiz-adv-x="973" d="M-60 213l39 15q39 -72 100.5 -121.5t121.5 -69.5t117 -20q135 0 225 55t148 177.5t87 324.5l138 953h43l-136 -957q-23 -161 -61.5 -271.5t-100 -184t-146 -107t-201.5 -33.5q-63 0 -128.5 23t-133 79t-112.5 137z" />
<glyph unicode="K" horiz-adv-x="1197" d="M60 0l219 1527h41l-142 -973l1063 973h60l-751 -688l536 -839h-50l-517 811l-351 -321l-69 -490h-39z" />
<glyph unicode="L" horiz-adv-x="1069" d="M60 0l219 1527h43l-213 -1484h824l-6 -43h-867z" />
<glyph unicode="M" horiz-adv-x="1485" d="M60 0l219 1527h56l344 -1340l725 1340h57l-220 -1527h-43l206 1445l-718 -1326h-37l-339 1326l-207 -1445h-43z" />
<glyph unicode="N" horiz-adv-x="1379" d="M60 0l219 1527h54l768 -1476l210 1476h43l-219 -1527h-58l-761 1469l-213 -1469h-43z" />
<glyph unicode="O" horiz-adv-x="1377" d="M636 -13q-65 0 -126.5 13t-121.5 41t-108.5 72t-88.5 105.5t-62 141.5t-28 181.5t13 223.5q28 201 87 350.5t145 242.5t194 138t240 45q93 0 177 -28t158 -88t121 -153t66.5 -222.5t-5.5 -296.5q-24 -165 -67 -293t-102 -216t-135.5 -145.5t-164 -83.5t-192.5 -28z M640 30q95 2 175.5 26.5t152.5 79t127.5 138t97.5 206.5t65 281q17 132 9 238t-40.5 188t-80 140.5t-109.5 96.5t-128.5 56t-136.5 18q-118 0 -216 -41.5t-178 -128t-136 -226.5t-84 -328q-19 -120 -14.5 -217.5t24 -175t56 -136t81.5 -100t100.5 -67.5t114 -37t120.5 -11z " />
<glyph unicode="P" horiz-adv-x="1173" d="M60 0l219 1527h489q106 0 188.5 -33.5t132 -91.5t69 -137t5.5 -171q-24 -181 -161 -293.5t-344 -112.5h-455l-100 -688h-43zM209 731h454q188 0 312 100.5t145 260.5q17 113 -18 201t-123 139.5t-218 51.5h-443z" />
<glyph unicode="Q" horiz-adv-x="1377" d="M1086 -144l-153 204q-120 -69 -297 -73q-65 0 -126.5 13t-121.5 41t-108.5 72t-88.5 105.5t-62 141.5t-28 181.5t13 223.5q28 201 87 350.5t145 242.5t194 138t240 45q93 0 177 -28t158 -88t121 -153t66.5 -222.5t-5.5 -296.5q-70 -497 -325 -669l148 -203zM640 30 q95 2 175.5 26.5t152.5 79t127.5 138t97.5 206.5t65 281q17 132 9 238t-40.5 188t-80 140.5t-109.5 96.5t-128.5 56t-136.5 18q-118 0 -216 -41.5t-178 -128t-136 -226.5t-84 -328q-19 -120 -14.5 -217.5t24 -175t56 -136t81.5 -100t100.5 -67.5t114 -37t120.5 -11z" />
<glyph unicode="R" d="M213 757h486q84 0 161 29.5t134.5 79t96 116t48.5 138.5q15 101 -24.5 184.5t-121.5 131.5t-189 48h-486zM60 0l219 1527h509q129 0 225.5 -53t141 -146t27.5 -208q-12 -83 -54 -156.5t-100 -123.5t-125 -81t-133 -37l245 -722h-47l-246 714h-515l-104 -714h-43z" />
<glyph unicode="S" horiz-adv-x="1141" d="M484 -15q-80 0 -158.5 25t-139 66.5t-106.5 93.5t-67 107l41 18q21 -52 61 -99t94.5 -85t128.5 -60.5t154 -22.5q87 0 168 22.5t150 66t116.5 115t60.5 162.5q4 43 5 80t-8 69t-20 58t-31 48t-40.5 39t-48 30.5t-55 24t-61 18t-65 12.5t-68.5 9q-72 8 -134.5 25.5 t-118 48.5t-92.5 72t-54 100t-7 129q29 190 170.5 291t367.5 101q81 0 148 -16t114 -44.5t78 -56.5t58 -64l-41 -26q-24 34 -50 59t-68 51t-104.5 40t-141.5 14q-202 0 -332.5 -89t-155.5 -260q-9 -64 6.5 -117t49.5 -89.5t85 -63t107.5 -41t123.5 -21.5q488 -49 428 -431 q-12 -84 -49 -152.5t-89.5 -115.5t-119.5 -79t-139.5 -47t-150.5 -15z" />
<glyph unicode="T" horiz-adv-x="1079" d="M419 0l215 1486h-462l6 43h973l-7 -43h-467l-215 -1486h-43z" />
<glyph unicode="U" horiz-adv-x="1281" d="M540 -26q-227 0 -336.5 171t-68.5 470l130 912h43l-132 -916q-40 -279 59 -436.5t311 -157.5q229 0 367 154.5t179 439.5l131 916h43l-129 -912q-43 -308 -192.5 -474.5t-404.5 -166.5z" />
<glyph unicode="V" horiz-adv-x="1223" d="M497 0l-339 1529h42l327 -1467l748 1467h41l-774 -1529h-45z" />
<glyph unicode="W" horiz-adv-x="1881" d="M372 0l-212 1527h47l201 -1465l624 1407h50l225 -1407l616 1465h53l-640 -1527h-66l-223 1383l-614 -1383h-61z" />
<glyph unicode="X" horiz-adv-x="1214" d="M-35 0l616 742l-403 785h54l379 -747l624 747h51l-660 -787l378 -740h-52l-355 708l-578 -708h-54z" />
<glyph unicode="Y" horiz-adv-x="1130" d="M454 0l90 615l-398 912h49l375 -862l610 862h55l-648 -912l-90 -615h-43z" />
<glyph unicode="Z" horiz-adv-x="1147" d="M-15 0l5 37l1137 1447h-901l4 43h968l-4 -33l-1145 -1451h927l-6 -43h-985z" />
<glyph unicode="[" horiz-adv-x="616" d="M62 -64l233 1619h386l-6 -43h-344l-220 -1533h345l-7 -43h-387z" />
<glyph unicode="\" horiz-adv-x="577" d="M398 0l-230 1527h47l230 -1527h-47z" />
<glyph unicode="]" horiz-adv-x="618" d="M585 1553l-232 -1619h-388l7 42h344l220 1534h-345l6 43h388z" />
<glyph unicode="^" horiz-adv-x="932" d="M213 1144l-30 34l376 340h36l304 -355l-33 -26l-287 338z" />
<glyph unicode="_" horiz-adv-x="1038" d="M-99 -43l7 43h1042l-6 -43h-1043z" />
<glyph unicode="`" horiz-adv-x="257" d="M267 1266l-107 263l45 12l111 -275h-49z" />
<glyph unicode="a" horiz-adv-x="1077" d="M430 19q79 0 148.5 29t130 89.5t103.5 163t61 239.5q13 102 3 181.5t-37 138.5t-69 97t-90.5 56.5t-103.5 18.5q-56 0 -113.5 -18t-114 -57.5t-103 -96t-81.5 -139.5t-50 -181q-17 -113 -5 -199t41 -147t75 -100t97.5 -57t107.5 -18zM423 -24q-61 0 -117.5 20t-108 62.5 t-84 109t-46.5 159t4 213.5q15 105 52 194.5t87.5 151.5t112.5 105t127.5 63.5t132.5 20.5q69 0 131 -28.5t103 -73.5t65.5 -98.5t26.5 -104.5l39 275h45l-152 -1045h-41l41 284q-10 -54 -45 -108.5t-88.5 -99t-128.5 -72.5t-156 -28z" />
<glyph unicode="b" horiz-adv-x="1092" d="M49 0l220 1527h43l-107 -757q19 52 57.5 104.5t91.5 98t124.5 74t147.5 28.5q65 0 125 -21.5t111 -65t85 -108.5t47 -151.5t-3 -195.5q-19 -136 -69.5 -244.5t-120.5 -175.5t-152 -102t-169 -35q-69 0 -133 28t-108.5 73.5t-72 102.5t-31.5 115l-43 -295h-43zM488 19 q57 0 114.5 19.5t113 61t101 101t79.5 145.5t48 187q15 101 4.5 181t-40 139.5t-74.5 99.5t-99.5 59.5t-114.5 19.5q-55 0 -111 -18.5t-111 -59t-101 -97.5t-80 -140.5t-47 -180.5q-16 -113 -3 -199t42 -146.5t75 -98.5t97 -55.5t107 -17.5z" />
<glyph unicode="c" horiz-adv-x="1065" d="M466 -37q-65 0 -127.5 21t-119 64t-94.5 110.5t-55 160.5t1 212q17 114 56.5 208t94 157.5t122.5 106.5t139.5 63t146.5 20q82 0 150 -27t113.5 -73t71 -107.5t28.5 -131.5h-45q-4 61 -26 113.5t-60.5 93.5t-100 65t-137.5 24q-66 0 -130.5 -18t-127 -58t-113 -98.5 t-87.5 -145t-52 -192.5q-17 -113 -2.5 -199.5t48 -148t85 -101t108 -58t118.5 -18.5q138 0 244.5 60.5t172.5 181.5h48q-64 -133 -187.5 -209t-282.5 -76z" />
<glyph unicode="d" horiz-adv-x="1124" d="M456 19q56 0 111.5 17t111 55.5t101.5 95t81 140.5t50 186q16 109 5.5 193.5t-40 146t-76 101.5t-101 59t-116.5 19q-56 0 -113.5 -18t-114.5 -56.5t-104 -94t-82 -136t-48 -175.5q-18 -116 -4.5 -204t45.5 -150.5t81 -102.5t102.5 -58t110.5 -18zM452 -24 q-61 0 -120 20.5t-114.5 63.5t-92 111t-53.5 163t2 218q14 103 51 190.5t88 148t113.5 102.5t128.5 62t132 20q77 0 146 -29.5t114.5 -75t72 -98.5t26.5 -102l110 757h43l-219 -1527h-39l41 286q-19 -59 -58.5 -114t-94.5 -99t-127.5 -70.5t-149.5 -26.5z" />
<glyph unicode="e" horiz-adv-x="1024" d="M474 -30q-94 0 -174.5 37.5t-137 104t-83.5 164.5t-15 212q13 120 51 220.5t91.5 169t120.5 116.5t136.5 70t140.5 22q81 0 148 -26.5t110 -70t64 -101.5t14 -120q-4 -34 -14 -61t-32.5 -56.5t-57.5 -52.5t-92 -44.5t-131.5 -35t-180 -22t-235.5 -8.5h-88 q-9 -109 14.5 -199t73 -150.5t121 -93t158.5 -32.5q265 0 394 200l37 -24q-25 -35 -50 -63.5t-64 -59t-82.5 -50.5t-105 -33t-131.5 -13zM117 531h92q123 0 223 7.5t169 19t121 30.5t83 38t51 45.5t28.5 49t12.5 51.5q14 115 -70 194t-227 79q-57 0 -117.5 -20t-120 -62.5 t-109.5 -102t-86.5 -145t-49.5 -184.5z" />
<glyph unicode="f" horiz-adv-x="667" d="M191 0h-43l147 1011h-178l6 43h178l11 73q56 402 392 402h4l-7 -41q-139 0 -228.5 -88.5t-117.5 -272.5l-11 -73h308l-7 -43h-307z" />
<glyph unicode="g" horiz-adv-x="1100" d="M445 24q83 0 159 35t137 99.5t103.5 161.5t56.5 216q21 134 9.5 231t-56 159t-110 91.5t-151.5 29.5q-89 0 -168 -33.5t-142.5 -97t-108.5 -160.5t-63 -218q-16 -131 -1 -227.5t61 -160t115 -95t159 -31.5zM387 -462q-69 0 -129 15.5t-102.5 42.5t-71.5 55.5t-51 62.5 l33 19q20 -30 43 -53.5t61 -47.5t95.5 -37.5t130.5 -13.5q61 0 116 15t108 50t94 88.5t72.5 136t46.5 187.5l33 226q-13 -40 -36 -80t-61 -81t-84 -72t-110 -50.5t-134 -19.5q-95 0 -170.5 36t-127 104.5t-71 175.5t-1.5 241q20 134 69.5 239.5t119.5 173.5t157 103.5 t185 35.5q64 0 118 -16t90.5 -42t64.5 -61.5t44 -70t25 -73.5l32 231h44l-142 -996q-77 -524 -491 -524z" />
<glyph unicode="h" horiz-adv-x="1072" d="M60 0l219 1527h43l-107 -725q20 39 44 75t61.5 75t79 67.5t98 47.5t117.5 19q84 0 151 -35t110 -101.5t59 -163.5t-2 -222l-81 -564h-44l82 568q32 227 -43.5 351t-239.5 124q-72 0 -142 -35.5t-126.5 -97t-97.5 -150.5t-56 -192l-82 -568h-43z" />
<glyph unicode="i" horiz-adv-x="343" d="M290 1438q-15 0 -31 14t-16 31.5t16 31.5t31 14t31.5 -14t16.5 -31t-16.5 -31.5t-31.5 -14.5zM58 0l153 1058h43l-153 -1058h-43z" />
<glyph unicode="j" horiz-adv-x="390" d="M330.5 1438q-15.5 0 -31 14t-15.5 31.5t15.5 31.5t31 14t31.5 -14t16 -31.5t-16 -31.5t-31.5 -14zM-211 -392l8 43q36 -1 71 7t74.5 31.5t71 61t57.5 102t38 147.5l153 1058h44l-154 -1062q-14 -98 -45 -171t-68 -114t-83.5 -65.5t-85.5 -31.5t-81 -6z" />
<glyph unicode="k" horiz-adv-x="938" d="M49 0l220 1527h43l-154 -1075l734 606h60l-541 -456l416 -602h-42l-407 576l-230 -191l-56 -385h-43z" />
<glyph unicode="l" horiz-adv-x="349" d="M105 0h-45l219 1527h45z" />
<glyph unicode="m" horiz-adv-x="1685" d="M49 0l154 1058h42l-30 -223q13 40 45.5 83t78.5 79.5t107.5 60.5t123.5 24q60 0 110 -17.5t84 -46t58 -65.5t35 -74.5t11 -74.5q19 48 50.5 94t77.5 88.5t112 69t142 26.5q80 0 142.5 -27.5t105.5 -83.5t58 -141t-1 -200l-90 -630h-43l90 630q13 110 1.5 188t-50 127.5 t-93 72.5t-125.5 23q-141 0 -245.5 -107.5t-131.5 -295.5l-90 -638h-43l90 638q27 190 -43.5 295t-215.5 105q-58 0 -118 -25t-114 -72.5t-94.5 -126t-54.5 -174.5l-93 -640h-43z" />
<glyph unicode="n" horiz-adv-x="1063" d="M49 0l154 1058h42l-36 -239q20 52 56.5 98.5t86 83.5t114 59t134.5 22q183 0 272.5 -125.5t58.5 -336.5l-90 -620h-43l90 617q28 194 -49 307.5t-242 113.5q-69 0 -137 -28.5t-124.5 -80.5t-97.5 -133t-55 -179l-91 -617h-43z" />
<glyph unicode="o" horiz-adv-x="1094" d="M476 -17q-61 0 -122 20.5t-117.5 64.5t-96.5 106.5t-57.5 154t-2.5 198.5q19 135 67 241.5t117 174.5t154 103.5t179 35.5q91 0 168.5 -37t132.5 -105t79 -174.5t6 -236.5q-19 -138 -64 -243t-111.5 -171t-149.5 -99t-182 -33zM482 26q81 0 152.5 28.5t133.5 87 t106.5 157.5t63.5 230q17 122 -2.5 220t-68.5 160.5t-119.5 95.5t-156.5 33q-81 0 -156 -32.5t-138 -94.5t-108.5 -161t-63.5 -223q-15 -104 -0.5 -185.5t48.5 -141t84.5 -98.5t107.5 -57.5t117 -18.5z" />
<glyph unicode="p" horiz-adv-x="1124" d="M511 17q57 0 113.5 18t111.5 57.5t100.5 95.5t79.5 138t48 179q15 105 4.5 189t-40 147t-75 105t-100 63t-115.5 21q-55 0 -110.5 -17.5t-111 -57t-101 -97.5t-81.5 -144t-53 -191q-20 -131 -1 -226.5t71 -157.5t118.5 -92t141.5 -30zM-6 -468l219 1526h43l-43 -303 q21 59 60.5 115t93.5 102t126 73.5t150 27.5q67 0 128 -23t111.5 -68.5t84.5 -114t46 -159t-4 -203.5q-19 -131 -68.5 -234.5t-118.5 -167t-150 -96.5t-167 -33q-76 0 -143.5 29t-112 75t-72 98.5t-33.5 102.5l-107 -747h-43z" />
<glyph unicode="q" horiz-adv-x="1117" d="M763 -468l107 747q-19 -54 -55 -105.5t-88 -97.5t-125.5 -74t-156.5 -28q-60 0 -118.5 21.5t-110 64.5t-87 108t-50.5 153t1 198q15 108 52.5 199t88.5 156t114 110.5t130 67t137 21.5q75 0 138 -28t104 -74t65.5 -101.5t30.5 -114.5l43 303h43l-220 -1526h-43zM452 17 q72 0 144 32t134 92t108 156.5t63 215.5q18 129 2 225.5t-60.5 161.5t-108.5 97.5t-141 32.5q-56 0 -114 -19.5t-115 -61.5t-104.5 -101t-83.5 -144t-51 -185q-15 -103 -2.5 -184t43 -141t77 -99.5t99.5 -58.5t110 -19z" />
<glyph unicode="r" horiz-adv-x="715" d="M49 0l154 1058h42l-32 -227q12 36 41.5 76.5t74 79.5t109 64.5t134.5 25.5q119 0 179 -39l-7 -43q-50 39 -174 39q-64 0 -126.5 -26.5t-115.5 -75.5t-91.5 -126t-51.5 -172l-93 -634h-43z" />
<glyph unicode="s" horiz-adv-x="921" d="M363 -26q-109 0 -209 46.5t-169 131.5l39 22q70 -80 150 -118.5t196 -38.5q162 0 264.5 72t118.5 190q20 129 -52.5 191.5t-253.5 62.5q-92 0 -161.5 22t-108.5 61t-54.5 90t-5.5 111q9 58 38 106t79.5 86.5t130.5 59.5t183 21q61 0 116.5 -15t94 -38t63.5 -44.5 t38 -40.5l-39 -23q-3 5 -10 13t-31.5 28t-54 35.5t-79 28.5t-104.5 13q-168 0 -268 -64t-114 -164q-8 -53 2 -94.5t41 -76t94.5 -53.5t156.5 -19q185 0 274 -77.5t68 -219.5q-19 -142 -130.5 -223.5t-302.5 -81.5z" />
<glyph unicode="t" horiz-adv-x="646" d="M468 -10q-82 -6 -148 26t-99.5 93t-23.5 136l113 764h-191l4 42h191l56 387h43l-56 -387h260l-4 -42h-260l-110 -749q-16 -110 48.5 -172.5t184.5 -54.5z" />
<glyph unicode="u" horiz-adv-x="1046" d="M415 -19q-175 0 -260.5 128.5t-51.5 352.5q5 38 14 100t27.5 193.5t31 218t11.5 84.5h43l-84 -596q-31 -206 40 -322t235 -116q156 0 273.5 122t144.5 316l84 596h43l-149 -1058h-43l37 265q-14 -40 -35 -76.5t-55.5 -75.5t-76.5 -67.5t-101.5 -46.5t-127.5 -18z" />
<glyph unicode="v" horiz-adv-x="923" d="M361 0l-271 1058h48l249 -974l512 974h51l-556 -1058h-33z" />
<glyph unicode="w" horiz-adv-x="1348" d="M248 0l-154 1058h46l139 -976l418 976h56l163 -964l404 964h50l-445 -1058h-39l-168 987l-428 -987h-42z" />
<glyph unicode="x" horiz-adv-x="902" d="M-47 0l470 542l-277 516h47l261 -486l410 486h52l-436 -525l290 -533h-48l-277 503l-437 -503h-55z" />
<glyph unicode="y" horiz-adv-x="960" d="M-60 -361l11 45q38 -13 77 -13t79.5 13.5t80.5 48t72 86.5l103 194l-273 1045h48l258 -994l540 994h51l-684 -1253q-42 -68 -89 -109.5t-94.5 -55.5t-90 -14t-89.5 13z" />
<glyph unicode="z" horiz-adv-x="907" d="M-26 0l5 37l840 978h-690l6 43h755l-4 -28l-847 -987h720l-6 -43h-779z" />
<glyph unicode="{" horiz-adv-x="657" d="M462 -88h-13q-44 0 -87.5 19t-76.5 52t-50 82t-9 105q0 6 25.5 186t25.5 182q16 107 -30 149t-169 42l6 41q117 0 183 57.5t79 155.5l52 348q16 118 95.5 191.5t198.5 73.5h14l-7 -43q-103 0 -174 -61t-84 -161l-54 -350q-12 -101 -68 -163t-128 -67q29 -2 54 -14.5 t45.5 -36.5t29 -66t0.5 -96l-51 -368q-14 -98 43.5 -158.5t153.5 -60.5z" />
<glyph unicode="|" horiz-adv-x="351" d="M15 -324l301 2085h43l-301 -2085h-43z" />
<glyph unicode="}" horiz-adv-x="657" d="M228 1600h12q45 0 88.5 -19t76.5 -52t50 -82t9 -105q0 -6 -25.5 -186t-25.5 -182q-16 -107 30.5 -149.5t169.5 -42.5l-6 -40q-117 0 -183 -57.5t-80 -155.5l-51 -348q-16 -118 -96 -191.5t-199 -73.5h-13l7 43q103 0 174 61t84 161l53 350q13 102 68.5 163.5t127.5 66.5 q-29 2 -54 14.5t-45.5 36.5t-29 66t-0.5 96l51 368q14 98 -43.5 158.5t-153.5 60.5z" />
<glyph unicode="~" horiz-adv-x="1110" d="M207 604l-37 20q15 30 32.5 54t44 46t65.5 34t88 12q37 0 72 -13.5t63.5 -33l57 -39t62 -33t67.5 -13.5q61 0 116 37.5t76 85.5l40 -10q-28 -70 -95.5 -113t-144.5 -43q-37 0 -73 14t-65 33.5t-57.5 39t-62 33.5t-66.5 14q-124 0 -183 -125z" />
<glyph unicode="&#xa1;" horiz-adv-x="353" d="M256.5 1250q16.5 0 31.5 -13.5t15 -34.5t-16.5 -35t-32.5 -14t-30.5 14t-14.5 35t15.5 34.5t32 13.5zM236 901l-84 -570l-86 -615h-42l85 615l84 570h43z" />
<glyph unicode="&#xa2;" horiz-adv-x="1167" d="M158 536q-14 -91 -7 -165t27 -130.5t54.5 -98.5t75 -69t88.5 -43l341 1011q-31 6 -70 6q-66 0 -130.5 -18t-127 -58t-113 -98t-87.5 -145t-51 -192zM509 -33q-45 0 -86 9l-68 -204h-47l72 218q-52 17 -96.5 47t-83 76.5t-61.5 107.5t-31.5 140t6.5 175q17 114 56.5 207.5 t94 157t122.5 107t139.5 63t146.5 19.5q40 0 80 -6l60 178h47l-64 -189q110 -33 173 -120t67 -202h-45q-6 100 -59.5 176t-149.5 105l-343 -1015q36 -7 74 -7q138 0 245 60.5t173 181.5h48q-64 -133 -187.5 -209t-282.5 -76z" />
<glyph unicode="&#xa3;" horiz-adv-x="1089" d="M43 0l11 43q176 154 241 242t83 199q5 34 7 64.5t0 56.5t-3.5 45t-7.5 40t-8.5 29.5t-9.5 26.5t-7 19h-197l12 43h171q-59 184 -34 368q11 76 47.5 146t95 126.5t144.5 90t186 33.5q87 0 164.5 -36.5t110.5 -80.5l-6 -47q-50 61 -116 91t-159 30q-85 0 -161 -30.5 t-129.5 -81t-88.5 -114t-45 -129.5q-13 -109 -2 -204t38 -159h433l-11 -43h-408q1 -6 8.5 -29.5t12.5 -44.5t10 -53t4 -72t-8 -85q-14 -114 -87 -216t-225 -225h833l-11 -43h-888z" />
<glyph unicode="&#xa5;" horiz-adv-x="1303" d="M1073 281h-449l-41 -281h-43l41 281h-417l10 48h413l43 280h-406l10 47h379l-381 871h49l375 -862l610 862h54l-619 -871h443l-11 -47h-460l-43 -280h454z" />
<glyph unicode="&#xa6;" horiz-adv-x="349" d="M183 841l127 890h43l-127 -890h-43zM21 -277l123 862h43l-123 -862h-43z" />
<glyph unicode="&#xa7;" horiz-adv-x="1014" d="M533 6h-176q-29 0 -50.5 13.5t-30 37t-5.5 52t23.5 61t56.5 60.5q156 131 213 181q-32 -7 -63 -7q-95 0 -174 50t-121.5 132.5t-37.5 176.5q6 87 52 165t118 128v2l302 256q35 26 52 60t6 59t-51 25h-181l14 44h176q29 0 50.5 -14t29.5 -37t5 -51.5t-23.5 -61 t-54.5 -60.5q-45 -34 -192 -162q33 9 75 9q97 0 177 -51t121.5 -134t35.5 -177q-5 -99 -63 -184.5t-148 -131.5l-297 -254q-35 -26 -51.5 -60t-6 -59t50.5 -25h181zM505 447q85 0 160.5 45t121.5 117.5t50 153.5q5 81 -31 154t-106.5 119t-155.5 46t-160.5 -45t-121.5 -118 t-51 -156q-4 -81 32.5 -153.5t106 -117.5t155.5 -45z" />
<glyph unicode="&#xa8;" horiz-adv-x="603" d="M615 1374q-15 0 -30.5 14.5t-14.5 31.5q0 17 16 31t31.5 14t31.5 -14t16 -31q-2 -18 -18.5 -32t-31.5 -14zM176 1374q-15 0 -30.5 14.5t-14.5 31.5q0 17 16 31t31.5 14t31.5 -14t16 -31q-2 -18 -18.5 -32t-31.5 -14z" />
<glyph unicode="&#xa9;" horiz-adv-x="1904" d="M966 -26q-154 0 -295 60.5t-245 165t-166.5 253t-62.5 315.5q0 107 29 209.5t79.5 188t122.5 157t157 121.5t184 77.5t201 27.5t200 -27t183 -75.5t157 -119.5t123 -156t80 -189t29 -214q0 -113 -29 -218t-81 -192t-124.5 -159t-158 -121.5t-183.5 -76.5t-200 -27z M966 17q148 0 282.5 57t233.5 155.5t158 239t59 299.5t-58.5 297.5t-157.5 234.5t-232.5 151t-280.5 55q-145 0 -279.5 -57.5t-233.5 -155.5t-158 -235.5t-59 -289.5q0 -130 38.5 -247.5t107 -208t159 -158t199 -102.5t222.5 -35zM976 394q-63 0 -122.5 26.5t-105 73.5 t-72.5 118.5t-27 155.5q0 100 43.5 185.5t117.5 134.5t162 49q119 0 200.5 -65.5t93.5 -172.5h-43q-16 92 -80.5 143.5t-170.5 51.5q-115 0 -197.5 -92.5t-82.5 -233.5q0 -79 23.5 -142.5t63.5 -104.5t90.5 -62.5t106.5 -21.5q49 0 93 18t74.5 47.5t51 64.5t28.5 71h43 q-9 -45 -32.5 -87.5t-59 -78t-87.5 -57t-111 -21.5z" />
<glyph unicode="&#xaa;" horiz-adv-x="803" d="M372 697q79 0 150 37t112 79l31 207q-22 27 -81 40t-113 13q-110 0 -181 -49.5t-83 -137.5t36.5 -138.5t128.5 -50.5zM365 654q-38 0 -76.5 15.5t-69 43t-47 68.5t-10.5 87q1 3 2 14.5t2 14.5q14 100 97 159.5t215 59.5q122 0 193 -49l15 105q18 117 -20.5 175.5 t-146.5 58.5q-130 0 -231 -83l-26 34q8 4 36 21.5t45 26t46.5 21t63.5 18t74 5.5q111 0 166.5 -70t35.5 -207l-73 -512h-43l15 103q-6 -12 -26.5 -29t-52.5 -35.5t-81 -31.5t-103 -13zM109 376l8 43h539l-7 -43h-540z" />
<glyph unicode="&#xab;" horiz-adv-x="893" d="M286 306l-187 275l4 34l303 308l31 -35l-295 -291l180 -264zM671 306l-187 275l4 34l304 308l29 -35l-294 -291l181 -264z" />
<glyph unicode="&#xad;" horiz-adv-x="769" d="M80 521l6 43h577l-7 -43h-576z" />
<glyph unicode="&#xae;" horiz-adv-x="1295" d="M699 544q-101 0 -191 36.5t-155.5 101.5t-103 160.5t-36.5 206.5q1 107 43.5 201.5t111.5 158.5t158.5 101t183.5 37q70 0 140.5 -23t133 -67.5t111 -104.5t76.5 -138.5t27 -164.5q-2 -147 -68.5 -263t-179.5 -179t-251 -63zM701 587q127 0 230 57.5t163 163.5t61 241 q1 80 -25 153t-70 127t-101.5 94t-121.5 60.5t-127 20.5q-84 0 -165 -34.5t-145 -93.5t-103.5 -145t-40.5 -182q-1 -102 34.5 -189.5t96 -146.5t142 -92.5t172.5 -33.5zM609 1032h99q119 0 119 90q0 19 -1 30.5t-8.5 27t-22 24.5t-41.5 15t-66 6h-79v-193zM568 825v443h122 q55 0 92 -12t55.5 -34t25.5 -45.5t7 -54.5q0 -39 -23.5 -77t-56.5 -47l90 -173h-47l-91 164h-133v-164h-41z" />
<glyph unicode="&#xaf;" horiz-adv-x="905" d="M215 1316l7 43h646l-6 -43h-647z" />
<glyph unicode="&#xb0;" horiz-adv-x="887" d="M509 833q-94 0 -174.5 49.5t-125.5 132t-43 177.5q2 93 52 176.5t133.5 134t177.5 50.5q97 0 179 -50.5t127 -134t43 -176.5q-2 -70 -32 -136t-79 -115t-117 -78.5t-141 -29.5zM513 876q85 0 159 44.5t117.5 117.5t45.5 154q2 80 -36.5 153t-110 119t-157.5 46 q-85 0 -159 -45t-117.5 -118t-45.5 -155t37 -154.5t110.5 -117t156.5 -44.5z" />
<glyph unicode="&#xb1;" horiz-adv-x="1132" d="M921 245h-788l7 41h363l56 385h-385l7 43h385l54 378h43l-54 -378h384l-6 -43h-385l-56 -385h379z" />
<glyph unicode="&#xb4;" horiz-adv-x="326" d="M142 1266l243 269l32 -33l-217 -236h-58z" />
<glyph unicode="&#xb6;" horiz-adv-x="936" d="M630 6l217 1527h43l-217 -1527h-43zM400 0l103 718h-11q-33 0 -77.5 20t-90.5 59t-82.5 89t-55 118.5t-8.5 139.5q28 186 148 284.5t304 98.5h33l-220 -1527h-43z" />
<glyph unicode="&#xb7;" horiz-adv-x="347" d="M182.5 660q-16.5 0 -30.5 11.5t-14 32.5t14 33t30.5 12t31 -12t14.5 -33t-14.5 -32.5t-31 -11.5z" />
<glyph unicode="&#xb8;" horiz-adv-x="1590" d="M690 15h47l-42 -120q107 -5 153.5 -46.5t46.5 -115.5q0 -83 -59 -128.5t-146 -45.5q-46 0 -88 10.5t-64 22.5l6 43q26 -12 69.5 -22.5t83.5 -10.5q61 0 106.5 35.5t45.5 91.5q0 62 -42 94.5t-147 32.5h-24z" />
<glyph unicode="&#xba;" horiz-adv-x="893" d="M468 679q-66 0 -121.5 26t-95.5 74t-57 124t-5 170q12 91 45.5 164t81 120.5t105.5 72.5t121 25t119 -25.5t97 -72t60 -120.5t7 -164q-49 -394 -357 -394zM476 722q128 0 205.5 89.5t100.5 261.5q11 80 -4.5 146t-51 107.5t-84.5 64t-106 22.5q-114 0 -198.5 -89 t-105.5 -249q-22 -165 48 -259t196 -94zM150 376l8 43h560l-6 -43h-562z" />
<glyph unicode="&#xbb;" horiz-adv-x="893" d="M600 923l188 -276l-6 -34l-302 -307l-31 34l295 290l-180 265zM215 923l187 -276l-4 -34l-304 -307l-30 34l295 290l-181 265z" />
<glyph unicode="&#xbf;" horiz-adv-x="979" d="M570 901q17 0 28.5 -10t10.5 -31q0 -21 -11.5 -33t-27 -12t-27.5 12t-12 33q3 41 39 41zM568 564q-40 -278 -301 -488q-246 -196 -265 -330q-11 -75 9 -142t63.5 -114.5t108 -75t139.5 -27.5q162 0 269 84.5t151 225.5l40 -7q-45 -158 -166 -252t-302 -94q-110 0 -197 54 t-130 147t-28 201q7 49 31 96.5t67 95.5t83 84t103 87q241 196 282 455h43z" />
<glyph unicode="&#xc0;" horiz-adv-x="1291" d="M852 1671l-108 262l46 13l111 -275h-49zM267 503h744l-235 976zM-47 0l800 1527h58l365 -1527h-45l-109 460h-779l-241 -460h-49z" />
<glyph unicode="&#xc1;" horiz-adv-x="1309" d="M802 1660l243 269l32 -35l-217 -234h-58zM267 503h744l-235 976zM-47 0l800 1527h58l365 -1527h-45l-109 460h-779l-241 -460h-49z" />
<glyph unicode="&#xc2;" horiz-adv-x="1291" d="M566 1613l-28 30l244 220h37l187 -229l-36 -28l-174 214zM267 503h744l-235 976zM-47 0l800 1527h58l365 -1527h-45l-109 460h-779l-241 -460h-49z" />
<glyph unicode="&#xc3;" horiz-adv-x="1291" d="M985 1682q-39 0 -71.5 14t-56 34.5t-46.5 40.5t-52.5 34.5t-63.5 14.5q-39 0 -87 -37t-72 -84q-1 -1 -11 3t-19 9l-9 5q29 59 85.5 102t121.5 43q39 0 71 -14.5t55 -34.5t45.5 -40t52.5 -34t65 -14q54 0 99.5 35t66.5 84l43 -9q-32 -72 -89.5 -112t-127.5 -40zM267 503 h744l-235 976zM-47 0l800 1527h58l365 -1527h-45l-109 460h-779l-241 -460h-49z" />
<glyph unicode="&#xc4;" horiz-adv-x="1291" d="M1049 1738q-15 0 -31 14t-14 31q0 17 16 31t31 14t31.5 -14t16.5 -31q-1 -17 -18 -31t-32 -14zM611 1738q-15 0 -31 14t-14 31q0 17 16 31t31 14t31 -14t16 -31q-1 -17 -17.5 -31t-31.5 -14zM267 503h744l-235 976zM-47 0l800 1527h58l365 -1527h-45l-109 460h-779 l-241 -460h-49z" />
<glyph unicode="&#xc5;" horiz-adv-x="1291" d="M827 1529q54 0 88 34.5t35 83.5q0 53 -34 91.5t-85 38.5q-49 0 -86 -38.5t-37 -91.5q-2 -47 32.5 -82.5t86.5 -35.5zM267 503h744l-235 976zM243 460l-241 -460h-49l791 1508q-37 21 -59 59t-20 83q0 69 49.5 119.5t116.5 50.5t114.5 -50.5t47.5 -122.5 q-1 -68 -48 -114.5t-118 -46.5h-6l355 -1486h-45l-109 460h-779z" />
<glyph unicode="&#xc6;" horiz-adv-x="1910" d="M385 484h649l168 983zM-78 0l1272 1527h881l-7 -43h-821l-118 -684h671l-4 -43h-671l-123 -714h830l-8 -43h-874l76 441h-677l-368 -441h-59z" />
<glyph unicode="&#xc7;" horiz-adv-x="1367" d="M626 -471q-46 0 -88 10.5t-64 21.5l6 43q27 -12 69.5 -22t82.5 -10q61 0 107 35.5t46 91.5q0 61 -42.5 94t-147.5 33h-23l54 157q-65 4 -125 20.5t-118.5 47.5t-105.5 77t-86 109.5t-60 145t-26.5 183t14.5 224.5q24 166 76.5 298t120 216.5t151.5 140.5t168 79t173 23 q142 0 255.5 -55t184 -162t79.5 -251h-43q-20 199 -146.5 311t-333.5 112q-82 0 -159 -21.5t-155.5 -74t-141 -131.5t-112 -203.5t-72.5 -281.5q-15 -110 -15.5 -201t17 -165.5t44 -133t66 -103t84.5 -75.5t98.5 -50.5t108 -28.5t112.5 -9q117 0 224.5 53.5t184.5 143 t118 202.5h46q-35 -91 -89.5 -169.5t-126.5 -140.5t-166 -97t-199 -35l-41 -116q107 -5 154 -46.5t47 -115.5q0 -84 -59 -129t-146 -45z" />
<glyph unicode="&#xc8;" d="M794 1712l-108 262l45 13l112 -275h-49zM60 0l219 1527h948l-4 -43h-905l-99 -690h697l-9 -43h-696l-102 -708h923l-6 -43h-966z" />
<glyph unicode="&#xc9;" d="M660 1707l243 269l33 -35l-218 -234h-58zM60 0l219 1527h948l-4 -43h-905l-99 -690h697l-9 -43h-696l-102 -708h923l-6 -43h-966z" />
<glyph unicode="&#xca;" d="M540 1714l-29 30l246 220h37l187 -228l-37 -29l-174 213zM60 0l219 1527h948l-4 -43h-905l-99 -690h697l-9 -43h-696l-102 -708h923l-6 -43h-966z" />
<glyph unicode="&#xcb;" d="M993 1789q-15 0 -30.5 14t-14.5 31q0 18 16 32t31.5 14t31.5 -14t16 -32q-2 -17 -18.5 -31t-31.5 -14zM554 1789q-15 0 -30.5 14t-14.5 31q0 18 16 32t31.5 14t31.5 -14t16 -32q-2 -17 -18.5 -31t-31.5 -14zM60 0l219 1527h948l-4 -43h-905l-99 -690h697l-9 -43h-696 l-102 -708h923l-6 -43h-966z" />
<glyph unicode="&#xcc;" horiz-adv-x="347" d="M297 1639l-78 195l33 13l90 -208h-45zM60 0l219 1527h43l-219 -1527h-43z" />
<glyph unicode="&#xcd;" horiz-adv-x="347" d="M277 1639l127 202l37 -29l-112 -173h-52zM60 0l219 1527h43l-219 -1527h-43z" />
<glyph unicode="&#xce;" horiz-adv-x="347" d="M162 1602l-24 35l176 150h37l123 -153l-37 -25l-108 135zM60 0l219 1527h43l-219 -1527h-43z" />
<glyph unicode="&#xcf;" horiz-adv-x="347" d="M240 1734q-15 0 -31 14t-16 31q-1 17 12.5 31t28.5 14t31.5 -14t18.5 -31q0 -18 -14.5 -31.5t-29.5 -13.5zM435 1731q-16 0 -32 14t-16 32q-1 17 12.5 31t28.5 14t31.5 -14t18.5 -31q0 -18 -14 -32t-29 -14zM60 2l219 1527h43l-219 -1527h-43z" />
<glyph unicode="&#xd0;" horiz-adv-x="1442" d="M620 0h-435l108 749h-153l6 43h153l105 735h435q136 0 243 -50t181.5 -152.5t99.5 -259t-4 -370.5q-52 -358 -235 -526.5t-504 -168.5zM234 43h392q300 0 470 160t220 492q26 169 13.5 298.5t-51 222.5t-106.5 152.5t-151.5 87.5t-185.5 28h-392l-101 -692h546l-6 -43 h-547z" />
<glyph unicode="&#xd1;" horiz-adv-x="1379" d="M993 1652q-38 0 -71 14t-56.5 34t-46.5 40.5t-52.5 34.5t-62.5 14q-40 0 -87.5 -36.5t-72.5 -84.5q-1 0 -10.5 4t-19.5 9l-9 5q30 60 86.5 102t120.5 42q39 0 71.5 -14t55.5 -34t45 -39.5t52 -33.5t66 -14q53 0 98.5 34.5t67.5 82.5l43 -8q-32 -72 -90 -112t-128 -40z M60 0l219 1527h54l768 -1476l210 1476h43l-219 -1527h-58l-761 1469l-213 -1469h-43z" />
<glyph unicode="&#xd2;" horiz-adv-x="1377" d="M895 1693l-107 262l45 13l111 -275h-49zM636 -13q-65 0 -126.5 13t-121.5 41t-108.5 72t-88.5 105.5t-62 141.5t-28 181.5t13 223.5q28 201 87 350.5t145 242.5t194 138t240 45q93 0 177 -28t158 -88t121 -153t66.5 -222.5t-5.5 -296.5q-24 -165 -67 -293t-102 -216 t-135.5 -145.5t-164 -83.5t-192.5 -28zM640 30q95 2 175.5 26.5t152.5 79t127.5 138t97.5 206.5t65 281q17 132 9 238t-40.5 188t-80 140.5t-109.5 96.5t-128.5 56t-136.5 18q-118 0 -216 -41.5t-178 -128t-136 -226.5t-84 -328q-19 -120 -14.5 -217.5t24 -175t56 -136 t81.5 -100t100.5 -67.5t114 -37t120.5 -11z" />
<glyph unicode="&#xd3;" horiz-adv-x="1377" d="M742 1673l243 268l32 -33l-217 -235h-58zM636 -13q-65 0 -126.5 13t-121.5 41t-108.5 72t-88.5 105.5t-62 141.5t-28 181.5t13 223.5q28 201 87 350.5t145 242.5t194 138t240 45q93 0 177 -28t158 -88t121 -153t66.5 -222.5t-5.5 -296.5q-24 -165 -67 -293t-102 -216 t-135.5 -145.5t-164 -83.5t-192.5 -28zM640 30q95 2 175.5 26.5t152.5 79t127.5 138t97.5 206.5t65 281q17 132 9 238t-40.5 188t-80 140.5t-109.5 96.5t-128.5 56t-136.5 18q-118 0 -216 -41.5t-178 -128t-136 -226.5t-84 -328q-19 -120 -14.5 -217.5t24 -175t56 -136 t81.5 -100t100.5 -67.5t114 -37t120.5 -11z" />
<glyph unicode="&#xd4;" horiz-adv-x="1377" d="M640 1686l-27 30l245 219h37l187 -228l-37 -28l-175 213zM636 -13q-65 0 -126.5 13t-121.5 41t-108.5 72t-88.5 105.5t-62 141.5t-28 181.5t13 223.5q28 201 87 350.5t145 242.5t194 138t240 45q93 0 177 -28t158 -88t121 -153t66.5 -222.5t-5.5 -296.5 q-24 -165 -67 -293t-102 -216t-135.5 -145.5t-164 -83.5t-192.5 -28zM640 30q95 2 175.5 26.5t152.5 79t127.5 138t97.5 206.5t65 281q17 132 9 238t-40.5 188t-80 140.5t-109.5 96.5t-128.5 56t-136.5 18q-118 0 -216 -41.5t-178 -128t-136 -226.5t-84 -328 q-19 -120 -14.5 -217.5t24 -175t56 -136t81.5 -100t100.5 -67.5t114 -37t120.5 -11z" />
<glyph unicode="&#xd5;" horiz-adv-x="1377" d="M991 1688q-38 0 -71 14.5t-56.5 34.5t-46.5 40.5t-52.5 34.5t-63.5 14q-39 0 -86.5 -36.5t-72.5 -84.5q-1 -1 -11 3.5t-19 8.5l-9 5q30 60 86.5 102.5t120.5 42.5q39 0 71.5 -14t55.5 -34t45 -40t52 -34t66 -14q53 0 98.5 35t67.5 83l43 -8q-33 -72 -90.5 -112.5 t-127.5 -40.5zM636 -13q-65 0 -126.5 13t-121.5 41t-108.5 72t-88.5 105.5t-62 141.5t-28 181.5t13 223.5q28 201 87 350.5t145 242.5t194 138t240 45q93 0 177 -28t158 -88t121 -153t66.5 -222.5t-5.5 -296.5q-24 -165 -67 -293t-102 -216t-135.5 -145.5t-164 -83.5 t-192.5 -28zM640 30q95 2 175.5 26.5t152.5 79t127.5 138t97.5 206.5t65 281q17 132 9 238t-40.5 188t-80 140.5t-109.5 96.5t-128.5 56t-136.5 18q-118 0 -216 -41.5t-178 -128t-136 -226.5t-84 -328q-19 -120 -14.5 -217.5t24 -175t56 -136t81.5 -100t100.5 -67.5t114 -37 t120.5 -11z" />
<glyph unicode="&#xd6;" horiz-adv-x="1377" d="M1060 1697q-15 0 -30.5 14t-14.5 31q0 17 16 31t31.5 14t31.5 -14t16 -31q-2 -17 -18 -31t-32 -14zM622 1697q-16 0 -31.5 14t-14.5 31q0 17 16 31t31.5 14t31.5 -14t16 -31q-2 -17 -18 -31t-31 -14zM636 -13q-65 0 -126.5 13t-121.5 41t-108.5 72t-88.5 105.5t-62 141.5 t-28 181.5t13 223.5q28 201 87 350.5t145 242.5t194 138t240 45q93 0 177 -28t158 -88t121 -153t66.5 -222.5t-5.5 -296.5q-24 -165 -67 -293t-102 -216t-135.5 -145.5t-164 -83.5t-192.5 -28zM640 30q95 2 175.5 26.5t152.5 79t127.5 138t97.5 206.5t65 281q17 132 9 238 t-40.5 188t-80 140.5t-109.5 96.5t-128.5 56t-136.5 18q-118 0 -216 -41.5t-178 -128t-136 -226.5t-84 -328q-19 -120 -14.5 -217.5t24 -175t56 -136t81.5 -100t100.5 -67.5t114 -37t120.5 -11z" />
<glyph unicode="&#xd7;" horiz-adv-x="1270" d="M99 269l521 445l-390 452l32 24l387 -450l512 450l31 -35l-517 -449l381 -444l-30 -30l-381 447l-518 -445z" />
<glyph unicode="&#xd8;" horiz-adv-x="1377" d="M158 774q-54 -355 80 -555l891 1129q-71 75 -164 112.5t-193 37.5q-118 0 -216 -41.5t-178 -128t-136 -226.5t-84 -328zM1258 761q51 357 -103 555l-888 -1131q68 -80 165.5 -118t207.5 -37q95 2 175.5 26.5t152.5 79t127.5 138t97.5 206.5t65 281zM636 -13 q-114 0 -218 41t-178 124l-154 -195l-32 26l159 202q-152 210 -99 580q28 201 87 350.5t145 242.5t194 138t240 45q108 0 206 -39t171 -117l131 168l30 -31l-134 -170q167 -214 113 -599q-24 -165 -67 -293t-102 -216t-135.5 -145.5t-164 -83.5t-192.5 -28z" />
<glyph unicode="&#xd9;" horiz-adv-x="1281" d="M852 1645l-108 263l46 12l111 -275h-49zM540 -26q-227 0 -336.5 171t-68.5 470l130 912h43l-132 -916q-40 -279 59 -436.5t311 -157.5q229 0 367 154.5t179 439.5l131 916h43l-129 -912q-43 -308 -192.5 -474.5t-404.5 -166.5z" />
<glyph unicode="&#xda;" horiz-adv-x="1281" d="M669 1650l242 268l33 -34l-217 -234h-58zM540 -26q-227 0 -336.5 171t-68.5 470l130 912h43l-132 -916q-40 -279 59 -436.5t311 -157.5q229 0 367 154.5t179 439.5l131 916h43l-129 -912q-43 -308 -192.5 -474.5t-404.5 -166.5z" />
<glyph unicode="&#xdb;" horiz-adv-x="1281" d="M566 1650l-28 29l244 219h37l187 -227l-36 -28l-174 212zM540 -26q-227 0 -336.5 171t-68.5 470l130 912h43l-132 -916q-40 -279 59 -436.5t311 -157.5q229 0 367 154.5t179 439.5l131 916h43l-129 -912q-43 -308 -192.5 -474.5t-404.5 -166.5z" />
<glyph unicode="&#xdc;" horiz-adv-x="1281" d="M1022 1705q-16 0 -31.5 14t-14.5 31q0 18 16 32t31.5 14t31.5 -14t16 -32q-2 -17 -18 -31t-31 -14zM583 1705q-16 0 -31.5 14t-13.5 31q0 18 16 32t31 14t31 -14t16 -32q-1 -17 -17.5 -31t-31.5 -14zM540 -26q-227 0 -336.5 171t-68.5 470l130 912h43l-132 -916 q-40 -279 59 -436.5t311 -157.5q229 0 367 154.5t179 439.5l131 916h43l-129 -912q-43 -308 -192.5 -474.5t-404.5 -166.5z" />
<glyph unicode="&#xdd;" horiz-adv-x="1130" d="M587 1634l244 269l31 -34l-217 -235h-58zM454 0l90 615l-398 912h49l375 -862l610 862h55l-648 -912l-90 -615h-43z" />
<glyph unicode="&#xde;" horiz-adv-x="1190" d="M279 1514h39l-51 -359h443q97 0 177.5 -35t132 -93.5t75 -138t11.5 -166.5q-27 -183 -162 -294.5t-344 -111.5h-456l-45 -314h-39zM260 1112l-110 -753h454q183 0 309 101.5t150 259.5q16 112 -22 200.5t-126 140t-211 51.5h-444z" />
<glyph unicode="&#xdf;" horiz-adv-x="1046" d="M60 0l153 1058q16 109 77.5 194.5t147.5 130.5t179 45q61 0 115 -17t91.5 -45.5t63 -56.5t42.5 -57l-327 -441q83 -13 151.5 -50t115.5 -92.5t67.5 -132t7.5 -164.5q-24 -171 -154.5 -275.5t-342.5 -104.5h-71l7 43h66q191 0 310.5 92.5t141.5 244.5q12 79 -7.5 150 t-62.5 121.5t-105.5 82.5t-134.5 39q-34 4 -39.5 19.5t18.5 52.5l300 413q-9 18 -29 39.5t-51 43.5t-78 37t-99 15q-58 0 -116.5 -22.5t-108 -62.5t-85.5 -102.5t-47 -137.5l-153 -1060h-43z" />
<glyph unicode="&#xe0;" horiz-adv-x="1077" d="M686 1311l-107 263l45 13l111 -276h-49zM430 19q79 0 148.5 29t130 89.5t103.5 163t61 239.5q13 102 3 181.5t-37 138.5t-69 97t-90.5 56.5t-103.5 18.5q-56 0 -113.5 -18t-114 -57.5t-103 -96t-81.5 -139.5t-50 -181q-17 -113 -5 -199t41 -147t75 -100t97.5 -57 t107.5 -18zM423 -24q-61 0 -117.5 20t-108 62.5t-84 109t-46.5 159t4 213.5q15 105 52 194.5t87.5 151.5t112.5 105t127.5 63.5t132.5 20.5q69 0 131 -28.5t103 -73.5t65.5 -98.5t26.5 -104.5l39 275h45l-152 -1045h-41l41 284q-10 -54 -45 -108.5t-88.5 -99t-128.5 -72.5 t-156 -28z" />
<glyph unicode="&#xe1;" horiz-adv-x="1077" d="M513 1307l244 269l33 -35l-218 -234h-59zM430 19q79 0 148.5 29t130 89.5t103.5 163t61 239.5q13 102 3 181.5t-37 138.5t-69 97t-90.5 56.5t-103.5 18.5q-56 0 -113.5 -18t-114 -57.5t-103 -96t-81.5 -139.5t-50 -181q-17 -113 -5 -199t41 -147t75 -100t97.5 -57 t107.5 -18zM423 -24q-61 0 -117.5 20t-108 62.5t-84 109t-46.5 159t4 213.5q15 105 52 194.5t87.5 151.5t112.5 105t127.5 63.5t132.5 20.5q69 0 131 -28.5t103 -73.5t65.5 -98.5t26.5 -104.5l39 275h45l-152 -1045h-41l41 284q-10 -54 -45 -108.5t-88.5 -99t-128.5 -72.5 t-156 -28z" />
<glyph unicode="&#xe2;" horiz-adv-x="1077" d="M413 1336l-28 29l245 219h37l187 -227l-37 -28l-174 212zM430 19q79 0 148.5 29t130 89.5t103.5 163t61 239.5q13 102 3 181.5t-37 138.5t-69 97t-90.5 56.5t-103.5 18.5q-56 0 -113.5 -18t-114 -57.5t-103 -96t-81.5 -139.5t-50 -181q-17 -113 -5 -199t41 -147t75 -100 t97.5 -57t107.5 -18zM423 -24q-61 0 -117.5 20t-108 62.5t-84 109t-46.5 159t4 213.5q15 105 52 194.5t87.5 151.5t112.5 105t127.5 63.5t132.5 20.5q69 0 131 -28.5t103 -73.5t65.5 -98.5t26.5 -104.5l39 275h45l-152 -1045h-41l41 284q-10 -54 -45 -108.5t-88.5 -99 t-128.5 -72.5t-156 -28z" />
<glyph unicode="&#xe3;" horiz-adv-x="1077" d="M802 1363q-38 0 -71 14t-57 34.5t-47 41t-52.5 35t-63.5 14.5q-39 0 -86 -37t-72 -84q-1 -1 -11 3t-19 9l-9 5q30 59 86.5 101t120.5 42q39 0 71.5 -14t55.5 -33.5t45 -39.5t52 -34t66 -14q53 0 98.5 35t66.5 84l44 -9q-33 -72 -90.5 -112.5t-127.5 -40.5zM430 19 q79 0 148.5 29t130 89.5t103.5 163t61 239.5q13 102 3 181.5t-37 138.5t-69 97t-90.5 56.5t-103.5 18.5q-56 0 -113.5 -18t-114 -57.5t-103 -96t-81.5 -139.5t-50 -181q-17 -113 -5 -199t41 -147t75 -100t97.5 -57t107.5 -18zM423 -24q-61 0 -117.5 20t-108 62.5t-84 109 t-46.5 159t4 213.5q15 105 52 194.5t87.5 151.5t112.5 105t127.5 63.5t132.5 20.5q69 0 131 -28.5t103 -73.5t65.5 -98.5t26.5 -104.5l39 275h45l-152 -1045h-41l41 284q-10 -54 -45 -108.5t-88.5 -99t-128.5 -72.5t-156 -28z" />
<glyph unicode="&#xe4;" horiz-adv-x="1077" d="M864 1415q-15 0 -30.5 14t-14.5 32q0 17 16 31t31.5 14t31.5 -14t16 -31q-2 -18 -18.5 -32t-31.5 -14zM426 1415q-15 0 -31 14.5t-15 31.5q0 17 16.5 31t32 14t31.5 -14t16 -31q-2 -18 -18.5 -32t-31.5 -14zM430 19q79 0 148.5 29t130 89.5t103.5 163t61 239.5 q13 102 3 181.5t-37 138.5t-69 97t-90.5 56.5t-103.5 18.5q-56 0 -113.5 -18t-114 -57.5t-103 -96t-81.5 -139.5t-50 -181q-17 -113 -5 -199t41 -147t75 -100t97.5 -57t107.5 -18zM423 -24q-61 0 -117.5 20t-108 62.5t-84 109t-46.5 159t4 213.5q15 105 52 194.5t87.5 151.5 t112.5 105t127.5 63.5t132.5 20.5q69 0 131 -28.5t103 -73.5t65.5 -98.5t26.5 -104.5l39 275h45l-152 -1045h-41l41 284q-10 -54 -45 -108.5t-88.5 -99t-128.5 -72.5t-156 -28z" />
<glyph unicode="&#xe5;" horiz-adv-x="1077" d="M622 1213q-70 0 -118 47.5t-46 116.5q0 69 49.5 119.5t116.5 50.5t115.5 -51t48.5 -122q-2 -68 -49 -114.5t-117 -46.5zM622 1256q53 0 87 34.5t35 83.5q0 53 -34.5 91.5t-85.5 38.5q-49 0 -86 -38.5t-37 -91.5q-2 -47 33 -82.5t88 -35.5zM430 19q79 0 148.5 29t130 89.5 t103.5 163t61 239.5q13 102 3 181.5t-37 138.5t-69 97t-90.5 56.5t-103.5 18.5q-56 0 -113.5 -18t-114 -57.5t-103 -96t-81.5 -139.5t-50 -181q-17 -113 -5 -199t41 -147t75 -100t97.5 -57t107.5 -18zM423 -24q-61 0 -117.5 20t-108 62.5t-84 109t-46.5 159t4 213.5 q15 105 52 194.5t87.5 151.5t112.5 105t127.5 63.5t132.5 20.5q69 0 131 -28.5t103 -73.5t65.5 -98.5t26.5 -104.5l39 275h45l-152 -1045h-41l41 284q-10 -54 -45 -108.5t-88.5 -99t-128.5 -72.5t-156 -28z" />
<glyph unicode="&#xe6;" horiz-adv-x="1660" d="M782 531h94q123 0 223 7.5t169 19t121 30.5t83 38t51 45.5t28 49t12 51.5q15 115 -69 194t-228 79q-56 0 -116.5 -20t-120.5 -62.5t-110 -102t-87 -145t-50 -184.5zM1139 -30q-149 0 -259.5 92t-142.5 248q-39 -158 -148.5 -242.5t-280.5 -84.5q-169 0 -260 89t-76 223 q13 129 132 194t317 65q216 0 312 -18l28 180q22 150 -51.5 236t-229.5 86q-114 0 -202.5 -35t-139.5 -78l-27 36q2 1 18.5 11t26 15.5t30 17t37.5 18.5t41.5 17t48.5 16.5t52 13t59 9.5t62 3q149 0 237.5 -84.5t84.5 -225.5q51 103 129.5 175.5t162.5 105.5t170 33 q81 0 148.5 -26.5t110.5 -70t64 -101.5t13 -120q-3 -34 -13 -61t-33 -56.5t-57.5 -52.5t-91.5 -44.5t-131.5 -35t-180 -22t-235.5 -8.5h-88q-9 -109 14.5 -199t72.5 -150.5t120.5 -93t157.5 -32.5q267 0 396 200l37 -24q-25 -35 -50 -63.5t-64 -59t-83 -50.5t-105.5 -33 t-132.5 -13zM314 26q164 0 275 104.5t127 273.5l11 88q-56 19 -312 19q-178 0 -284 -56.5t-118 -168.5q-13 -114 66.5 -187t234.5 -73z" />
<glyph unicode="&#xe7;" horiz-adv-x="1065" d="M406 -480q-45 0 -87.5 11t-64.5 22l6 43q27 -12 69.5 -22.5t83.5 -10.5q61 0 107 35.5t46 91.5q0 62 -42.5 94.5t-147.5 32.5h-23l51 150q-60 10 -113.5 36t-101.5 72t-78.5 110.5t-43 151t3.5 194.5q17 114 56.5 208t94 157.5t122.5 106.5t139.5 63t146.5 20 q82 0 150 -27t113.5 -73t71 -107.5t28.5 -131.5h-45q-4 61 -26 113.5t-60.5 93.5t-100 65t-137.5 24q-66 0 -130.5 -18t-127 -58t-113 -98.5t-87.5 -145t-52 -192.5q-17 -113 -2.5 -199.5t48 -148t85 -101t108 -58t118.5 -18.5q138 0 244.5 60.5t172.5 181.5h48 q-64 -133 -187.5 -209t-282.5 -76h-17l-38 -107q107 -4 153.5 -46t46.5 -116q0 -83 -59 -128.5t-146 -45.5z" />
<glyph unicode="&#xe8;" horiz-adv-x="1024" d="M645 1325l-107 262l45 13l112 -275h-50zM474 -30q-94 0 -174.5 37.5t-137 104t-83.5 164.5t-15 212q13 120 51 220.5t91.5 169t120.5 116.5t136.5 70t140.5 22q81 0 148 -26.5t110 -70t64 -101.5t14 -120q-4 -34 -14 -61t-32.5 -56.5t-57.5 -52.5t-92 -44.5t-131.5 -35 t-180 -22t-235.5 -8.5h-88q-9 -109 14.5 -199t73 -150.5t121 -93t158.5 -32.5q265 0 394 200l37 -24q-25 -35 -50 -63.5t-64 -59t-82.5 -50.5t-105 -33t-131.5 -13zM117 531h92q123 0 223 7.5t169 19t121 30.5t83 38t51 45.5t28.5 49t12.5 51.5q14 115 -70 194t-227 79 q-57 0 -117.5 -20t-120 -62.5t-109.5 -102t-86.5 -145t-49.5 -184.5z" />
<glyph unicode="&#xe9;" horiz-adv-x="1024" d="M517 1325l242 269l33 -35l-218 -234h-57zM474 -30q-94 0 -174.5 37.5t-137 104t-83.5 164.5t-15 212q13 120 51 220.5t91.5 169t120.5 116.5t136.5 70t140.5 22q81 0 148 -26.5t110 -70t64 -101.5t14 -120q-4 -34 -14 -61t-32.5 -56.5t-57.5 -52.5t-92 -44.5t-131.5 -35 t-180 -22t-235.5 -8.5h-88q-9 -109 14.5 -199t73 -150.5t121 -93t158.5 -32.5q265 0 394 200l37 -24q-25 -35 -50 -63.5t-64 -59t-82.5 -50.5t-105 -33t-131.5 -13zM117 531h92q123 0 223 7.5t169 19t121 30.5t83 38t51 45.5t28.5 49t12.5 51.5q14 115 -70 194t-227 79 q-57 0 -117.5 -20t-120 -62.5t-109.5 -102t-86.5 -145t-49.5 -184.5z" />
<glyph unicode="&#xea;" horiz-adv-x="1024" d="M417 1307l-27 31l244 219h37l187 -228l-37 -28l-174 213zM474 -30q-94 0 -174.5 37.5t-137 104t-83.5 164.5t-15 212q13 120 51 220.5t91.5 169t120.5 116.5t136.5 70t140.5 22q81 0 148 -26.5t110 -70t64 -101.5t14 -120q-4 -34 -14 -61t-32.5 -56.5t-57.5 -52.5 t-92 -44.5t-131.5 -35t-180 -22t-235.5 -8.5h-88q-9 -109 14.5 -199t73 -150.5t121 -93t158.5 -32.5q265 0 394 200l37 -24q-25 -35 -50 -63.5t-64 -59t-82.5 -50.5t-105 -33t-131.5 -13zM117 531h92q123 0 223 7.5t169 19t121 30.5t83 38t51 45.5t28.5 49t12.5 51.5 q14 115 -70 194t-227 79q-57 0 -117.5 -20t-120 -62.5t-109.5 -102t-86.5 -145t-49.5 -184.5z" />
<glyph unicode="&#xeb;" horiz-adv-x="1024" d="M843 1389q-15 0 -30.5 14t-14.5 31q0 17 16 31t31.5 14t31 -14t15.5 -31q-1 -17 -17.5 -31t-31.5 -14zM404 1389q-15 0 -30.5 14t-14.5 31q0 17 16 31t31.5 14t31.5 -14t16 -31q-2 -17 -18.5 -31t-31.5 -14zM474 -30q-94 0 -174.5 37.5t-137 104t-83.5 164.5t-15 212 q13 120 51 220.5t91.5 169t120.5 116.5t136.5 70t140.5 22q81 0 148 -26.5t110 -70t64 -101.5t14 -120q-4 -34 -14 -61t-32.5 -56.5t-57.5 -52.5t-92 -44.5t-131.5 -35t-180 -22t-235.5 -8.5h-88q-9 -109 14.5 -199t73 -150.5t121 -93t158.5 -32.5q265 0 394 200l37 -24 q-25 -35 -50 -63.5t-64 -59t-82.5 -50.5t-105 -33t-131.5 -13zM117 531h92q123 0 223 7.5t169 19t121 30.5t83 38t51 45.5t28.5 49t12.5 51.5q14 115 -70 194t-227 79q-57 0 -117.5 -20t-120 -62.5t-109.5 -102t-86.5 -145t-49.5 -184.5z" />
<glyph unicode="&#xec;" horiz-adv-x="326" d="M248 1342l-137 242l35 18l147 -260h-45zM49 0l154 1058h42l-153 -1058h-43z" />
<glyph unicode="&#xed;" horiz-adv-x="326" d="M209 1295l230 258l32 -31l-211 -227h-51zM49 0l154 1058h42l-153 -1058h-43z" />
<glyph unicode="&#xee;" horiz-adv-x="326" d="M127 1348l-28 35l172 150h37l127 -152l-33 -27l-112 136zM49 0l154 1058h42l-153 -1058h-43z" />
<glyph unicode="&#xef;" horiz-adv-x="326" d="M185 1406q-15 0 -32 14t-20 31q0 17 16 31t31.5 14t31.5 -14t16 -31q3 -17 -12.5 -31t-30.5 -14zM378 1404q-15 0 -32.5 14t-18.5 31q0 17 16 31t31 14t31 -14t16 -31q2 -17 -13 -31t-30 -14zM49 0l154 1058h42l-153 -1058h-43z" />
<glyph unicode="&#xf0;" horiz-adv-x="1094" d="M419 -21q-57 0 -112.5 20.5t-106.5 64t-84.5 110t-47.5 157.5t3 209q19 130 66 234.5t114 173t151 104.5t179 36q64 0 125 -25t105 -65t73.5 -89.5t36.5 -100.5q17 281 -55 493l-355 -54l-10 43l351 52q-43 103 -115 209l35 23q81 -119 123 -226l201 31l10 -41l-199 -31 q102 -301 31 -810q-16 -111 -51.5 -199t-84 -147t-111 -98.5t-130 -56.5t-142.5 -17zM426 19q68 0 127 14.5t116 49.5t101 89t77.5 138t49.5 191q18 127 1.5 228t-60.5 171t-111 107.5t-151 37.5t-161 -35t-138 -100t-104.5 -163t-61.5 -218q-16 -106 -5 -189t39 -143.5 t73 -100t97.5 -58.5t110.5 -19z" />
<glyph unicode="&#xf1;" horiz-adv-x="1067" d="M788 1374q-39 0 -72 14.5t-56.5 34.5t-46.5 40.5t-53 34.5t-63 14q-40 0 -87 -36.5t-72 -84.5q-1 -1 -10.5 3.5t-19.5 8.5l-9 5q30 60 86 102.5t120 42.5q39 0 71.5 -14t55.5 -34t45.5 -40t52.5 -33.5t66 -13.5q54 0 99 34.5t66 82.5l43 -8q-32 -72 -89.5 -112.5 t-126.5 -40.5zM54 0l153 1058h43l-37 -239q21 52 57.5 98.5t85.5 83.5t113.5 59t134.5 22q183 0 272.5 -125.5t59.5 -336.5l-91 -620h-43l90 617q28 194 -49 307.5t-241 113.5q-70 0 -137.5 -28.5t-124.5 -80.5t-98 -133t-55 -179l-90 -617h-43z" />
<glyph unicode="&#xf2;" horiz-adv-x="1094" d="M675 1270l-107 263l45 14l111 -277h-49zM476 -17q-61 0 -122 20.5t-117.5 64.5t-96.5 106.5t-57.5 154t-2.5 198.5q19 135 67 241.5t117 174.5t154 103.5t179 35.5q91 0 168.5 -37t132.5 -105t79 -174.5t6 -236.5q-19 -138 -64 -243t-111.5 -171t-149.5 -99t-182 -33z M482 26q81 0 152.5 28.5t133.5 87t106.5 157.5t63.5 230q17 122 -2.5 220t-68.5 160.5t-119.5 95.5t-156.5 33q-81 0 -156 -32.5t-138 -94.5t-108.5 -161t-63.5 -223q-15 -104 -0.5 -185.5t48.5 -141t84.5 -98.5t107.5 -57.5t117 -18.5z" />
<glyph unicode="&#xf3;" horiz-adv-x="1094" d="M544 1275l244 269l31 -34l-217 -235h-58zM476 -17q-61 0 -122 20.5t-117.5 64.5t-96.5 106.5t-57.5 154t-2.5 198.5q19 135 67 241.5t117 174.5t154 103.5t179 35.5q91 0 168.5 -37t132.5 -105t79 -174.5t6 -236.5q-19 -138 -64 -243t-111.5 -171t-149.5 -99t-182 -33z M482 26q81 0 152.5 28.5t133.5 87t106.5 157.5t63.5 230q17 122 -2.5 220t-68.5 160.5t-119.5 95.5t-156.5 33q-81 0 -156 -32.5t-138 -94.5t-108.5 -161t-63.5 -223q-15 -104 -0.5 -185.5t48.5 -141t84.5 -98.5t107.5 -57.5t117 -18.5z" />
<glyph unicode="&#xf4;" horiz-adv-x="1094" d="M447 1297l-28 30l246 220h36l187 -229l-36 -28l-175 214zM476 -17q-61 0 -122 20.5t-117.5 64.5t-96.5 106.5t-57.5 154t-2.5 198.5q19 135 67 241.5t117 174.5t154 103.5t179 35.5q91 0 168.5 -37t132.5 -105t79 -174.5t6 -236.5q-19 -138 -64 -243t-111.5 -171 t-149.5 -99t-182 -33zM482 26q81 0 152.5 28.5t133.5 87t106.5 157.5t63.5 230q17 122 -2.5 220t-68.5 160.5t-119.5 95.5t-156.5 33q-81 0 -156 -32.5t-138 -94.5t-108.5 -161t-63.5 -223q-15 -104 -0.5 -185.5t48.5 -141t84.5 -98.5t107.5 -57.5t117 -18.5z" />
<glyph unicode="&#xf5;" horiz-adv-x="1094" d="M800 1361q-38 0 -71 14t-57 34.5t-47 40.5t-52.5 34t-63.5 14q-39 0 -86 -36t-72 -83q-1 -1 -11 3t-19 9l-9 4q30 60 86.5 102t120.5 42q39 0 71.5 -14t55 -33.5t45 -39.5t52.5 -34t65 -14q54 0 99.5 35t66.5 83l43 -8q-32 -72 -89.5 -112.5t-127.5 -40.5zM476 -17 q-61 0 -122 20.5t-117.5 64.5t-96.5 106.5t-57.5 154t-2.5 198.5q19 135 67 241.5t117 174.5t154 103.5t179 35.5q91 0 168.5 -37t132.5 -105t79 -174.5t6 -236.5q-19 -138 -64 -243t-111.5 -171t-149.5 -99t-182 -33zM482 26q81 0 152.5 28.5t133.5 87t106.5 157.5 t63.5 230q17 122 -2.5 220t-68.5 160.5t-119.5 95.5t-156.5 33q-81 0 -156 -32.5t-138 -94.5t-108.5 -161t-63.5 -223q-15 -104 -0.5 -185.5t48.5 -141t84.5 -98.5t107.5 -57.5t117 -18.5z" />
<glyph unicode="&#xf6;" horiz-adv-x="1094" d="M895 1400q-16 0 -31.5 14t-14.5 31q0 17 16 31t31.5 14t31.5 -14t16 -31q-2 -17 -18 -31t-31 -14zM456 1400q-16 0 -31.5 14t-13.5 31q0 17 16 31t31 14t31 -14t16 -31q-1 -17 -17.5 -31t-31.5 -14zM476 -17q-61 0 -122 20.5t-117.5 64.5t-96.5 106.5t-57.5 154 t-2.5 198.5q19 135 67 241.5t117 174.5t154 103.5t179 35.5q91 0 168.5 -37t132.5 -105t79 -174.5t6 -236.5q-19 -138 -64 -243t-111.5 -171t-149.5 -99t-182 -33zM482 26q81 0 152.5 28.5t133.5 87t106.5 157.5t63.5 230q17 122 -2.5 220t-68.5 160.5t-119.5 95.5 t-156.5 33q-81 0 -156 -32.5t-138 -94.5t-108.5 -161t-63.5 -223q-15 -104 -0.5 -185.5t48.5 -141t84.5 -98.5t107.5 -57.5t117 -18.5z" />
<glyph unicode="&#xf7;" horiz-adv-x="1203" d="M647 1015q-15 0 -26.5 13t-11.5 34.5t11.5 35.5t26.5 14t27 -14t12 -35.5t-12 -34.5t-27 -13zM158 692l8 45h901l-9 -45h-900zM535.5 297q-15.5 0 -27 13t-11.5 34.5t11.5 35.5t27 14t27 -14t11.5 -35.5t-11.5 -34.5t-27 -13z" />
<glyph unicode="&#xf8;" horiz-adv-x="1100" d="M482 -17q-76 0 -152.5 32t-134.5 94l-101 -113l-38 28l110 122q-113 151 -80 381q19 135 67.5 241.5t117.5 174.5t153.5 103.5t179.5 35.5q83 0 156 -31t126 -90l107 121l37 -31l-114 -128q107 -156 73 -394q-19 -138 -64 -243t-111.5 -171t-149.5 -99t-182 -33zM131 527 q-29 -214 62 -349l665 751q-95 109 -261 109q-81 0 -156 -32.5t-138 -94.5t-108.5 -161t-63.5 -223zM488 26q81 0 153 28.5t134 87t106 157.5t63 230q31 225 -58 361l-662 -750q50 -56 120 -85t144 -29z" />
<glyph unicode="&#xf9;" horiz-adv-x="1046" d="M656 1266l-108 263l45 12l113 -275h-50zM415 -19q-175 0 -260.5 128.5t-51.5 352.5q5 38 14 100t27.5 193.5t31 218t11.5 84.5h43l-84 -596q-31 -206 40 -322t235 -116q156 0 273.5 122t144.5 316l84 596h43l-149 -1058h-43l37 265q-14 -40 -35 -76.5t-55.5 -75.5 t-76.5 -67.5t-101.5 -46.5t-127.5 -18z" />
<glyph unicode="&#xfa;" horiz-adv-x="1046" d="M497 1245l243 269l32 -35l-218 -234h-57zM415 -19q-175 0 -260.5 128.5t-51.5 352.5q5 38 14 100t27.5 193.5t31 218t11.5 84.5h43l-84 -596q-31 -206 40 -322t235 -116q156 0 273.5 122t144.5 316l84 596h43l-149 -1058h-43l37 265q-14 -40 -35 -76.5t-55.5 -75.5 t-76.5 -67.5t-101.5 -46.5t-127.5 -18z" />
<glyph unicode="&#xfb;" horiz-adv-x="1046" d="M402 1297l-28 30l246 220h36l187 -229l-37 -28l-174 214zM415 -19q-175 0 -260.5 128.5t-51.5 352.5q5 38 14 100t27.5 193.5t31 218t11.5 84.5h43l-84 -596q-31 -206 40 -322t235 -116q156 0 273.5 122t144.5 316l84 596h43l-149 -1058h-43l37 265q-14 -40 -35 -76.5 t-55.5 -75.5t-76.5 -67.5t-101.5 -46.5t-127.5 -18z" />
<glyph unicode="&#xfc;" horiz-adv-x="1046" d="M841 1402q-15 0 -31 14t-14 31q0 17 16 31t31 14t31 -14t16 -31q-1 -17 -17.5 -31t-31.5 -14zM402 1402q-15 0 -30.5 14t-14.5 31q0 17 16 31t31.5 14t31.5 -14t16 -31q-2 -17 -18.5 -31t-31.5 -14zM415 -19q-175 0 -260.5 128.5t-51.5 352.5q5 38 14 100t27.5 193.5 t31 218t11.5 84.5h43l-84 -596q-31 -206 40 -322t235 -116q156 0 273.5 122t144.5 316l84 596h43l-149 -1058h-43l37 265q-14 -40 -35 -76.5t-55.5 -75.5t-76.5 -67.5t-101.5 -46.5t-127.5 -18z" />
<glyph unicode="&#xfd;" horiz-adv-x="960" d="M437 1262l242 269l33 -35l-217 -234h-58zM-60 -361l11 45q38 -13 77 -13t79.5 13.5t80.5 48t72 86.5l103 194l-273 1045h48l258 -994l540 994h51l-684 -1253q-42 -68 -89 -109.5t-94.5 -55.5t-90 -14t-89.5 13z" />
<glyph unicode="&#xfe;" horiz-adv-x="1126" d="M511 17q57 0 114 18t112 58t100.5 97.5t80 141.5t48.5 185q15 102 2.5 184t-44 143.5t-77.5 103t-99.5 62t-109 20.5t-111 -17.5t-110.5 -57t-101 -96.5t-81.5 -142t-51.5 -188q-19 -106 -6.5 -189.5t44.5 -144t80.5 -100.5t101.5 -59t108 -19zM-6 -468l303 2107h43 l-121 -865q30 78 92 145.5t150 110.5t182 43q61 0 120 -22.5t111.5 -67.5t89 -112t51 -155.5t-1.5 -198.5q-18 -136 -67.5 -241.5t-118.5 -170.5t-150.5 -98t-171.5 -33q-76 0 -142.5 29.5t-111.5 77t-73 102.5t-34 110l-107 -761h-43z" />
<glyph unicode="&#xff;" horiz-adv-x="960" d="M796 1387q-16 0 -31.5 14t-13.5 31q0 17 16 31t31 14t31 -14t16 -31q-1 -17 -17.5 -31t-31.5 -14zM357 1387q-15 0 -31 14t-14 31q0 17 16 31t31 14t31 -14t16 -31q-1 -17 -17.5 -31t-31.5 -14zM-60 -361l11 45q38 -13 77 -13t79.5 13.5t80.5 48t72 86.5l103 194 l-273 1045h48l258 -994l540 994h51l-684 -1253q-42 -68 -89 -109.5t-94.5 -55.5t-90 -14t-89.5 13z" />
<glyph unicode="&#x100;" horiz-adv-x="1291" d="M533 1724l7 43h646l-6 -43h-647zM267 503h744l-235 976zM-47 0l800 1527h58l365 -1527h-45l-109 460h-779l-241 -460h-49z" />
<glyph unicode="&#x101;" horiz-adv-x="1077" d="M380 1482l7 43h647l-6 -43h-648zM430 19q79 0 148.5 29t130 89.5t103.5 163t61 239.5q13 102 3 181.5t-37 138.5t-69 97t-90.5 56.5t-103.5 18.5q-56 0 -113.5 -18t-114 -57.5t-103 -96t-81.5 -139.5t-50 -181q-17 -113 -5 -199t41 -147t75 -100t97.5 -57t107.5 -18z M423 -24q-61 0 -117.5 20t-108 62.5t-84 109t-46.5 159t4 213.5q15 105 52 194.5t87.5 151.5t112.5 105t127.5 63.5t132.5 20.5q69 0 131 -28.5t103 -73.5t65.5 -98.5t26.5 -104.5l39 275h45l-152 -1045h-41l41 284q-10 -54 -45 -108.5t-88.5 -99t-128.5 -72.5t-156 -28z " />
<glyph unicode="&#x102;" horiz-adv-x="1291" d="M841 1662q-102 0 -186 53t-132 150l36 17q90 -177 290 -177q92 0 170.5 43.5t158.5 139.5l33 -31q-85 -107 -175 -151t-195 -44zM267 503h744l-235 976zM-47 0l800 1527h58l365 -1527h-45l-109 460h-779l-241 -460h-49z" />
<glyph unicode="&#x103;" horiz-adv-x="1077" d="M622 1307q-103 0 -187 53.5t-132 149.5l37 17q91 -177 290 -177q92 0 170 43.5t159 139.5l32 -29q-85 -108 -174.5 -152.5t-194.5 -44.5zM430 19q79 0 148.5 29t130 89.5t103.5 163t61 239.5q13 102 3 181.5t-37 138.5t-69 97t-90.5 56.5t-103.5 18.5q-56 0 -113.5 -18 t-114 -57.5t-103 -96t-81.5 -139.5t-50 -181q-17 -113 -5 -199t41 -147t75 -100t97.5 -57t107.5 -18zM423 -24q-61 0 -117.5 20t-108 62.5t-84 109t-46.5 159t4 213.5q15 105 52 194.5t87.5 151.5t112.5 105t127.5 63.5t132.5 20.5q69 0 131 -28.5t103 -73.5t65.5 -98.5 t26.5 -104.5l39 275h45l-152 -1045h-41l41 284q-10 -54 -45 -108.5t-88.5 -99t-128.5 -72.5t-156 -28z" />
<glyph unicode="&#x104;" horiz-adv-x="1291" d="M267 503h744l-235 976zM1110 -400l-9 -43h-176q-36 0 -62 21.5t-35 53t4.5 72.5t51.5 77q28 25 126.5 122t105.5 103q3 3 6.5 5.5t4.5 3.5l-105 445h-779l-241 -460h-49l800 1527h58l365 -1527h-2l-263 -256q-29 -27 -40.5 -60.5t3.5 -58.5t55 -25h181z" />
<glyph unicode="&#x105;" horiz-adv-x="1077" d="M430 19q79 0 148.5 29t130 89.5t103.5 163t61 239.5q13 102 3 181.5t-37 138.5t-69 97t-90.5 56.5t-103.5 18.5q-56 0 -113.5 -18t-114 -57.5t-103 -96t-81.5 -139.5t-50 -181q-17 -113 -5 -199t41 -147t75 -100t97.5 -57t107.5 -18zM776 -398l-8 -43h-177 q-36 0 -62 21.5t-35 53t5 72.5t51 77q28 25 126.5 122t105.5 103q6 6 20 13l39 263q-10 -54 -45 -108.5t-88.5 -99t-128.5 -72.5t-156 -28q-61 0 -117.5 20t-108 62.5t-84 109t-46.5 159t4 213.5q15 105 52 194.5t87.5 151.5t112.5 105t127.5 63.5t132.5 20.5 q69 0 131 -28.5t103 -73.5t65.5 -98.5t26.5 -104.5l39 275h45l-152 -1045h-2l-260 -254q-30 -27 -41.5 -60.5t3 -58.5t54.5 -25h181z" />
<glyph unicode="&#x106;" horiz-adv-x="1367" d="M817 1714l243 268l32 -34l-216 -234h-59zM669 -19q-67 0 -131 13.5t-126.5 42t-114.5 74t-94.5 109.5t-66.5 147.5t-31 188.5t14 234q24 166 76.5 298t120 216.5t151.5 140.5t168 79t173 23q142 0 255.5 -55t184 -162t79.5 -251h-43q-20 199 -146.5 311t-333.5 112 q-82 0 -159 -21.5t-155.5 -74t-141 -131.5t-112 -203.5t-72.5 -281.5q-15 -110 -15.5 -201t17 -165.5t44 -133t66 -103t84.5 -75.5t98.5 -50.5t108 -28.5t112.5 -9q117 0 224.5 53.5t184.5 143t118 202.5h46q-35 -92 -89.5 -170t-127 -140t-167 -97t-199.5 -35z" />
<glyph unicode="&#x107;" horiz-adv-x="1065" d="M552 1288l244 269l31 -35l-216 -234h-59zM466 -37q-65 0 -127.5 21t-119 64t-94.5 110.5t-55 160.5t1 212q17 114 56.5 208t94 157.5t122.5 106.5t139.5 63t146.5 20q82 0 150 -27t113.5 -73t71 -107.5t28.5 -131.5h-45q-4 61 -26 113.5t-60.5 93.5t-100 65t-137.5 24 q-66 0 -130.5 -18t-127 -58t-113 -98.5t-87.5 -145t-52 -192.5q-17 -113 -2.5 -199.5t48 -148t85 -101t108 -58t118.5 -18.5q138 0 244.5 60.5t172.5 181.5h48q-64 -133 -187.5 -209t-282.5 -76z" />
<glyph unicode="&#x10a;" horiz-adv-x="1367" d="M918 1757q-16 0 -31.5 14t-13.5 31q0 17 16 31t31.5 14t31.5 -14t16 -31q-1 -17 -18 -31t-32 -14zM669 -19q-67 0 -131 13.5t-126.5 42t-114.5 74t-94.5 109.5t-66.5 147.5t-31 188.5t14 234q24 166 76.5 298t120 216.5t151.5 140.5t168 79t173 23q142 0 255.5 -55 t184 -162t79.5 -251h-43q-20 199 -146.5 311t-333.5 112q-82 0 -159 -21.5t-155.5 -74t-141 -131.5t-112 -203.5t-72.5 -281.5q-15 -110 -15.5 -201t17 -165.5t44 -133t66 -103t84.5 -75.5t98.5 -50.5t108 -28.5t112.5 -9q117 0 224.5 53.5t184.5 143t118 202.5h46 q-35 -92 -89.5 -170t-127 -140t-167 -97t-199.5 -35z" />
<glyph unicode="&#x10b;" horiz-adv-x="1065" d="M669 1379q-16 0 -31.5 14t-13.5 31q0 17 16 31t31 14t31 -14t16 -31q-1 -17 -17.5 -31t-31.5 -14zM466 -37q-65 0 -127.5 21t-119 64t-94.5 110.5t-55 160.5t1 212q17 114 56.5 208t94 157.5t122.5 106.5t139.5 63t146.5 20q82 0 150 -27t113.5 -73t71 -107.5 t28.5 -131.5h-45q-4 61 -26 113.5t-60.5 93.5t-100 65t-137.5 24q-66 0 -130.5 -18t-127 -58t-113 -98.5t-87.5 -145t-52 -192.5q-17 -113 -2.5 -199.5t48 -148t85 -101t108 -58t118.5 -18.5q138 0 244.5 60.5t172.5 181.5h48q-64 -133 -187.5 -209t-282.5 -76z" />
<glyph unicode="&#x10c;" horiz-adv-x="1367" d="M873 1690l-185 228l30 26l172 -210l235 210l30 -34l-246 -220h-36zM669 -19q-67 0 -131 13.5t-126.5 42t-114.5 74t-94.5 109.5t-66.5 147.5t-31 188.5t14 234q24 166 76.5 298t120 216.5t151.5 140.5t168 79t173 23q142 0 255.5 -55t184 -162t79.5 -251h-43 q-20 199 -146.5 311t-333.5 112q-82 0 -159 -21.5t-155.5 -74t-141 -131.5t-112 -203.5t-72.5 -281.5q-15 -110 -15.5 -201t17 -165.5t44 -133t66 -103t84.5 -75.5t98.5 -50.5t108 -28.5t112.5 -9q117 0 224.5 53.5t184.5 143t118 202.5h46q-35 -92 -89.5 -170t-127 -140 t-167 -97t-199.5 -35z" />
<glyph unicode="&#x10d;" horiz-adv-x="1065" d="M620 1327l-185 228l29 25l172 -210l234 210l31 -33l-245 -220h-36zM466 -37q-65 0 -127.5 21t-119 64t-94.5 110.5t-55 160.5t1 212q17 114 56.5 208t94 157.5t122.5 106.5t139.5 63t146.5 20q82 0 150 -27t113.5 -73t71 -107.5t28.5 -131.5h-45q-4 61 -26 113.5 t-60.5 93.5t-100 65t-137.5 24q-66 0 -130.5 -18t-127 -58t-113 -98.5t-87.5 -145t-52 -192.5q-17 -113 -2.5 -199.5t48 -148t85 -101t108 -58t118.5 -18.5q138 0 244.5 60.5t172.5 181.5h48q-64 -133 -187.5 -209t-282.5 -76z" />
<glyph unicode="&#x10e;" horiz-adv-x="1324" d="M710 1693l-185 227l29 26l173 -210l234 210l30 -34l-244 -219h-37zM60 0l219 1527h435q136 0 243 -50t182 -152.5t100 -259t-4 -370.5q-52 -358 -235.5 -526.5t-504.5 -168.5h-435zM109 43h392q301 0 471 160t220 492q26 169 13.5 298.5t-51.5 222.5t-106.5 152.5 t-151.5 87.5t-186 28h-392z" />
<glyph unicode="&#x10f;" horiz-adv-x="1442" d="M1449 1527h45l-169 -469h-45zM456 19q56 0 111.5 17t111 55.5t101.5 95t81 140.5t50 186q16 109 5.5 193.5t-40 146t-76 101.5t-101 59t-116.5 19q-56 0 -113.5 -18t-114.5 -56.5t-104 -94t-82 -136t-48 -175.5q-18 -116 -4.5 -204t45.5 -150.5t81 -102.5t102.5 -58 t110.5 -18zM452 -24q-61 0 -120 20.5t-114.5 63.5t-92 111t-53.5 163t2 218q14 103 51 190.5t88 148t113.5 102.5t128.5 62t132 20q77 0 146 -29.5t114.5 -75t72 -98.5t26.5 -102l110 757h43l-219 -1527h-39l41 286q-19 -59 -58.5 -114t-94.5 -99t-127.5 -70.5t-149.5 -26.5 z" />
<glyph unicode="&#x110;" horiz-adv-x="1442" d="M613 0h-435l108 749h-153l7 43h153l105 735h435q135 0 242 -50t182 -152.5t99.5 -259t-4.5 -370.5q-51 -358 -234 -526.5t-505 -168.5zM228 43h392q300 0 470 160t219 492q27 169 14.5 298.5t-51.5 222.5t-107 152.5t-151.5 87.5t-186.5 28h-390l-102 -692h547l-6 -43 h-547z" />
<glyph unicode="&#x111;" horiz-adv-x="1186" d="M456 19q56 0 111.5 17t111 55.5t101.5 95t81 140.5t50 186q16 109 5.5 193.5t-40 146t-76 101.5t-101 59t-116.5 19q-56 0 -113.5 -18t-114.5 -56.5t-104 -94t-82 -136t-48 -175.5q-18 -116 -4.5 -204t45.5 -150.5t81 -102.5t102.5 -58t110.5 -18zM882 286 q-19 -59 -58.5 -114t-94.5 -99t-127.5 -70.5t-149.5 -26.5q-61 0 -120 20.5t-114.5 63.5t-92 111t-53.5 163t2 218q14 103 51 190.5t88 148t113.5 102.5t128.5 62t132 20q77 0 146 -29.5t114.5 -75t72 -98.5t26.5 -102l71 486h-280l7 45h280l32 226h43l-32 -226h290l-7 -45 h-290l-180 -1256h-39z" />
<glyph unicode="&#x112;" d="M509 1828l8 43h646l-6 -43h-648zM60 0l219 1527h948l-4 -43h-905l-99 -690h697l-9 -43h-696l-102 -708h923l-6 -43h-966z" />
<glyph unicode="&#x113;" horiz-adv-x="1055" d="M318 1455l6 43h648l-6 -43h-648zM474 -30q-94 0 -174.5 37.5t-137 104t-83.5 164.5t-15 212q13 120 51 220.5t91.5 169t120.5 116.5t136.5 70t140.5 22q81 0 148 -26.5t110 -70t64 -101.5t14 -120q-4 -34 -14 -61t-32.5 -56.5t-57.5 -52.5t-92 -44.5t-131.5 -35t-180 -22 t-235.5 -8.5h-88q-9 -109 14.5 -199t73 -150.5t121 -93t158.5 -32.5q265 0 394 200l37 -24q-25 -35 -50 -63.5t-64 -59t-82.5 -50.5t-105 -33t-131.5 -13zM117 531h92q123 0 223 7.5t169 19t121 30.5t83 38t51 45.5t28.5 49t12.5 51.5q14 115 -70 194t-227 79 q-57 0 -117.5 -20t-120 -62.5t-109.5 -102t-86.5 -145t-49.5 -184.5z" />
<glyph unicode="&#x114;" d="M790 1701q-103 0 -187 52.5t-132 149.5l36 17q91 -176 291 -176q92 0 170 43.5t159 139.5l32 -31q-84 -107 -174 -151t-195 -44zM60 0l219 1527h948l-4 -43h-905l-99 -690h697l-9 -43h-696l-102 -708h923l-6 -43h-966z" />
<glyph unicode="&#x115;" horiz-adv-x="1057" d="M604 1329q-103 0 -187 53t-131 149l36 18q91 -177 291 -177q92 0 170 43.5t159 139.5l32 -30q-84 -107 -174.5 -151.5t-195.5 -44.5zM474 -30q-94 0 -174.5 37.5t-137 104t-83.5 164.5t-15 212q13 120 51 220.5t91.5 169t120.5 116.5t136.5 70t140.5 22q81 0 148 -26.5 t110 -70t64 -101.5t14 -120q-4 -34 -14 -61t-32.5 -56.5t-57.5 -52.5t-92 -44.5t-131.5 -35t-180 -22t-235.5 -8.5h-88q-9 -109 14.5 -199t73 -150.5t121 -93t158.5 -32.5q265 0 394 200l37 -24q-25 -35 -50 -63.5t-64 -59t-82.5 -50.5t-105 -33t-131.5 -13zM117 531h92 q123 0 223 7.5t169 19t121 30.5t83 38t51 45.5t28.5 49t12.5 51.5q14 115 -70 194t-227 79q-57 0 -117.5 -20t-120 -62.5t-109.5 -102t-86.5 -145t-49.5 -184.5z" />
<glyph unicode="&#x116;" d="M821 1757q-15 0 -31 14t-14 31q0 17 16 31t31 14t31 -14t16 -31q-1 -17 -17.5 -31t-31.5 -14zM60 0l219 1527h948l-4 -43h-905l-99 -690h697l-9 -43h-696l-102 -708h923l-6 -43h-966z" />
<glyph unicode="&#x117;" horiz-adv-x="1024" d="M649 1398q-16 0 -31.5 14t-13.5 31q0 17 16.5 31t31.5 14t31 -14t16 -31q-1 -18 -18 -31.5t-32 -13.5zM474 -30q-94 0 -174.5 37.5t-137 104t-83.5 164.5t-15 212q13 120 51 220.5t91.5 169t120.5 116.5t136.5 70t140.5 22q81 0 148 -26.5t110 -70t64 -101.5t14 -120 q-4 -34 -14 -61t-32.5 -56.5t-57.5 -52.5t-92 -44.5t-131.5 -35t-180 -22t-235.5 -8.5h-88q-9 -109 14.5 -199t73 -150.5t121 -93t158.5 -32.5q265 0 394 200l37 -24q-25 -35 -50 -63.5t-64 -59t-82.5 -50.5t-105 -33t-131.5 -13zM117 531h92q123 0 223 7.5t169 19t121 30.5 t83 38t51 45.5t28.5 49t12.5 51.5q14 115 -70 194t-227 79q-57 0 -117.5 -20t-120 -62.5t-109.5 -102t-86.5 -145t-49.5 -184.5z" />
<glyph unicode="&#x118;" d="M974 -443h-176q-36 0 -62 21.5t-35 53t4.5 72.5t51.5 77q26 23 120 115t106 104h-923l219 1527h948l-4 -43h-905l-99 -690h697l-9 -43h-696l-102 -708h923l-4 -22l8 -2l11 -19l-262 -256q-29 -27 -40.5 -60.5t3 -58.5t54.5 -25h181z" />
<glyph unicode="&#x119;" horiz-adv-x="1024" d="M593 -349q-36 0 -62.5 21t-36 52.5t3.5 73t50 77.5q78 78 125 127q-92 -32 -199 -32q-94 0 -174.5 37.5t-137 104t-83.5 164.5t-15 212q13 120 51 220.5t91.5 169t120.5 116.5t136.5 70t140.5 22q81 0 148 -26.5t110 -70t64 -101.5t14 -120q-4 -34 -14 -61t-32.5 -56.5 t-57.5 -52.5t-92 -44.5t-131.5 -35t-180 -22t-235.5 -8.5h-88q-9 -109 14.5 -199t73 -150.5t121 -93t158.5 -32.5q265 0 394 200l37 -24q-35 -51 -72 -88l-259 -263q-28 -28 -38.5 -62t5 -58.5t54.5 -23.5l181 5l-8 -43zM117 531h92q123 0 223 7.5t169 19t121 30.5t83 38 t51 45.5t28.5 49t12.5 51.5q14 115 -70 194t-227 79q-57 0 -117.5 -20t-120 -62.5t-109.5 -102t-86.5 -145t-49.5 -184.5z" />
<glyph unicode="&#x11a;" d="M768 1729l-185 228l30 25l172 -210l235 210l29 -34l-245 -219h-36zM60 0l219 1527h948l-4 -43h-905l-99 -690h697l-9 -43h-696l-102 -708h923l-6 -43h-966z" />
<glyph unicode="&#x11b;" horiz-adv-x="1024" d="M591 1301l-185 228l31 26l172 -211l234 211l30 -35l-245 -219h-37zM474 -30q-94 0 -174.5 37.5t-137 104t-83.5 164.5t-15 212q13 120 51 220.5t91.5 169t120.5 116.5t136.5 70t140.5 22q81 0 148 -26.5t110 -70t64 -101.5t14 -120q-4 -34 -14 -61t-32.5 -56.5 t-57.5 -52.5t-92 -44.5t-131.5 -35t-180 -22t-235.5 -8.5h-88q-9 -109 14.5 -199t73 -150.5t121 -93t158.5 -32.5q265 0 394 200l37 -24q-25 -35 -50 -63.5t-64 -59t-82.5 -50.5t-105 -33t-131.5 -13zM117 531h92q123 0 223 7.5t169 19t121 30.5t83 38t51 45.5t28.5 49 t12.5 51.5q14 115 -70 194t-227 79q-57 0 -117.5 -20t-120 -62.5t-109.5 -102t-86.5 -145t-49.5 -184.5z" />
<glyph unicode="&#x11e;" horiz-adv-x="1362" d="M856 1707q-102 0 -186.5 53.5t-131.5 149.5l36 17q91 -177 290 -177q92 0 170.5 44t159.5 139l31 -30q-84 -107 -174 -151.5t-195 -44.5zM602 -24q-98 0 -181.5 29.5t-153.5 91.5t-111.5 158.5t-54 230t17.5 306.5q32 195 97 340t158.5 236t210 135t258.5 44 q97 0 183.5 -35t146.5 -93.5t95.5 -136.5t36.5 -162h-45q-1 70 -30 137.5t-81.5 123t-135 89.5t-180.5 34q-127 0 -233 -40.5t-193.5 -124t-149.5 -220t-93 -319.5q-31 -168 -21 -297t46.5 -220.5t101.5 -150t144.5 -86t175.5 -27.5q265 0 417 173.5t207 519.5h-517l4 43 h560l-4 -43q-29 -186 -80 -320.5t-132 -229t-196 -140.5t-268 -46z" />
<glyph unicode="&#x11f;" horiz-adv-x="1100" d="M663 1342q-103 0 -187 52.5t-132 149.5l36 17q91 -176 291 -176q92 0 170 43.5t159 139.5l32 -31q-84 -107 -174 -151t-195 -44zM445 24q83 0 159 35t137 99.5t103.5 161.5t56.5 216q21 134 9.5 231t-56 159t-110 91.5t-151.5 29.5q-89 0 -168 -33.5t-142.5 -97 t-108.5 -160.5t-63 -218q-16 -131 -1 -227.5t61 -160t115 -95t159 -31.5zM387 -462q-69 0 -129 15.5t-102.5 42.5t-71.5 55.5t-51 62.5l33 19q20 -30 43 -53.5t61 -47.5t95.5 -37.5t130.5 -13.5q61 0 116 15t108 50t94 88.5t72.5 136t46.5 187.5l33 226q-13 -40 -36 -80 t-61 -81t-84 -72t-110 -50.5t-134 -19.5q-95 0 -170.5 36t-127 104.5t-71 175.5t-1.5 241q20 134 69.5 239.5t119.5 173.5t157 103.5t185 35.5q64 0 118 -16t90.5 -42t64.5 -61.5t44 -70t25 -73.5l32 231h44l-142 -996q-77 -524 -491 -524z" />
<glyph unicode="&#x120;" horiz-adv-x="1362" d="M901 1818q-16 0 -31.5 14t-13.5 31q0 17 16 31t31 14t31 -14t16 -31q-1 -18 -17.5 -31.5t-31.5 -13.5zM602 -24q-98 0 -181.5 29.5t-153.5 91.5t-111.5 158.5t-54 230t17.5 306.5q32 195 97 340t158.5 236t210 135t258.5 44q97 0 183.5 -35t146.5 -93.5t95.5 -136.5 t36.5 -162h-45q-1 70 -30 137.5t-81.5 123t-135 89.5t-180.5 34q-127 0 -233 -40.5t-193.5 -124t-149.5 -220t-93 -319.5q-31 -168 -21 -297t46.5 -220.5t101.5 -150t144.5 -86t175.5 -27.5q265 0 417 173.5t207 519.5h-517l4 43h560l-4 -43q-29 -186 -80 -320.5t-132 -229 t-196 -140.5t-268 -46z" />
<glyph unicode="&#x121;" horiz-adv-x="1100" d="M658 1381q-15 0 -30.5 14t-14.5 31q0 17 16 31t31.5 14t31.5 -14t16 -31q-2 -17 -18.5 -31t-31.5 -14zM445 24q83 0 159 35t137 99.5t103.5 161.5t56.5 216q21 134 9.5 231t-56 159t-110 91.5t-151.5 29.5q-89 0 -168 -33.5t-142.5 -97t-108.5 -160.5t-63 -218 q-16 -131 -1 -227.5t61 -160t115 -95t159 -31.5zM387 -462q-69 0 -129 15.5t-102.5 42.5t-71.5 55.5t-51 62.5l33 19q20 -30 43 -53.5t61 -47.5t95.5 -37.5t130.5 -13.5q61 0 116 15t108 50t94 88.5t72.5 136t46.5 187.5l33 226q-13 -40 -36 -80t-61 -81t-84 -72t-110 -50.5 t-134 -19.5q-95 0 -170.5 36t-127 104.5t-71 175.5t-1.5 241q20 134 69.5 239.5t119.5 173.5t157 103.5t185 35.5q64 0 118 -16t90.5 -42t64.5 -61.5t44 -70t25 -73.5l32 231h44l-142 -996q-77 -524 -491 -524z" />
<glyph unicode="&#x122;" horiz-adv-x="1362" d="M602 -24q-98 0 -181.5 29.5t-153.5 91.5t-111.5 158.5t-54 230t17.5 306.5q32 195 97 340t158.5 236t210 135t258.5 44q97 0 183.5 -35t146.5 -93.5t95.5 -136.5t36.5 -162h-45q-1 70 -30 137.5t-81.5 123t-135 89.5t-180.5 34q-127 0 -233 -40.5t-193.5 -124 t-149.5 -220t-93 -319.5q-31 -168 -21 -297t46.5 -220.5t101.5 -150t144.5 -86t175.5 -27.5q265 0 417 173.5t207 519.5h-517l4 43h560l-4 -43q-29 -186 -80 -320.5t-132 -229t-196 -140.5t-268 -46zM507 -435l102 271h43l-102 -271h-43z" />
<glyph unicode="&#x123;" horiz-adv-x="1100" d="M735 1615l-101 -271h-43l101 271h43zM445 24q83 0 159 35t137 99.5t103.5 161.5t56.5 216q21 134 9.5 231t-56 159t-110 91.5t-151.5 29.5q-89 0 -168 -33.5t-142.5 -97t-108.5 -160.5t-63 -218q-16 -131 -1 -227.5t61 -160t115 -95t159 -31.5zM387 -462q-69 0 -129 15.5 t-102.5 42.5t-71.5 55.5t-51 62.5l33 19q20 -30 43 -53.5t61 -47.5t95.5 -37.5t130.5 -13.5q61 0 116 15t108 50t94 88.5t72.5 136t46.5 187.5l33 226q-13 -40 -36 -80t-61 -81t-84 -72t-110 -50.5t-134 -19.5q-95 0 -170.5 36t-127 104.5t-71 175.5t-1.5 241 q20 134 69.5 239.5t119.5 173.5t157 103.5t185 35.5q64 0 118 -16t90.5 -42t64.5 -61.5t44 -70t25 -73.5l32 231h44l-142 -996q-77 -524 -491 -524z" />
<glyph unicode="&#x126;" horiz-adv-x="1311" d="M230 774h882l54 373h-882zM224 731l-105 -731h-43l164 1147h-201l8 39h198l50 341h45l-50 -341h882l49 341h43l-49 -341h207l-9 -39h-204l-166 -1147h-43l106 731h-882z" />
<glyph unicode="&#x127;" horiz-adv-x="1072" d="M185 568l-82 -568h-43l185 1293h-204l6 43h205l27 191h43l-27 -191h391l-7 -43h-391l-73 -491q20 39 44 75t61.5 75t79 67.5t98 47.5t117.5 19q84 0 151 -35t110 -101.5t59 -163.5t-2 -222l-81 -564h-44l82 568q32 227 -43.5 351t-239.5 124q-72 0 -142 -35.5t-126.5 -97 t-97.5 -150.5t-56 -192z" />
<glyph unicode="&#x12a;" horiz-adv-x="347" d="M152 1714l8 43h343l-6 -43h-345zM60 0l219 1527h43l-219 -1527h-43z" />
<glyph unicode="&#x12b;" horiz-adv-x="326" d="M111 1484l6 43h343l-4 -43h-345zM49 0l154 1058h42l-153 -1058h-43z" />
<glyph unicode="&#x12c;" horiz-adv-x="343" d="M308 1654q-73 0 -131 42.5t-83 96.5l39 17q19 -45 66.5 -79t116.5 -34q120 0 226 115l32 -29q-47 -58 -117 -93.5t-149 -35.5zM60 0l219 1527h43l-219 -1527h-43z" />
<glyph unicode="&#x12d;" horiz-adv-x="326" d="M260 1374q-72 0 -130.5 42.5t-84.5 97.5l37 17q21 -46 69.5 -79.5t117.5 -33.5q117 0 223 115l33 -29q-45 -58 -115.5 -94t-149.5 -36zM49 0l154 1058h42l-153 -1058h-43z" />
<glyph unicode="&#x12e;" horiz-adv-x="341" d="M24 -443h-176q-37 0 -63 21.5t-34.5 53t5 72.5t51.5 77q27 25 126 122t106 103q6 7 15 11l217 1510h43l-220 -1525l3 -2l-263 -256q-30 -27 -41 -60.5t4 -58.5t55 -25h181z" />
<glyph unicode="&#x12f;" horiz-adv-x="345" d="M290 1438q-15 0 -31 14t-16 31.5t16 31.5t31 14t31.5 -14t16.5 -31t-16.5 -31.5t-31.5 -14.5zM37 -400l-9 -43h-176q-36 0 -62.5 21.5t-35 53t5 72.5t51.5 77q28 25 126.5 122t105.5 103q4 4 17 11l151 1041h43l-153 -1058l-263 -256q-30 -27 -41 -60.5t4 -58.5t55 -25 h181z" />
<glyph unicode="&#x130;" horiz-adv-x="347" d="M333 1731q-16 0 -31.5 14.5t-13.5 31.5q0 17 16 31t31 14t31.5 -14t16.5 -31q-1 -18 -18 -32t-32 -14zM60 0l219 1527h43l-219 -1527h-43z" />
<glyph unicode="&#x131;" horiz-adv-x="326" d="M49 0l154 1058h42l-153 -1058h-43z" />
<glyph unicode="&#x136;" horiz-adv-x="1197" d="M60 0l219 1527h41l-142 -973l1063 973h60l-751 -688l536 -839h-50l-517 811l-351 -321l-69 -490h-39zM408 -400l101 271h43l-100 -271h-44z" />
<glyph unicode="&#x137;" horiz-adv-x="1014" d="M49 0l220 1527h43l-154 -1075l734 606h60l-541 -456l416 -602h-42l-407 576l-230 -191l-56 -385h-43zM402 -333l101 271h43l-101 -271h-43z" />
<glyph unicode="&#x139;" horiz-adv-x="1069" d="M380 1722l244 269l32 -34l-217 -235h-59zM60 0l219 1527h43l-213 -1484h824l-6 -43h-867z" />
<glyph unicode="&#x13a;" horiz-adv-x="349" d="M284 1658l120 203l39 -29l-108 -174h-51zM105 0h-45l219 1527h45z" />
<glyph unicode="&#x13b;" horiz-adv-x="1069" d="M60 0l219 1527h43l-213 -1484h824l-6 -43h-867zM390 -400l100 271h43l-100 -271h-43z" />
<glyph unicode="&#x13c;" horiz-adv-x="349" d="M105 0h-45l219 1527h45zM-15 -396l101 271h43l-101 -271h-43z" />
<glyph unicode="&#x13d;" horiz-adv-x="1069" d="M808 1149q44 317 48 341q6 43 26 43q23 0 17 -43l-21 -154l-26 -187h-44zM60 0l219 1527h43l-213 -1484h824l-6 -43h-867z" />
<glyph unicode="&#x13e;" horiz-adv-x="485" d="M597 1527h46l-169 -469h-46zM105 0h-45l219 1527h45z" />
<glyph unicode="&#x13f;" horiz-adv-x="1092" d="M60 0l219 1527h43l-213 -1484h824l-6 -43h-867zM866 701q-15 0 -30.5 14t-14.5 32q0 17 16 31t31.5 14t31.5 -14t16 -31q-2 -18 -18.5 -32t-31.5 -14z" />
<glyph unicode="&#x140;" horiz-adv-x="474" d="M105 0h-45l219 1527h45zM410.5 622q-16.5 0 -31 11t-14.5 32t14.5 33t31 12t31 -12t14.5 -33t-14.5 -32t-31 -11z" />
<glyph unicode="&#x141;" horiz-adv-x="1087" d="M944 0h-866l94 652l-135 -50l-16 41l157 58l119 826h43l-116 -811l544 200l17 -38l-568 -209l-90 -626h823z" />
<glyph unicode="&#x142;" horiz-adv-x="392" d="M127 0h-45l111 776l-201 -109l-22 37l230 127l101 696h45l-96 -671l221 120l19 -36l-247 -136z" />
<glyph unicode="&#x143;" horiz-adv-x="1379" d="M753 1650l242 268l33 -34l-217 -234h-58zM60 0l219 1527h54l768 -1476l210 1476h43l-219 -1527h-58l-761 1469l-213 -1469h-43z" />
<glyph unicode="&#x144;" horiz-adv-x="1063" d="M505 1309l244 269l31 -34l-216 -235h-59zM49 0l154 1058h42l-36 -239q20 52 56.5 98.5t86 83.5t114 59t134.5 22q183 0 272.5 -125.5t58.5 -336.5l-90 -620h-43l90 617q28 194 -49 307.5t-242 113.5q-69 0 -137 -28.5t-124.5 -80.5t-97.5 -133t-55 -179l-91 -617h-43z " />
<glyph unicode="&#x145;" horiz-adv-x="1379" d="M60 0l219 1527h54l768 -1476l210 1476h43l-219 -1527h-58l-761 1469l-213 -1469h-43zM501 -415l101 271h43l-101 -271h-43z" />
<glyph unicode="&#x146;" horiz-adv-x="1063" d="M49 0l154 1058h42l-36 -239q20 52 56.5 98.5t86 83.5t114 59t134.5 22q183 0 272.5 -125.5t58.5 -336.5l-90 -620h-43l90 617q28 194 -49 307.5t-242 113.5q-69 0 -137 -28.5t-124.5 -80.5t-97.5 -133t-55 -179l-91 -617h-43zM351 -396l101 271h43l-101 -271h-43z" />
<glyph unicode="&#x147;" horiz-adv-x="1379" d="M794 1589l-185 229l29 25l173 -211l234 211l30 -35l-244 -219h-37zM60 0l219 1527h54l768 -1476l210 1476h43l-219 -1527h-58l-761 1469l-213 -1469h-43z" />
<glyph unicode="&#x148;" horiz-adv-x="1063" d="M607 1323l-186 228l31 25l172 -211l234 211l30 -35l-245 -218h-36zM49 0l154 1058h42l-36 -239q20 52 56.5 98.5t86 83.5t114 59t134.5 22q183 0 272.5 -125.5t58.5 -336.5l-90 -620h-43l90 617q28 194 -49 307.5t-242 113.5q-69 0 -137 -28.5t-124.5 -80.5t-97.5 -133 t-55 -179l-91 -617h-43z" />
<glyph unicode="&#x14c;" horiz-adv-x="1377" d="M529 1736l7 43h646l-6 -43h-647zM636 -13q-65 0 -126.5 13t-121.5 41t-108.5 72t-88.5 105.5t-62 141.5t-28 181.5t13 223.5q28 201 87 350.5t145 242.5t194 138t240 45q93 0 177 -28t158 -88t121 -153t66.5 -222.5t-5.5 -296.5q-24 -165 -67 -293t-102 -216 t-135.5 -145.5t-164 -83.5t-192.5 -28zM640 30q95 2 175.5 26.5t152.5 79t127.5 138t97.5 206.5t65 281q17 132 9 238t-40.5 188t-80 140.5t-109.5 96.5t-128.5 56t-136.5 18q-118 0 -216 -41.5t-178 -128t-136 -226.5t-84 -328q-19 -120 -14.5 -217.5t24 -175t56 -136 t81.5 -100t100.5 -67.5t114 -37t120.5 -11z" />
<glyph unicode="&#x14d;" horiz-adv-x="1094" d="M344 1482l7 43h647l-7 -43h-647zM476 -17q-61 0 -122 20.5t-117.5 64.5t-96.5 106.5t-57.5 154t-2.5 198.5q19 135 67 241.5t117 174.5t154 103.5t179 35.5q91 0 168.5 -37t132.5 -105t79 -174.5t6 -236.5q-19 -138 -64 -243t-111.5 -171t-149.5 -99t-182 -33zM482 26 q81 0 152.5 28.5t133.5 87t106.5 157.5t63.5 230q17 122 -2.5 220t-68.5 160.5t-119.5 95.5t-156.5 33q-81 0 -156 -32.5t-138 -94.5t-108.5 -161t-63.5 -223q-15 -104 -0.5 -185.5t48.5 -141t84.5 -98.5t107.5 -57.5t117 -18.5z" />
<glyph unicode="&#x14e;" horiz-adv-x="1377" d="M860 1660q-102 0 -186 53t-132 150l37 17q90 -177 289 -177q92 0 171 43.5t159 139.5l32 -31q-85 -107 -175 -151t-195 -44zM636 -13q-65 0 -126.5 13t-121.5 41t-108.5 72t-88.5 105.5t-62 141.5t-28 181.5t13 223.5q28 201 87 350.5t145 242.5t194 138t240 45 q93 0 177 -28t158 -88t121 -153t66.5 -222.5t-5.5 -296.5q-24 -165 -67 -293t-102 -216t-135.5 -145.5t-164 -83.5t-192.5 -28zM640 30q95 2 175.5 26.5t152.5 79t127.5 138t97.5 206.5t65 281q17 132 9 238t-40.5 188t-80 140.5t-109.5 96.5t-128.5 56t-136.5 18 q-118 0 -216 -41.5t-178 -128t-136 -226.5t-84 -328q-19 -120 -14.5 -217.5t24 -175t56 -136t81.5 -100t100.5 -67.5t114 -37t120.5 -11z" />
<glyph unicode="&#x14f;" horiz-adv-x="1094" d="M654 1352q-102 0 -186.5 53.5t-132.5 149.5l37 17q90 -177 291 -177q91 0 169.5 44t158.5 139l33 -29q-85 -107 -175 -152t-195 -45zM476 -17q-61 0 -122 20.5t-117.5 64.5t-96.5 106.5t-57.5 154t-2.5 198.5q19 135 67 241.5t117 174.5t154 103.5t179 35.5 q91 0 168.5 -37t132.5 -105t79 -174.5t6 -236.5q-19 -138 -64 -243t-111.5 -171t-149.5 -99t-182 -33zM482 26q81 0 152.5 28.5t133.5 87t106.5 157.5t63.5 230q17 122 -2.5 220t-68.5 160.5t-119.5 95.5t-156.5 33q-81 0 -156 -32.5t-138 -94.5t-108.5 -161t-63.5 -223 q-15 -104 -0.5 -185.5t48.5 -141t84.5 -98.5t107.5 -57.5t117 -18.5z" />
<glyph unicode="&#x150;" horiz-adv-x="1377" d="M905 1682l244 269l31 -35l-216 -234h-59zM652 1682l243 269l32 -35l-217 -234h-58zM636 -13q-65 0 -126.5 13t-121.5 41t-108.5 72t-88.5 105.5t-62 141.5t-28 181.5t13 223.5q28 201 87 350.5t145 242.5t194 138t240 45q93 0 177 -28t158 -88t121 -153t66.5 -222.5 t-5.5 -296.5q-24 -165 -67 -293t-102 -216t-135.5 -145.5t-164 -83.5t-192.5 -28zM640 30q95 2 175.5 26.5t152.5 79t127.5 138t97.5 206.5t65 281q17 132 9 238t-40.5 188t-80 140.5t-109.5 96.5t-128.5 56t-136.5 18q-118 0 -216 -41.5t-178 -128t-136 -226.5t-84 -328 q-19 -120 -14.5 -217.5t24 -175t56 -136t81.5 -100t100.5 -67.5t114 -37t120.5 -11z" />
<glyph unicode="&#x151;" horiz-adv-x="1094" d="M690 1318l243 269l33 -34l-217 -235h-59zM437 1318l242 269l33 -34l-217 -235h-58zM476 -17q-61 0 -122 20.5t-117.5 64.5t-96.5 106.5t-57.5 154t-2.5 198.5q19 135 67 241.5t117 174.5t154 103.5t179 35.5q91 0 168.5 -37t132.5 -105t79 -174.5t6 -236.5 q-19 -138 -64 -243t-111.5 -171t-149.5 -99t-182 -33zM482 26q81 0 152.5 28.5t133.5 87t106.5 157.5t63.5 230q17 122 -2.5 220t-68.5 160.5t-119.5 95.5t-156.5 33q-81 0 -156 -32.5t-138 -94.5t-108.5 -161t-63.5 -223q-15 -104 -0.5 -185.5t48.5 -141t84.5 -98.5 t107.5 -57.5t117 -18.5z" />
<glyph unicode="&#x152;" horiz-adv-x="2192" d="M103 774q-19 -120 -14 -217.5t24 -175t56 -136t82 -100t101 -67.5t114 -37t121 -11q93 2 171.5 25.5t150 75.5t126.5 131.5t97.5 196.5t67.5 268l9 61q17 146 -2 267.5t-66 202t-115.5 136t-146 80t-161.5 24.5q-118 0 -216 -41.5t-178 -128t-136 -226.5t-85 -328z M1094 0l57 392q-86 -209 -229 -306t-339 -99q-66 0 -127.5 13t-121 41t-108.5 72t-89 105.5t-62 141.5t-28 181.5t13 223.5q28 201 87 350.5t145 242.5t194.5 138t240.5 45q73 0 141 -17t131 -55t112.5 -93t85.5 -135.5t50 -177.5l67 464h948l-4 -43h-906l-98 -690h697 l-10 -43h-696l-101 -708h922l-6 -43h-966z" />
<glyph unicode="&#x153;" horiz-adv-x="1783" d="M1264 -30q-155 0 -266 96.5t-138 260.5q-63 -173 -181.5 -258.5t-278.5 -85.5q-61 0 -122 20.5t-117 64.5t-96.5 106.5t-58 154t-2.5 198.5q19 135 67.5 241.5t118 174.5t154 103.5t179.5 35.5q97 0 178 -41t137 -124.5t71 -198.5q36 92 91.5 163.5t120.5 115.5 t134.5 66.5t139.5 22.5q81 0 148.5 -26.5t110.5 -70t64 -101.5t13 -120q-3 -34 -13 -61t-33 -56.5t-57.5 -52.5t-91.5 -44.5t-131.5 -35t-180 -22t-235.5 -8.5h-88v-2q-9 -108 14 -198t72 -150t121 -92.5t158 -32.5q267 0 396 200l37 -24q-25 -35 -50 -63.5t-64 -59 t-83 -50.5t-105.5 -33t-132.5 -13zM1391 1045q-56 0 -115 -19.5t-118.5 -60.5t-109 -98.5t-87 -140t-52.5 -178.5q0 -3 -1 -9t-1 -8h93q123 0 223 7.5t169 19t121.5 30.5t83.5 38.5t51 45.5t28 48.5t12 51.5q15 115 -69 194t-228 79zM406 26q78 0 147 26.5t130 80.5t106 145 t67 212q2 32 10 72q12 114 -10 205.5t-70.5 150t-117 89.5t-151.5 31q-81 0 -156.5 -32.5t-138.5 -94.5t-109 -161t-64 -223q-15 -104 0 -185.5t48.5 -141t84.5 -98.5t107.5 -57.5t116.5 -18.5z" />
<glyph unicode="&#x154;" d="M595 1688l244 269l31 -34l-216 -235h-59zM213 757h486q84 0 161 29.5t134.5 79t96 116t48.5 138.5q15 101 -24.5 184.5t-121.5 131.5t-189 48h-486zM60 0l219 1527h509q129 0 225.5 -53t141 -146t27.5 -208q-12 -83 -54 -156.5t-100 -123.5t-125 -81t-133 -37l245 -722 h-47l-246 714h-515l-104 -714h-43z" />
<glyph unicode="&#x155;" horiz-adv-x="715" d="M324 1266l244 269l32 -33l-217 -236h-59zM49 0l154 1058h42l-32 -227q12 36 41.5 76.5t74 79.5t109 64.5t134.5 25.5q119 0 179 -39l-7 -43q-50 39 -174 39q-64 0 -126.5 -26.5t-115.5 -75.5t-91.5 -126t-51.5 -172l-93 -634h-43z" />
<glyph unicode="&#x156;" d="M213 757h486q84 0 161 29.5t134.5 79t96 116t48.5 138.5q15 101 -24.5 184.5t-121.5 131.5t-189 48h-486zM60 0l219 1527h509q129 0 225.5 -53t141 -146t27.5 -208q-12 -83 -54 -156.5t-100 -123.5t-125 -81t-133 -37l245 -722h-47l-246 714h-515l-104 -714h-43z M404 -380l101 271h43l-101 -271h-43z" />
<glyph unicode="&#x157;" horiz-adv-x="715" d="M49 0l154 1058h42l-32 -227q12 36 41.5 76.5t74 79.5t109 64.5t134.5 25.5q119 0 179 -39l-7 -43q-50 39 -174 39q-64 0 -126.5 -26.5t-115.5 -75.5t-91.5 -126t-51.5 -172l-93 -634h-43zM-19 -398l101 271h43l-101 -271h-43z" />
<glyph unicode="&#x158;" d="M684 1682l-185 228l30 25l172 -211l235 211l30 -35l-246 -218h-36zM213 757h486q84 0 161 29.5t134.5 79t96 116t48.5 138.5q15 101 -24.5 184.5t-121.5 131.5t-189 48h-486zM60 0l219 1527h509q129 0 225.5 -53t141 -146t27.5 -208q-12 -83 -54 -156.5t-100 -123.5 t-125 -81t-133 -37l245 -722h-47l-246 714h-515l-104 -714h-43z" />
<glyph unicode="&#x159;" horiz-adv-x="726" d="M413 1290l-185 228l30 26l172 -210l235 210l30 -34l-246 -220h-36zM60 0l153 1058h43l-32 -227q11 36 41 76.5t74 79.5t109 64.5t135 25.5q118 0 178 -39l-6 -43q-50 39 -174 39q-65 0 -127.5 -26.5t-115.5 -75.5t-91 -126t-52 -172l-92 -634h-43z" />
<glyph unicode="&#x15a;" horiz-adv-x="1141" d="M634 1707l244 269l31 -35l-217 -234h-58zM484 -15q-80 0 -158.5 25t-139 66.5t-106.5 93.5t-67 107l41 18q21 -52 61 -99t94.5 -85t128.5 -60.5t154 -22.5q87 0 168 22.5t150 66t116.5 115t60.5 162.5q4 43 5 80t-8 69t-20 58t-31 48t-40.5 39t-48 30.5t-55 24t-61 18 t-65 12.5t-68.5 9q-72 8 -134.5 25.5t-118 48.5t-92.5 72t-54 100t-7 129q29 190 170.5 291t367.5 101q81 0 148 -16t114 -44.5t78 -56.5t58 -64l-41 -26q-24 34 -50 59t-68 51t-104.5 40t-141.5 14q-202 0 -332.5 -89t-155.5 -260q-9 -64 6.5 -117t49.5 -89.5t85 -63 t107.5 -41t123.5 -21.5q488 -49 428 -431q-12 -84 -49 -152.5t-89.5 -115.5t-119.5 -79t-139.5 -47t-150.5 -15z" />
<glyph unicode="&#x15b;" horiz-adv-x="921" d="M468 1250l244 268l32 -34l-217 -234h-59zM363 -26q-109 0 -209 46.5t-169 131.5l39 22q70 -80 150 -118.5t196 -38.5q162 0 264.5 72t118.5 190q20 129 -52.5 191.5t-253.5 62.5q-92 0 -161.5 22t-108.5 61t-54.5 90t-5.5 111q9 58 38 106t79.5 86.5t130.5 59.5t183 21 q61 0 116.5 -15t94 -38t63.5 -44.5t38 -40.5l-39 -23q-3 5 -10 13t-31.5 28t-54 35.5t-79 28.5t-104.5 13q-168 0 -268 -64t-114 -164q-8 -53 2 -94.5t41 -76t94.5 -53.5t156.5 -19q185 0 274 -77.5t68 -219.5q-19 -142 -130.5 -223.5t-302.5 -81.5z" />
<glyph unicode="&#x15e;" horiz-adv-x="1141" d="M406 -466q-46 0 -88 10.5t-64 20.5l6 43q26 -11 69 -21t84 -10q61 0 107 35t46 91q0 61 -42.5 94t-147.5 33h-23l53 160h11q-139 19 -251.5 102t-152.5 185l41 18q21 -52 61 -99t94.5 -85t128.5 -60.5t154 -22.5q87 0 168 22.5t150 66t116.5 115t60.5 162.5q4 43 5 80 t-8 69t-20 58t-31 48t-40.5 39t-48 30.5t-55 24t-61 18t-65 12.5t-68.5 9q-72 8 -134.5 25.5t-118 48.5t-92.5 72t-54 100t-7 129q29 190 170.5 291t367.5 101q81 0 148 -16t114 -44.5t78 -56.5t58 -64l-41 -26q-24 34 -50 59t-68 51t-104.5 40t-141.5 14q-202 0 -332.5 -89 t-155.5 -260q-9 -64 6.5 -117t49.5 -89.5t85 -63t107.5 -41t123.5 -21.5q488 -49 428 -431q-12 -84 -49 -152.5t-89.5 -115.5t-119.5 -79t-139.5 -47t-150.5 -15h-32l-41 -116q107 -5 153.5 -46.5t46.5 -115.5q0 -83 -58.5 -128t-146.5 -45z" />
<glyph unicode="&#x15f;" horiz-adv-x="921" d="M318 -474q-46 0 -88 11t-64 22l6 43q27 -12 69.5 -22t82.5 -10q62 0 108 35.5t46 91.5q0 61 -42.5 94t-147.5 33h-23l51 152q-96 9 -183 55t-148 121l39 22q70 -80 150 -118.5t196 -38.5q162 0 264.5 72t118.5 190q20 129 -52.5 191.5t-253.5 62.5q-92 0 -161.5 22 t-108.5 61t-54.5 90t-5.5 111q9 58 38 106t79.5 86.5t130.5 59.5t183 21q61 0 116.5 -15t94 -38t63.5 -44.5t38 -40.5l-39 -23q-3 5 -10 13t-31.5 28t-54 35.5t-79 28.5t-104.5 13q-168 0 -268 -64t-114 -164q-8 -53 2 -94.5t41 -76t94.5 -53.5t156.5 -19q185 0 274 -77.5 t68 -219.5q-19 -142 -130.5 -223.5t-302.5 -81.5l-41 -112q108 -4 154.5 -45.5t46.5 -115.5q0 -84 -59 -129.5t-146 -45.5z" />
<glyph unicode="&#x160;" horiz-adv-x="1141" d="M716 1701l-185 228l31 26l171 -211l235 211l30 -35l-245 -219h-37zM484 -15q-80 0 -158.5 25t-139 66.5t-106.5 93.5t-67 107l41 18q21 -52 61 -99t94.5 -85t128.5 -60.5t154 -22.5q87 0 168 22.5t150 66t116.5 115t60.5 162.5q4 43 5 80t-8 69t-20 58t-31 48t-40.5 39 t-48 30.5t-55 24t-61 18t-65 12.5t-68.5 9q-72 8 -134.5 25.5t-118 48.5t-92.5 72t-54 100t-7 129q29 190 170.5 291t367.5 101q81 0 148 -16t114 -44.5t78 -56.5t58 -64l-41 -26q-24 34 -50 59t-68 51t-104.5 40t-141.5 14q-202 0 -332.5 -89t-155.5 -260q-9 -64 6.5 -117 t49.5 -89.5t85 -63t107.5 -41t123.5 -21.5q488 -49 428 -431q-12 -84 -49 -152.5t-89.5 -115.5t-119.5 -79t-139.5 -47t-150.5 -15z" />
<glyph unicode="&#x161;" horiz-adv-x="921" d="M533 1297l-184 228l29 26l172 -211l235 211l30 -35l-245 -219h-37zM363 -26q-109 0 -209 46.5t-169 131.5l39 22q70 -80 150 -118.5t196 -38.5q162 0 264.5 72t118.5 190q20 129 -52.5 191.5t-253.5 62.5q-92 0 -161.5 22t-108.5 61t-54.5 90t-5.5 111q9 58 38 106 t79.5 86.5t130.5 59.5t183 21q61 0 116.5 -15t94 -38t63.5 -44.5t38 -40.5l-39 -23q-3 5 -10 13t-31.5 28t-54 35.5t-79 28.5t-104.5 13q-168 0 -268 -64t-114 -164q-8 -53 2 -94.5t41 -76t94.5 -53.5t156.5 -19q185 0 274 -77.5t68 -219.5q-19 -142 -130.5 -223.5 t-302.5 -81.5z" />
<glyph unicode="&#x162;" horiz-adv-x="1079" d="M421 -441q-46 0 -88 10.5t-64 22.5l6 43q27 -12 70 -22.5t83 -10.5q61 0 107 35.5t46 91.5q0 62 -42.5 94.5t-146.5 32.5h-24l53 159l213 1471h-462l6 43h973l-7 -43h-467l-213 -1471h4l-42 -120q108 -5 154 -46.5t46 -115.5q0 -83 -59 -128.5t-146 -45.5z" />
<glyph unicode="&#x163;" horiz-adv-x="669" d="M258 -387q-46 0 -88.5 10.5t-64.5 21.5l6 43q27 -12 70 -22t84 -10q61 0 106.5 35.5t45.5 91.5q0 61 -42 94t-147 33h-23l51 152q-74 77 -59 183l113 764h-191l4 42h191l56 387h43l-56 -387h260l-4 -42h-260l-110 -749q-16 -110 48.5 -172.5t184.5 -54.5l-8 -43 q-99 -7 -175 43l-31 -84q108 -5 154 -46.5t46 -115.5q0 -84 -58.5 -129t-145.5 -45z" />
<glyph unicode="&#x164;" horiz-adv-x="1079" d="M667 1699l-185 228l29 26l173 -211l234 211l30 -35l-244 -219h-37zM419 0l215 1486h-462l6 43h973l-7 -43h-467l-215 -1486h-43z" />
<glyph unicode="&#x165;" horiz-adv-x="810" d="M860 1690h45l-170 -469h-45zM468 -10q-82 -6 -148 26t-99.5 93t-23.5 136l113 764h-191l4 42h191l56 387h43l-56 -387h260l-4 -42h-260l-110 -749q-16 -110 48.5 -172.5t184.5 -54.5z" />
<glyph unicode="&#x16a;" horiz-adv-x="1281" d="M478 1748l6 43h647l-6 -43h-647zM540 -26q-227 0 -336.5 171t-68.5 470l130 912h43l-132 -916q-40 -279 59 -436.5t311 -157.5q229 0 367 154.5t179 439.5l131 916h43l-129 -912q-43 -308 -192.5 -474.5t-404.5 -166.5z" />
<glyph unicode="&#x16b;" horiz-adv-x="1046" d="M303 1484l7 43h647l-7 -43h-647zM415 -19q-175 0 -260.5 128.5t-51.5 352.5q5 38 14 100t27.5 193.5t31 218t11.5 84.5h43l-84 -596q-31 -206 40 -322t235 -116q156 0 273.5 122t144.5 316l84 596h43l-149 -1058h-43l37 265q-14 -40 -35 -76.5t-55.5 -75.5t-76.5 -67.5 t-101.5 -46.5t-127.5 -18z" />
<glyph unicode="&#x16c;" horiz-adv-x="1281" d="M770 1690q-103 0 -187 53t-131 149l36 18q91 -176 290 -176q92 0 170.5 43.5t159.5 138.5l31 -30q-84 -107 -174 -151.5t-195 -44.5zM540 -26q-227 0 -336.5 171t-68.5 470l130 912h43l-132 -916q-40 -279 59 -436.5t311 -157.5q229 0 367 154.5t179 439.5l131 916h43 l-129 -912q-43 -308 -192.5 -474.5t-404.5 -166.5z" />
<glyph unicode="&#x16d;" horiz-adv-x="1046" d="M611 1329q-102 0 -186 53t-132 149l36 18q90 -177 291 -177q91 0 169.5 43.5t158.5 139.5l33 -30q-85 -107 -175 -151.5t-195 -44.5zM415 -19q-175 0 -260.5 128.5t-51.5 352.5q5 38 14 100t27.5 193.5t31 218t11.5 84.5h43l-84 -596q-31 -206 40 -322t235 -116 q156 0 273.5 122t144.5 316l84 596h43l-149 -1058h-43l37 265q-14 -40 -35 -76.5t-55.5 -75.5t-76.5 -67.5t-101.5 -46.5t-127.5 -18z" />
<glyph unicode="&#x16e;" horiz-adv-x="1281" d="M776 1630q-70 0 -117 47t-46 116q0 69 49.5 120t115.5 51q68 0 116 -51t48 -122q-2 -68 -49 -114.5t-117 -46.5zM776 1673q53 0 87 34.5t36 83.5q0 53 -35 91t-86 38q-49 0 -85.5 -38t-36.5 -91q-1 -47 33.5 -82.5t86.5 -35.5zM540 -26q-227 0 -336.5 171t-68.5 470 l130 912h43l-132 -916q-40 -279 59 -436.5t311 -157.5q229 0 367 154.5t179 439.5l131 916h43l-129 -912q-43 -308 -192.5 -474.5t-404.5 -166.5z" />
<glyph unicode="&#x16f;" horiz-adv-x="1046" d="M591 1258q-69 0 -116.5 47.5t-46.5 116.5q0 69 49.5 119.5t115.5 50.5q68 0 116 -50.5t48 -121.5q-2 -69 -49 -115.5t-117 -46.5zM591 1301q54 0 87.5 34.5t35.5 84.5q0 52 -35 90.5t-86 38.5q-48 0 -85 -38t-37 -91q-1 -48 33.5 -83.5t86.5 -35.5zM415 -19 q-175 0 -260.5 128.5t-51.5 352.5q5 38 14 100t27.5 193.5t31 218t11.5 84.5h43l-84 -596q-31 -206 40 -322t235 -116q156 0 273.5 122t144.5 316l84 596h43l-149 -1058h-43l37 265q-14 -40 -35 -76.5t-55.5 -75.5t-76.5 -67.5t-101.5 -46.5t-127.5 -18z" />
<glyph unicode="&#x170;" horiz-adv-x="1281" d="M808 1677l243 269l33 -34l-218 -235h-58zM554 1677l244 269l33 -34l-218 -235h-59zM540 -26q-227 0 -336.5 171t-68.5 470l130 912h43l-132 -916q-40 -279 59 -436.5t311 -157.5q229 0 367 154.5t179 439.5l131 916h43l-129 -912q-43 -308 -192.5 -474.5t-404.5 -166.5z " />
<glyph unicode="&#x171;" horiz-adv-x="1046" d="M617 1307l243 269l32 -35l-217 -234h-58zM363 1307l244 269l31 -35l-217 -234h-58zM415 -19q-175 0 -260.5 128.5t-51.5 352.5q5 38 14 100t27.5 193.5t31 218t11.5 84.5h43l-84 -596q-31 -206 40 -322t235 -116q156 0 273.5 122t144.5 316l84 596h43l-149 -1058h-43 l37 265q-14 -40 -35 -76.5t-55.5 -75.5t-76.5 -67.5t-101.5 -46.5t-127.5 -18z" />
<glyph unicode="&#x172;" horiz-adv-x="1281" d="M634 -439h-176q-37 0 -63 21.5t-34.5 53t5 72.5t51.5 77q22 20 100.5 98t97.5 96q-60 -5 -75 -5q-227 0 -336.5 171t-68.5 470l130 912h43l-132 -916q-40 -279 59 -436.5t311 -157.5q229 0 367 154.5t179 439.5l131 916h43l-129 -912q-36 -258 -146 -417t-296 -204 l-250 -246q-30 -27 -41 -60.5t3.5 -58.5t54.5 -25h181z" />
<glyph unicode="&#x173;" horiz-adv-x="1046" d="M753 -400l-9 -43h-176q-36 0 -62 21.5t-35 53t4.5 72.5t51.5 77q28 25 126.5 122t105.5 103q4 5 17 11l35 248q-14 -40 -35 -76.5t-55.5 -75.5t-76.5 -67.5t-101.5 -46.5t-127.5 -18q-175 0 -260.5 128.5t-51.5 352.5q5 38 14 100t27.5 193.5t31 218t11.5 84.5h43 l-84 -596q-31 -206 40 -322t235 -116q156 0 273.5 122t144.5 316l84 596h43l-149 -1058l-263 -256q-29 -27 -40.5 -60.5t3.5 -58.5t55 -25h181z" />
<glyph unicode="&#x174;" horiz-adv-x="1966" d="M866 1643l-27 30l245 219h36l187 -228l-37 -27l-174 212zM372 0l-212 1527h47l201 -1465l624 1407h50l225 -1407l616 1465h53l-640 -1527h-66l-223 1383l-614 -1383h-61z" />
<glyph unicode="&#x175;" horiz-adv-x="1348" d="M550 1295l-27 30l245 219h36l187 -228l-37 -28l-174 214zM248 0l-154 1058h46l139 -976l418 976h56l163 -964l404 964h50l-445 -1058h-39l-168 987l-428 -987h-42z" />
<glyph unicode="&#x176;" horiz-adv-x="1130" d="M492 1671l-28 30l246 219h37l186 -227l-36 -29l-175 213zM454 0l90 615l-398 912h49l375 -862l610 862h55l-648 -912l-90 -615h-43z" />
<glyph unicode="&#x177;" horiz-adv-x="960" d="M368 1295l-28 30l245 219h37l186 -228l-36 -28l-175 214zM-60 -361l11 45q38 -13 77 -13t79.5 13.5t80.5 48t72 86.5l103 194l-273 1045h48l258 -994l540 994h51l-684 -1253q-42 -68 -89 -109.5t-94.5 -55.5t-90 -14t-89.5 13z" />
<glyph unicode="&#x178;" horiz-adv-x="1130" d="M923 1731q-15 0 -31 14.5t-14 31.5q0 17 16 31t31 14t31 -14t16 -31q-1 -18 -17.5 -32t-31.5 -14zM484 1731q-15 0 -31 14.5t-14 31.5q0 17 16 31t31 14t31 -14t16 -31q-1 -18 -17.5 -32t-31.5 -14zM454 0l90 615l-398 912h49l375 -862l610 862h55l-648 -912l-90 -615 h-43z" />
<glyph unicode="&#x179;" horiz-adv-x="1147" d="M613 1731l243 269l32 -34l-217 -235h-58zM-15 0l5 37l1137 1447h-901l4 43h968l-4 -33l-1145 -1451h927l-6 -43h-985z" />
<glyph unicode="&#x17a;" horiz-adv-x="907" d="M417 1278l243 269l32 -35l-216 -234h-59zM-26 0l5 37l840 978h-690l6 43h755l-4 -28l-847 -987h720l-6 -43h-779z" />
<glyph unicode="&#x17b;" horiz-adv-x="1147" d="M720 1826q-15 0 -30.5 14t-14.5 31q0 17 16 31t31.5 14t31.5 -14t16 -31q-2 -17 -18.5 -31t-31.5 -14zM-15 0l5 37l1137 1447h-901l4 43h968l-4 -33l-1145 -1451h927l-6 -43h-985z" />
<glyph unicode="&#x17c;" horiz-adv-x="907" d="M546 1383q-15 0 -31 14t-14 31q0 17 16 31t31 14t31 -14t16 -31q-1 -17 -17.5 -31t-31.5 -14zM-26 0l5 37l840 978h-690l6 43h755l-4 -28l-847 -987h720l-6 -43h-779z" />
<glyph unicode="&#x17d;" horiz-adv-x="1147" d="M688 1727l-185 228l30 25l173 -210l234 210l30 -34l-246 -219h-36zM-15 0l5 37l1137 1447h-901l4 43h968l-4 -33l-1145 -1451h927l-6 -43h-985z" />
<glyph unicode="&#x17e;" horiz-adv-x="907" d="M507 1295l-185 227l31 27l172 -211l234 211l31 -35l-246 -219h-37zM-26 0l5 37l840 978h-690l6 43h755l-4 -28l-847 -987h720l-6 -43h-779z" />
<glyph unicode="&#x1dd;" horiz-adv-x="1036" d="M521 1088q93 0 173.5 -37.5t136.5 -104t83 -164.5t15 -212q-12 -120 -50 -220.5t-92 -169t-120.5 -116.5t-136.5 -70t-140 -22q-81 0 -148.5 26t-110.5 69.5t-64 101.5t-13 121q3 33 13 60t33 57t57.5 53t91.5 44.5t131.5 35.5t180 22t235.5 8h88q9 109 -14 199t-72 150 t-120.5 93t-158.5 33q-267 0 -396 -200l-37 23q25 36 50 64t64 58.5t83 50.5t105.5 33.5t132.5 13.5zM878 527h-93q-123 0 -223 -7t-169 -19t-121.5 -31t-83.5 -38.5t-51 -45.5t-28 -48.5t-12 -51.5q-15 -116 69 -194.5t228 -78.5q56 0 116.5 20t120.5 62.5t110 102t87 145 t50 184.5z" />
<glyph unicode="&#x1fa;" horiz-adv-x="1291" d="M821 1978l244 269l31 -35l-216 -234h-59zM827 1529q54 0 88 34.5t35 83.5q0 53 -34 91.5t-85 38.5q-49 0 -86 -38.5t-37 -91.5q-2 -47 32.5 -82.5t86.5 -35.5zM267 503h744l-235 976zM243 460l-241 -460h-49l791 1508q-37 21 -59 59t-20 83q0 69 49.5 119.5t116.5 50.5 t114.5 -50.5t47.5 -122.5q-1 -68 -48 -114.5t-118 -46.5h-6l355 -1486h-45l-109 460h-779z" />
<glyph unicode="&#x1fb;" horiz-adv-x="1077" d="M607 1615l242 269l33 -35l-217 -234h-58zM622 1213q-70 0 -118 47.5t-46 116.5q0 69 49.5 119.5t116.5 50.5t115.5 -51t48.5 -122q-2 -68 -49 -114.5t-117 -46.5zM622 1256q53 0 87 34.5t35 83.5q0 53 -34.5 91.5t-85.5 38.5q-49 0 -86 -38.5t-37 -91.5q-2 -47 33 -82.5 t88 -35.5zM430 19q79 0 148.5 29t130 89.5t103.5 163t61 239.5q13 102 3 181.5t-37 138.5t-69 97t-90.5 56.5t-103.5 18.5q-56 0 -113.5 -18t-114 -57.5t-103 -96t-81.5 -139.5t-50 -181q-17 -113 -5 -199t41 -147t75 -100t97.5 -57t107.5 -18zM423 -24q-61 0 -117.5 20 t-108 62.5t-84 109t-46.5 159t4 213.5q15 105 52 194.5t87.5 151.5t112.5 105t127.5 63.5t132.5 20.5q69 0 131 -28.5t103 -73.5t65.5 -98.5t26.5 -104.5l39 275h45l-152 -1045h-41l41 284q-10 -54 -45 -108.5t-88.5 -99t-128.5 -72.5t-156 -28z" />
<glyph unicode="&#x1fc;" horiz-adv-x="2042" d="M1262 1709l244 269l31 -34l-217 -235h-58zM385 484h649l168 983zM-78 0l1272 1527h881l-7 -43h-821l-118 -684h671l-4 -43h-671l-123 -714h830l-8 -43h-874l76 441h-677l-368 -441h-59z" />
<glyph unicode="&#x1fd;" horiz-adv-x="1660" d="M921 1320l242 269l33 -34l-217 -235h-58zM782 531h94q123 0 223 7.5t169 19t121 30.5t83 38t51 45.5t28 49t12 51.5q15 115 -69 194t-228 79q-56 0 -116.5 -20t-120.5 -62.5t-110 -102t-87 -145t-50 -184.5zM1139 -30q-149 0 -259.5 92t-142.5 248 q-39 -158 -148.5 -242.5t-280.5 -84.5q-169 0 -260 89t-76 223q13 129 132 194t317 65q216 0 312 -18l28 180q22 150 -51.5 236t-229.5 86q-114 0 -202.5 -35t-139.5 -78l-27 36q2 1 18.5 11t26 15.5t30 17t37.5 18.5t41.5 17t48.5 16.5t52 13t59 9.5t62 3 q149 0 237.5 -84.5t84.5 -225.5q51 103 129.5 175.5t162.5 105.5t170 33q81 0 148.5 -26.5t110.5 -70t64 -101.5t13 -120q-3 -34 -13 -61t-33 -56.5t-57.5 -52.5t-91.5 -44.5t-131.5 -35t-180 -22t-235.5 -8.5h-88q-9 -109 14.5 -199t72.5 -150.5t120.5 -93t157.5 -32.5 q267 0 396 200l37 -24q-25 -35 -50 -63.5t-64 -59t-83 -50.5t-105.5 -33t-132.5 -13zM314 26q164 0 275 104.5t127 273.5l11 88q-56 19 -312 19q-178 0 -284 -56.5t-118 -168.5q-13 -114 66.5 -187t234.5 -73z" />
<glyph unicode="&#x1fe;" horiz-adv-x="1377" d="M733 1716l243 268l33 -33l-217 -235h-59zM158 774q-54 -355 80 -555l891 1129q-71 75 -164 112.5t-193 37.5q-118 0 -216 -41.5t-178 -128t-136 -226.5t-84 -328zM1258 761q51 357 -103 555l-888 -1131q68 -80 165.5 -118t207.5 -37q95 2 175.5 26.5t152.5 79t127.5 138 t97.5 206.5t65 281zM636 -13q-114 0 -218 41t-178 124l-154 -195l-32 26l159 202q-152 210 -99 580q28 201 87 350.5t145 242.5t194 138t240 45q108 0 206 -39t171 -117l131 168l30 -31l-134 -170q167 -214 113 -599q-24 -165 -67 -293t-102 -216t-135.5 -145.5t-164 -83.5 t-192.5 -28z" />
<glyph unicode="&#x1ff;" horiz-adv-x="1100" d="M556 1314l244 268l33 -33l-218 -235h-59zM482 -17q-76 0 -152.5 32t-134.5 94l-101 -113l-38 28l110 122q-113 151 -80 381q19 135 67.5 241.5t117.5 174.5t153.5 103.5t179.5 35.5q83 0 156 -31t126 -90l107 121l37 -31l-114 -128q107 -156 73 -394q-19 -138 -64 -243 t-111.5 -171t-149.5 -99t-182 -33zM131 527q-29 -214 62 -349l665 751q-95 109 -261 109q-81 0 -156 -32.5t-138 -94.5t-108.5 -161t-63.5 -223zM488 26q81 0 153 28.5t134 87t106 157.5t63 230q31 225 -58 361l-662 -750q50 -56 120 -85t144 -29z" />
<glyph unicode="&#x218;" horiz-adv-x="1141" d="M484 -15q-80 0 -158.5 25t-139 66.5t-106.5 93.5t-67 107l41 18q21 -52 61 -99t94.5 -85t128.5 -60.5t154 -22.5q87 0 168 22.5t150 66t116.5 115t60.5 162.5q4 43 5 80t-8 69t-20 58t-31 48t-40.5 39t-48 30.5t-55 24t-61 18t-65 12.5t-68.5 9q-72 8 -134.5 25.5 t-118 48.5t-92.5 72t-54 100t-7 129q29 190 170.5 291t367.5 101q81 0 148 -16t114 -44.5t78 -56.5t58 -64l-41 -26q-24 34 -50 59t-68 51t-104.5 40t-141.5 14q-202 0 -332.5 -89t-155.5 -260q-9 -64 6.5 -117t49.5 -89.5t85 -63t107.5 -41t123.5 -21.5q488 -49 428 -431 q-12 -84 -49 -152.5t-89.5 -115.5t-119.5 -79t-139.5 -47t-150.5 -15zM413 -400l100 271h43l-100 -271h-43z" />
<glyph unicode="&#x219;" horiz-adv-x="921" d="M363 -26q-109 0 -209 46.5t-169 131.5l39 22q70 -80 150 -118.5t196 -38.5q162 0 264.5 72t118.5 190q20 129 -52.5 191.5t-253.5 62.5q-92 0 -161.5 22t-108.5 61t-54.5 90t-5.5 111q9 58 38 106t79.5 86.5t130.5 59.5t183 21q61 0 116.5 -15t94 -38t63.5 -44.5 t38 -40.5l-39 -23q-3 5 -10 13t-31.5 28t-54 35.5t-79 28.5t-104.5 13q-168 0 -268 -64t-114 -164q-8 -53 2 -94.5t41 -76t94.5 -53.5t156.5 -19q185 0 274 -77.5t68 -219.5q-19 -142 -130.5 -223.5t-302.5 -81.5zM284 -411l101 271h43l-101 -271h-43z" />
<glyph unicode="&#x21a;" horiz-adv-x="1079" d="M419 0l215 1486h-462l6 43h973l-7 -43h-467l-215 -1486h-43zM342 -408l101 270h43l-101 -270h-43z" />
<glyph unicode="&#x21b;" horiz-adv-x="646" d="M468 -10q-82 -6 -148 26t-99.5 93t-23.5 136l113 764h-191l4 42h191l56 387h43l-56 -387h260l-4 -42h-260l-110 -749q-16 -110 48.5 -172.5t184.5 -54.5zM181 -398l100 271h43l-100 -271h-43z" />
<glyph unicode="&#x2c6;" horiz-adv-x="513" d="M74 1295l-29 30l245 219h37l186 -228l-35 -28l-175 214z" />
<glyph unicode="&#x2c7;" horiz-adv-x="513" d="M324 1290l-184 228l30 26l172 -210l234 210l31 -34l-246 -220h-37z" />
<glyph unicode="&#x2d8;" horiz-adv-x="732" d="M437 1268q-102 0 -186.5 53.5t-131.5 149.5l35 17q91 -177 291 -177q92 0 170 44t159 139l32 -29q-84 -107 -174 -152t-195 -45z" />
<glyph unicode="&#x2d9;" horiz-adv-x="113" d="M164 1374q-16 0 -31.5 14.5t-13.5 31.5q0 17 16 31t31 14t31 -14t16 -31q-1 -18 -17.5 -32t-31.5 -14z" />
<glyph unicode="&#x2da;" horiz-adv-x="439" d="M335 1245q-70 0 -117 47t-46 116q0 69 50 119.5t116 50.5q68 0 115.5 -50.5t47.5 -121.5q-2 -68 -49 -114.5t-117 -46.5zM335 1288q54 0 87.5 34t35.5 84q0 53 -34.5 91t-85.5 38q-49 0 -86 -38t-37 -91q-1 -48 33 -83t87 -35z" />
<glyph unicode="&#x2db;" horiz-adv-x="1169" d="M617 -45q12 11 24 14t18 1l6 -3l10 -18l-262 -257q-30 -26 -41 -60t4 -59t54 -25h181l-9 -43h-176q-36 0 -62 21.5t-35 53.5t5 73t51 76q28 25 126.5 122t105.5 104z" />
<glyph unicode="&#x2dc;" horiz-adv-x="673" d="M548 1221q-38 0 -71 14t-56.5 34.5t-46.5 40.5t-52.5 34.5t-63.5 14.5q-39 0 -86.5 -36.5t-72.5 -83.5q-1 -1 -11 3t-19 9l-9 5q30 59 86.5 101.5t120.5 42.5q39 0 71.5 -14t55 -34l45 -40t52.5 -34t65 -14q54 0 99.5 35t66.5 84l43 -9q-32 -72 -89.5 -112.5 t-127.5 -40.5z" />
<glyph unicode="&#x2dd;" horiz-adv-x="537" d="M378 1266l244 269l32 -33l-217 -236h-59zM125 1266l243 269l32 -33l-217 -236h-58z" />
<glyph unicode="&#x1e80;" horiz-adv-x="1966" d="M1069 1639l-108 261l45 14l112 -275h-49zM372 0l-212 1527h47l201 -1465l624 1407h50l225 -1407l616 1465h53l-640 -1527h-66l-223 1383l-614 -1383h-61z" />
<glyph unicode="&#x1e81;" horiz-adv-x="1348" d="M733 1266l-107 263l45 12l111 -275h-49zM248 0l-154 1058h46l139 -976l418 976h56l163 -964l404 964h50l-445 -1058h-39l-168 987l-428 -987h-42z" />
<glyph unicode="&#x1e82;" horiz-adv-x="1966" d="M1038 1634l244 269l32 -34l-218 -235h-58zM372 0l-212 1527h47l201 -1465l624 1407h50l225 -1407l616 1465h53l-640 -1527h-66l-223 1383l-614 -1383h-61z" />
<glyph unicode="&#x1e83;" horiz-adv-x="1348" d="M720 1270l244 269l31 -33l-217 -236h-58zM248 0l-154 1058h46l139 -976l418 976h56l163 -964l404 964h50l-445 -1058h-39l-168 987l-428 -987h-42z" />
<glyph unicode="&#x1e84;" horiz-adv-x="1966" d="M1316 1718q-16 0 -31.5 14t-14.5 31q0 17 16 31t31.5 14t31.5 -14t16 -31q-2 -17 -18 -31t-31 -14zM878 1718q-16 0 -31.5 14t-13.5 31q0 17 16 31t31 14t31 -14t16 -31q-1 -17 -17.5 -31t-31.5 -14zM372 0l-212 1527h47l201 -1465l624 1407h50l225 -1407l616 1465h53 l-640 -1527h-66l-223 1383l-614 -1383h-61z" />
<glyph unicode="&#x1e85;" horiz-adv-x="1348" d="M1000 1422q-16 0 -31.5 14t-14.5 31q0 17 16 31t31.5 14t31.5 -14t16 -31q-2 -17 -18 -31t-31 -14zM562 1422q-16 0 -31.5 14t-13.5 31q0 17 16 31t31 14t31 -14t16 -31q-1 -17 -17.5 -31t-31.5 -14zM248 0l-154 1058h46l139 -976l418 976h56l163 -964l404 964h50 l-445 -1058h-39l-168 987l-428 -987h-42z" />
<glyph unicode="&#x1ef2;" horiz-adv-x="1130" d="M763 1650l-107 262l45 13l112 -275h-50zM454 0l90 615l-398 912h49l375 -862l610 862h55l-648 -912l-90 -615h-43z" />
<glyph unicode="&#x1ef3;" horiz-adv-x="960" d="M632 1268l-107 263l45 13l111 -276h-49zM-60 -361l11 45q38 -13 77 -13t79.5 13.5t80.5 48t72 86.5l103 194l-273 1045h48l258 -994l540 994h51l-684 -1253q-42 -68 -89 -109.5t-94.5 -55.5t-90 -14t-89.5 13z" />
<glyph unicode="&#x2000;" horiz-adv-x="1123" />
<glyph unicode="&#x2001;" horiz-adv-x="2247" />
<glyph unicode="&#x2002;" horiz-adv-x="1123" />
<glyph unicode="&#x2003;" horiz-adv-x="2247" />
<glyph unicode="&#x2004;" horiz-adv-x="749" />
<glyph unicode="&#x2005;" horiz-adv-x="561" />
<glyph unicode="&#x2006;" horiz-adv-x="374" />
<glyph unicode="&#x2007;" horiz-adv-x="374" />
<glyph unicode="&#x2008;" horiz-adv-x="280" />
<glyph unicode="&#x2009;" horiz-adv-x="449" />
<glyph unicode="&#x200a;" horiz-adv-x="124" />
<glyph unicode="&#x2010;" horiz-adv-x="769" d="M80 521l6 43h577l-7 -43h-576z" />
<glyph unicode="&#x2011;" horiz-adv-x="769" d="M80 521l6 43h577l-7 -43h-576z" />
<glyph unicode="&#x2012;" horiz-adv-x="769" d="M80 521l6 43h577l-7 -43h-576z" />
<glyph unicode="&#x2013;" horiz-adv-x="1108" d="M133 521l7 43h808l-6 -43h-809z" />
<glyph unicode="&#x2014;" horiz-adv-x="1738" d="M154 521l8 43h1395l-6 -43h-1397z" />
<glyph unicode="&#x2018;" horiz-adv-x="257" d="M254 1058h-45l-43 469h45z" />
<glyph unicode="&#x2019;" horiz-adv-x="259" d="M286 1527h45l-169 -469h-45z" />
<glyph unicode="&#x201a;" horiz-adv-x="259" d="M127 460l-65 -462h-43l65 462h43z" />
<glyph unicode="&#x201c;" horiz-adv-x="530" d="M254 1058h-45l-43 469h45zM527 1058h-45l-43 469h45z" />
<glyph unicode="&#x201d;" horiz-adv-x="530" d="M556 1527h46l-169 -469h-46zM286 1527h45l-169 -469h-45z" />
<glyph unicode="&#x201e;" horiz-adv-x="526" d="M127 460l-65 -462h-43l65 462h43zM394 460l-65 -462h-43l65 462h43z" />
<glyph unicode="&#x2020;" horiz-adv-x="866" d="M398 462l92 652h-273l7 43h273l43 308h45l-43 -308h248l-8 -43h-246l-93 -652h-45z" />
<glyph unicode="&#x2021;" horiz-adv-x="868" d="M476 776l-46 -312h-45l45 312h-260l6 43h261l43 295h-258l6 43h258l45 310h45l-45 -310h261l-7 -43h-260l-43 -295h260l-7 -43h-259z" />
<glyph unicode="&#x2022;" horiz-adv-x="511" d="M269 617q-40 0 -73.5 30.5t-33.5 72.5q1 43 35.5 77t73.5 34t70.5 -34t30.5 -77q0 -42 -32 -72.5t-71 -30.5z" />
<glyph unicode="&#x2026;" horiz-adv-x="878" d="M617.5 -6q-16.5 0 -32 13t-15.5 34t15.5 35t31.5 14t32 -14t16 -35t-15.5 -34t-32 -13zM350.5 -6q-16.5 0 -32 13t-15.5 34t16 35t32 14t31.5 -14t15.5 -35t-15.5 -34t-32 -13zM92.5 -6q-16.5 0 -32 13t-15.5 34t15.5 35t31.5 14t32 -14t16 -35t-15.5 -34t-32 -13z" />
<glyph unicode="&#x202f;" horiz-adv-x="449" />
<glyph unicode="&#x2039;" horiz-adv-x="509" d="M286 299l-187 275l4 35l303 307l31 -34l-295 -291l180 -264z" />
<glyph unicode="&#x203a;" horiz-adv-x="509" d="M213 905l187 -275l-4 -35l-304 -307l-30 34l295 291l-181 265z" />
<glyph unicode="&#x205f;" horiz-adv-x="561" />
<glyph unicode="&#x20ac;" horiz-adv-x="1367" d="M1127 58q-63 -36 -165.5 -61t-230.5 -25q-119 0 -219 41.5t-172 117.5t-113 189t-42 250h-148l6 43h142q3 66 12 134q13 70 29 135h-140l6 43h144q46 158 123 278t177 196t217.5 114t250.5 38q135 0 219.5 -28.5t148.5 -84.5l-24 -38q-43 35 -82.5 56t-109 36.5 t-161.5 15.5q-118 0 -225 -35t-201 -104.5t-167.5 -182.5t-117.5 -261h791l-21 -43h-783q-23 -93 -28 -135q-10 -68 -13 -134h667l-24 -43h-643q3 -259 142 -407t370 -148q115 0 207 22t184 64z" />
<glyph unicode="&#x2190;" horiz-adv-x="1524" d="M544 119l-475 550l632 554l28 -29l-571 -504h1244l-7 -43h-1249l430 -499z" />
<glyph unicode="&#x2191;" horiz-adv-x="1281" d="M527 0l215 1492l-578 -513l-26 36l634 553l475 -557l-41 -24l-421 505l-215 -1492h-43z" />
<glyph unicode="&#x2192;" horiz-adv-x="1524" d="M831 107l-31 31l574 502h-1245l6 44h1250l-433 502l35 27l476 -550z" />
<glyph unicode="&#x2193;" horiz-adv-x="1281" d="M548 0l-474 556l33 27l429 -507l215 1492h43l-215 -1492l580 507l23 -31z" />
<glyph unicode="&#x2212;" horiz-adv-x="1132" d="M154 671l8 43h831l-6 -43h-833z" />
<glyph unicode="&#x25fc;" horiz-adv-x="1053" d="M0 1054h1054v-1054h-1054v1054z" />
<glyph unicode="&#xf6c3;" horiz-adv-x="259" d="M-62 -435l101 271h43l-101 -271h-43z" />
<glyph horiz-adv-x="763" d="M-33 -408l7 45l316 326q12 13 36 37q49 51 71.5 74.5t53.5 59.5t44.5 58.5t26 50t16.5 54.5q13 97 -35.5 151.5t-139.5 54.5q-159 0 -252 -210l-47 4q45 121 124 187t177 66q49 0 93 -18t76 -50t47 -80.5t6 -104.5q-5 -31 -14.5 -59t-29.5 -59.5t-36 -54t-52 -60.5 t-57 -60t-69 -70l-301 -302h485l-8 -40h-538z" />
<glyph horiz-adv-x="1309" d="M649 -322h-42l42 307h-4q-81 0 -159 25.5t-139.5 67t-107 94t-67.5 107.5l39 16q20 -52 60 -99t95.5 -85t130 -60.5t155.5 -22.5q65 0 129.5 14t126 43.5t111 71.5t84.5 103t46 134q12 84 -3 149.5t-49.5 107t-90 70t-115.5 42t-136 19.5q-65 5 -126 22t-117 48.5 t-95.5 73.5t-58 102t-7.5 129q27 190 164 291t361 101l40 275h43l-41 -275q239 -10 366 -181l-41 -26q-95 164 -363 164q-132 0 -234.5 -38t-169 -117t-82.5 -194q-10 -64 6 -117t49.5 -89.5t84.5 -63t107.5 -41t121.5 -21.5q488 -48 431 -431q-12 -79 -45.5 -144 t-80.5 -111t-108 -79t-127 -50.5t-138 -22.5z" />
<glyph horiz-adv-x="1130" d="M466 -37q-23 0 -36 2l-81 -271h-46l84 278q-58 11 -109.5 38.5t-97 73.5t-74 109.5t-40 148.5t4.5 189q17 114 56.5 208t94 157.5t122.5 106.5t139.5 63t146.5 20h28l75 262h47l-76 -269q131 -20 207 -112t82 -220h-45q-4 61 -26 113.5t-60.5 93.5t-100 65t-137.5 24 q-66 0 -130.5 -18t-127 -58t-113 -98.5t-87.5 -145t-52 -192.5q-17 -113 -2.5 -199.5t48 -148t85 -101t108 -58t118.5 -18.5q138 0 244.5 60.5t172.5 181.5h48q-64 -133 -187.5 -209t-282.5 -76z" />
<glyph horiz-adv-x="1412" d="M1192 -168l-205 262q-139 -103 -351 -107q-65 0 -126.5 13t-121.5 41t-108.5 72t-88.5 105.5t-62 141.5t-28 181.5t13 223.5q28 201 87 350.5t145 242.5t194 138t240 45q93 0 177 -28t158 -88t121 -153t66.5 -222.5t-5.5 -296.5q-66 -450 -273 -628l209 -265zM640 30 q95 2 175.5 26.5t152.5 79t127.5 138t97.5 206.5t65 281q17 132 9 238t-40.5 188t-80 140.5t-109.5 96.5t-128.5 56t-136.5 18q-118 0 -216 -41.5t-178 -128t-136 -226.5t-84 -328q-19 -120 -14.5 -217.5t24 -175t56 -136t81.5 -100t100.5 -67.5t114 -37t120.5 -11z" />
</font>
</defs>
</svg>
