<?xml version="1.0" standalone="no"?>
<!DOCTYPE svg PUBLIC "-//W3C//DTD SVG 1.1//EN" "http://www.w3.org/Graphics/SVG/1.1/DTD/svg11.dtd" >
<svg xmlns="http://www.w3.org/2000/svg">
<metadata></metadata>
<defs>
<font id="klima_regularregular" horiz-adv-x="1355" >
<font-face units-per-em="2048" ascent="1565" descent="-483" />
<missing-glyph horiz-adv-x="339" />
<glyph unicode="&#xd;" horiz-adv-x="442" />
<glyph unicode=" "  horiz-adv-x="339" />
<glyph unicode="&#x09;" horiz-adv-x="339" />
<glyph unicode="&#xa0;" horiz-adv-x="339" />
<glyph unicode="!" horiz-adv-x="540" d="M229 422l-47 477v555h174v-555l-45 -477h-82zM268 -12q-43 0 -74.5 32t-31.5 80q0 46 32 78.5t74 32.5q44 0 77.5 -32.5t33.5 -78.5q0 -48 -33.5 -80t-77.5 -32z" />
<glyph unicode="&#x22;" horiz-adv-x="761" d="M139 1012v442h148v-442h-148zM475 1012v442h148v-442h-148z" />
<glyph unicode="#" horiz-adv-x="1253" d="M430 600h285l43 234h-285zM209 184l57 293h-209l25 123h207l47 234h-217l24 122h215l58 275h135l-51 -275h284l56 275h133l-51 -275h235l-24 -122h-234l-49 -234h246l-23 -123h-246l-61 -293h-135l55 293h-285l-55 -293h-137z" />
<glyph unicode="$" horiz-adv-x="1239" d="M270 1073q0 -96 60.5 -147.5t183.5 -75.5v467q-115 -15 -179.5 -77.5t-64.5 -166.5zM911 408q0 120 -57 178t-182 82v-525q114 21 176.5 88.5t62.5 176.5zM672 -215h-158v201q-148 13 -268 84.5t-195 173.5l113 104q142 -187 350 -209v547q-80 10 -150 39t-126.5 75.5 t-89.5 115.5t-33 153q0 169 106.5 275.5t292.5 125.5v191h158v-191q224 -21 360 -178l-114 -100q-34 45 -99 79t-147 46v-488q397 -60 397 -419q0 -184 -109 -291.5t-288 -130.5v-203z" />
<glyph unicode="%" horiz-adv-x="1624" d="M436 786q-129 0 -217 91.5t-88 248.5q0 150 88.5 243t216.5 93q132 0 219.5 -91t87.5 -243q0 -162 -86 -252t-221 -90zM209 0l1024 1454h168l-1024 -1454h-168zM438 911q76 0 126 55t50 158q0 96 -49.5 153.5t-126.5 57.5t-126.5 -57.5t-49.5 -153.5q0 -99 49.5 -156 t126.5 -57zM1178 -16q-129 0 -218.5 92.5t-89.5 247.5q0 151 89.5 243t218.5 92q133 0 220 -90.5t87 -244.5q0 -161 -86 -250.5t-221 -89.5zM1180 109q77 0 126.5 55.5t49.5 157.5q0 97 -49 153.5t-127 56.5q-77 0 -125.5 -56t-48.5 -154t48.5 -155.5t125.5 -57.5z" />
<glyph unicode="&#x26;" horiz-adv-x="1363" d="M514 881q116 44 182 108t66 139q0 90 -51 147t-142 56q-78 -2 -134 -53.5t-56 -138.5q0 -34 8.5 -66t27.5 -62.5t31 -48t38 -47t30 -34.5zM508 139q90 0 171.5 49.5t143.5 126.5q1 0 -88 99t-179 198t-91 99q-118 -44 -177 -120.5t-59 -170.5q0 -121 76.5 -201t202.5 -80 zM510 -10q-193 -1 -315.5 119.5t-122.5 302.5q0 131 76.5 240.5t220.5 181.5q-28 36 -42 56t-43 66.5t-43 93t-14 93.5q0 137 96.5 233.5t251.5 96.5t246.5 -98.5t91.5 -244.5q0 -119 -85.5 -209t-219.5 -147q-1 0 79.5 -88t161.5 -176l81 -88l178 196h197l-275 -303 l266 -317h-190l-178 203q-90 -98 -190 -154t-228 -57z" />
<glyph unicode="'" horiz-adv-x="425" d="M139 1012v442h148v-442h-148z" />
<glyph unicode="(" horiz-adv-x="591" d="M360 -213q-52 71 -98 160t-87 200t-65 243.5t-24 266.5q0 277 64 479t200 410l131 -86q-120 -179 -177.5 -365t-57.5 -438q0 -238 68.5 -437t172.5 -343z" />
<glyph unicode=")" horiz-adv-x="591" d="M209 1544q52 -71 98 -160t87 -200t65 -243.5t24 -266.5q0 -277 -64 -479t-200 -410l-131 86q120 180 178 366t58 437q0 238 -69 436.5t-173 343.5z" />
<glyph unicode="*" horiz-adv-x="827" d="M272 864l-96 68l135 198l-207 60l31 117l211 -60v240h127v-240l219 64l31 -113l-213 -68l137 -200l-96 -68l-139 195z" />
<glyph unicode="+" horiz-adv-x="1234" d="M537 229v367h-359v154h359v362h155v-362h365v-154h-365v-367h-155z" />
<glyph unicode="," horiz-adv-x="477" d="M190 178h179l-109 -377h-141z" />
<glyph unicode="-" horiz-adv-x="882" d="M127 512v152h629v-152h-629z" />
<glyph unicode="." horiz-adv-x="444" d="M221 -14q-46 0 -79 32t-33 82q0 48 33.5 80.5t78.5 32.5q46 0 80.5 -32.5t34.5 -80.5q0 -49 -34.5 -81.5t-80.5 -32.5z" />
<glyph unicode="/" horiz-adv-x="763" d="M61 0l474 1454h167l-481 -1454h-160z" />
<glyph unicode="0" horiz-adv-x="1265" d="M631 -18q-246 0 -390.5 186.5t-144.5 548.5q0 192 40.5 339.5t113 237.5t168.5 135.5t213 45.5q118 0 215 -46t169.5 -137t113 -237t40.5 -336q0 -364 -145 -550.5t-393 -186.5zM633 133q179 0 278 143.5t99 440.5q0 310 -100 457t-277 147q-87 0 -155.5 -34t-119.5 -105 t-78.5 -188.5t-27.5 -276.5q0 -300 99.5 -442t281.5 -142z" />
<glyph unicode="1" horiz-adv-x="718" d="M367 0v1272l-289 -76l-19 127l334 131h131v-1454h-157z" />
<glyph unicode="2" horiz-adv-x="1150" d="M117 0v143l391 437q30 34 89.5 96.5t94 102t74.5 92.5t59 102.5t19 97.5q0 109 -77.5 182t-205.5 72q-115 -1 -194 -74t-99 -180l-153 29q32 161 151 269t293 108q202 0 322.5 -113.5t122.5 -286.5q0 -48 -9 -93t-31 -89.5t-43 -80t-59.5 -81.5t-64 -74.5t-73 -79.5 t-71.5 -77l-315 -350h702v-152h-923z" />
<glyph unicode="3" horiz-adv-x="1159" d="M553 -10q-55 1 -112 14.5t-115 43.5t-105.5 73t-84 107t-50.5 141h162q25 -98 113.5 -163t193.5 -65q148 0 240 76t92 205q0 134 -112 197.5t-329 68.5v131q184 2 296 70t112 192q0 113 -79 179.5t-214 66.5q-117 0 -194.5 -56.5t-108.5 -160.5h-147q17 111 86.5 196 t165.5 127t200 42q112 0 211 -43t165 -129t71 -197q3 -62 -11.5 -115t-39 -89t-58 -65t-64.5 -44.5t-63 -24.5q35 -9 68.5 -24t73 -44t69 -65.5t49 -92.5t19.5 -122q0 -198 -139 -315.5t-361 -114.5z" />
<glyph unicode="4" horiz-adv-x="1175" d="M735 0v332h-659v151l618 969h203v-973h166v-151h-166v-328h-162zM242 483h495v774z" />
<glyph unicode="5" horiz-adv-x="1163" d="M553 -23q-63 0 -125.5 15.5t-120.5 48.5t-104.5 78.5t-79 110t-43.5 139.5h168q24 -116 105.5 -178t191.5 -62q159 0 249.5 89.5t90.5 242.5q0 155 -86 242.5t-232 87.5q-111 0 -183.5 -44.5t-98.5 -109.5l-156 22l31 795h798v-147h-661l-16 -465l9 8q10 8 21 15.5 t29 18.5t41 19.5t51 17t65 13t78 4.5q131 0 235 -54.5t167 -164.5t63 -258q0 -217 -136.5 -350.5t-350.5 -133.5z" />
<glyph unicode="6" horiz-adv-x="1210" d="M598 -6q-129 0 -243.5 60.5t-186.5 172.5t-72 248q0 121 56.5 247t146.5 263l324 488h186l-397 -594q19 26 77 50.5t146 24.5q93 0 179.5 -33.5t153 -93t106.5 -150.5t40 -198q0 -132 -65.5 -243t-184.5 -176.5t-266 -65.5zM600 147q152 0 252 92t100 238 q0 149 -99 240.5t-247 91.5q-154 0 -252 -93t-98 -241t100 -239t244 -89z" />
<glyph unicode="7" horiz-adv-x="1079" d="M201 0l604 1303h-737v149h913v-131l-604 -1321h-176z" />
<glyph unicode="8" horiz-adv-x="1146" d="M575 -16q-218 0 -347.5 111.5t-131.5 293.5q0 85 24.5 153t66 110.5t81 68t84.5 41.5q-82 40 -142.5 124.5t-59.5 211.5q0 162 115.5 268.5t303.5 106.5q185 0 303.5 -109t118.5 -264q0 -130 -71.5 -224t-163.5 -114q39 -10 73.5 -24.5t77 -44t72.5 -67t51 -98t21 -133.5 q-2 -182 -129.5 -296.5t-346.5 -114.5zM565 825q132 19 199 96.5t67 176.5q0 98 -73 163.5t-189 65.5q-121 0 -191.5 -63.5t-70.5 -163.5q0 -101 66 -177t192 -98zM575 131q146 0 230 73.5t84 196.5q0 49 -14.5 88.5t-42.5 68.5t-58.5 50t-76.5 37.5t-81 26.5t-86 22 q-274 -78 -270 -301q2 -117 84 -189.5t231 -72.5z" />
<glyph unicode="9" horiz-adv-x="1198" d="M557 0h-186l389 541q-22 -19 -65 -34t-101 -15q-127 0 -241 61.5t-185.5 175.5t-71.5 254q0 207 146.5 350.5t367.5 143.5q130 0 242 -61.5t181 -175.5t69 -253q0 -212 -228 -536zM602 639q147 0 242.5 94t95.5 254q0 146 -97.5 243t-238.5 97q-152 0 -250 -95.5 t-98 -246.5q0 -152 99.5 -249t246.5 -97z" />
<glyph unicode=":" horiz-adv-x="481" d="M242 748q-45 0 -79 33.5t-34 80.5q0 50 33.5 82.5t79.5 32.5q45 0 79.5 -33t34.5 -82q0 -46 -35 -80t-79 -34zM242 23q-47 0 -81 32.5t-34 81.5t34 82t81 33q44 0 79 -33.5t35 -81.5t-35 -81t-79 -33z" />
<glyph unicode=";" horiz-adv-x="460" d="M250 750q-46 0 -79.5 32t-33.5 82q0 48 34 80.5t79 32.5q46 0 80.5 -32.5t34.5 -80.5q0 -49 -34.5 -81.5t-80.5 -32.5zM180 201h178l-108 -377h-141z" />
<glyph unicode="&#x3c;" horiz-adv-x="1079" d="M926 63l-842 435v127l842 434v-168l-652 -332l652 -321v-175z" />
<glyph unicode="=" horiz-adv-x="1476" d="M244 864v152h987v-152h-987zM244 389v154h987v-154h-987z" />
<glyph unicode="&#x3e;" horiz-adv-x="1079" d="M143 1042l842 -434v-127l-842 -434v168l652 332l-652 321v174z" />
<glyph unicode="?" horiz-adv-x="1062" d="M420 412q0 92 15.5 162t48 120.5t64 82t81.5 69.5q56 42 82.5 63.5t52.5 50.5t34.5 56.5t8.5 64.5q0 108 -74.5 177t-200.5 69q-109 0 -194 -67.5t-102 -184.5l-148 15q18 163 140.5 275t308.5 112q193 0 307 -113t119 -279q1 -34 -4.5 -65t-13 -54t-25 -49t-29 -41 t-38 -38.5t-40 -34.5t-46.5 -36.5t-46 -35.5q-62 -49 -91 -83.5t-46 -90.5t-17 -145h-147zM500 -14q-45 0 -78 32t-33 78q0 48 33 80.5t78 32.5q44 0 75 -32t31 -81q0 -47 -31.5 -78.5t-74.5 -31.5z" />
<glyph unicode="@" horiz-adv-x="1939" d="M1022 -207q-176 0 -332 59.5t-269.5 164.5t-179 257t-65.5 328q0 171 62.5 324.5t169 264.5t255.5 176t314 65t310.5 -61t250 -166t165 -254t60.5 -318q0 -258 -97.5 -394.5t-244.5 -136.5q-45 0 -94.5 20t-98.5 71.5t-67 125.5q-6 -40 -63 -76.5t-129 -37.5 q-167 -3 -264.5 110t-94.5 289q2 172 96.5 279t254.5 104q88 -1 144 -52t62 -101l2 112l113 -6l-12 -463q-6 -120 34.5 -185t114.5 -63q39 1 72.5 20.5t63.5 63t47.5 125t17.5 193.5q0 144 -49.5 269t-135 212t-204.5 135.5t-254 46.5q-183 -3 -334.5 -96t-237.5 -250.5 t-86 -343.5q0 -136 47.5 -257.5t135 -214.5t222 -147.5t298.5 -54.5q23 0 51 3t45 7l17 3q2 -8 4.5 -21.5t8.5 -41.5t10 -47t3 -19q-24 -21 -139 -21zM963 332q80 5 126.5 69t49.5 189q3 126 -43.5 197.5t-134.5 72.5q-95 1 -152.5 -73t-60.5 -191q-1 -120 59.5 -192 t155.5 -72z" />
<glyph unicode="A" horiz-adv-x="1351" d="M410 494h532l-266 731zM66 0l528 1454h164l528 -1454h-164l-129 346h-633l-127 -346h-167z" />
<glyph unicode="B" horiz-adv-x="1255" d="M154 0v1454h501q191 0 313 -108t122 -279q0 -125 -62 -205t-139 -104q45 -8 90.5 -33.5t86.5 -67t67 -107t26 -142.5q0 -82 -29.5 -154t-87 -129.5t-152 -91t-214.5 -33.5h-522zM317 821h347q123 0 194.5 68.5t71.5 175.5q0 99 -72 170.5t-209 71.5h-332v-486zM317 147 h353q163 0 245 70t82 201q0 123 -91 191.5t-238 68.5h-351v-531z" />
<glyph unicode="C" d="M709 -20q-90 0 -174.5 25.5t-164 82.5t-138.5 140.5t-94.5 209.5t-35.5 279q0 162 34.5 292.5t92 216t136.5 143t164.5 82t179.5 24.5q215 0 360.5 -128.5t179.5 -349.5h-159q-28 151 -129.5 237.5t-251.5 86.5q-70 0 -132.5 -17.5t-121 -61.5t-100.5 -111t-67.5 -173 t-25.5 -241q0 -124 25.5 -224.5t68 -167t101 -111t121 -64t131.5 -19.5q152 0 255 95t130 245h159q-34 -225 -181 -358t-363 -133z" />
<glyph unicode="D" horiz-adv-x="1314" d="M156 0v1454h440q121 0 229 -45t194 -132t136.5 -228.5t50.5 -319.5q0 -150 -32.5 -272.5t-89 -206.5t-134 -141t-166.5 -83t-188 -26h-440zM313 152h283q206 0 329.5 144.5t123.5 432.5q0 115 -23.5 210.5t-65.5 162t-99.5 112.5t-124 67.5t-140.5 21.5h-283v-1151z" />
<glyph unicode="E" horiz-adv-x="1204" d="M162 0v1454h907v-149h-750v-492h596v-151h-596v-512h768v-150h-925z" />
<glyph unicode="F" horiz-adv-x="1165" d="M162 0v1454h899v-151h-742v-494h603v-150h-603v-659h-157z" />
<glyph unicode="G" d="M686 -23q-90 0 -170.5 22.5t-157 78t-132 139.5t-89 217t-33.5 301q0 152 32.5 277.5t87.5 210t130 142.5t158 84t174 26q217 0 368 -124.5t179 -326.5h-158q-19 121 -123.5 210t-265.5 89q-67 0 -127 -19.5t-114.5 -64t-94 -111.5t-63 -168t-23.5 -227q0 -135 23.5 -241 t62.5 -173t94 -111t114.5 -61.5t127.5 -17.5q90 0 162 26.5t129 82t88 150.5t31 224h-381v148h536v-135q0 -140 -30.5 -251t-82 -184.5t-124.5 -122t-154 -69.5t-174 -21z" />
<glyph unicode="H" horiz-adv-x="1341" d="M168 0v1454h158v-651h690v651h158v-1454h-158v651h-690v-651h-158z" />
<glyph unicode="I" horiz-adv-x="479" d="M162 0v1454h157v-1454h-157z" />
<glyph unicode="J" horiz-adv-x="968" d="M360 -20q-107 0 -200 43.5t-154 109.5l111 105q109 -103 245 -103q63 0 112 20t87.5 65t59 123.5t20.5 188.5v922h158v-919q0 -286 -115.5 -420.5t-323.5 -134.5z" />
<glyph unicode="K" horiz-adv-x="1294" d="M162 0v1454h157v-772l697 772h211l-580 -641l602 -813h-194l-514 696l-222 -245v-451h-157z" />
<glyph unicode="L" horiz-adv-x="1118" d="M162 0v1454h157v-1302h721v-152h-878z" />
<glyph unicode="M" horiz-adv-x="1579" d="M160 0v1454h196l428 -1083l437 1083h198v-1454h-157v1151l-410 -1020h-139l-398 1012v-1143h-155z" />
<glyph unicode="N" horiz-adv-x="1415" d="M160 0v1454h186l752 -1200v1200h157v-1454h-190l-748 1194v-1194h-157z" />
<glyph unicode="O" d="M678 -16q-93 0 -175.5 26t-156.5 84.5t-127 144.5t-84 213.5t-31 284.5q0 184 45 327t124.5 231t182 133t222.5 45q119 0 221.5 -45.5t182 -134t124.5 -231.5t45 -325q0 -189 -45.5 -336t-125 -236.5t-181.5 -135t-221 -45.5zM678 135q88 0 162 35t132.5 106t91 189 t32.5 272q0 150 -33 264.5t-91.5 183t-132 102.5t-161.5 34q-186 0 -301 -145t-115 -439q0 -159 32.5 -277.5t90.5 -188t131 -103t162 -33.5z" />
<glyph unicode="P" horiz-adv-x="1234" d="M160 0v1454h493q221 0 352.5 -123.5t131.5 -312.5q0 -184 -132.5 -304t-349.5 -120h-338v-594h-157zM317 1303v-558h330q144 0 237 73t93 200q0 132 -93 208.5t-239 76.5h-328z" />
<glyph unicode="Q" d="M1124 -158l-170 215q-125 -73 -276 -73q-93 0 -175.5 26t-156.5 84.5t-127 144.5t-84 213.5t-31 284.5q0 184 45 327t124.5 231t182 133t222.5 45q119 0 221.5 -45.5t182 -134t124.5 -231.5t45 -325q0 -378 -178 -579l178 -226zM678 135q88 0 162 35t132.5 106t91 189 t32.5 272q0 150 -33 264.5t-91.5 183t-132 102.5t-161.5 34q-186 0 -301 -145t-115 -439q0 -159 32.5 -277.5t90.5 -188t131 -103t162 -33.5z" />
<glyph unicode="R" horiz-adv-x="1271" d="M317 758h334q149 0 238.5 70.5t89.5 197.5q0 126 -94.5 201.5t-233.5 75.5h-334v-545zM160 0v1454h493q219 0 353.5 -122.5t134.5 -305.5q0 -79 -25 -147t-66.5 -115t-91 -78t-102.5 -45l301 -641h-174l-285 608h-381v-608h-157z" />
<glyph unicode="S" horiz-adv-x="1169" d="M584 -18q-170 0 -308.5 74.5t-220.5 187.5l113 104q164 -213 412 -213q156 0 245.5 71.5t89.5 201.5q0 77 -22 128t-73 81t-115.5 44.5t-167.5 22.5q-82 8 -155.5 36t-133 74.5t-94.5 117.5t-35 157q0 186 129 296t348 110q282 0 440 -183l-114 -100q-42 56 -129.5 93.5 t-194.5 37.5q-150 0 -237 -64.5t-87 -185.5q0 -115 86.5 -166.5t266.5 -70.5q446 -43 446 -426q0 -140 -66.5 -238.5t-175 -144t-247.5 -45.5z" />
<glyph unicode="T" horiz-adv-x="1177" d="M508 0v1303h-426v151h1014v-151h-428v-1303h-160z" />
<glyph unicode="U" horiz-adv-x="1247" d="M625 -23q-242 0 -375 158t-133 459v860h157v-862q0 -234 90 -348.5t261 -114.5q350 0 350 463v862h155v-860q0 -298 -130 -457.5t-375 -159.5z" />
<glyph unicode="V" horiz-adv-x="1282" d="M561 0l-508 1454h168l420 -1206l422 1206h166l-506 -1454h-162z" />
<glyph unicode="W" horiz-adv-x="1867" d="M451 0l-398 1454h164l326 -1184l336 1084h122l334 -1094l314 1194h166l-390 -1454h-174l-311 1016l-311 -1016h-178z" />
<glyph unicode="X" horiz-adv-x="1267" d="M63 0l467 723l-454 731h186l367 -594l387 594h188l-479 -731l446 -723h-184l-358 582l-379 -582h-187z" />
<glyph unicode="Y" horiz-adv-x="1243" d="M543 0v575l-488 879h181l387 -696l385 696h180l-488 -879v-575h-157z" />
<glyph unicode="Z" horiz-adv-x="1142" d="M72 0v150l788 1153h-764v151h971v-133l-799 -1169h803v-152h-999z" />
<glyph unicode="[" horiz-adv-x="694" d="M154 -119v1657h450v-152h-295v-1353h295v-152h-450z" />
<glyph unicode="\" horiz-adv-x="772" d="M551 0l-490 1454h166l482 -1454h-158z" />
<glyph unicode="]" horiz-adv-x="694" d="M543 1536v-1657h-451v152h295v1353h-295v152h451z" />
<glyph unicode="^" horiz-adv-x="892" d="M98 1008l293 446h121l301 -450l-139 -23l-219 309l-217 -307z" />
<glyph unicode="_" horiz-adv-x="1067" d="M-8 -143v143h1081v-143h-1081z" />
<glyph unicode="`" horiz-adv-x="641" d="M127 1542l213 -358h-145l-226 233z" />
<glyph unicode="a" horiz-adv-x="1081" d="M481 121q105 0 199.5 62.5t112.5 131.5v156q-108 30 -275 27q-133 -3 -200.5 -57t-67.5 -136q0 -88 62 -136t169 -48zM446 -16q-149 0 -249.5 92.5t-100.5 220.5q0 145 112.5 243.5t309.5 98.5q168 0 275 -39v45q0 164 -67.5 229.5t-201.5 65.5q-170 0 -243 -98l-129 65 q55 80 156 129t231 49q191 0 300 -107.5t109 -336.5v-641h-147v135q-33 -57 -132.5 -104t-222.5 -47z" />
<glyph unicode="b" horiz-adv-x="1165" d="M160 0v1454h164v-561q29 76 124.5 134t190.5 58q87 0 162.5 -33t136.5 -97t96 -170.5t35 -243.5q0 -139 -37.5 -249t-99.5 -176t-137 -100t-156 -34q-105 0 -195.5 53.5t-124.5 136.5v-172h-159zM616 127q51 0 101 24.5t93.5 72t70 129.5t26.5 186q0 199 -83 299 t-210 100q-123 0 -209 -105t-86 -294q0 -102 27 -183.5t71 -130t95 -73.5t104 -25z" />
<glyph unicode="c" horiz-adv-x="1083" d="M561 -29q-69 0 -135 20.5t-126 65t-105 107.5t-72 155.5t-27 202.5q0 142 40 253t107.5 177t148.5 99.5t171 33.5q101 0 190 -40t153 -121.5t81 -192.5h-162q-23 99 -94.5 153t-167.5 54q-60 0 -114 -23.5t-99 -71.5t-71.5 -131.5t-26.5 -193.5q0 -83 18.5 -151.5 t49 -114t71 -76.5t83.5 -45t87 -14q95 0 164.5 46.5t99.5 133.5h162q-35 -150 -152.5 -238t-273.5 -88z" />
<glyph unicode="d" horiz-adv-x="1165" d="M549 127q53 0 104 25t95 73.5t71 130t27 183.5q0 189 -86 294t-209 105q-126 0 -209.5 -102t-83.5 -297q0 -104 26.5 -186t70 -129.5t93.5 -72t101 -24.5zM526 -18q-81 0 -156 34t-137 100t-99.5 176t-37.5 249q0 135 35 241.5t95.5 171t137 98t162.5 33.5 q96 0 191.5 -58t124.5 -134v561h164v-1454h-160v172q-34 -83 -124.5 -136.5t-195.5 -53.5z" />
<glyph unicode="e" horiz-adv-x="1103" d="M575 -25q-95 0 -180 34.5t-152.5 101t-107 174.5t-39.5 245q0 130 37.5 237t102 175.5t148 105.5t177.5 37q196 0 321.5 -132.5t125.5 -372.5v-103h-752q3 -174 97 -266t231 -92q208 0 303 131l110 -94q-140 -181 -422 -181zM256 612h596q0 156 -80.5 243t-210.5 87 q-129 0 -212.5 -91t-92.5 -239z" />
<glyph unicode="f" horiz-adv-x="761" d="M248 0v920h-160v145h160v70q0 169 90 266.5t260 97.5h76v-147q-143 5 -204.5 -41t-61.5 -181v-65h260v-145h-260v-920h-160z" />
<glyph unicode="g" horiz-adv-x="1150" d="M549 129q123 0 202.5 105t79.5 290q0 212 -77.5 314t-204.5 102q-131 0 -212 -107t-81 -311q-1 -192 79.5 -292.5t213.5 -100.5zM520 -453q-123 0 -229 51t-170 144l139 72q97 -115 258 -115q76 0 131.5 20.5t97 66.5t62 125t20.5 191v64q-28 -78 -116.5 -131t-188.5 -53 q-87 0 -164.5 36t-136 103t-93 171t-34.5 232q0 133 34.5 242t93.5 178.5t136 107.5t164 38q109 0 190.5 -45t114.5 -119l5 139h157v-961q0 -146 -35.5 -255.5t-100.5 -174t-148.5 -96t-186.5 -31.5z" />
<glyph unicode="h" horiz-adv-x="1146" d="M160 0v1454h159v-553q25 74 114.5 129t184.5 55q190 0 296 -121.5t106 -359.5v-604h-162v604q0 179 -64 256.5t-194 77.5q-122 0 -201.5 -92.5t-79.5 -241.5v-604h-159z" />
<glyph unicode="i" horiz-adv-x="477" d="M238 1274q-41 0 -73 29t-32 73q0 43 32 72t73 29q42 0 74 -29t32 -72q0 -44 -31.5 -73t-74.5 -29zM168 0v1065h158v-1065h-158z" />
<glyph unicode="j" horiz-adv-x="524" d="M283 1266q-45 0 -76 28.5t-31 73.5q0 44 31 72t76 28q42 0 72 -28.5t30 -71.5q0 -45 -30 -73.5t-72 -28.5zM-14 -412v150q91 -8 154 58.5t63 201.5v1067h159v-1069q0 -108 -33.5 -192t-88.5 -131t-120 -68.5t-134 -16.5z" />
<glyph unicode="k" horiz-adv-x="1064" d="M160 0v1454h159v-862l463 473h213l-432 -442l475 -623h-190l-395 518l-134 -129v-389h-159z" />
<glyph unicode="l" horiz-adv-x="479" d="M160 0v1454h159v-1454h-159z" />
<glyph unicode="m" horiz-adv-x="1724" d="M160 0v1065h149l4 -145q22 66 101 120t180 54q111 0 194 -56.5t109 -152.5q40 93 128.5 151t207.5 58q174 0 268 -119.5t94 -319.5v-655h-157v643q0 155 -54 228t-170 73q-118 0 -188 -80t-70 -221v-643h-157v641q9 303 -221 303q-122 0 -191.5 -79.5t-69.5 -223.5v-641 h-157z" />
<glyph unicode="n" horiz-adv-x="1122" d="M160 0v1065h147l6 -145q35 77 118 126.5t185 49.5q173 0 275 -120t102 -337v-639h-159v637q0 153 -61 232t-191 79q-119 0 -191 -83.5t-72 -227.5v-637h-159z" />
<glyph unicode="o" horiz-adv-x="1138" d="M567 -18q-90 0 -172.5 33t-150 97.5t-108 172t-40.5 243.5q0 141 39.5 251t106.5 175t149.5 98t175.5 33t176.5 -34t151 -100t107.5 -175t40 -248q0 -135 -41.5 -242.5t-110 -172t-151.5 -98t-172 -33.5zM567 129q60 0 115.5 23t102 69t74.5 125t28 182q0 106 -27 187.5 t-73 129t-101.5 71.5t-118.5 24q-137 0 -226 -102t-89 -310q0 -100 26.5 -178.5t72 -125.5t100.5 -71t116 -24z" />
<glyph unicode="p" horiz-adv-x="1169" d="M614 127q60 0 112 23t94 70.5t66.5 128t24.5 186.5t-27 187.5t-72 127t-95 68t-103 22.5q-42 0 -82 -12.5t-79 -42.5t-68.5 -75t-47.5 -116t-18 -159q0 -202 85 -305t210 -103zM319 164v-600h-159v1501h155v-158q40 81 132.5 130.5t193.5 49.5q63 0 123.5 -19.5t117 -63 t98.5 -106.5t67.5 -156.5t25.5 -206.5q0 -142 -37 -251.5t-100 -173.5t-139 -96t-162 -32q-99 0 -194 53t-122 129z" />
<glyph unicode="q" horiz-adv-x="1169" d="M850 -436v600q-27 -76 -121.5 -129t-193.5 -53q-68 0 -130.5 19.5t-119.5 62.5t-98.5 106t-66 157t-24.5 208q0 113 25.5 206.5t67.5 156.5t98.5 106.5t117 63t123.5 19.5q101 0 193.5 -49.5t132.5 -130.5v158h156v-1501h-160zM258 535q0 -106 24.5 -186.5t66.5 -128 t94 -70.5t112 -23q125 0 210 103t85 305q0 88 -18 159t-47.5 116t-68.5 75t-79 42.5t-82 12.5q-53 0 -103 -22.5t-95 -68t-72 -127t-27 -187.5z" />
<glyph unicode="r" horiz-adv-x="794" d="M160 0v1065h131l26 -135q36 65 113.5 110t159.5 45q119 0 178 -38l-59 -138q-39 27 -127 27q-118 0 -190.5 -87.5t-72.5 -232.5v-616h-159z" />
<glyph unicode="s" horiz-adv-x="1007" d="M516 -25q-248 0 -432 156l100 115q137 -119 330 -119q107 0 167 45t60 127q0 91 -60 131t-216 47q-152 8 -243 85t-91 206q0 137 101 227t294 90q122 0 213.5 -37.5t147.5 -95.5l-101 -110q-4 4 -10.5 11t-31 24.5t-52.5 31t-73.5 24.5t-94.5 11q-117 0 -177 -44.5 t-60 -119.5q0 -78 62.5 -113t223.5 -42q158 -7 243 -92.5t85 -233.5q0 -146 -101.5 -235t-283.5 -89z" />
<glyph unicode="t" horiz-adv-x="686" d="M227 322v600h-157v143h157v297h158v-297h213v-143h-213v-584q0 -102 48.5 -150.5t164.5 -48.5v-147h-61q-128 0 -219 84.5t-91 245.5z" />
<glyph unicode="u" horiz-adv-x="1120" d="M520 -23q-174 0 -284.5 118t-110.5 335v635h162v-635q0 -150 67 -227.5t189 -77.5q118 0 188 80.5t70 224.5v635h160v-1065h-152l-4 154q-26 -73 -110.5 -125t-174.5 -52z" />
<glyph unicode="v" horiz-adv-x="1052" d="M449 0l-402 1065h172l307 -840l308 840h172l-402 -1065h-155z" />
<glyph unicode="w" horiz-adv-x="1476" d="M367 0l-320 1065h166l229 -801l236 801h125l244 -797l215 797h168l-304 -1065h-155l-232 735l-225 -735h-147z" />
<glyph unicode="x" horiz-adv-x="1015" d="M66 0l342 530l-328 535h192l230 -397l254 397h194l-344 -520l340 -545h-192l-238 401l-258 -401h-192z" />
<glyph unicode="y" horiz-adv-x="1032" d="M98 -375l43 137q95 -33 154 -6.5t96 119.5q0 1 7.5 21.5t15.5 42.5t14.5 41.5t5.5 21.5l-387 1063h170l297 -856l301 856h170l-463 -1260q-29 -79 -78 -128.5t-107.5 -65.5t-118 -12t-120.5 26z" />
<glyph unicode="z" horiz-adv-x="972" d="M90 0v127l559 791h-549v147h768v-117l-563 -798h578v-150h-793z" />
<glyph unicode="{" horiz-adv-x="761" d="M625 -131h-52q-121 9 -205.5 94t-84.5 215v289q0 97 -51.5 136.5t-161.5 39.5v145q106 0 159.5 47.5t53.5 149.5v277q0 136 80.5 221.5t214.5 91.5q8 2 47 2v-150q-191 0 -191 -178v-272q0 -214 -127 -258q125 -39 125 -242v-287q0 -47 19.5 -83t50.5 -54.5t62 -27.5 t61 -9v-147z" />
<glyph unicode="|" horiz-adv-x="557" d="M201 -272v1929h155v-1929h-155z" />
<glyph unicode="}" horiz-adv-x="772" d="M145 1577h52q121 -9 205.5 -94t84.5 -215v-289q0 -97 51.5 -136.5t161.5 -39.5v-146q-107 0 -160 -47t-53 -149v-277q0 -136 -80 -221.5t-214 -91.5q-8 -2 -48 -2v149q191 0 191 179v272q0 214 127 258q-125 39 -125 242v286q0 47 -19.5 83t-50.5 55t-62 28t-61 9v147z " />
<glyph unicode="~" horiz-adv-x="1189" d="M117 672q16 78 99 147.5t204 69.5q64 0 121.5 -20t92 -44.5t74.5 -44.5t74 -20q62 0 104.5 35t49.5 77l139 -30q-24 -97 -105 -162.5t-210 -65.5q-58 0 -112.5 20t-89 44.5t-78 44.5t-81.5 20q-60 0 -98 -35t-49 -79z" />
<glyph unicode="&#xa1;" horiz-adv-x="540" d="M260 1231q43 0 75 -32.5t32 -80.5q0 -46 -32.5 -78t-74.5 -32q-44 0 -77 32t-33 78q0 48 33 80.5t77 32.5zM299 797l47 -478v-555h-174v555l45 478h82z" />
<glyph unicode="&#xa2;" horiz-adv-x="1054" d="M248 518q0 -244 145 -348l150 768q-58 -3 -108.5 -28t-93.5 -73.5t-68 -130.5t-25 -188zM557 -29q-25 0 -37 2l-37 -186h-164l46 229q-122 58 -197.5 186.5t-75.5 319.5q0 142 40 253t107.5 177t148.5 99.5t171 33.5h12l31 156h166l-37 -188q99 -40 166.5 -122.5 t85.5 -199.5h-162q-26 116 -119 170l-153 -784h8q95 0 164.5 46.5t99.5 133.5h162q-35 -150 -152.5 -238t-273.5 -88z" />
<glyph unicode="&#xa3;" horiz-adv-x="1157" d="M100 0v125q5 6 27.5 26t44.5 41t49.5 56.5t48 72t35 87t14.5 102.5q0 107 -55 213h-201v156h140q-51 104 -51 241q0 71 32 138t89 118.5t142 83t183 31.5q90 0 180 -30.5t150 -78.5l-29 -151q-131 108 -299 108q-131 0 -208 -68.5t-77 -162.5q0 -54 11.5 -103.5 t19.5 -68.5t27 -57h356v-156h-295q6 -15 15 -42t20.5 -82t11.5 -103q0 -185 -143 -338h666v-158h-904z" />
<glyph unicode="&#xa5;" horiz-adv-x="1230" d="M1047 250h-351v-250h-157v250h-383v147h383v178h-383v148h301l-406 731h180l387 -696l386 696h180l-406 -731h269v-148h-351v-178h351v-147z" />
<glyph unicode="&#xa6;" horiz-adv-x="561" d="M197 831v807h170v-807h-170zM197 -233v788h170v-788h-170z" />
<glyph unicode="&#xa7;" horiz-adv-x="1058" d="M274 735q3 -82 75 -127.5t222 -38.5q98 5 164 53t62 126q-3 61 -51 101.5t-150 47.5q-37 3 -88 0q-116 -6 -176.5 -51.5t-57.5 -110.5zM547 -25q-246 -13 -438 138l92 116q153 -118 336 -110q98 5 163.5 52.5t61.5 125.5q-4 84 -46 109t-134 20q-38 -3 -78 0 q-87 7 -142 27q-103 30 -168 96t-71 166q-3 72 30.5 139.5t102.5 112.5q-92 70 -98 198q-8 136 88 225t291 99q221 13 360 -113l-88 -116q-4 4 -11 10.5t-32.5 23t-54 28.5t-75 20.5t-95.5 5.5q-115 -6 -176 -51.5t-58 -110.5q5 -75 41 -110t139 -38h15h59q171 7 277 -75 t112 -207q3 -72 -29.5 -137t-93.5 -111q82 -67 88 -203q7 -142 -94 -231.5t-274 -98.5z" />
<glyph unicode="&#xa8;" horiz-adv-x="843" d="M575 1231q-40 0 -71 31t-31 73t31 73.5t71 31.5t72.5 -31.5t32.5 -73.5t-32 -73t-73 -31zM150 1231q-39 0 -71 31t-32 73t32 73.5t71 31.5q42 0 73 -31t31 -74q0 -42 -31 -73t-73 -31z" />
<glyph unicode="&#xa9;" horiz-adv-x="1798" d="M897 -23q-209 0 -376 91.5t-263 263t-96 393.5q0 163 57 302.5t156.5 235t235.5 149.5t292 54q153 0 288 -54t233 -149.5t155 -235t57 -302.5q0 -165 -56 -305t-153.5 -237t-234.5 -151.5t-295 -54.5zM903 109q125 0 235.5 46t190.5 126.5t126 195.5t46 248 q0 182 -82 322t-217 212t-299 72q-165 0 -301 -76.5t-215.5 -216t-79.5 -313.5q0 -135 46 -250.5t125.5 -195.5t189 -125t235.5 -45zM909 356q-144 0 -241 98t-97 261q0 165 97.5 267.5t240.5 102.5q113 0 201 -69t104 -193h-139q-9 61 -55 97t-111 36q-83 0 -136.5 -62.5 t-53.5 -176.5q0 -115 51 -171.5t139 -56.5q64 0 110 32t56 89h139q-8 -77 -54.5 -136t-112.5 -88.5t-138 -29.5z" />
<glyph unicode="&#xaa;" horiz-adv-x="804" d="M371 750q62 0 109.5 27t64.5 61v131q-19 18 -63.5 26.5t-82.5 8.5q-70 0 -115.5 -37.5t-45.5 -96.5q0 -56 36.5 -88t96.5 -32zM336 631q-100 0 -171 62.5t-71 156.5v22q0 106 76 166t215 60q48 0 94.5 -9.5t65.5 -27.5v104q-3 111 -156 111q-105 0 -196 -68l-68 97 q122 92 276 92q151 0 218 -64t67 -211v-483h-131v92q-5 -9 -18 -23t-38.5 -32.5t-68.5 -31.5t-94 -13zM106 326v114h584v-114h-584z" />
<glyph unicode="&#xab;" horiz-adv-x="1134" d="M422 223l-277 316v90l275 313l108 -92l-231 -268l231 -267zM844 223l-277 316v90l275 313l108 -92l-231 -268l231 -267z" />
<glyph unicode="&#xad;" horiz-adv-x="882" d="M127 512v152h629v-152h-629z" />
<glyph unicode="&#xae;" horiz-adv-x="1417" d="M705 387q-229 0 -380 150.5t-151 392.5q0 157 72 280.5t193.5 189.5t269.5 66q149 0 270 -66t191.5 -189t70.5 -281q0 -159 -70 -283.5t-191.5 -192t-274.5 -67.5zM709 483q185 0 308.5 126t123.5 321q0 197 -125 317.5t-307 120.5q-181 0 -305.5 -123.5t-124.5 -314.5 q0 -197 123 -322t307 -125zM629 946h82q92 0 92 70q0 36 -22.5 53.5t-73.5 17.5h-78v-141zM535 670v506h198q82 0 126 -47t44 -113q0 -48 -28 -92t-58 -52l96 -202h-92l-92 186h-100v-186h-94z" />
<glyph unicode="&#xaf;" horiz-adv-x="892" d="M51 1221v137h744v-137h-744z" />
<glyph unicode="&#xb0;" horiz-adv-x="843" d="M420 766q-139 0 -242.5 104t-103.5 246q0 141 104 245.5t242 104.5q141 0 246.5 -104.5t105.5 -245.5t-105.5 -245.5t-246.5 -104.5zM422 905q86 0 146.5 61.5t60.5 149.5t-60.5 148.5t-146.5 60.5t-146.5 -61.5t-60.5 -147.5q0 -88 60.5 -149.5t146.5 -61.5z" />
<glyph unicode="&#xb1;" horiz-adv-x="1286" d="M1069 109h-876v143h364v364h-358v154h358v363h156v-363h364v-154h-364v-364h356v-143z" />
<glyph unicode="&#xb4;" horiz-adv-x="718" d="M248 1184l213 358l157 -125l-225 -233h-145z" />
<glyph unicode="&#xb6;" horiz-adv-x="1222" d="M952 4v1454h148v-1454h-148zM778 0h-164v600h-32q-208 0 -330.5 118.5t-122.5 303.5q0 188 124.5 310t332.5 122h192v-1454z" />
<glyph unicode="&#xb7;" horiz-adv-x="292" d="M145 608q-43 0 -75.5 31.5t-32.5 77.5t33 79t75 33q44 0 77.5 -33t33.5 -79t-33.5 -77.5t-77.5 -31.5z" />
<glyph unicode="&#xb8;" horiz-adv-x="1193" d="M498 37h104l-14 -90q91 -11 150 -69t59 -148q0 -92 -61 -153.5t-177 -61.5q-13 0 -25.5 1t-25.5 3.5t-22.5 4t-23.5 6t-20.5 6.5t-20.5 7.5t-17.5 7l-17.5 7.5l-15 6l47 123q90 -37 143 -37q41 0 71 21t30 59q0 77 -130 90l-79 8z" />
<glyph unicode="&#xba;" horiz-adv-x="819" d="M408 639q-136 0 -225 93.5t-89 248.5v74q0 153 87 244.5t227 91.5q143 0 231 -91.5t88 -244.5v-74q0 -160 -90 -251t-229 -91zM408 768q84 0 132 54t48 157v76q0 99 -48 156t-132 57q-86 0 -130.5 -56.5t-44.5 -156.5v-76q0 -101 47.5 -156t127.5 -55zM115 326v114h587 v-114h-587z" />
<glyph unicode="&#xbb;" horiz-adv-x="1134" d="M711 952l276 -315v-90l-274 -314l-109 93l232 268l-232 266zM289 952l276 -315v-90l-274 -314l-109 93l232 268l-232 266z" />
<glyph unicode="&#xbf;" horiz-adv-x="1062" d="M549 1083q45 0 77.5 -31.5t32.5 -78.5q0 -49 -32.5 -81t-77.5 -32q-44 0 -75.5 32t-31.5 81q0 47 32 78.5t75 31.5zM629 657q0 -92 -15.5 -162t-48 -120.5t-64 -82t-81.5 -69.5q-56 -42 -82.5 -63.5t-52.5 -50.5t-34.5 -56.5t-8.5 -64.5q0 -108 74 -177t200 -69 q110 0 195 67.5t102 184.5l148 -14q-18 -163 -140.5 -275.5t-308.5 -112.5q-193 0 -307 113t-119 279q-1 34 4.5 65t13 54t25 49t29 41t38 38.5t40 34.5t46.5 36.5t46 35.5q62 49 91 83.5t45.5 90.5t16.5 145h148z" />
<glyph unicode="&#xc0;" horiz-adv-x="1351" d="M545 1929l213 -358h-146l-225 233zM410 494h532l-266 731zM66 0l528 1454h164l528 -1454h-164l-129 346h-633l-127 -346h-167z" />
<glyph unicode="&#xc1;" horiz-adv-x="1351" d="M604 1559l213 358l158 -125l-225 -233h-146zM410 494h532l-266 731zM66 0l528 1454h164l528 -1454h-164l-129 346h-633l-127 -346h-167z" />
<glyph unicode="&#xc2;" horiz-adv-x="1351" d="M455 1516l-80 73l221 226h158l219 -222l-82 -75l-215 151zM410 494h532l-266 731zM66 0l528 1454h164l528 -1454h-164l-129 346h-633l-127 -346h-167z" />
<glyph unicode="&#xc3;" horiz-adv-x="1351" d="M309 1597q8 77 70 138.5t156 68.5q56 3 104 -9.5t75.5 -29.5t59 -30.5t57.5 -12.5q48 3 78.5 27.5t38.5 56.5l101 -34q-2 -58 -55 -121t-144 -70q-55 -3 -106.5 18t-99 43.5t-93.5 20.5q-55 -3 -94 -27.5t-54 -68.5zM410 494h532l-266 731zM66 0l528 1454h164l528 -1454 h-164l-129 346h-633l-127 -346h-167z" />
<glyph unicode="&#xc4;" horiz-adv-x="1351" d="M889 1571q-40 0 -71.5 31t-31.5 73t31.5 73.5t71.5 31.5t72 -31.5t32 -73.5t-32 -73t-72 -31zM463 1571q-39 0 -71 31t-32 73t32 73.5t71 31.5q41 0 72.5 -31t31.5 -74q0 -42 -31 -73t-73 -31zM410 494h532l-266 731zM66 0l528 1454h164l528 -1454h-164l-129 346h-633 l-127 -346h-167z" />
<glyph unicode="&#xc5;" horiz-adv-x="1351" d="M678 1462q52 0 84.5 33t32.5 84q0 49 -33.5 85t-83.5 36t-84.5 -36.5t-34.5 -84.5q0 -51 33.5 -84t85.5 -33zM410 494h532l-266 731zM360 346l-127 -346h-167l501 1380q-54 30 -87.5 83.5t-33.5 117.5q0 91 71 161t161 70q89 0 159 -70t70 -161q0 -65 -34 -119t-89 -82 l502 -1380h-164l-129 346h-633z" />
<glyph unicode="&#xc6;" horiz-adv-x="1937" d="M471 506h473v774zM-18 0l882 1454h971v-149h-733v-494h590v-149h-590v-512h737v-150h-895v358h-561l-221 -358h-180z" />
<glyph unicode="&#xc7;" d="M657 -485q-13 0 -25.5 1t-25.5 3.5t-22.5 4t-23.5 6t-20.5 6.5t-20.5 7.5t-17.5 7l-17.5 7.5l-15 6l47 123q90 -37 143 -37q41 0 71 21t30 59q0 77 -129 90l-80 8l35 164q-77 16 -146 51.5t-131.5 96t-108 140.5t-72 192.5t-26.5 244.5q0 162 34.5 292.5t92 216 t136.5 143t164.5 82t179.5 24.5q215 0 360.5 -128.5t179.5 -349.5h-159q-28 151 -129.5 237.5t-251.5 86.5q-70 0 -132.5 -17.5t-121 -61.5t-100.5 -111t-67.5 -173t-25.5 -241q0 -124 25.5 -224.5t68 -167t101 -111t121 -64t131.5 -19.5q152 0 255 95t130 245h159 q-34 -225 -181 -358t-363 -133h-17l-6 -33q91 -11 150 -69t59 -148q0 -92 -61 -153.5t-177 -61.5z" />
<glyph unicode="&#xc8;" horiz-adv-x="1204" d="M541 1950l213 -359h-146l-225 234zM162 0v1454h907v-149h-750v-492h596v-151h-596v-512h768v-150h-925z" />
<glyph unicode="&#xc9;" horiz-adv-x="1204" d="M489 1585l213 359l158 -125l-225 -234h-146zM162 0v1454h907v-149h-750v-492h596v-151h-596v-512h768v-150h-925z" />
<glyph unicode="&#xca;" horiz-adv-x="1204" d="M393 1589l-80 74l222 225h157l219 -221l-82 -76l-215 152zM162 0v1454h907v-149h-750v-492h596v-151h-596v-512h768v-150h-925z" />
<glyph unicode="&#xcb;" horiz-adv-x="1204" d="M829 1636q-40 0 -71 31.5t-31 73.5t31 73t71 31q41 0 73 -31t32 -73t-32.5 -73.5t-72.5 -31.5zM403 1636q-39 0 -70.5 31.5t-31.5 73.5t31.5 73t70.5 31q42 0 73.5 -31t31.5 -73t-31.5 -73.5t-73.5 -31.5zM162 0v1454h907v-149h-750v-492h596v-151h-596v-512h768v-150 h-925z" />
<glyph unicode="&#xcc;" horiz-adv-x="477" d="M201 1587l-168 168l164 115l161 -283h-157zM160 0v1454h157v-1454h-157z" />
<glyph unicode="&#xcd;" horiz-adv-x="477" d="M141 1581l160 287l168 -117l-168 -170h-160zM160 0v1454h157v-1454h-157z" />
<glyph unicode="&#xce;" horiz-adv-x="477" d="M123 1569l-105 71l140 195h159l140 -195l-107 -71l-112 112zM160 0v1454h157v-1454h-157z" />
<glyph unicode="&#xcf;" horiz-adv-x="477" d="M397 1622q-42 0 -71 29.5t-29 74.5q0 46 29 75.5t71 29.5t71.5 -29.5t29.5 -75.5q0 -45 -29.5 -74.5t-71.5 -29.5zM96 1622q-43 0 -71.5 30.5t-28.5 76.5q0 45 28.5 73.5t71.5 28.5q41 0 70 -28.5t29 -73.5t-29.5 -76t-69.5 -31zM160 0v1454h157v-1454h-157z" />
<glyph unicode="&#xd0;" horiz-adv-x="1404" d="M686 0h-440v651h-209v150h209v653h440q121 0 229 -45t194 -132t136.5 -228.5t50.5 -319.5q0 -150 -32.5 -272.5t-89 -206.5t-134 -141t-166.5 -83t-188 -26zM403 152h283q206 0 329.5 144.5t123.5 432.5q0 115 -23.5 210.5t-65.5 162t-99.5 112.5t-124 67.5t-140.5 21.5 h-283v-502h318v-150h-318v-499z" />
<glyph unicode="&#xd1;" horiz-adv-x="1415" d="M350 1620q8 77 69.5 138.5t155.5 68.5q56 3 104.5 -9.5t76 -29.5t59 -30.5t57.5 -12.5q48 3 78.5 27.5t38.5 56.5l101 -35q-2 -58 -55 -120.5t-144 -69.5q-55 -3 -106.5 18t-99 43.5t-93.5 20.5q-54 -3 -93.5 -28t-54.5 -69zM160 0v1454h186l752 -1200v1200h157v-1454 h-190l-748 1194v-1194h-157z" />
<glyph unicode="&#xd2;" d="M616 1993l213 -359h-145l-225 234zM678 -16q-93 0 -175.5 26t-156.5 84.5t-127 144.5t-84 213.5t-31 284.5q0 184 45 327t124.5 231t182 133t222.5 45q119 0 221.5 -45.5t182 -134t124.5 -231.5t45 -325q0 -189 -45.5 -336t-125 -236.5t-181.5 -135t-221 -45.5zM678 135 q88 0 162 35t132.5 106t91 189t32.5 272q0 150 -33 264.5t-91.5 183t-132 102.5t-161.5 34q-186 0 -301 -145t-115 -439q0 -159 32.5 -277.5t90.5 -188t131 -103t162 -33.5z" />
<glyph unicode="&#xd3;" d="M563 1618l213 358l158 -125l-225 -233h-146zM678 -16q-93 0 -175.5 26t-156.5 84.5t-127 144.5t-84 213.5t-31 284.5q0 184 45 327t124.5 231t182 133t222.5 45q119 0 221.5 -45.5t182 -134t124.5 -231.5t45 -325q0 -189 -45.5 -336t-125 -236.5t-181.5 -135t-221 -45.5z M678 135q88 0 162 35t132.5 106t91 189t32.5 272q0 150 -33 264.5t-91.5 183t-132 102.5t-161.5 34q-186 0 -301 -145t-115 -439q0 -159 32.5 -277.5t90.5 -188t131 -103t162 -33.5z" />
<glyph unicode="&#xd4;" d="M461 1593l-80 74l221 225h158l219 -221l-82 -76l-215 152zM678 -16q-93 0 -175.5 26t-156.5 84.5t-127 144.5t-84 213.5t-31 284.5q0 184 45 327t124.5 231t182 133t222.5 45q119 0 221.5 -45.5t182 -134t124.5 -231.5t45 -325q0 -189 -45.5 -336t-125 -236.5 t-181.5 -135t-221 -45.5zM678 135q88 0 162 35t132.5 106t91 189t32.5 272q0 150 -33 264.5t-91.5 183t-132 102.5t-161.5 34q-186 0 -301 -145t-115 -439q0 -159 32.5 -277.5t90.5 -188t131 -103t162 -33.5z" />
<glyph unicode="&#xd5;" d="M315 1634q8 77 70 138.5t156 68.5q56 3 104.5 -9.5t76 -29.5t59 -30.5t57.5 -12.5q48 3 78 27.5t38 56.5l101 -35q-2 -58 -55 -120.5t-144 -69.5q-55 -3 -106.5 18t-99 43.5t-93.5 20.5q-118 -7 -147 -96zM678 -16q-93 0 -175.5 26t-156.5 84.5t-127 144.5t-84 213.5 t-31 284.5q0 184 45 327t124.5 231t182 133t222.5 45q119 0 221.5 -45.5t182 -134t124.5 -231.5t45 -325q0 -189 -45.5 -336t-125 -236.5t-181.5 -135t-221 -45.5zM678 135q88 0 162 35t132.5 106t91 189t32.5 272q0 150 -33 264.5t-91.5 183t-132 102.5t-161.5 34 q-186 0 -301 -145t-115 -439q0 -159 32.5 -277.5t90.5 -188t131 -103t162 -33.5z" />
<glyph unicode="&#xd6;" d="M893 1593q-40 0 -71 31.5t-31 73.5t31 73t71 31t72 -31t32 -73t-32 -73.5t-72 -31.5zM467 1593q-39 0 -70.5 31.5t-31.5 73.5t31.5 73t70.5 31q42 0 73 -31t31 -73t-31.5 -73.5t-72.5 -31.5zM678 -16q-93 0 -175.5 26t-156.5 84.5t-127 144.5t-84 213.5t-31 284.5 q0 184 45 327t124.5 231t182 133t222.5 45q119 0 221.5 -45.5t182 -134t124.5 -231.5t45 -325q0 -189 -45.5 -336t-125 -236.5t-181.5 -135t-221 -45.5zM678 135q88 0 162 35t132.5 106t91 189t32.5 272q0 150 -33 264.5t-91.5 183t-132 102.5t-161.5 34q-186 0 -301 -145 t-115 -439q0 -159 32.5 -277.5t90.5 -188t131 -103t162 -33.5z" />
<glyph unicode="&#xd7;" horiz-adv-x="1368" d="M190 293l385 383l-376 379l106 108l379 -379l379 379l111 -108l-379 -381l381 -381l-111 -109l-379 381l-385 -383z" />
<glyph unicode="&#xd8;" d="M262 737q0 -236 72 -383l579 889q-100 78 -235 78q-186 0 -301 -145t-115 -439zM678 135q88 0 162 35t132.5 106t91 189t32.5 272q0 240 -86 393l-588 -901q103 -94 256 -94zM678 -16q-198 0 -340 116l-102 -157l-121 75l125 191q-136 196 -136 528q0 184 45 327 t124.5 231t182 133t222.5 45q182 0 319 -101l95 144l118 -76l-110 -170q151 -194 151 -533q0 -189 -45.5 -336t-125 -236.5t-181.5 -135t-221 -45.5z" />
<glyph unicode="&#xd9;" horiz-adv-x="1245" d="M565 1942l213 -359h-145l-225 234zM625 -23q-242 0 -375 158t-133 459v860h157v-862q0 -234 90 -348.5t261 -114.5q350 0 350 463v862h155v-860q0 -298 -130 -457.5t-375 -159.5z" />
<glyph unicode="&#xda;" horiz-adv-x="1247" d="M485 1567l213 358l158 -125l-225 -233h-146zM625 -23q-242 0 -375 158t-133 459v860h157v-862q0 -234 90 -348.5t261 -114.5q350 0 350 463v862h155v-860q0 -298 -130 -457.5t-375 -159.5z" />
<glyph unicode="&#xdb;" horiz-adv-x="1247" d="M401 1571l-79 74l221 225h157l220 -221l-82 -76l-215 151zM625 -23q-242 0 -375 158t-133 459v860h157v-862q0 -234 90 -348.5t261 -114.5q350 0 350 463v862h155v-860q0 -298 -130 -457.5t-375 -159.5z" />
<glyph unicode="&#xdc;" horiz-adv-x="1247" d="M842 1581q-40 0 -71.5 31.5t-31.5 73.5t31.5 73t71.5 31t72 -31t32 -73t-32 -73.5t-72 -31.5zM416 1581q-39 0 -71 31.5t-32 73.5t32 73t71 31q42 0 73 -31t31 -73t-31 -73.5t-73 -31.5zM625 -23q-242 0 -375 158t-133 459v860h157v-862q0 -234 90 -348.5t261 -114.5 q350 0 350 463v862h155v-860q0 -298 -130 -457.5t-375 -159.5z" />
<glyph unicode="&#xdd;" horiz-adv-x="1243" d="M489 1563l213 358l158 -125l-225 -233h-146zM543 0v575l-488 879h181l387 -696l385 696h180l-488 -879v-575h-157z" />
<glyph unicode="&#xde;" horiz-adv-x="1245" d="M160 0v1454h157v-289h338q213 0 347.5 -120t134.5 -324q0 -198 -133.5 -318t-344.5 -120h-342v-283h-157zM317 432h347q137 0 225 80.5t88 212.5q-1 133 -89 213t-224 80h-347v-586z" />
<glyph unicode="&#xdf;" horiz-adv-x="1222" d="M160 0v920q0 111 27 203.5t73 156.5t107 109t129 65.5t139 20.5q151 0 253.5 -74t149.5 -197l-282 -385q164 -24 262 -127t98 -260q0 -191 -128.5 -316.5t-338.5 -125.5q-81 0 -131 10v150q37 -11 133 -11q143 0 224 82.5t81 210.5q0 125 -82.5 189.5t-287.5 70.5h-15 v101l289 407q-21 60 -79 93.5t-150 33.5q-60 0 -114 -23.5t-99.5 -70t-72 -126.5t-26.5 -183v-924h-159z" />
<glyph unicode="&#xe0;" horiz-adv-x="1081" d="M492 1593l213 -358h-146l-225 233zM481 121q105 0 199.5 62.5t112.5 131.5v156q-108 30 -275 27q-133 -3 -200.5 -57t-67.5 -136q0 -88 62 -136t169 -48zM446 -16q-149 0 -249.5 92.5t-100.5 220.5q0 145 112.5 243.5t309.5 98.5q168 0 275 -39v45q0 164 -67.5 229.5 t-201.5 65.5q-170 0 -243 -98l-129 65q55 80 156 129t231 49q191 0 300 -107.5t109 -336.5v-641h-147v135q-33 -57 -132.5 -104t-222.5 -47z" />
<glyph unicode="&#xe1;" horiz-adv-x="1081" d="M393 1247l213 359l158 -125l-225 -234h-146zM481 121q105 0 199.5 62.5t112.5 131.5v156q-108 30 -275 27q-133 -3 -200.5 -57t-67.5 -136q0 -88 62 -136t169 -48zM446 -16q-149 0 -249.5 92.5t-100.5 220.5q0 145 112.5 243.5t309.5 98.5q168 0 275 -39v45 q0 164 -67.5 229.5t-201.5 65.5q-170 0 -243 -98l-129 65q55 80 156 129t231 49q191 0 300 -107.5t109 -336.5v-641h-147v135q-33 -57 -132.5 -104t-222.5 -47z" />
<glyph unicode="&#xe2;" horiz-adv-x="1081" d="M301 1266l-80 73l221 226h158l219 -222l-82 -75l-215 151zM481 121q105 0 199.5 62.5t112.5 131.5v156q-108 30 -275 27q-133 -3 -200.5 -57t-67.5 -136q0 -88 62 -136t169 -48zM446 -16q-149 0 -249.5 92.5t-100.5 220.5q0 145 112.5 243.5t309.5 98.5q168 0 275 -39v45 q0 164 -67.5 229.5t-201.5 65.5q-170 0 -243 -98l-129 65q55 80 156 129t231 49q191 0 300 -107.5t109 -336.5v-641h-147v135q-33 -57 -132.5 -104t-222.5 -47z" />
<glyph unicode="&#xe3;" horiz-adv-x="1081" d="M145 1352q8 77 70 138.5t156 68.5q56 3 104.5 -9.5t76 -29.5t59 -30.5t57.5 -12.5q48 3 78 27.5t38 56.5l101 -35q-2 -58 -55 -121t-144 -70q-55 -3 -106.5 18t-99 43.5t-93.5 20.5q-118 -7 -147 -96zM481 121q105 0 199.5 62.5t112.5 131.5v156q-108 30 -275 27 q-133 -3 -200.5 -57t-67.5 -136q0 -88 62 -136t169 -48zM446 -16q-149 0 -249.5 92.5t-100.5 220.5q0 145 112.5 243.5t309.5 98.5q168 0 275 -39v45q0 164 -67.5 229.5t-201.5 65.5q-170 0 -243 -98l-129 65q55 80 156 129t231 49q191 0 300 -107.5t109 -336.5v-641h-147 v135q-33 -57 -132.5 -104t-222.5 -47z" />
<glyph unicode="&#xe4;" horiz-adv-x="1081" d="M741 1339q-40 0 -71 31.5t-31 73.5t31 73t71 31q41 0 73 -31t32 -73t-32.5 -73.5t-72.5 -31.5zM315 1339q-39 0 -70.5 31.5t-31.5 73.5t31.5 73t70.5 31q42 0 73.5 -31t31.5 -73t-31.5 -73.5t-73.5 -31.5zM481 121q105 0 199.5 62.5t112.5 131.5v156q-108 30 -275 27 q-133 -3 -200.5 -57t-67.5 -136q0 -88 62 -136t169 -48zM446 -16q-149 0 -249.5 92.5t-100.5 220.5q0 145 112.5 243.5t309.5 98.5q168 0 275 -39v45q0 164 -67.5 229.5t-201.5 65.5q-170 0 -243 -98l-129 65q55 80 156 129t231 49q191 0 300 -107.5t109 -336.5v-641h-147 v135q-33 -57 -132.5 -104t-222.5 -47z" />
<glyph unicode="&#xe5;" horiz-adv-x="1081" d="M524 1124q-92 0 -161.5 67.5t-69.5 162.5q0 92 70.5 161.5t160.5 69.5q89 0 159.5 -70t70.5 -161q0 -95 -69.5 -162.5t-160.5 -67.5zM524 1235q52 0 84.5 33t32.5 84q0 49 -33.5 85t-83.5 36t-84 -36.5t-34 -84.5q0 -51 33 -84t85 -33zM481 121q105 0 199.5 62.5 t112.5 131.5v156q-108 30 -275 27q-133 -3 -200.5 -57t-67.5 -136q0 -88 62 -136t169 -48zM446 -16q-149 0 -249.5 92.5t-100.5 220.5q0 145 112.5 243.5t309.5 98.5q168 0 275 -39v45q0 164 -67.5 229.5t-201.5 65.5q-170 0 -243 -98l-129 65q55 80 156 129t231 49 q191 0 300 -107.5t109 -336.5v-641h-147v135q-33 -57 -132.5 -104t-222.5 -47z" />
<glyph unicode="&#xe6;" horiz-adv-x="1718" d="M920 612h596q0 156 -80.5 243t-210.5 87q-129 0 -212.5 -91t-92.5 -239zM1239 -25q-123 0 -228 56.5t-169 167.5q-62 -109 -166.5 -162t-231.5 -53q-177 0 -287 90t-110 227q0 159 114 251.5t314 92.5q178 0 277 -31v15q-12 162 -79 241.5t-204 79.5q-26 0 -49 -2 t-43 -7.5t-35.5 -10t-32.5 -14.5t-26 -14.5t-23.5 -17t-19 -16.5t-18 -17.5t-15.5 -14.5l-117 79q55 72 151.5 123.5t233.5 51.5q276 0 377 -211q64 100 161.5 153t211.5 53q95 0 175.5 -32.5t141 -95t95 -159.5t34.5 -218v-103h-751q3 -174 96.5 -266t230.5 -92 q208 0 303 131l111 -94q-140 -181 -422 -181zM438 121q136 0 222 78t92 235v47q-43 18 -123 27t-150 4q-139 -3 -209.5 -57.5t-70.5 -143.5q0 -84 63 -137t176 -53z" />
<glyph unicode="&#xe7;" horiz-adv-x="1083" d="M528 -516q-13 0 -25.5 1t-25.5 3.5t-22.5 4t-23.5 6t-20.5 6.5t-20.5 7.5t-17.5 7t-18.5 7.5l-14 6l47 123q90 -37 143 -37q41 0 71 21t30 59q0 77 -129 90l-80 8l41 185q-75 17 -139.5 58.5t-116 106t-81.5 161.5t-30 214q0 142 40 253t107.5 177t148.5 99.5t171 33.5 q101 0 190 -40t153 -121.5t81 -192.5h-162q-23 99 -94.5 153t-167.5 54q-60 0 -114 -23.5t-99 -71.5t-71.5 -131.5t-26.5 -193.5q0 -83 18.5 -151.5t49 -114t71 -76.5t83.5 -45t87 -14q95 0 164.5 46.5t99.5 133.5h162q-35 -150 -152 -238t-270 -88l-8 -55q91 -11 150 -69 t59 -148q0 -92 -61 -153.5t-177 -61.5z" />
<glyph unicode="&#xe8;" horiz-adv-x="1103" d="M516 1602l213 -359h-145l-226 234zM575 -25q-95 0 -180 34.5t-152.5 101t-107 174.5t-39.5 245q0 130 37.5 237t102 175.5t148 105.5t177.5 37q196 0 321.5 -132.5t125.5 -372.5v-103h-752q3 -174 97 -266t231 -92q208 0 303 131l110 -94q-140 -181 -422 -181zM256 612 h596q0 156 -80.5 243t-210.5 87q-129 0 -212.5 -91t-92.5 -239z" />
<glyph unicode="&#xe9;" horiz-adv-x="1103" d="M436 1245l213 359l158 -125l-225 -234h-146zM575 -25q-95 0 -180 34.5t-152.5 101t-107 174.5t-39.5 245q0 130 37.5 237t102 175.5t148 105.5t177.5 37q196 0 321.5 -132.5t125.5 -372.5v-103h-752q3 -174 97 -266t231 -92q208 0 303 131l110 -94q-140 -181 -422 -181z M256 612h596q0 156 -80.5 243t-210.5 87q-129 0 -212.5 -91t-92.5 -239z" />
<glyph unicode="&#xea;" horiz-adv-x="1103" d="M354 1268l-80 73l222 226h157l219 -221l-81 -76l-216 151zM575 -25q-95 0 -180 34.5t-152.5 101t-107 174.5t-39.5 245q0 130 37.5 237t102 175.5t148 105.5t177.5 37q196 0 321.5 -132.5t125.5 -372.5v-103h-752q3 -174 97 -266t231 -92q208 0 303 131l110 -94 q-140 -181 -422 -181zM256 612h596q0 156 -80.5 243t-210.5 87q-129 0 -212.5 -91t-92.5 -239z" />
<glyph unicode="&#xeb;" horiz-adv-x="1103" d="M784 1331q-40 0 -71 31.5t-31 73.5t31 73t71 31q41 0 73 -31t32 -73t-32.5 -73.5t-72.5 -31.5zM358 1331q-39 0 -70.5 31.5t-31.5 73.5t31.5 73t70.5 31q42 0 73.5 -31t31.5 -73t-31.5 -73.5t-73.5 -31.5zM575 -25q-95 0 -180 34.5t-152.5 101t-107 174.5t-39.5 245 q0 130 37.5 237t102 175.5t148 105.5t177.5 37q196 0 321.5 -132.5t125.5 -372.5v-103h-752q3 -174 97 -266t231 -92q208 0 303 131l110 -94q-140 -181 -422 -181zM256 612h596q0 156 -80.5 243t-210.5 87q-129 0 -212.5 -91t-92.5 -239z" />
<glyph unicode="&#xec;" horiz-adv-x="477" d="M182 1266l-135 223l154 117l131 -340h-150zM160 0v1065h157v-1065h-157z" />
<glyph unicode="&#xed;" horiz-adv-x="477" d="M160 1262l137 342l160 -125l-152 -217h-145zM160 0v1065h157v-1065h-157z" />
<glyph unicode="&#xee;" horiz-adv-x="477" d="M104 1286l-98 72l154 207h159l152 -205l-98 -72l-133 121zM160 0v1065h157v-1065h-157z" />
<glyph unicode="&#xef;" horiz-adv-x="477" d="M383 1319q-42 0 -71 30t-29 76q0 45 29 75t71 30t70 -30t28 -75q0 -47 -28 -76.5t-70 -29.5zM94 1321q-42 0 -70 29.5t-28 74.5t28 75t70 30t72.5 -30t30.5 -75t-30.5 -74.5t-72.5 -29.5zM160 0v1065h157v-1065h-157z" />
<glyph unicode="&#xf0;" horiz-adv-x="1138" d="M541 -18q-86 0 -164 33t-141.5 95.5t-101.5 165t-38 230.5q0 129 36.5 231.5t99 166t142 97t169.5 33.5q95 0 167.5 -38t102.5 -97q-4 54 -30 140t-74 173l-322 -69l-27 108l277 72q-52 69 -111 117l101 116q106 -99 170 -192l194 49l37 -131l-166 -37q127 -260 127 -713 q0 -135 -35.5 -241.5t-97.5 -173t-142 -101t-173 -34.5zM543 129q54 0 103.5 22t91.5 65.5t67.5 120t25.5 175.5q0 177 -79.5 276t-204.5 99q-129 0 -210 -97.5t-81 -283.5q0 -97 25 -172t67.5 -118.5t91.5 -65t103 -21.5z" />
<glyph unicode="&#xf1;" horiz-adv-x="1122" d="M190 1343q8 77 70 138.5t156 68.5q56 3 104.5 -9.5t76 -29.5t59 -30.5t57.5 -12.5q48 3 78 27.5t38 56.5l101 -34q-2 -58 -55 -121t-144 -70q-55 -3 -106.5 18t-99 43.5t-93.5 20.5q-118 -7 -147 -96zM160 0v1065h147l6 -145q35 77 118 126.5t185 49.5q173 0 275 -120 t102 -337v-639h-159v637q0 153 -61 232t-191 79q-119 0 -191 -83.5t-72 -227.5v-637h-159z" />
<glyph unicode="&#xf2;" horiz-adv-x="1138" d="M508 1630l213 -358h-146l-225 233zM567 -18q-90 0 -172.5 33t-150 97.5t-108 172t-40.5 243.5q0 141 39.5 251t106.5 175t149.5 98t175.5 33t176.5 -34t151 -100t107.5 -175t40 -248q0 -135 -41.5 -242.5t-110 -172t-151.5 -98t-172 -33.5zM567 129q60 0 115.5 23t102 69 t74.5 125t28 182q0 106 -27 187.5t-73 129t-101.5 71.5t-118.5 24q-137 0 -226 -102t-89 -310q0 -100 26.5 -178.5t72 -125.5t100.5 -71t116 -24z" />
<glyph unicode="&#xf3;" horiz-adv-x="1138" d="M430 1257l213 359l158 -125l-226 -234h-145zM567 -18q-90 0 -172.5 33t-150 97.5t-108 172t-40.5 243.5q0 141 39.5 251t106.5 175t149.5 98t175.5 33t176.5 -34t151 -100t107.5 -175t40 -248q0 -135 -41.5 -242.5t-110 -172t-151.5 -98t-172 -33.5zM567 129 q60 0 115.5 23t102 69t74.5 125t28 182q0 106 -27 187.5t-73 129t-101.5 71.5t-118.5 24q-137 0 -226 -102t-89 -310q0 -100 26.5 -178.5t72 -125.5t100.5 -71t116 -24z" />
<glyph unicode="&#xf4;" horiz-adv-x="1138" d="M350 1266l-80 73l222 226h157l219 -222l-82 -75l-215 151zM567 -18q-90 0 -172.5 33t-150 97.5t-108 172t-40.5 243.5q0 141 39.5 251t106.5 175t149.5 98t175.5 33t176.5 -34t151 -100t107.5 -175t40 -248q0 -135 -41.5 -242.5t-110 -172t-151.5 -98t-172 -33.5z M567 129q60 0 115.5 23t102 69t74.5 125t28 182q0 106 -27 187.5t-73 129t-101.5 71.5t-118.5 24q-137 0 -226 -102t-89 -310q0 -100 26.5 -178.5t72 -125.5t100.5 -71t116 -24z" />
<glyph unicode="&#xf5;" horiz-adv-x="1138" d="M190 1313q8 77 70 138.5t156 68.5q56 3 104.5 -9.5t76 -29.5t59 -30.5t57.5 -12.5q48 3 78 27.5t38 56.5l101 -35q-2 -58 -55 -121t-144 -70q-55 -3 -106.5 18t-99 43.5t-93.5 20.5q-118 -7 -147 -96zM567 -18q-90 0 -172.5 33t-150 97.5t-108 172t-40.5 243.5 q0 141 39.5 251t106.5 175t149.5 98t175.5 33t176.5 -34t151 -100t107.5 -175t40 -248q0 -135 -41.5 -242.5t-110 -172t-151.5 -98t-172 -33.5zM567 129q60 0 115.5 23t102 69t74.5 125t28 182q0 106 -27 187.5t-73 129t-101.5 71.5t-118.5 24q-137 0 -226 -102t-89 -310 q0 -100 26.5 -178.5t72 -125.5t100.5 -71t116 -24z" />
<glyph unicode="&#xf6;" horiz-adv-x="1138" d="M786 1321q-40 0 -71 31t-31 73t31 73.5t71 31.5t72.5 -31.5t32.5 -73.5t-32 -73t-73 -31zM360 1321q-39 0 -70.5 31t-31.5 73t31.5 73.5t70.5 31.5q42 0 73.5 -31.5t31.5 -73.5t-31.5 -73t-73.5 -31zM567 -18q-90 0 -172.5 33t-150 97.5t-108 172t-40.5 243.5 q0 141 39.5 251t106.5 175t149.5 98t175.5 33t176.5 -34t151 -100t107.5 -175t40 -248q0 -135 -41.5 -242.5t-110 -172t-151.5 -98t-172 -33.5zM567 129q60 0 115.5 23t102 69t74.5 125t28 182q0 106 -27 187.5t-73 129t-101.5 71.5t-118.5 24q-137 0 -226 -102t-89 -310 q0 -100 26.5 -178.5t72 -125.5t100.5 -71t116 -24z" />
<glyph unicode="&#xf7;" horiz-adv-x="1331" d="M662 922q-44 0 -77.5 32t-33.5 78q0 48 33.5 79.5t77.5 31.5q43 0 75.5 -31.5t32.5 -79.5q0 -46 -33 -78t-75 -32zM178 602v150h977v-150h-977zM662 195q-44 0 -77.5 33t-33.5 79q0 48 33.5 80.5t77.5 32.5q43 0 75.5 -32.5t32.5 -80.5q0 -46 -33 -79t-75 -33z" />
<glyph unicode="&#xf8;" horiz-adv-x="1140" d="M254 528q0 -136 49 -229l455 575q-81 66 -189 66q-137 0 -226 -102t-89 -310zM569 129q60 0 115.5 23t102 69t74.5 125t28 182q0 142 -47 238l-455 -573q79 -64 182 -64zM569 -18q-155 0 -276 92l-90 -113l-107 78l103 131q-101 142 -101 358q0 141 39.5 251t106.5 175 t149.5 98t175.5 33q161 0 283 -94l82 105l104 -80l-96 -121q102 -142 102 -367q0 -135 -41.5 -242.5t-110 -172t-151.5 -98t-172 -33.5z" />
<glyph unicode="&#xf9;" horiz-adv-x="1120" d="M504 1624l213 -358h-146l-225 233zM520 -23q-174 0 -284.5 118t-110.5 335v635h162v-635q0 -150 67 -227.5t189 -77.5q118 0 188 80.5t70 224.5v635h160v-1065h-152l-4 154q-26 -73 -110.5 -125t-174.5 -52z" />
<glyph unicode="&#xfa;" horiz-adv-x="1120" d="M399 1233l213 358l158 -125l-225 -233h-146zM520 -23q-174 0 -284.5 118t-110.5 335v635h162v-635q0 -150 67 -227.5t189 -77.5q118 0 188 80.5t70 224.5v635h160v-1065h-152l-4 154q-26 -73 -110.5 -125t-174.5 -52z" />
<glyph unicode="&#xfb;" horiz-adv-x="1120" d="M332 1266l-80 73l221 226h158l219 -222l-82 -75l-215 151zM520 -23q-174 0 -284.5 118t-110.5 335v635h162v-635q0 -150 67 -227.5t189 -77.5q118 0 188 80.5t70 224.5v635h160v-1065h-152l-4 154q-26 -73 -110.5 -125t-174.5 -52z" />
<glyph unicode="&#xfc;" horiz-adv-x="1120" d="M766 1319q-40 0 -71 31t-31 73t31 73.5t71 31.5t72 -31.5t32 -73.5t-32 -73t-72 -31zM340 1319q-39 0 -70.5 31t-31.5 73t31.5 73.5t70.5 31.5q42 0 73 -31t31 -74q0 -42 -31 -73t-73 -31zM520 -23q-174 0 -284.5 118t-110.5 335v635h162v-635q0 -150 67 -227.5 t189 -77.5q118 0 188 80.5t70 224.5v635h160v-1065h-152l-4 154q-26 -73 -110.5 -125t-174.5 -52z" />
<glyph unicode="&#xfd;" horiz-adv-x="1032" d="M362 1266l213 358l158 -125l-225 -233h-146zM98 -375l43 137q95 -33 154 -6.5t96 119.5q0 1 7.5 21.5t15.5 42.5t14.5 41.5t5.5 21.5l-387 1063h170l297 -856l301 856h170l-463 -1260q-29 -79 -78 -128.5t-107.5 -65.5t-118 -12t-120.5 26z" />
<glyph unicode="&#xfe;" horiz-adv-x="1159" d="M608 125q127 0 211 99t84 296q0 109 -26 193t-69.5 131t-93.5 70.5t-104 23.5q-42 0 -82.5 -13.5t-79.5 -45t-68 -78.5t-47 -118t-18 -159q0 -192 84.5 -295.5t208.5 -103.5zM160 -434v1888h155v-541q39 74 129 123t183 49q81 0 156.5 -33.5t139 -99.5t102 -178 t38.5 -254q0 -134 -36.5 -240t-98.5 -170t-138.5 -97t-162.5 -33q-97 0 -187.5 53t-120.5 131v-598h-159z" />
<glyph unicode="&#xff;" horiz-adv-x="1032" d="M739 1315q-40 0 -71 31t-31 73t31 73.5t71 31.5t72.5 -31.5t32.5 -73.5t-32 -73t-73 -31zM313 1315q-39 0 -70.5 31t-31.5 73t31.5 73.5t70.5 31.5q42 0 73.5 -31.5t31.5 -73.5t-31.5 -73t-73.5 -31zM98 -375l43 137q95 -33 154 -6.5t96 119.5q0 1 7.5 21.5t15.5 42.5 t14.5 41.5t5.5 21.5l-387 1063h170l297 -856l301 856h170l-463 -1260q-29 -79 -78 -128.5t-107.5 -65.5t-118 -12t-120.5 26z" />
<glyph unicode="&#x100;" horiz-adv-x="1351" d="M305 1583v137h744v-137h-744zM410 494h532l-266 731zM66 0l528 1454h164l528 -1454h-164l-129 346h-633l-127 -346h-167z" />
<glyph unicode="&#x101;" horiz-adv-x="1081" d="M158 1358v137h743v-137h-743zM481 121q105 0 199.5 62.5t112.5 131.5v156q-108 30 -275 27q-133 -3 -200.5 -57t-67.5 -136q0 -88 62 -136t169 -48zM446 -16q-149 0 -249.5 92.5t-100.5 220.5q0 145 112.5 243.5t309.5 98.5q168 0 275 -39v45q0 164 -67.5 229.5 t-201.5 65.5q-170 0 -243 -98l-129 65q55 80 156 129t231 49q191 0 300 -107.5t109 -336.5v-641h-147v135q-33 -57 -132.5 -104t-222.5 -47z" />
<glyph unicode="&#x102;" horiz-adv-x="1361" d="M682 1563q-96 0 -192.5 52t-155.5 134l92 88q51 -60 120.5 -96.5t135.5 -36.5q67 0 133 34t119 99l94 -88q-57 -89 -150.5 -137.5t-195.5 -48.5zM420 494h532l-266 731zM76 0l528 1454h164l528 -1454h-163l-129 346h-633l-127 -346h-168z" />
<glyph unicode="&#x103;" horiz-adv-x="1081" d="M535 1274q-96 0 -193 52t-156 134l93 88q51 -60 120.5 -96.5t135.5 -36.5q142 0 251 133l95 -88q-57 -89 -150.5 -137.5t-195.5 -48.5zM481 121q105 0 199.5 62.5t112.5 131.5v156q-108 30 -275 27q-133 -3 -200.5 -57t-67.5 -136q0 -88 62 -136t169 -48zM446 -16 q-149 0 -249.5 92.5t-100.5 220.5q0 145 112.5 243.5t309.5 98.5q168 0 275 -39v45q0 164 -67.5 229.5t-201.5 65.5q-170 0 -243 -98l-129 65q55 80 156 129t231 49q191 0 300 -107.5t109 -336.5v-641h-147v135q-33 -57 -132.5 -104t-222.5 -47z" />
<glyph unicode="&#x104;" horiz-adv-x="1351" d="M410 494h532l-266 731zM1270 -297v-143h-154q-68 0 -119 27t-74.5 68t-16.5 94t48 101q15 19 43 51.5t65.5 74.5t49.5 55l-119 315h-633l-127 -346h-167l528 1454h164l528 -1454h-8l-191 -211q-19 -22 -22 -41t17 -32t65 -13h123z" />
<glyph unicode="&#x105;" horiz-adv-x="1083" d="M481 121q105 0 199.5 62.5t112.5 131.5v156q-108 30 -275 27q-133 -3 -200.5 -57t-67.5 -136q0 -88 62 -136t169 -48zM922 -297v-143h-154q-68 0 -119 27t-74.5 68t-16.5 94t48 101q29 36 174 199q12 12 21 14v72q-33 -57 -132.5 -104t-222.5 -47q-149 0 -249.5 92.5 t-100.5 220.5q0 145 112.5 243.5t309.5 98.5q168 0 275 -39v45q0 164 -67.5 229.5t-201.5 65.5q-170 0 -243 -98l-129 65q55 80 156 129t231 49q191 0 300 -107.5t109 -336.5v-641h-18l-191 -211q-19 -22 -22 -41t17 -32t65 -13h123z" />
<glyph unicode="&#x106;" d="M590 1571l213 358l158 -125l-226 -233h-145zM709 -20q-90 0 -174.5 25.5t-164 82.5t-138.5 140.5t-94.5 209.5t-35.5 279q0 162 34.5 292.5t92 216t136.5 143t164.5 82t179.5 24.5q215 0 360.5 -128.5t179.5 -349.5h-159q-28 151 -129.5 237.5t-251.5 86.5 q-70 0 -132.5 -17.5t-121 -61.5t-100.5 -111t-67.5 -173t-25.5 -241q0 -124 25.5 -224.5t68 -167t101 -111t121 -64t131.5 -19.5q152 0 255 95t130 245h159q-34 -225 -181 -358t-363 -133z" />
<glyph unicode="&#x107;" horiz-adv-x="1083" d="M430 1253l213 359l158 -125l-226 -234h-145zM561 -29q-69 0 -135 20.5t-126 65t-105 107.5t-72 155.5t-27 202.5q0 142 40 253t107.5 177t148.5 99.5t171 33.5q101 0 190 -40t153 -121.5t81 -192.5h-162q-23 99 -94.5 153t-167.5 54q-60 0 -114 -23.5t-99 -71.5 t-71.5 -131.5t-26.5 -193.5q0 -83 18.5 -151.5t49 -114t71 -76.5t83.5 -45t87 -14q95 0 164.5 46.5t99.5 133.5h162q-35 -150 -152.5 -238t-273.5 -88z" />
<glyph unicode="&#x10a;" d="M700 1626q-43 0 -77.5 32.5t-34.5 78.5q0 43 35 76.5t77 33.5t76.5 -33t34.5 -77q0 -46 -34 -78.5t-77 -32.5zM709 -20q-90 0 -174.5 25.5t-164 82.5t-138.5 140.5t-94.5 209.5t-35.5 279q0 162 34.5 292.5t92 216t136.5 143t164.5 82t179.5 24.5q215 0 360.5 -128.5 t179.5 -349.5h-159q-28 151 -129.5 237.5t-251.5 86.5q-70 0 -132.5 -17.5t-121 -61.5t-100.5 -111t-67.5 -173t-25.5 -241q0 -124 25.5 -224.5t68 -167t101 -111t121 -64t131.5 -19.5q152 0 255 95t130 245h159q-34 -225 -181 -358t-363 -133z" />
<glyph unicode="&#x10b;" horiz-adv-x="1083" d="M553 1329q-43 0 -78 32.5t-35 78.5q0 43 35.5 76.5t77.5 33.5t76.5 -33t34.5 -77q0 -46 -34 -78.5t-77 -32.5zM561 -29q-69 0 -135 20.5t-126 65t-105 107.5t-72 155.5t-27 202.5q0 142 40 253t107.5 177t148.5 99.5t171 33.5q101 0 190 -40t153 -121.5t81 -192.5h-162 q-23 99 -94.5 153t-167.5 54q-60 0 -114 -23.5t-99 -71.5t-71.5 -131.5t-26.5 -193.5q0 -83 18.5 -151.5t49 -114t71 -76.5t83.5 -45t87 -14q95 0 164.5 46.5t99.5 133.5h162q-35 -150 -152.5 -238t-273.5 -88z" />
<glyph unicode="&#x10c;" d="M625 1591l-224 221l80 78l221 -153l220 153l77 -75l-217 -224h-157zM709 -20q-90 0 -174.5 25.5t-164 82.5t-138.5 140.5t-94.5 209.5t-35.5 279q0 162 34.5 292.5t92 216t136.5 143t164.5 82t179.5 24.5q215 0 360.5 -128.5t179.5 -349.5h-159q-28 151 -129.5 237.5 t-251.5 86.5q-70 0 -132.5 -17.5t-121 -61.5t-100.5 -111t-67.5 -173t-25.5 -241q0 -124 25.5 -224.5t68 -167t101 -111t121 -64t131.5 -19.5q152 0 255 95t130 245h159q-34 -225 -181 -358t-363 -133z" />
<glyph unicode="&#x10d;" horiz-adv-x="1083" d="M489 1286l-223 221l80 78l221 -153l219 153l78 -76l-217 -223h-158zM561 -29q-69 0 -135 20.5t-126 65t-105 107.5t-72 155.5t-27 202.5q0 142 40 253t107.5 177t148.5 99.5t171 33.5q101 0 190 -40t153 -121.5t81 -192.5h-162q-23 99 -94.5 153t-167.5 54 q-60 0 -114 -23.5t-99 -71.5t-71.5 -131.5t-26.5 -193.5q0 -83 18.5 -151.5t49 -114t71 -76.5t83.5 -45t87 -14q95 0 164.5 46.5t99.5 133.5h162q-35 -150 -152.5 -238t-273.5 -88z" />
<glyph unicode="&#x10e;" horiz-adv-x="1318" d="M547 1583l-223 221l79 78l222 -153l219 153l78 -76l-217 -223h-158zM160 0v1454h440q121 0 229 -45t194 -132t136.5 -228.5t50.5 -319.5q0 -150 -32.5 -272.5t-89 -206.5t-134 -141t-166.5 -83t-188 -26h-440zM317 152h283q206 0 329.5 144.5t123.5 432.5 q0 115 -23.5 210.5t-65.5 162t-99.5 112.5t-124 67.5t-140.5 21.5h-283v-1151z" />
<glyph unicode="&#x10f;" horiz-adv-x="1460" d="M1296 1454h179l-125 -442h-142zM549 127q53 0 104 25t95 73.5t71 130t27 183.5q0 189 -86 294t-209 105q-126 0 -209.5 -102t-83.5 -297q0 -104 26.5 -186t70 -129.5t93.5 -72t101 -24.5zM526 -18q-81 0 -156 34t-137 100t-99.5 176t-37.5 249q0 135 35 241.5t95.5 171 t137 98t162.5 33.5q96 0 191.5 -58t124.5 -134v561h164v-1454h-160v172q-34 -83 -124.5 -136.5t-195.5 -53.5z" />
<glyph unicode="&#x110;" horiz-adv-x="1400" d="M682 0h-440v651h-209v150h209v653h440q121 0 229 -45t194 -132t136.5 -228.5t50.5 -319.5q0 -150 -32.5 -272.5t-89 -206.5t-134 -141t-166.5 -83t-188 -26zM399 152h283q206 0 329.5 144.5t123.5 432.5q0 115 -23.5 210.5t-65.5 162t-99.5 112.5t-124 67.5t-140.5 21.5 h-283v-502h318v-150h-318v-499z" />
<glyph unicode="&#x111;" horiz-adv-x="1175" d="M549 127q53 0 104 25t95 73.5t71 130t27 183.5q0 189 -86 294t-209 105q-126 0 -209.5 -102t-83.5 -297q0 -104 26.5 -186t70 -129.5t93.5 -72t101 -24.5zM846 172q-34 -83 -124.5 -136.5t-195.5 -53.5q-81 0 -156 34t-137 100t-99.5 176t-37.5 249q0 135 35 241.5 t95.5 171t137 98t162.5 33.5q96 0 191.5 -58t124.5 -134v299h-312v135h312v127h164v-127h143v-135h-143v-1192h-160v172z" />
<glyph unicode="&#x112;" horiz-adv-x="1204" d="M231 1655v137h744v-137h-744zM162 0v1454h907v-149h-750v-492h596v-151h-596v-512h768v-150h-925z" />
<glyph unicode="&#x113;" horiz-adv-x="1103" d="M193 1354v137h743v-137h-743zM575 -25q-95 0 -180 34.5t-152.5 101t-107 174.5t-39.5 245q0 130 37.5 237t102 175.5t148 105.5t177.5 37q196 0 321.5 -132.5t125.5 -372.5v-103h-752q3 -174 97 -266t231 -92q208 0 303 131l110 -94q-140 -181 -422 -181zM256 612h596 q0 156 -80.5 243t-210.5 87q-129 0 -212.5 -91t-92.5 -239z" />
<glyph unicode="&#x114;" horiz-adv-x="1204" d="M604 1583q-96 0 -192.5 52t-155.5 134l92 89q51 -61 121 -97.5t135 -36.5q67 0 133 34.5t119 99.5l94 -89q-57 -89 -150.5 -137.5t-195.5 -48.5zM162 0v1454h907v-149h-750v-492h596v-151h-596v-512h768v-150h-925z" />
<glyph unicode="&#x115;" horiz-adv-x="1103" d="M561 1309q-96 0 -192.5 52t-155.5 134l92 88q51 -60 120.5 -96.5t135.5 -36.5q67 0 133 34t119 99l94 -88q-57 -89 -150.5 -137.5t-195.5 -48.5zM575 -25q-95 0 -180 34.5t-152.5 101t-107 174.5t-39.5 245q0 130 37.5 237t102 175.5t148 105.5t177.5 37 q196 0 321.5 -132.5t125.5 -372.5v-103h-752q3 -174 97 -266t231 -92q208 0 303 131l110 -94q-140 -181 -422 -181zM256 612h596q0 156 -80.5 243t-210.5 87q-129 0 -212.5 -91t-92.5 -239z" />
<glyph unicode="&#x116;" horiz-adv-x="1204" d="M612 1614q-43 0 -77.5 32t-34.5 78q0 44 35 77.5t77 33.5t76.5 -33.5t34.5 -77.5q0 -46 -34 -78t-77 -32zM162 0v1454h907v-149h-750v-492h596v-151h-596v-512h768v-150h-925z" />
<glyph unicode="&#x117;" horiz-adv-x="1103" d="M565 1331q-43 0 -77.5 32.5t-34.5 78.5q0 43 35 76.5t77 33.5t76.5 -33t34.5 -77q0 -46 -34 -78.5t-77 -32.5zM575 -25q-95 0 -180 34.5t-152.5 101t-107 174.5t-39.5 245q0 130 37.5 237t102 175.5t148 105.5t177.5 37q196 0 321.5 -132.5t125.5 -372.5v-103h-752 q3 -174 97 -266t231 -92q208 0 303 131l110 -94q-140 -181 -422 -181zM256 612h596q0 156 -80.5 243t-210.5 87q-129 0 -212.5 -91t-92.5 -239z" />
<glyph unicode="&#x118;" horiz-adv-x="1204" d="M1079 -297v-143h-153q-68 0 -119 27t-74.5 68t-16.5 94t48 101q19 25 129 150h-731v1454h907v-149h-750v-492h596v-151h-596v-512h768v-150l-190 -211q-20 -22 -23 -41t17 -32t65 -13h123z" />
<glyph unicode="&#x119;" horiz-adv-x="1103" d="M903 -365h-153q-68 0 -119 27.5t-73.5 69t-15.5 94t48 100.5q4 6 10.5 14t15.5 19t15 18q-16 -2 -56 -2q-95 0 -180 34.5t-152.5 101t-107 174.5t-39.5 245q0 130 37.5 237t102 175.5t148 105.5t177.5 37q196 0 321.5 -132.5t125.5 -372.5v-103h-752q3 -174 97 -266 t231 -92q208 0 303 131l110 -94q-47 -57 -94 -93l-180 -198q-20 -22 -23 -41t17 -32t65 -13h123zM256 612h596q0 156 -80.5 243t-210.5 87q-129 0 -212.5 -91t-92.5 -239z" />
<glyph unicode="&#x11a;" horiz-adv-x="1204" d="M537 1591l-224 221l80 78l221 -153l220 153l77 -75l-217 -224h-157zM162 0v1454h907v-149h-750v-492h596v-151h-596v-512h768v-150h-925z" />
<glyph unicode="&#x11b;" horiz-adv-x="1103" d="M481 1274l-223 221l80 78l221 -154l219 154l78 -76l-217 -223h-158zM575 -25q-95 0 -180 34.5t-152.5 101t-107 174.5t-39.5 245q0 130 37.5 237t102 175.5t148 105.5t177.5 37q196 0 321.5 -132.5t125.5 -372.5v-103h-752q3 -174 97 -266t231 -92q208 0 303 131l110 -94 q-140 -181 -422 -181zM256 612h596q0 156 -80.5 243t-210.5 87q-129 0 -212.5 -91t-92.5 -239z" />
<glyph unicode="&#x11e;" d="M678 1599q-96 0 -192.5 52.5t-155.5 134.5l92 88q51 -60 120.5 -96.5t135.5 -36.5q67 0 133 34t119 99l94 -88q-57 -90 -150.5 -138.5t-195.5 -48.5zM686 -23q-90 0 -170.5 22.5t-157 78t-132 139.5t-89 217t-33.5 301q0 152 32.5 277.5t87.5 210t130 142.5t158 84 t174 26q217 0 368 -124.5t179 -326.5h-158q-19 121 -123.5 210t-265.5 89q-67 0 -127 -19.5t-114.5 -64t-94 -111.5t-63 -168t-23.5 -227q0 -135 23.5 -241t62.5 -173t94 -111t114.5 -61.5t127.5 -17.5q90 0 162 26.5t129 82t88 150.5t31 224h-381v148h536v-135 q0 -140 -30.5 -251t-82 -184.5t-124.5 -122t-154 -69.5t-174 -21z" />
<glyph unicode="&#x11f;" horiz-adv-x="1150" d="M573 1303q-96 0 -192.5 52t-155.5 134l92 88q51 -60 120.5 -96.5t135.5 -36.5q67 0 133 34t119 99l95 -88q-57 -89 -151 -137.5t-196 -48.5zM549 129q123 0 202.5 105t79.5 290q0 212 -77.5 314t-204.5 102q-131 0 -212 -107t-81 -311q-1 -192 79.5 -292.5t213.5 -100.5z M520 -453q-123 0 -229 51t-170 144l139 72q97 -115 258 -115q76 0 131.5 20.5t97 66.5t62 125t20.5 191v64q-28 -78 -116.5 -131t-188.5 -53q-87 0 -164.5 36t-136 103t-93 171t-34.5 232q0 133 34.5 242t93.5 178.5t136 107.5t164 38q109 0 190.5 -45t114.5 -119l5 139h157 v-961q0 -146 -35.5 -255.5t-100.5 -174t-148.5 -96t-186.5 -31.5z" />
<glyph unicode="&#x120;" d="M680 1657q-43 0 -78 32t-35 78q0 43 35.5 77t77.5 34t76.5 -33.5t34.5 -77.5q0 -46 -34 -78t-77 -32zM686 -23q-90 0 -170.5 22.5t-157 78t-132 139.5t-89 217t-33.5 301q0 152 32.5 277.5t87.5 210t130 142.5t158 84t174 26q217 0 368 -124.5t179 -326.5h-158 q-19 121 -123.5 210t-265.5 89q-67 0 -127 -19.5t-114.5 -64t-94 -111.5t-63 -168t-23.5 -227q0 -135 23.5 -241t62.5 -173t94 -111t114.5 -61.5t127.5 -17.5q90 0 162 26.5t129 82t88 150.5t31 224h-381v148h536v-135q0 -140 -30.5 -251t-82 -184.5t-124.5 -122t-154 -69.5 t-174 -21z" />
<glyph unicode="&#x121;" horiz-adv-x="1150" d="M598 1329q-43 0 -78 32.5t-35 78.5q0 43 35.5 76.5t77.5 33.5t76.5 -33t34.5 -77q0 -46 -34 -78.5t-77 -32.5zM549 129q123 0 202.5 105t79.5 290q0 212 -77.5 314t-204.5 102q-131 0 -212 -107t-81 -311q-1 -192 79.5 -292.5t213.5 -100.5zM520 -453q-123 0 -229 51 t-170 144l139 72q97 -115 258 -115q76 0 131.5 20.5t97 66.5t62 125t20.5 191v64q-28 -78 -116.5 -131t-188.5 -53q-87 0 -164.5 36t-136 103t-93 171t-34.5 232q0 133 34.5 242t93.5 178.5t136 107.5t164 38q109 0 190.5 -45t114.5 -119l5 139h157v-961 q0 -146 -35.5 -255.5t-100.5 -174t-148.5 -96t-186.5 -31.5z" />
<glyph unicode="&#x122;" d="M686 -23q-90 0 -170.5 22.5t-157 78t-132 139.5t-89 217t-33.5 301q0 152 32.5 277.5t87.5 210t130 142.5t158 84t174 26q217 0 368 -124.5t179 -326.5h-158q-19 121 -123.5 210t-265.5 89q-67 0 -127 -19.5t-114.5 -64t-94 -111.5t-63 -168t-23.5 -227q0 -135 23.5 -241 t62.5 -173t94 -111t114.5 -61.5t127.5 -17.5q90 0 162 26.5t129 82t88 150.5t31 224h-381v148h536v-135q0 -140 -30.5 -251t-82 -184.5t-124.5 -122t-154 -69.5t-174 -21zM602 -96h184l-81 -310h-148z" />
<glyph unicode="&#x123;" horiz-adv-x="1150" d="M664 1292h-185l82 310h148zM549 129q123 0 202.5 105t79.5 290q0 212 -77.5 314t-204.5 102q-131 0 -212 -107t-81 -311q-1 -192 79.5 -292.5t213.5 -100.5zM520 -453q-123 0 -229 51t-170 144l139 72q97 -115 258 -115q76 0 131.5 20.5t97 66.5t62 125t20.5 191v64 q-28 -78 -116.5 -131t-188.5 -53q-87 0 -164.5 36t-136 103t-93 171t-34.5 232q0 133 34.5 242t93.5 178.5t136 107.5t164 38q109 0 190.5 -45t114.5 -119l5 139h157v-961q0 -146 -35.5 -255.5t-100.5 -174t-148.5 -96t-186.5 -31.5z" />
<glyph unicode="&#x126;" horiz-adv-x="1345" d="M330 803h690v284h-690v-284zM330 651v-651h-158v1087h-168v138h168v229h158v-229h690v229h158v-229h157v-138h-157v-1087h-158v651h-690z" />
<glyph unicode="&#x127;" horiz-adv-x="1163" d="M334 604v-604h-160v1188h-149v129h149v137h160v-137h309v-129h-309v-287q25 74 114.5 129t184.5 55q190 0 295.5 -121.5t105.5 -359.5v-604h-162v604q0 179 -64 256.5t-194 77.5q-122 0 -201 -92.5t-79 -241.5z" />
<glyph unicode="&#x12a;" horiz-adv-x="477" d="M23 1636v138h434v-138h-434zM160 0v1454h157v-1454h-157z" />
<glyph unicode="&#x12b;" horiz-adv-x="477" d="M29 1341v158h420v-158h-420zM160 0v1065h157v-1065h-157z" />
<glyph unicode="&#x12c;" horiz-adv-x="477" d="M238 1569q-87 0 -162.5 58.5t-106.5 148.5l99 53q28 -57 72.5 -89t97.5 -32q56 0 101 33t67 88l104 -43q-26 -98 -103 -157.5t-169 -59.5zM160 0v1454h157v-1454h-157z" />
<glyph unicode="&#x12d;" horiz-adv-x="477" d="M238 1298q-88 0 -164 58t-105 149l99 54q26 -57 70.5 -88t99.5 -31t99.5 32t68.5 87l102 -43q-24 -99 -101 -158.5t-169 -59.5zM160 0v1065h157v-1065h-157z" />
<glyph unicode="&#x12e;" horiz-adv-x="477" d="M309 -297v-143h-153q-68 0 -119 27t-74.5 68t-16.5 94t48 101q16 20 48 56.5t69 78.5t49 56v1413h157v-1454l-190 -211q-20 -22 -23 -41t17 -32t65 -13h123z" />
<glyph unicode="&#x12f;" horiz-adv-x="505" d="M240 1274q-41 0 -73 29t-32 73q0 43 32 72t73 29q42 0 74 -29t32 -72q0 -44 -31.5 -73t-74.5 -29zM319 -295v-143h-153q-68 0 -119 27t-74.5 68.5t-16.5 94.5t48 101q22 27 91 105t75 85v1022h158v-1065h-2l-189 -209q-19 -22 -22 -41t17 -32t65 -13h122z" />
<glyph unicode="&#x130;" horiz-adv-x="477" d="M279 1610q-43 0 -78 32t-35 78q0 43 35.5 77t77.5 34t76 -33.5t34 -77.5q0 -46 -33.5 -78t-76.5 -32zM160 0v1454h157v-1454h-157z" />
<glyph unicode="&#x131;" horiz-adv-x="477" d="M160 0v1065h157v-1065h-157z" />
<glyph unicode="&#x136;" horiz-adv-x="1294" d="M162 0v1454h157v-772l697 772h211l-580 -641l602 -813h-194l-514 696l-222 -245v-451h-157zM559 -37h184l-81 -309h-148z" />
<glyph unicode="&#x137;" horiz-adv-x="1064" d="M160 0v1454h159v-862l463 473h213l-432 -442l475 -623h-190l-395 518l-134 -129v-389h-159zM467 -180h184l-82 -309h-147z" />
<glyph unicode="&#x139;" horiz-adv-x="1118" d="M203 1614l213 358l157 -125l-225 -233h-145zM162 0v1454h157v-1302h721v-152h-878z" />
<glyph unicode="&#x13a;" horiz-adv-x="479" d="M156 1565l131 295l157 -125l-143 -170h-145zM160 0v1454h159v-1454h-159z" />
<glyph unicode="&#x13b;" horiz-adv-x="1118" d="M162 0v1454h157v-1302h721v-152h-878zM485 -92h185l-82 -309h-148z" />
<glyph unicode="&#x13c;" horiz-adv-x="479" d="M160 0v1454h159v-1454h-159zM164 -166h184l-82 -309h-147z" />
<glyph unicode="&#x13d;" horiz-adv-x="1116" d="M160 0v1454h157v-1302h721v-152h-878zM748 1444h178l-125 -443h-142z" />
<glyph unicode="&#x13e;" horiz-adv-x="866" d="M657 1454h179l-125 -442h-142zM160 0v1454h159v-1454h-159z" />
<glyph unicode="&#x13f;" horiz-adv-x="1118" d="M162 0v1454h157v-1302h721v-152h-878zM907 678q-43 0 -77.5 32t-34.5 78q0 44 35 77.5t77 33.5t76.5 -33.5t34.5 -77.5q0 -46 -34 -78t-77 -32z" />
<glyph unicode="&#x140;" horiz-adv-x="813" d="M160 0v1454h159v-1454h-159zM631 608q-43 0 -76 31.5t-33 77.5t33.5 79t75.5 33q44 0 77 -33t33 -79t-33 -77.5t-77 -31.5z" />
<glyph unicode="&#x141;" horiz-adv-x="1167" d="M1090 0h-879v567l-150 -78l-63 134l213 108v723h158v-641l358 184l64 -131l-422 -217v-497h721v-152z" />
<glyph unicode="&#x142;" horiz-adv-x="583" d="M369 0h-160v717l-119 -58l-70 138l189 92v565h160v-485l127 61l67 -141l-194 -94v-795z" />
<glyph unicode="&#x143;" horiz-adv-x="1415" d="M600 1548l213 359l158 -125l-226 -234h-145zM160 0v1454h186l752 -1200v1200h157v-1454h-190l-748 1194v-1194h-157z" />
<glyph unicode="&#x144;" horiz-adv-x="1122" d="M432 1282l213 358l158 -124l-225 -234h-146zM160 0v1065h147l6 -145q35 77 118 126.5t185 49.5q173 0 275 -120t102 -337v-639h-159v637q0 153 -61 232t-191 79q-119 0 -191 -83.5t-72 -227.5v-637h-159z" />
<glyph unicode="&#x145;" horiz-adv-x="1415" d="M160 0v1454h186l752 -1200v1200h157v-1454h-190l-748 1194v-1194h-157zM629 -90h184l-82 -309h-147z" />
<glyph unicode="&#x146;" horiz-adv-x="1122" d="M160 0v1065h147l6 -145q35 77 118 126.5t185 49.5q173 0 275 -120t102 -337v-639h-159v637q0 153 -61 232t-191 79q-119 0 -191 -83.5t-72 -227.5v-637h-159zM498 -178h184l-82 -309h-147z" />
<glyph unicode="&#x147;" horiz-adv-x="1415" d="M649 1536l-223 221l80 78l221 -154l219 154l78 -76l-217 -223h-158zM160 0v1454h186l752 -1200v1200h157v-1454h-190l-748 1194v-1194h-157z" />
<glyph unicode="&#x148;" horiz-adv-x="1122" d="M496 1303l-224 221l80 78l221 -154l220 154l77 -76l-217 -223h-157zM160 0v1065h147l6 -145q35 77 118 126.5t185 49.5q173 0 275 -120t102 -337v-639h-159v637q0 153 -61 232t-191 79q-119 0 -191 -83.5t-72 -227.5v-637h-159z" />
<glyph unicode="&#x14c;" d="M324 1636v138h743v-138h-743zM678 -16q-93 0 -175.5 26t-156.5 84.5t-127 144.5t-84 213.5t-31 284.5q0 184 45 327t124.5 231t182 133t222.5 45q119 0 221.5 -45.5t182 -134t124.5 -231.5t45 -325q0 -189 -45.5 -336t-125 -236.5t-181.5 -135t-221 -45.5zM678 135 q88 0 162 35t132.5 106t91 189t32.5 272q0 150 -33 264.5t-91.5 183t-132 102.5t-161.5 34q-186 0 -301 -145t-115 -439q0 -159 32.5 -277.5t90.5 -188t131 -103t162 -33.5z" />
<glyph unicode="&#x14d;" horiz-adv-x="1138" d="M193 1358v137h743v-137h-743zM567 -18q-90 0 -172.5 33t-150 97.5t-108 172t-40.5 243.5q0 141 39.5 251t106.5 175t149.5 98t175.5 33t176.5 -34t151 -100t107.5 -175t40 -248q0 -135 -41.5 -242.5t-110 -172t-151.5 -98t-172 -33.5zM567 129q60 0 115.5 23t102 69 t74.5 125t28 182q0 106 -27 187.5t-73 129t-101.5 71.5t-118.5 24q-137 0 -226 -102t-89 -310q0 -100 26.5 -178.5t72 -125.5t100.5 -71t116 -24z" />
<glyph unicode="&#x14e;" d="M672 1595q-96 0 -192.5 52.5t-155.5 134.5l92 88q51 -60 120.5 -96.5t135.5 -36.5q67 0 133 34t119 99l94 -88q-57 -90 -150.5 -138.5t-195.5 -48.5zM678 -16q-93 0 -175.5 26t-156.5 84.5t-127 144.5t-84 213.5t-31 284.5q0 184 45 327t124.5 231t182 133t222.5 45 q119 0 221.5 -45.5t182 -134t124.5 -231.5t45 -325q0 -189 -45.5 -336t-125 -236.5t-181.5 -135t-221 -45.5zM678 135q88 0 162 35t132.5 106t91 189t32.5 272q0 150 -33 264.5t-91.5 183t-132 102.5t-161.5 34q-186 0 -301 -145t-115 -439q0 -159 32.5 -277.5t90.5 -188 t131 -103t162 -33.5z" />
<glyph unicode="&#x14f;" horiz-adv-x="1138" d="M565 1303q-96 0 -192.5 52t-155.5 134l92 88q51 -60 120.5 -96.5t135.5 -36.5q67 0 133 34t119 99l94 -88q-57 -89 -150.5 -137.5t-195.5 -48.5zM567 -18q-90 0 -172.5 33t-150 97.5t-108 172t-40.5 243.5q0 141 39.5 251t106.5 175t149.5 98t175.5 33t176.5 -34 t151 -100t107.5 -175t40 -248q0 -135 -41.5 -242.5t-110 -172t-151.5 -98t-172 -33.5zM567 129q60 0 115.5 23t102 69t74.5 125t28 182q0 106 -27 187.5t-73 129t-101.5 71.5t-118.5 24q-137 0 -226 -102t-89 -310q0 -100 26.5 -178.5t72 -125.5t100.5 -71t116 -24z" />
<glyph unicode="&#x150;" d="M739 1612l174 356l154 -92l-190 -264h-138zM426 1612l174 356l152 -92l-189 -264h-137zM678 -16q-93 0 -175.5 26t-156.5 84.5t-127 144.5t-84 213.5t-31 284.5q0 184 45 327t124.5 231t182 133t222.5 45q119 0 221.5 -45.5t182 -134t124.5 -231.5t45 -325 q0 -189 -45.5 -336t-125 -236.5t-181.5 -135t-221 -45.5zM678 135q88 0 162 35t132.5 106t91 189t32.5 272q0 150 -33 264.5t-91.5 183t-132 102.5t-161.5 34q-186 0 -301 -145t-115 -439q0 -159 32.5 -277.5t90.5 -188t131 -103t162 -33.5z" />
<glyph unicode="&#x151;" horiz-adv-x="1138" d="M594 1260l174 356l154 -92l-191 -264h-137zM281 1260l174 356l151 -92l-188 -264h-137zM567 -18q-90 0 -172.5 33t-150 97.5t-108 172t-40.5 243.5q0 141 39.5 251t106.5 175t149.5 98t175.5 33t176.5 -34t151 -100t107.5 -175t40 -248q0 -135 -41.5 -242.5t-110 -172 t-151.5 -98t-172 -33.5zM567 129q60 0 115.5 23t102 69t74.5 125t28 182q0 106 -27 187.5t-73 129t-101.5 71.5t-118.5 24q-137 0 -226 -102t-89 -310q0 -100 26.5 -178.5t72 -125.5t100.5 -71t116 -24z" />
<glyph unicode="&#x152;" horiz-adv-x="2013" d="M608 135q88 0 162 35t132.5 106t91 189t32.5 272q0 150 -33 264.5t-91.5 183t-132 102.5t-161.5 34q-186 0 -300.5 -145t-114.5 -439q0 -159 32 -277.5t90 -188t131 -103t162 -33.5zM1053 0v221q-77 -118 -193 -177.5t-252 -59.5q-93 0 -175.5 26t-156 84.5t-126.5 144.5 t-84 213.5t-31 284.5q0 184 45 327t124 231t181.5 133t222.5 45q137 0 252 -59t193 -175v215h907v-149h-750v-492h596v-151h-596v-512h768v-150h-925z" />
<glyph unicode="&#x153;" horiz-adv-x="1757" d="M1298 -25q-126 0 -232.5 59.5t-170.5 174.5q-67 -111 -173 -169t-224 -58q-90 0 -172.5 33t-150 97.5t-108 172t-40.5 243.5q0 141 39.5 251t106.5 175t149.5 98t175.5 33q123 0 229 -58t170 -171q62 111 164 170t223 59q196 0 321.5 -132.5t125.5 -372.5v-103h-752 q3 -174 97 -266t231 -92q208 0 303 131l110 -94q-140 -181 -422 -181zM979 612h596q0 156 -80.5 243t-210.5 87q-129 0 -212.5 -91t-92.5 -239zM498 129q60 0 115 23t101.5 69t74.5 125t28 182q0 106 -26.5 187.5t-72.5 129t-101.5 71.5t-118.5 24q-137 0 -226.5 -102 t-89.5 -310q0 -100 27 -178.5t72 -125.5t100.5 -71t116.5 -24z" />
<glyph unicode="&#x154;" horiz-adv-x="1271" d="M502 1599l213 359l157 -125l-225 -234h-145zM315 758h334q149 0 238.5 70.5t89.5 197.5q0 126 -94.5 201.5t-233.5 75.5h-334v-545zM158 0v1454h493q219 0 353.5 -122.5t134.5 -305.5q0 -79 -25 -147t-66.5 -115t-91 -78t-102.5 -45l301 -641h-174l-285 608h-381v-608 h-157z" />
<glyph unicode="&#x155;" horiz-adv-x="794" d="M268 1249l213 359l158 -125l-225 -234h-146zM160 0v1065h131l26 -135q36 65 113.5 110t159.5 45q119 0 178 -38l-59 -138q-39 27 -127 27q-118 0 -190.5 -87.5t-72.5 -232.5v-616h-159z" />
<glyph unicode="&#x156;" horiz-adv-x="1271" d="M317 758h334q149 0 238.5 70.5t89.5 197.5q0 126 -94.5 201.5t-233.5 75.5h-334v-545zM160 0v1454h493q219 0 353.5 -122.5t134.5 -305.5q0 -79 -25 -147t-66.5 -115t-91 -78t-102.5 -45l301 -641h-174l-285 608h-381v-608h-157zM530 -94h185l-82 -309h-148z" />
<glyph unicode="&#x157;" horiz-adv-x="794" d="M160 0v1065h131l26 -135q36 65 113.5 110t159.5 45q119 0 178 -38l-59 -138q-39 27 -127 27q-118 0 -190.5 -87.5t-72.5 -232.5v-616h-159zM176 -160h184l-81 -309h-148z" />
<glyph unicode="&#x158;" horiz-adv-x="1271" d="M526 1618l-223 221l80 78l221 -154l219 154l78 -76l-217 -223h-158zM317 758h334q149 0 238.5 70.5t89.5 197.5q0 126 -94.5 201.5t-233.5 75.5h-334v-545zM160 0v1454h493q219 0 353.5 -122.5t134.5 -305.5q0 -79 -25 -147t-66.5 -115t-91 -78t-102.5 -45l301 -641h-174 l-285 608h-381v-608h-157z" />
<glyph unicode="&#x159;" horiz-adv-x="794" d="M342 1315l-223 221l80 78l221 -154l219 154l78 -76l-217 -223h-158zM160 0v1065h131l26 -135q36 65 113.5 110t159.5 45q119 0 178 -38l-59 -138q-39 27 -127 27q-118 0 -190.5 -87.5t-72.5 -232.5v-616h-159z" />
<glyph unicode="&#x15a;" horiz-adv-x="1169" d="M438 1581l213 358l158 -124l-225 -234h-146zM584 -18q-170 0 -308.5 74.5t-220.5 187.5l113 104q164 -213 412 -213q156 0 245.5 71.5t89.5 201.5q0 77 -22 128t-73 81t-115.5 44.5t-167.5 22.5q-82 8 -155.5 36t-133 74.5t-94.5 117.5t-35 157q0 186 129 296t348 110 q282 0 440 -183l-114 -100q-42 56 -129.5 93.5t-194.5 37.5q-150 0 -237 -64.5t-87 -185.5q0 -115 86.5 -166.5t266.5 -70.5q446 -43 446 -426q0 -140 -66.5 -238.5t-175 -144t-247.5 -45.5z" />
<glyph unicode="&#x15b;" horiz-adv-x="1007" d="M367 1278l213 358l157 -125l-225 -233h-145zM516 -25q-248 0 -432 156l100 115q137 -119 330 -119q107 0 167 45t60 127q0 91 -60 131t-216 47q-152 8 -243 85t-91 206q0 137 101 227t294 90q122 0 213.5 -37.5t147.5 -95.5l-101 -110q-4 4 -10.5 11t-31 24.5t-52.5 31 t-73.5 24.5t-94.5 11q-117 0 -177 -44.5t-60 -119.5q0 -78 62.5 -113t223.5 -42q158 -7 243 -92.5t85 -233.5q0 -146 -101.5 -235t-283.5 -89z" />
<glyph unicode="&#x15e;" horiz-adv-x="1169" d="M580 -504q-72 0 -189 49l47 123q90 -37 144 -37q41 0 70.5 21t29.5 59q0 77 -129 90l-80 9l39 176q-147 16 -265.5 87.5t-191.5 170.5l113 104q164 -213 412 -213q156 0 245.5 71.5t89.5 201.5q0 77 -22 128t-73 81t-115.5 44.5t-167.5 22.5q-82 8 -155.5 36t-133 74.5 t-94.5 117.5t-35 157q0 186 129 296t348 110q282 0 440 -183l-114 -100q-42 56 -129.5 93.5t-194.5 37.5q-150 0 -237 -64.5t-87 -185.5q0 -115 86.5 -166.5t266.5 -70.5q446 -43 446 -426q0 -101 -35 -181t-97 -132t-144.5 -81t-180.5 -34l-8 -54q91 -11 150 -69t59 -148 q0 -92 -61 -153.5t-176 -61.5z" />
<glyph unicode="&#x15f;" horiz-adv-x="1007" d="M483 -508q-13 0 -25.5 1t-25.5 3.5t-22.5 4t-23.5 6t-20.5 6.5t-20.5 7.5t-17.5 7l-17.5 7.5l-15 6l47 123q90 -37 143 -37q41 0 71 21t30 59q0 77 -129 90l-80 8l39 177q-186 25 -332 149l100 115q137 -119 330 -119q107 0 167 45t60 127q0 91 -60 131t-216 47 q-152 8 -243 85t-91 206q0 137 101 227t294 90q122 0 213.5 -37.5t147.5 -95.5l-101 -110q-4 4 -10.5 11t-31 24.5t-52.5 31t-73.5 24.5t-94.5 11q-117 0 -177 -44.5t-60 -119.5q0 -78 62.5 -113t223.5 -42q158 -7 243 -92.5t85 -233.5q0 -146 -101 -235t-280 -89l-8 -51 q91 -11 150 -69t59 -148q0 -92 -61 -153.5t-177 -61.5z" />
<glyph unicode="&#x160;" horiz-adv-x="1169" d="M510 1583l-223 221l80 78l221 -153l219 153l78 -76l-217 -223h-158zM584 -18q-170 0 -308.5 74.5t-220.5 187.5l113 104q164 -213 412 -213q156 0 245.5 71.5t89.5 201.5q0 77 -22 128t-73 81t-115.5 44.5t-167.5 22.5q-82 8 -155.5 36t-133 74.5t-94.5 117.5t-35 157 q0 186 129 296t348 110q282 0 440 -183l-114 -100q-42 56 -129.5 93.5t-194.5 37.5q-150 0 -237 -64.5t-87 -185.5q0 -115 86.5 -166.5t266.5 -70.5q446 -43 446 -426q0 -140 -66.5 -238.5t-175 -144t-247.5 -45.5z" />
<glyph unicode="&#x161;" horiz-adv-x="1007" d="M428 1274l-223 221l80 78l221 -154l219 154l78 -76l-217 -223h-158zM516 -25q-248 0 -432 156l100 115q137 -119 330 -119q107 0 167 45t60 127q0 91 -60 131t-216 47q-152 8 -243 85t-91 206q0 137 101 227t294 90q122 0 213.5 -37.5t147.5 -95.5l-101 -110 q-4 4 -10.5 11t-31 24.5t-52.5 31t-73.5 24.5t-94.5 11q-117 0 -177 -44.5t-60 -119.5q0 -78 62.5 -113t223.5 -42q158 -7 243 -92.5t85 -233.5q0 -146 -101.5 -235t-283.5 -89z" />
<glyph unicode="&#x162;" horiz-adv-x="1177" d="M571 -500q-13 0 -25.5 1t-25.5 3.5t-22.5 4t-23.5 6t-20.5 6.5t-20.5 7.5t-17.5 7l-17.5 7.5l-15 6l47 123q90 -37 143 -37q41 0 71 21t30 59q0 77 -129 90l-80 9l43 198v1291h-426v151h1014v-151h-428v-1303h-58l-10 -68q91 -11 150 -69t59 -148q0 -92 -61 -153.5 t-177 -61.5z" />
<glyph unicode="&#x163;" horiz-adv-x="686" d="M387 -453q-14 0 -29 1.5t-27 3.5t-27 6t-24 7t-23.5 8.5t-20.5 8t-20 8.5t-17 7l47 122q88 -36 143 -36q41 0 70.5 20.5t29.5 58.5q0 78 -129 91l-79 8l45 209q-99 89 -99 252v600h-157v143h157v297h158v-297h213v-143h-213v-584q0 -102 48.5 -150.5t164.5 -48.5v-147 h-61q-65 0 -115 20l-6 -32q91 -11 150 -69.5t59 -148.5q0 -92 -61 -153.5t-177 -61.5z" />
<glyph unicode="&#x164;" horiz-adv-x="1177" d="M512 1599l-223 222l80 77l221 -153l219 153l78 -75l-217 -224h-158zM508 0v1303h-426v151h1014v-151h-428v-1303h-160z" />
<glyph unicode="&#x165;" horiz-adv-x="843" d="M700 1690h179l-125 -443h-142zM227 322v600h-157v143h157v297h158v-297h213v-143h-213v-584q0 -102 48.5 -150.5t164.5 -48.5v-147h-61q-128 0 -219 84.5t-91 245.5z" />
<glyph unicode="&#x16a;" horiz-adv-x="1247" d="M260 1638v138h744v-138h-744zM625 -23q-242 0 -375 158t-133 459v860h157v-862q0 -234 90 -348.5t261 -114.5q350 0 350 463v862h155v-860q0 -298 -130 -457.5t-375 -159.5z" />
<glyph unicode="&#x16b;" horiz-adv-x="1120" d="M184 1368v137h744v-137h-744zM520 -23q-174 0 -284.5 118t-110.5 335v635h162v-635q0 -150 67 -227.5t189 -77.5q118 0 188 80.5t70 224.5v635h160v-1065h-152l-4 154q-26 -73 -110.5 -125t-174.5 -52z" />
<glyph unicode="&#x16c;" horiz-adv-x="1245" d="M618 1579q-96 0 -192.5 52t-155.5 134l92 88q51 -60 120.5 -96.5t135.5 -36.5q67 0 133 34t119 99l95 -88q-57 -89 -151 -137.5t-196 -48.5zM625 -23q-242 0 -375 158t-133 459v860h157v-862q0 -234 90 -348.5t261 -114.5q350 0 350 463v862h155v-860q0 -298 -130 -457.5 t-375 -159.5z" />
<glyph unicode="&#x16d;" horiz-adv-x="1120" d="M543 1288q-96 0 -192.5 52.5t-155.5 134.5l92 88q51 -60 120.5 -96.5t135.5 -36.5q67 0 133 34t119 99l94 -88q-57 -90 -150.5 -138.5t-195.5 -48.5zM520 -23q-174 0 -284.5 118t-110.5 335v635h162v-635q0 -150 67 -227.5t189 -77.5q118 0 188 80.5t70 224.5v635h160 v-1065h-152l-4 154q-26 -73 -110.5 -125t-174.5 -52z" />
<glyph unicode="&#x16e;" horiz-adv-x="1247" d="M623 1503q-92 0 -162 67.5t-70 162.5q0 91 71 161t161 70q89 0 159 -70t70 -161q0 -95 -69 -162.5t-160 -67.5zM623 1614q52 0 84 33t32 84q0 49 -33 84.5t-83 35.5t-84.5 -36t-34.5 -84q0 -51 33.5 -84t85.5 -33zM625 -23q-242 0 -375 158t-133 459v860h157v-862 q0 -234 90 -348.5t261 -114.5q350 0 350 463v862h155v-860q0 -298 -130 -457.5t-375 -159.5z" />
<glyph unicode="&#x16f;" horiz-adv-x="1120" d="M532 1145q-92 0 -161.5 67t-69.5 162q0 92 70.5 162t160.5 70q89 0 159.5 -70.5t70.5 -161.5q0 -95 -69.5 -162t-160.5 -67zM532 1255q52 0 84.5 33t32.5 84q0 49 -33.5 85t-83.5 36t-84 -36.5t-34 -84.5q0 -51 33 -84t85 -33zM520 -23q-174 0 -284.5 118t-110.5 335v635 h162v-635q0 -150 67 -227.5t189 -77.5q118 0 188 80.5t70 224.5v635h160v-1065h-152l-4 154q-26 -73 -110.5 -125t-174.5 -52z" />
<glyph unicode="&#x170;" horiz-adv-x="1245" d="M655 1589l174 357l154 -93l-190 -264h-138zM342 1589l174 357l152 -93l-189 -264h-137zM625 -23q-242 0 -375 158t-133 459v860h157v-862q0 -234 90 -348.5t261 -114.5q350 0 350 463v862h155v-860q0 -298 -130 -457.5t-375 -159.5z" />
<glyph unicode="&#x171;" horiz-adv-x="1120" d="M602 1272l174 356l154 -92l-191 -264h-137zM289 1272l174 356l151 -92l-188 -264h-137zM520 -23q-174 0 -284.5 118t-110.5 335v635h162v-635q0 -150 67 -227.5t189 -77.5q118 0 188 80.5t70 224.5v635h160v-1065h-152l-4 154q-26 -73 -110.5 -125t-174.5 -52z" />
<glyph unicode="&#x172;" horiz-adv-x="1247" d="M817 -420h-153q-68 0 -119 27t-74.5 68.5t-16.5 94.5t48 101q26 32 92 106q-228 11 -352.5 168t-124.5 449v860h157v-862q0 -234 90 -348.5t261 -114.5q350 0 350 463v862h155v-860q0 -235 -81 -384.5t-236 -203.5l-178 -196q-20 -22 -23 -41t17 -32t65 -13h123v-144z " />
<glyph unicode="&#x173;" horiz-adv-x="1120" d="M952 -297v-143h-153q-68 0 -119 27t-74.5 68t-16.5 94t48 101q13 16 170 195l-2 109q-26 -73 -110.5 -125t-174.5 -52q-174 0 -284.5 118t-110.5 335v635h162v-635q0 -150 67 -227.5t189 -77.5q118 0 188 80.5t70 224.5v635h160v-1065l-191 -211q-20 -22 -23 -41t17 -32 t65 -13h123z" />
<glyph unicode="&#x174;" horiz-adv-x="1867" d="M719 1501l-80 74l221 225h158l219 -221l-82 -76l-215 152zM451 0l-398 1454h164l326 -1184l336 1084h122l334 -1094l314 1194h166l-390 -1454h-174l-311 1016l-311 -1016h-178z" />
<glyph unicode="&#x175;" horiz-adv-x="1476" d="M528 1266l-79 73l221 226h157l220 -222l-82 -75l-215 151zM367 0l-320 1065h166l229 -801l236 801h125l244 -797l215 797h168l-304 -1065h-155l-232 735l-225 -735h-147z" />
<glyph unicode="&#x176;" horiz-adv-x="1243" d="M403 1575l-79 74l221 225h157l220 -221l-82 -76l-215 152zM543 0v575l-488 879h181l387 -696l385 696h180l-488 -879v-575h-157z" />
<glyph unicode="&#x177;" horiz-adv-x="1032" d="M307 1266l-80 73l222 226h157l219 -222l-82 -75l-215 151zM98 -375l43 137q95 -33 154 -6.5t96 119.5q0 1 7.5 21.5t15.5 42.5t14.5 41.5t5.5 21.5l-387 1063h170l297 -856l301 856h170l-463 -1260q-29 -79 -78 -128.5t-107.5 -65.5t-118 -12t-120.5 26z" />
<glyph unicode="&#x178;" horiz-adv-x="1243" d="M834 1602q-40 0 -71.5 31t-31.5 73t31.5 73t71.5 31t72 -31t32 -73t-32 -73t-72 -31zM408 1602q-39 0 -71 31t-32 73t32 73t71 31q42 0 73 -31t31 -73t-31 -73t-73 -31zM543 0v575l-488 879h181l387 -696l385 696h180l-488 -879v-575h-157z" />
<glyph unicode="&#x179;" horiz-adv-x="1142" d="M451 1620l213 358l157 -125l-225 -233h-145zM74 0v150l788 1153h-764v151h971v-133l-799 -1169h803v-152h-999z" />
<glyph unicode="&#x17a;" horiz-adv-x="972" d="M336 1282l213 358l158 -124l-226 -234h-145zM90 0v127l559 791h-549v147h768v-117l-563 -798h578v-150h-793z" />
<glyph unicode="&#x17b;" horiz-adv-x="1142" d="M592 1663q-43 0 -78 32.5t-35 78.5q0 43 35.5 76.5t77.5 33.5t76 -33t34 -77q0 -46 -33.5 -78.5t-76.5 -32.5zM74 0v150l788 1153h-764v151h971v-133l-799 -1169h803v-152h-999z" />
<glyph unicode="&#x17c;" horiz-adv-x="972" d="M489 1327q-43 0 -77.5 32.5t-34.5 78.5q0 43 35 76.5t77 33.5t76.5 -33t34.5 -77q0 -46 -34 -78.5t-77 -32.5zM90 0v127l559 791h-549v147h768v-117l-563 -798h578v-150h-793z" />
<glyph unicode="&#x17d;" horiz-adv-x="1142" d="M506 1636l-223 222l79 77l222 -153l219 153l78 -75l-217 -224h-158zM74 0v150l788 1153h-764v151h971v-133l-799 -1169h803v-152h-999z" />
<glyph unicode="&#x17e;" horiz-adv-x="972" d="M416 1309l-223 221l79 78l222 -154l219 154l78 -76l-218 -223h-157zM90 0v127l559 791h-549v147h768v-117l-563 -798h578v-150h-793z" />
<glyph unicode="&#x1dd;" horiz-adv-x="1103" d="M516 1036q95 0 180 -34.5t152.5 -101t107 -174.5t39.5 -245q0 -130 -37.5 -237t-102 -175.5t-148 -105.5t-177.5 -37q-195 0 -320.5 132.5t-125.5 373.5v103h752q-3 174 -97 266t-231 92q-208 0 -303 -131l-111 94q139 180 422 180zM836 399h-596q0 -156 80 -242.5 t210 -86.5q129 0 213 90.5t93 238.5z" />
<glyph unicode="&#x1fa;" horiz-adv-x="1351" d="M602 1864l213 358l158 -125l-225 -233h-146zM678 1462q52 0 84.5 33t32.5 84q0 49 -33.5 85t-83.5 36t-84.5 -36.5t-34.5 -84.5q0 -51 33.5 -84t85.5 -33zM410 494h532l-266 731zM360 346l-127 -346h-167l501 1380q-54 30 -87.5 83.5t-33.5 117.5q0 91 71 161t161 70 q89 0 159 -70t70 -161q0 -65 -34 -119t-89 -82l502 -1380h-164l-129 346h-633z" />
<glyph unicode="&#x1fb;" horiz-adv-x="1081" d="M524 1124q-92 0 -161.5 67.5t-69.5 162.5q0 66 40 124.5t101 86.5l211 354l158 -125l-213 -221q69 -24 116.5 -85.5t47.5 -133.5q0 -95 -69.5 -162.5t-160.5 -67.5zM524 1235q52 0 84.5 33t32.5 84q0 49 -33.5 85t-83.5 36t-84 -36.5t-34 -84.5q0 -51 33 -84t85 -33z M481 121q105 0 199.5 62.5t112.5 131.5v156q-108 30 -275 27q-133 -3 -200.5 -57t-67.5 -136q0 -88 62 -136t169 -48zM446 -16q-149 0 -249.5 92.5t-100.5 220.5q0 145 112.5 243.5t309.5 98.5q168 0 275 -39v45q0 164 -67.5 229.5t-201.5 65.5q-170 0 -243 -98l-129 65 q55 80 156 129t231 49q191 0 300 -107.5t109 -336.5v-641h-147v135q-33 -57 -132.5 -104t-222.5 -47z" />
<glyph unicode="&#x1fc;" horiz-adv-x="1970" d="M1001 1597l213 359l158 -125l-225 -234h-146zM475 506h473v774zM-14 0l882 1454h971v-149h-733v-494h590v-149h-590v-512h737v-150h-895v358h-561l-221 -358h-180z" />
<glyph unicode="&#x1fd;" horiz-adv-x="1718" d="M768 1190l213 358l158 -125l-226 -233h-145zM920 612h596q0 156 -80.5 243t-210.5 87q-129 0 -212.5 -91t-92.5 -239zM1239 -25q-123 0 -228 56.5t-169 167.5q-62 -109 -166.5 -162t-231.5 -53q-177 0 -287 90t-110 227q0 159 114 251.5t314 92.5q178 0 277 -31v15 q-12 162 -79 241.5t-204 79.5q-26 0 -49 -2t-43 -7.5t-35.5 -10t-32.5 -14.5t-26 -14.5t-23.5 -17t-19 -16.5t-18 -17.5t-15.5 -14.5l-117 79q55 72 151.5 123.5t233.5 51.5q276 0 377 -211q64 100 161.5 153t211.5 53q95 0 175.5 -32.5t141 -95t95 -159.5t34.5 -218v-103 h-751q3 -174 96.5 -266t230.5 -92q208 0 303 131l111 -94q-140 -181 -422 -181zM438 121q136 0 222 78t92 235v47q-43 18 -123 27t-150 4q-139 -3 -209.5 -57.5t-70.5 -143.5q0 -84 63 -137t176 -53z" />
<glyph unicode="&#x1fe;" d="M567 1638l213 359l158 -125l-225 -234h-146zM262 737q0 -236 72 -383l579 889q-100 78 -235 78q-186 0 -301 -145t-115 -439zM678 135q88 0 162 35t132.5 106t91 189t32.5 272q0 240 -86 393l-588 -901q103 -94 256 -94zM678 -16q-198 0 -340 116l-102 -157l-121 75 l125 191q-136 196 -136 528q0 184 45 327t124.5 231t182 133t222.5 45q182 0 319 -101l95 144l118 -76l-110 -170q151 -194 151 -533q0 -189 -45.5 -336t-125 -236.5t-181.5 -135t-221 -45.5z" />
<glyph unicode="&#x1ff;" horiz-adv-x="1140" d="M434 1282l213 358l158 -124l-225 -234h-146zM254 528q0 -136 49 -229l455 575q-81 66 -189 66q-137 0 -226 -102t-89 -310zM569 129q60 0 115.5 23t102 69t74.5 125t28 182q0 142 -47 238l-455 -573q79 -64 182 -64zM569 -18q-155 0 -276 92l-90 -113l-107 78l103 131 q-101 142 -101 358q0 141 39.5 251t106.5 175t149.5 98t175.5 33q161 0 283 -94l82 105l104 -80l-96 -121q102 -142 102 -367q0 -135 -41.5 -242.5t-110 -172t-151.5 -98t-172 -33.5z" />
<glyph unicode="&#x218;" horiz-adv-x="1169" d="M584 -18q-170 0 -308.5 74.5t-220.5 187.5l113 104q164 -213 412 -213q156 0 245.5 71.5t89.5 201.5q0 77 -22 128t-73 81t-115.5 44.5t-167.5 22.5q-82 8 -155.5 36t-133 74.5t-94.5 117.5t-35 157q0 186 129 296t348 110q282 0 440 -183l-114 -100q-42 56 -129.5 93.5 t-194.5 37.5q-150 0 -237 -64.5t-87 -185.5q0 -115 86.5 -166.5t266.5 -70.5q446 -43 446 -426q0 -140 -66.5 -238.5t-175 -144t-247.5 -45.5zM506 -96h184l-82 -310h-147z" />
<glyph unicode="&#x219;" horiz-adv-x="1007" d="M516 -25q-248 0 -432 156l100 115q137 -119 330 -119q107 0 167 45t60 127q0 91 -60 131t-216 47q-152 8 -243 85t-91 206q0 137 101 227t294 90q122 0 213.5 -37.5t147.5 -95.5l-101 -110q-4 4 -10.5 11t-31 24.5t-52.5 31t-73.5 24.5t-94.5 11q-117 0 -177 -44.5 t-60 -119.5q0 -78 62.5 -113t223.5 -42q158 -7 243 -92.5t85 -233.5q0 -146 -101.5 -235t-283.5 -89zM428 -172h184l-82 -309h-147z" />
<glyph unicode="&#x21a;" horiz-adv-x="1177" d="M508 0v1303h-426v151h1014v-151h-428v-1303h-160zM502 -90h184l-82 -309h-147z" />
<glyph unicode="&#x21b;" horiz-adv-x="686" d="M227 322v600h-157v143h157v297h158v-297h213v-143h-213v-584q0 -102 48.5 -150.5t164.5 -48.5v-147h-61q-128 0 -219 84.5t-91 245.5zM303 -174h184l-81 -309h-148z" />
<glyph unicode="&#x2c6;" horiz-adv-x="632" d="M37 1192l-80 74l221 225h158l219 -221l-82 -76l-215 152z" />
<glyph unicode="&#x2c7;" horiz-adv-x="706" d="M215 1198l-223 221l80 78l221 -154l219 154l78 -76l-217 -223h-158z" />
<glyph unicode="&#x2d8;" horiz-adv-x="763" d="M399 1206q-96 0 -192.5 52.5t-155.5 134.5l92 88q51 -60 120.5 -96.5t135.5 -36.5q67 0 133 34t119 99l94 -88q-57 -90 -150.5 -138.5t-195.5 -48.5z" />
<glyph unicode="&#x2d9;" horiz-adv-x="313" d="M156 1249q-43 0 -78 32.5t-35 78.5q0 43 35.5 76.5t77.5 33.5t76 -33t34 -77q0 -46 -33.5 -78.5t-76.5 -32.5z" />
<glyph unicode="&#x2da;" horiz-adv-x="378" d="M184 1112q-92 0 -161.5 67t-69.5 162q0 92 70.5 162t160.5 70q89 0 159.5 -70.5t70.5 -161.5q0 -95 -69.5 -162t-160.5 -67zM184 1223q52 0 84.5 32.5t32.5 83.5q0 49 -33.5 85t-83.5 36t-84 -36.5t-34 -84.5q0 -51 33 -83.5t85 -32.5z" />
<glyph unicode="&#x2db;" horiz-adv-x="931" d="M659 -481h-153q-68 0 -119 27t-74.5 68.5t-16.5 94.5t48 101q22 27 174 198q12 15 36 21.5t42 6.5l18 -1l54 -76l-191 -211q-19 -22 -22 -41t17 -32t65 -13h122v-143z" />
<glyph unicode="&#x2dc;" horiz-adv-x="688" d="M-27 1157q8 77 70 138.5t156 68.5q56 3 104.5 -9.5t76 -29.5t59 -30.5t57.5 -12.5q48 3 78 27.5t38 56.5l101 -35q-2 -58 -55 -120.5t-144 -69.5q-55 -3 -106.5 18t-99 43.5t-93.5 20.5q-117 -7 -147 -97z" />
<glyph unicode="&#x2dd;" horiz-adv-x="575" d="M356 1169l174 357l154 -92l-190 -265h-138zM43 1169l174 357l152 -92l-189 -265h-137z" />
<glyph unicode="&#x1e80;" horiz-adv-x="1867" d="M860 1901l213 -359h-145l-226 234zM451 0l-398 1454h164l326 -1184l336 1084h122l334 -1094l314 1194h166l-390 -1454h-174l-311 1016l-311 -1016h-178z" />
<glyph unicode="&#x1e81;" horiz-adv-x="1476" d="M670 1602l213 -359h-146l-225 234zM367 0l-320 1065h166l229 -801l236 801h125l244 -797l215 797h168l-304 -1065h-155l-232 735l-225 -735h-147z" />
<glyph unicode="&#x1e82;" horiz-adv-x="1867" d="M858 1536l213 358l158 -125l-225 -233h-146zM451 0l-398 1454h164l326 -1184l336 1084h122l334 -1094l314 1194h166l-390 -1454h-174l-311 1016l-311 -1016h-178z" />
<glyph unicode="&#x1e83;" horiz-adv-x="1476" d="M639 1245l213 359l158 -125l-226 -234h-145zM367 0l-320 1065h166l229 -801l236 801h125l244 -797l215 797h168l-304 -1065h-155l-232 735l-225 -735h-147z" />
<glyph unicode="&#x1e84;" horiz-adv-x="1867" d="M1149 1552q-40 0 -71 31.5t-31 73.5t31 73t71 31t72 -31t32 -73t-32 -73.5t-72 -31.5zM723 1552q-39 0 -70.5 31.5t-31.5 73.5t31.5 73t70.5 31q42 0 73 -31t31 -73q0 -43 -31.5 -74t-72.5 -31zM451 0l-398 1454h164l326 -1184l336 1084h122l334 -1094l314 1194h166 l-390 -1454h-174l-311 1016l-311 -1016h-178z" />
<glyph unicode="&#x1e85;" horiz-adv-x="1476" d="M971 1323q-40 0 -71.5 31t-31.5 73t31.5 73.5t71.5 31.5t72 -31.5t32 -73.5t-32 -73t-72 -31zM545 1323q-39 0 -71 31t-32 73t32 73.5t71 31.5q41 0 72.5 -31t31.5 -74q0 -42 -31 -73t-73 -31zM367 0l-320 1065h166l229 -801l236 801h125l244 -797l215 797h168 l-304 -1065h-155l-232 735l-225 -735h-147z" />
<glyph unicode="&#x1ef2;" horiz-adv-x="1243" d="M586 1937l213 -358h-146l-225 233zM543 0v575l-488 879h181l387 -696l385 696h180l-488 -879v-575h-157z" />
<glyph unicode="&#x1ef3;" horiz-adv-x="1032" d="M477 1616l213 -359h-145l-226 234zM98 -375l43 137q95 -33 154 -6.5t96 119.5q0 1 7.5 21.5t15.5 42.5t14.5 41.5t5.5 21.5l-387 1063h170l297 -856l301 856h170l-463 -1260q-29 -79 -78 -128.5t-107.5 -65.5t-118 -12t-120.5 26z" />
<glyph unicode="&#x2000;" horiz-adv-x="1111" />
<glyph unicode="&#x2001;" horiz-adv-x="2222" />
<glyph unicode="&#x2002;" horiz-adv-x="1111" />
<glyph unicode="&#x2003;" horiz-adv-x="2222" />
<glyph unicode="&#x2004;" horiz-adv-x="740" />
<glyph unicode="&#x2005;" horiz-adv-x="555" />
<glyph unicode="&#x2006;" horiz-adv-x="370" />
<glyph unicode="&#x2007;" horiz-adv-x="370" />
<glyph unicode="&#x2008;" horiz-adv-x="277" />
<glyph unicode="&#x2009;" horiz-adv-x="444" />
<glyph unicode="&#x200a;" horiz-adv-x="123" />
<glyph unicode="&#x2010;" horiz-adv-x="882" d="M127 512v152h629v-152h-629z" />
<glyph unicode="&#x2011;" horiz-adv-x="882" d="M127 512v152h629v-152h-629z" />
<glyph unicode="&#x2012;" horiz-adv-x="882" d="M127 512v152h629v-152h-629z" />
<glyph unicode="&#x2013;" horiz-adv-x="1112" d="M145 510v152h820v-152h-820z" />
<glyph unicode="&#x2014;" horiz-adv-x="1875" d="M227 510v152h1422v-152h-1422z" />
<glyph unicode="&#x2018;" horiz-adv-x="462" d="M98 1454h178l89 -442h-142z" />
<glyph unicode="&#x2019;" horiz-adv-x="462" d="M186 1454h179l-125 -442h-142z" />
<glyph unicode="&#x201a;" horiz-adv-x="425" d="M274 444v-442h-147v442h147z" />
<glyph unicode="&#x201c;" horiz-adv-x="831" d="M98 1454h178l89 -442h-142zM467 1454h178l88 -442h-141z" />
<glyph unicode="&#x201d;" horiz-adv-x="829" d="M186 1454h179l-125 -442h-142zM553 1454h178l-125 -442h-141z" />
<glyph unicode="&#x201e;" horiz-adv-x="743" d="M274 444v-442h-147v442h147zM592 444v-442h-148v442h148z" />
<glyph unicode="&#x2020;" horiz-adv-x="999" d="M430 354v662h-268v137h268v283h145v-283h263v-137h-263v-662h-145z" />
<glyph unicode="&#x2021;" horiz-adv-x="1001" d="M573 637v-285h-147v285h-264v137h264v242h-262v137h262v285h147v-285h267v-137h-267v-242h265v-137h-265z" />
<glyph unicode="&#x2022;" horiz-adv-x="616" d="M309 547q-66 0 -118 48.5t-52 117.5t52 120.5t118 51.5q67 0 117.5 -51t50.5 -121q0 -69 -50.5 -117.5t-117.5 -48.5z" />
<glyph unicode="&#x2026;" horiz-adv-x="1308" d="M1038 -14q-45 0 -79.5 34t-34.5 82q0 46 34.5 79.5t79.5 33.5q44 0 78.5 -33.5t34.5 -79.5q0 -48 -34.5 -82t-78.5 -34zM635 -14q-45 0 -80 34t-35 82q0 46 35 79.5t80 33.5t80 -33.5t35 -79.5q0 -48 -35 -82t-80 -34zM221 -14q-44 0 -78 34t-34 82q0 46 34 79.5t78 33.5 t79.5 -33.5t35.5 -79.5q0 -48 -35.5 -82t-79.5 -34z" />
<glyph unicode="&#x202f;" horiz-adv-x="444" />
<glyph unicode="&#x2039;" horiz-adv-x="729" d="M436 223l-276 316v90l274 313l109 -92l-232 -268l232 -267z" />
<glyph unicode="&#x203a;" horiz-adv-x="724" d="M293 950l276 -315v-90l-274 -314l-109 93l232 268l-232 266z" />
<glyph unicode="&#x205f;" horiz-adv-x="555" />
<glyph unicode="&#x20ac;" horiz-adv-x="1396" d="M1251 68q-152 -93 -383 -93q-250 0 -404.5 124.5t-205.5 369.5h-176v156h156q-2 29 -2 90q0 38 4 108h-158v154h178q52 240 202 370t398 130q111 0 201.5 -21.5t140 -47t109.5 -67.5l-70 -145q-153 125 -377 125q-181 0 -285 -85t-143 -259h729l-59 -154h-690 q-4 -66 -4 -104q0 -32 4 -94h624l-59 -156h-543q84 -338 443 -338q101 0 187 26.5t183 78.5v-168z" />
<glyph unicode="&#x2190;" horiz-adv-x="1689" d="M729 98l-579 586l579 584l115 -113l-398 -395h1024v-154h-1024l398 -397z" />
<glyph unicode="&#x2191;" horiz-adv-x="1286" d="M551 8v1172l-393 -396l-113 113l584 580l588 -580l-113 -117l-397 400v-1172h-156z" />
<glyph unicode="&#x2192;" horiz-adv-x="1673" d="M930 84l-115 113l397 397h-1024v154h1024l-397 393l115 114l579 -581z" />
<glyph unicode="&#x2193;" horiz-adv-x="1280" d="M629 -20l-584 579l113 115l393 -400v1172h156v-1170l397 398l113 -115z" />
<glyph unicode="&#x2212;" horiz-adv-x="1280" d="M1106 596h-928v154h928v-154z" />
<glyph unicode="&#x25fc;" horiz-adv-x="1064" d="M0 1065h1065v-1065h-1065v1065z" />
<glyph unicode="&#xf6c3;" horiz-adv-x="727" d="M285 -86h184l-82 -309h-147z" />
<glyph horiz-adv-x="757" d="M86 -365v134l289 305q96 102 120.5 138.5t24.5 88.5q0 56 -40 92.5t-99 36.5q-68 0 -108.5 -41.5t-51.5 -105.5l-137 30q16 107 98.5 181.5t198.5 74.5q123 0 204 -79t81 -189q0 -37 -7.5 -69.5t-17 -54.5t-31 -49t-36 -42t-46 -45.5t-47.5 -46.5l-211 -221h406v-138 h-590z" />
<glyph horiz-adv-x="1239" d="M721 -272h-156v256q-150 13 -273.5 85.5t-197.5 174.5l121 116q77 -99 181.5 -157t224.5 -58q143 0 236 69t93 185q0 74 -21.5 123.5t-70.5 80.5t-114 47.5t-166 27.5q-202 21 -316.5 120.5t-114.5 270.5q0 175 111 281t307 123v229h156v-232q235 -21 362 -178l-116 -108 q-44 58 -129 95.5t-199 37.5q-151 0 -236.5 -61.5t-85.5 -182.5q0 -60 22.5 -102t70.5 -68t107.5 -40.5t148.5 -24.5q101 -11 178.5 -37t141.5 -74t98 -129t34 -192q0 -183 -108.5 -289t-288.5 -129v-260z" />
<glyph horiz-adv-x="1064" d="M963 207q-56 -113 -158.5 -174.5t-239.5 -61.5l-61 -266h-166l57 293q-130 45 -207 161.5t-77 291.5v106q0 108 34 197.5t93.5 148.5t137.5 92.5t167 36.5l55 266h172l-61 -286q179 -53 247 -236l-141 -55q-26 81 -94 123.5t-164 42.5q-126 0 -207.5 -88t-81.5 -236v-119 q0 -157 80 -242t207 -85q89 0 159 36t105 109z" />
</font>
</defs>
</svg>
