<?xml version="1.0" standalone="no"?><!DOCTYPE svg PUBLIC "-//W3C//DTD SVG 1.1//EN" "http://www.w3.org/Graphics/SVG/1.1/DTD/svg11.dtd" ><svg version="1.1" xmlns="http://www.w3.org/2000/svg"><defs><font horiz-adv-x="0" id="font"><font-face ascent="735" bbox="-37.0737 -144 596 1014" cap-height="709.92" descent="0" font-family="Graph Paris Condensed" font-stretch="condensed" font-style="normal" font-weight="700" units-per-em="1000" x-height="709.92" /><missing-glyph horiz-adv-x="500" /><glyph d="M125 0H15Q15 182 39.5 362.5Q64 543 132 710H234Q299 543 325.5 363.5Q352 184 352 0H243Q243 149 226 296Q209 443 183 551Q157 443 141 295.5Q125 148 125 0ZM110 261H257V161H113Z" glyph-name="A" horiz-adv-x="367" unicode="A" /><glyph d="M240 710H530V601H353V401H478V293H353V108H530V0H240ZM115 0H5Q21 229 86 416.5Q151 604 240 710V518Q199 452 165 313.5Q131 175 115 0ZM100 272H247V172H103Z" glyph-name="AE" horiz-adv-x="545" unicode="&#198;" /><glyph d="M240 710H530V601H353V401H478V293H353V108H530V0H240ZM115 0H5Q21 229 86 416.5Q151 604 240 710V518Q199 452 165 313.5Q131 175 115 0ZM100 272H247V172H103ZM367 733H256L285 790H436Q436 790 401.5 761.5Q367 733 367 733Z" glyph-name="AEacute" horiz-adv-x="545" unicode="&#508;" /><glyph d="M125 0H15Q15 182 39.5 362.5Q64 543 132 710H234Q299 543 325.5 363.5Q352 184 352 0H243Q243 149 226 296Q209 443 183 551Q157 443 141 295.5Q125 148 125 0ZM110 261H257V161H113ZM234 735H123L152 792H303Q303 792 268.5 763.5Q234 735 234 735Z" glyph-name="Aacute" horiz-adv-x="367" unicode="&#193;" /><glyph d="M125 0H15Q15 182 39.5 362.5Q64 543 132 710H234Q299 543 325.5 363.5Q352 184 352 0H243Q243 149 226 296Q209 443 183 551Q157 443 141 295.5Q125 148 125 0ZM110 261H257V161H113ZM220 814Q220 804 215 796.5Q210 789 199 789H161Q149 789 143.5 796Q138 803 138 814H74Q74 774 99 753.5Q124 733 169 733H193Q239 733 262 753.5Q285 774 285 814Z" glyph-name="Abreve" horiz-adv-x="367" unicode="&#258;" /><glyph d="M125 0H15Q15 182 39.5 362.5Q64 543 132 710H234Q299 543 325.5 363.5Q352 184 352 0H243Q243 149 226 296Q209 443 183 551Q157 443 141 295.5Q125 148 125 0ZM110 261H257V161H113ZM70 735 149 803H216L294 734H213L182 765L150 735Q150 735 110 735Q70 735 70 735Z" glyph-name="Acircumflex" horiz-adv-x="367" unicode="&#194;" /><glyph d="M125 0H15Q15 182 39.5 362.5Q64 543 132 710H234Q299 543 325.5 363.5Q352 184 352 0H243Q243 149 226 296Q209 443 183 551Q157 443 141 295.5Q125 148 125 0ZM110 261H257V161H113ZM55 794H162V735H55V794ZM200 794H307V735H200V794Z" glyph-name="Adieresis" horiz-adv-x="367" unicode="&#196;" /><glyph d="M125 0H15Q15 182 39.5 362.5Q64 543 132 710H234Q299 543 325.5 363.5Q352 184 352 0H243Q243 149 226 296Q209 443 183 551Q157 443 141 295.5Q125 148 125 0ZM110 261H257V161H113ZM128.9516 735H239.9923L210.9817 792H59.9263Q59.9263 792 94.4389 763.5Q128.9516 735 128.9516 735Z" glyph-name="Agrave" horiz-adv-x="367" unicode="&#192;" /><glyph d="M125 0H15Q15 182 39.5 362.5Q64 543 132 710H234Q299 543 325.5 363.5Q352 184 352 0H243Q243 149 226 296Q209 443 183 551Q157 443 141 295.5Q125 148 125 0ZM110 261H257V161H113ZM58 798V735H300V798Z" glyph-name="Amacron" horiz-adv-x="367" unicode="&#256;" /><glyph d="M352 -133H305Q238 -133 217.5 -103Q197 -73 202 -38Q207 3 230 40.5Q253 78 253 78L317 2Q308 -6 302.5 -15.5Q297 -25 295 -37H352ZM125 0H15Q15 182 39.5 362.5Q64 543 132 710H234Q299 543 325.5 363.5Q352 184 352 0H243Q243 149 226 296Q209 443 183 551Q157 443 141 295.5Q125 148 125 0ZM110 261H257V161H113Z" glyph-name="Aogonek" horiz-adv-x="367" unicode="&#260;" /><glyph d="M125 0H15Q15 182 39.5 362.5Q64 543 132 710H234Q299 543 325.5 363.5Q352 184 352 0H243Q243 149 226 296Q209 443 183 551Q157 443 141 295.5Q125 148 125 0ZM110 261H257V161H113ZM166 656Q129 656 108.5 672.5Q88 689 88 727Q88 765 108 783Q128 801 167 801H204Q240 801 259.5 784Q279 767 279 727Q279 689 259.5 672.5Q240 656 204 656ZM166 746Q156 746 151.5 741Q147 736 147 727Q147 719 151 714.5Q155 710 165 710H203Q211 710 215.5 714Q220 718 220 727Q220 736 216 741Q212 746 203 746Z" glyph-name="Aring" horiz-adv-x="367" unicode="&#197;" /><glyph d="M125 0H15Q15 182 39.5 362.5Q64 543 132 710H234Q299 543 325.5 363.5Q352 184 352 0H243Q243 149 226 296Q209 443 183 551Q157 443 141 295.5Q125 148 125 0ZM110 261H257V161H113ZM166 656Q129 656 108.5 672.5Q88 689 88 727Q88 765 108 783Q128 801 167 801H204Q240 801 259.5 784Q279 767 279 727Q279 689 259.5 672.5Q240 656 204 656ZM166 746Q156 746 151.5 741Q147 736 147 727Q147 719 151 714.5Q155 710 165 710H203Q211 710 215.5 714Q220 718 220 727Q220 736 216 741Q212 746 203 746ZM239 816H128L157 873H308Q308 873 273.5 844.5Q239 816 239 816Z" glyph-name="Aringacute" horiz-adv-x="367" unicode="&#506;" /><glyph d="M125 0H15Q15 182 39.5 362.5Q64 543 132 710H234Q299 543 325.5 363.5Q352 184 352 0H243Q243 149 226 296Q209 443 183 551Q157 443 141 295.5Q125 148 125 0ZM110 261H257V161H113ZM233 817Q268 817 291 796.5Q314 776 314 735H253Q253 746 246 754.5Q239 763 223 763Q208 763 182 748Q156 733 124 733Q90 733 67 756.5Q44 780 44 814H102Q102 802 109.5 794Q117 786 132 786Q147 786 175 801.5Q203 817 233 817Z" glyph-name="Atilde" horiz-adv-x="367" unicode="&#195;" /><glyph d="M247 390Q281 372 309 330.5Q337 289 337 219Q337 119 282.5 59Q228 -1 97 0H25V710H80Q211 710 264.5 660.5Q318 611 318 532Q318 472 297 438.5Q276 405 247 390ZM130 110Q168 110 194 136Q220 162 220 219Q220 276 196 304Q172 332 130 332ZM206 522Q206 573 186 587Q166 601 130 601V437Q165 437 185.5 454.5Q206 472 206 522Z" glyph-name="B" horiz-adv-x="352" unicode="B" /><glyph d="M196 713Q224 713 247 708Q270 703 284 696V580Q271 585 256.5 589.5Q242 594 224 594Q184 594 159 555.5Q134 517 134 353Q134 162 162 138Q190 114 216 114Q242 114 255.5 119Q269 124 284 129V12Q270 3 245.5 -2.5Q221 -8 196 -8Q130 -8 72.5 53Q15 114 15 353Q15 578 68 645.5Q121 713 196 713Z" glyph-name="C" horiz-adv-x="304" unicode="C" /><glyph d="M196 713Q224 713 247 708Q270 703 284 696V580Q271 585 256.5 589.5Q242 594 224 594Q184 594 159 555.5Q134 517 134 353Q134 162 162 138Q190 114 216 114Q242 114 255.5 119Q269 124 284 129V12Q270 3 245.5 -2.5Q221 -8 196 -8Q130 -8 72.5 53Q15 114 15 353Q15 578 68 645.5Q121 713 196 713ZM232 735H121L150 792H301Q301 792 266.5 763.5Q232 735 232 735Z" glyph-name="Cacute" horiz-adv-x="321" unicode="&#262;" /><glyph d="M196 713Q224 713 247 708Q270 703 284 696V580Q271 585 256.5 589.5Q242 594 224 594Q184 594 159 555.5Q134 517 134 353Q134 162 162 138Q190 114 216 114Q242 114 255.5 119Q269 124 284 129V12Q270 3 245.5 -2.5Q221 -8 196 -8Q130 -8 72.5 53Q15 114 15 353Q15 578 68 645.5Q121 713 196 713ZM288 802 209 734H142L64 803H145L176 772L208 802Q208 802 248 802Q288 802 288 802Z" glyph-name="Ccaron" horiz-adv-x="308" unicode="&#268;" /><glyph d="M196 713Q224 713 247 708Q270 703 284 696V580Q271 585 256.5 589.5Q242 594 224 594Q184 594 159 555.5Q134 517 134 353Q134 162 162 138Q190 114 216 114Q242 114 255.5 119Q269 124 284 129V12Q270 3 245.5 -2.5Q221 -8 196 -8Q130 -8 72.5 53Q15 114 15 353Q15 578 68 645.5Q121 713 196 713ZM243 -68H126L153 2H253Z" glyph-name="Ccedilla" horiz-adv-x="304" unicode="&#199;" /><glyph d="M196 713Q224 713 247 708Q270 703 284 696V580Q271 585 256.5 589.5Q242 594 224 594Q184 594 159 555.5Q134 517 134 353Q134 162 162 138Q190 114 216 114Q242 114 255.5 119Q269 124 284 129V12Q270 3 245.5 -2.5Q221 -8 196 -8Q130 -8 72.5 53Q15 114 15 353Q15 578 68 645.5Q121 713 196 713ZM122 793H240V735H122V793Z" glyph-name="Cdotaccent" horiz-adv-x="304" unicode="&#266;" /><glyph d="M125 710Q232 710 288.5 630Q345 550 345 360Q345 170 288.5 85Q232 0 126 0H25V710ZM142 113Q194 113 209 175Q224 237 224 360Q224 480 209 538.5Q194 597 142 597Z" glyph-name="D" horiz-adv-x="360" unicode="D" /><glyph d="M20 524H210V469H20ZM87 390V710H143V390ZM20 637H210V582H20Z" glyph-name="Dagger" horiz-adv-x="230" /><glyph d="M125 710Q232 710 288.5 630Q345 550 345 360Q345 170 288.5 85Q232 0 126 0H25V710ZM142 113Q194 113 209 175Q224 237 224 360Q224 480 209 538.5Q194 597 142 597ZM268 803 189 735H122L44 804H125L156 773L188 803Q188 803 228 803Q268 803 268 803Z" glyph-name="Dcaron" horiz-adv-x="360" unicode="&#270;" /><glyph d="M200 405V292H0V405ZM125 710Q232 710 288.5 630Q345 550 345 360Q345 170 288.5 85Q232 0 126 0H25V710ZM142 113Q194 113 209 175Q224 237 224 360Q224 480 209 538.5Q194 597 142 597Z" glyph-name="Dcroat" horiz-adv-x="360" unicode="&#272;" /><glyph d="M25 0V710H294V597H138V447H240V334H138V113H294V0H25Z" glyph-name="E" horiz-adv-x="309" unicode="E" /><glyph d="M25 0V710H294V597H138V447H240V334H138V113H294V0H25ZM204 735H93L122 792H273Q273 792 238.5 763.5Q204 735 204 735Z" glyph-name="Eacute" horiz-adv-x="309" unicode="&#201;" /><glyph d="M196 815Q196 805 191 797.5Q186 790 175 790H137Q125 790 119.5 797Q114 804 114 815H50Q50 775 75 754.5Q100 734 145 734H169Q215 734 238 754.5Q261 775 261 815ZM25 0V710H294V597H138V447H240V334H138V113H294V0H25Z" glyph-name="Ebreve" horiz-adv-x="309" unicode="&#276;" /><glyph d="M25 0V710H294V597H138V447H240V334H138V113H294V0H25ZM269 803 190 735H123L45 804H126L157 773L189 803Q189 803 229 803Q269 803 269 803Z" glyph-name="Ecaron" horiz-adv-x="309" unicode="&#282;" /><glyph d="M25 0V710H294V597H138V447H240V334H138V113H294V0H25ZM40 736 119 804H186L264 735H183L152 766L120 736Q120 736 80 736Q40 736 40 736Z" glyph-name="Ecircumflex" horiz-adv-x="309" unicode="&#202;" /><glyph d="M25 0V710H294V597H138V447H240V334H138V113H294V0H25ZM32 794H139V735H32V794ZM177 794H284V735H177V794Z" glyph-name="Edieresis" horiz-adv-x="309" unicode="&#203;" /><glyph d="M25 0V710H294V597H138V447H240V334H138V113H294V0H25ZM93 793H211V735H93V793Z" glyph-name="Edotaccent" horiz-adv-x="309" unicode="&#278;" /><glyph d="M25 0V710H294V597H138V447H240V334H138V113H294V0H25ZM116.9516 735H227.9923L198.9817 792H47.9263Q47.9263 792 82.4389 763.5Q116.9516 735 116.9516 735Z" glyph-name="Egrave" horiz-adv-x="309" unicode="&#200;" /><glyph d="M28 0V710H297V597H141V447H243V334H141V113H297V0H28ZM38 798V735H280V798Z" glyph-name="Emacron" horiz-adv-x="312" unicode="&#274;" /><glyph d="M25 0V710H294V597H138V447H240V334H138V113H294V0H25ZM239 -108H163Q119 -108 100 -84.5Q81 -61 89 -25Q97 16 104.5 44Q112 72 112 72L186 3L176 -36H239Z" glyph-name="Eogonek" horiz-adv-x="309" unicode="&#280;" /><glyph d="M200 405V292H0V405ZM125 710Q232 710 288.5 630Q345 550 345 360Q345 170 288.5 85Q232 0 126 0H25V710ZM142 113Q194 113 209 175Q224 237 224 360Q224 480 209 538.5Q194 597 142 597Z" glyph-name="Eth" horiz-adv-x="360" unicode="&#208;" /><glyph d="M213 713Q241 713 264 708Q287 703 301 696V580Q288 585 273.5 589.5Q259 594 241 594Q201 594 176 555.5Q151 517 151 353Q151 162 179 138Q207 114 233 114Q259 114 272.5 119Q286 124 301 129V12Q287 3 262.5 -2.5Q238 -8 213 -8Q147 -8 89.5 53Q32 114 32 353Q32 578 85 645.5Q138 713 213 713ZM0 419H259V362H0ZM0 329H259V272H0Z" glyph-name="Euro" horiz-adv-x="321" unicode="&#8364;" /><glyph d="M25 0V710H318V597H139V439H264V327H139V0H25Z" glyph-name="F" horiz-adv-x="328" unicode="F" /><glyph d="M195 716Q262 716 309 663.5Q356 611 364 521H246Q243 558 230 579Q217 600 195 600Q172 600 154.5 571.5Q137 543 137 353Q137 159 155.5 132.5Q174 106 196 106Q221 106 236 134Q251 162 253 277H196V391H366V299Q366 111 318 51Q270 -9 195 -9Q116 -9 65.5 54.5Q15 118 15 353Q15 596 70 656Q125 716 195 716Z" glyph-name="G" horiz-adv-x="381" unicode="G" /><glyph d="M195 716Q262 716 309 663.5Q356 611 364 521H246Q243 558 230 579Q217 600 195 600Q172 600 154.5 571.5Q137 543 137 353Q137 159 155.5 132.5Q174 106 196 106Q221 106 236 134Q251 162 253 277H196V391H366V299Q366 111 318 51Q270 -9 195 -9Q116 -9 65.5 54.5Q15 118 15 353Q15 596 70 656Q125 716 195 716ZM232 817Q232 807 227 799.5Q222 792 211 792H173Q161 792 155.5 799Q150 806 150 817H86Q86 777 111 756.5Q136 736 181 736H205Q251 736 274 756.5Q297 777 297 817Z" glyph-name="Gbreve" horiz-adv-x="381" unicode="&#286;" /><glyph d="M195 717Q262 717 309 664.5Q356 612 364 522H246Q243 559 230 580Q217 601 195 601Q172 601 154.5 572.5Q137 544 137 354Q137 160 155.5 133.5Q174 107 196 107Q221 107 236 135Q251 163 253 278H196V392H366V300Q366 112 318 52Q270 -8 195 -8Q116 -8 65.5 55.5Q15 119 15 354Q15 597 70 657Q125 717 195 717ZM134 794H252V736H134V794Z" glyph-name="Gdotaccent" horiz-adv-x="381" unicode="&#288;" /><glyph d="M224 439V710H339V0H224V326H140V0H25V710H140V439H224Z" glyph-name="H" horiz-adv-x="364" unicode="H" /><glyph d="M259 409V531H176V409ZM176 0H61V531H25V618H61V710H176V618H259V710H375V618H410V531H375V0H259V296H176Z" glyph-name="Hbar" horiz-adv-x="435" unicode="&#294;" /><glyph d="M25 710H139V0H25V710Z" glyph-name="I" horiz-adv-x="164" unicode="I" /><glyph d="M25 710H139V0H25V710ZM131 735H20L49 792H200Q200 792 165.5 763.5Q131 735 131 735Z" glyph-name="Iacute" horiz-adv-x="164" unicode="&#205;" /><glyph d="M25 710H139V0H25V710ZM123 815Q123 805 118 797.5Q113 790 102 790H64Q52 790 46.5 797Q41 804 41 815H-23Q-23 775 2 754.5Q27 734 72 734H96Q142 734 165 754.5Q188 775 188 815Z" glyph-name="Ibreve" horiz-adv-x="164" unicode="&#300;" /><glyph d="M25 710H139V0H25V710ZM-30 735 49 803H116L194 734H113L82 765L50 735Q50 735 10 735Q-30 735 -30 735Z" glyph-name="Icircumflex" horiz-adv-x="164" unicode="&#206;" /><glyph d="M-12 818H71V736H-12V818ZM97 818H180V736H97V818ZM25 710H139V0H25V710Z" glyph-name="Idieresis" horiz-adv-x="164" unicode="&#207;" /><glyph d="M25 606.5997H139V0H25V606.5997ZM23 710H141V652H23V710Z" glyph-name="Idotaccent" horiz-adv-x="164" unicode="&#304;" /><glyph d="M25 710H139V0H25V710ZM31.9516 735H142.9923L113.9817 792H-37.0737Q-37.0737 792 -2.5611 763.5Q31.9516 735 31.9516 735Z" glyph-name="Igrave" horiz-adv-x="163.9923" unicode="&#204;" /><glyph d="M183 794V736H-15V794ZM27 710H141V0H27V710Z" glyph-name="Imacron" horiz-adv-x="168" unicode="&#298;" /><glyph d="M139 -136H79Q36 -136 17.5 -106Q-1 -76 5 -45Q14 -4 21 32Q28 68 28 68L100 2L99 -40H139ZM25 710H139V0H25V710Z" glyph-name="Iogonek" horiz-adv-x="164" unicode="&#302;" /><glyph d="M91 710H208V263Q208 102 160.5 47Q113 -8 43 -8Q37 -8 25.5 -6.5Q14 -5 6 -2V113Q16 110 21.5 109.5Q27 109 34 109Q61 109 76 133.5Q91 158 91 263Z" glyph-name="J" horiz-adv-x="233" unicode="J" /><glyph d="M367 710 228 405Q265 349 309 227.5Q353 106 368 0H240Q232 79 207.5 165.5Q183 252 139 331V0H25V710H139V458L240 710H367Z" glyph-name="K" horiz-adv-x="368" unicode="K" /><glyph d="M139 114H293V0H25V710H139Z" glyph-name="L" horiz-adv-x="308" unicode="L" /><glyph d="M139 114H293V0H25V710H139ZM138 735H27L56 792H207Q207 792 172.5 763.5Q138 735 138 735Z" glyph-name="Lacute" horiz-adv-x="308" unicode="&#313;" /><glyph d="M139 114H293V0H25V710H139ZM197 803 118 735H51L-27 804H54L85 773L117 803Q117 803 157 803Q197 803 197 803Z" glyph-name="Lcaron" horiz-adv-x="308" unicode="&#317;" /><glyph d="M139 114H293V0H25V710H139ZM246 413Q262 413 276 400.5Q290 388 290 370Q290 352 276 339Q262 326 246 326Q231 326 217 339.5Q203 353 203 370Q203 387 216.5 400Q230 413 246 413Z" glyph-name="Ldot" horiz-adv-x="323" unicode="&#319;" /><glyph d="M263 378 6 254 -20 309 237 433ZM152 114H306V0H38V710H152Z" glyph-name="Lslash" horiz-adv-x="321" unicode="&#321;" /><glyph d="M223 426 345 710H419V0H306V382L224 206L139 382V0H25V710H99Q99 710 161 568Q223 426 223 426Z" glyph-name="M" horiz-adv-x="444" unicode="M" /><glyph d="M228 710H341V0H241Q224 215 200.5 298Q177 381 138 457V0H25V710H97Q148 645 179 591.5Q210 538 228 492Z" glyph-name="N" horiz-adv-x="366" unicode="N" /><glyph d="M228 710H341V0H241Q224 215 200.5 298Q177 381 138 457V0H25V710H97Q148 645 179 591.5Q210 538 228 492ZM222 735H111L140 792H291Q291 792 256.5 763.5Q222 735 222 735Z" glyph-name="Nacute" horiz-adv-x="366" unicode="&#323;" /><glyph d="M228 710H341V0H241Q224 215 200.5 298Q177 381 138 457V0H25V710H97Q148 645 179 591.5Q210 538 228 492ZM292 801 213 733H146L68 802H149L180 771L212 801Q212 801 252 801Q292 801 292 801Z" glyph-name="Ncaron" horiz-adv-x="366" unicode="&#327;" /><glyph d="M228 710H341V0H241Q224 215 200.5 298Q177 381 138 457V0H25V710H97Q148 645 179 591.5Q210 538 228 492ZM232 818Q267 818 290 797.5Q313 777 313 736H252Q252 747 245 755.5Q238 764 222 764Q207 764 181 749Q155 734 123 734Q89 734 66 757.5Q43 781 43 815H101Q101 803 108.5 795Q116 787 131 787Q146 787 174 802.5Q202 818 232 818Z" glyph-name="Ntilde" horiz-adv-x="366" unicode="&#209;" /><glyph d="M191 714Q266 714 316 655Q366 596 366 358Q366 110 317 51.5Q268 -7 191 -7Q116 -7 65.5 51.5Q15 110 15 358Q15 597 65 655.5Q115 714 191 714ZM191 105Q209 105 225.5 130Q242 155 242 358Q242 551 227 575.5Q212 600 191 600Q168 600 153 575.5Q138 551 138 358Q138 155 153.5 130Q169 105 191 105Z" glyph-name="O" horiz-adv-x="381" unicode="O" /><glyph d="M257 710H535V602H364V401H482V293H364V108H535V0H257V30Q247 14 224 5.5Q201 -3 182 -3Q107 -3 61 53.5Q15 110 15 353Q15 589 60 651Q105 713 182 713Q202 713 224 705Q246 697 257 680ZM187 105Q206 105 223 119Q240 133 240 149V562Q240 578 223 591.5Q206 605 187 605Q165 605 150 580Q135 555 135 353Q135 149 150 127Q165 105 187 105Z" glyph-name="OE" horiz-adv-x="550" unicode="&#338;" /><glyph d="M191 714Q266 714 316 655Q366 596 366 358Q366 110 317 51.5Q268 -7 191 -7Q116 -7 65.5 51.5Q15 110 15 358Q15 597 65 655.5Q115 714 191 714ZM191 105Q209 105 225.5 130Q242 155 242 358Q242 551 227 575.5Q212 600 191 600Q168 600 153 575.5Q138 551 138 358Q138 155 153.5 130Q169 105 191 105ZM236 735H125L154 792H305Q305 792 270.5 763.5Q236 735 236 735Z" glyph-name="Oacute" horiz-adv-x="381" unicode="&#211;" /><glyph d="M191 714Q266 714 316 655Q366 596 366 358Q366 110 317 51.5Q268 -7 191 -7Q116 -7 65.5 51.5Q15 110 15 358Q15 597 65 655.5Q115 714 191 714ZM191 105Q209 105 225.5 130Q242 155 242 358Q242 551 227 575.5Q212 600 191 600Q168 600 153 575.5Q138 551 138 358Q138 155 153.5 130Q169 105 191 105ZM232 815Q232 805 227 797.5Q222 790 211 790H173Q161 790 155.5 797Q150 804 150 815H86Q86 775 111 754.5Q136 734 181 734H205Q251 734 274 754.5Q297 775 297 815Z" glyph-name="Obreve" horiz-adv-x="381" unicode="&#334;" /><glyph d="M191 714Q266 714 316 655Q366 596 366 358Q366 110 317 51.5Q268 -7 191 -7Q116 -7 65.5 51.5Q15 110 15 358Q15 597 65 655.5Q115 714 191 714ZM191 105Q209 105 225.5 130Q242 155 242 358Q242 551 227 575.5Q212 600 191 600Q168 600 153 575.5Q138 551 138 358Q138 155 153.5 130Q169 105 191 105ZM80 736 159 804H226L304 735H223L192 766L160 736Q160 736 120 736Q80 736 80 736Z" glyph-name="Ocircumflex" horiz-adv-x="381" unicode="&#212;" /><glyph d="M191 714Q266 714 316 655Q366 596 366 358Q366 110 317 51.5Q268 -7 191 -7Q116 -7 65.5 51.5Q15 110 15 358Q15 597 65 655.5Q115 714 191 714ZM191 105Q209 105 225.5 130Q242 155 242 358Q242 551 227 575.5Q212 600 191 600Q168 600 153 575.5Q138 551 138 358Q138 155 153.5 130Q169 105 191 105ZM65 794H172V735H65V794ZM210 794H317V735H210V794Z" glyph-name="Odieresis" horiz-adv-x="381" unicode="&#214;" /><glyph d="M191 714Q266 714 316 655Q366 596 366 358Q366 110 317 51.5Q268 -7 191 -7Q116 -7 65.5 51.5Q15 110 15 358Q15 597 65 655.5Q115 714 191 714ZM191 105Q209 105 225.5 130Q242 155 242 358Q242 551 227 575.5Q212 600 191 600Q168 600 153 575.5Q138 551 138 358Q138 155 153.5 130Q169 105 191 105ZM149.9516 735H260.9923L231.9817 792H80.9263Q80.9263 792 115.4389 763.5Q149.9516 735 149.9516 735Z" glyph-name="Ograve" horiz-adv-x="381" unicode="&#210;" /><glyph d="M191 714Q266 714 316 655Q366 596 366 358Q366 110 317 51.5Q268 -7 191 -7Q116 -7 65.5 51.5Q15 110 15 358Q15 597 65 655.5Q115 714 191 714ZM191 105Q209 105 225.5 130Q242 155 242 358Q242 551 227 575.5Q212 600 191 600Q168 600 153 575.5Q138 551 138 358Q138 155 153.5 130Q169 105 191 105ZM93 799H193L168 735H76Q76 735 84.5 767Q93 799 93 799ZM296 735H205L227 799H326Q326 799 311 767Q296 735 296 735Z" glyph-name="Ohungarumlaut" horiz-adv-x="381" unicode="&#336;" /><glyph d="M191 714Q266 714 316 655Q366 596 366 358Q366 110 317 51.5Q268 -7 191 -7Q116 -7 65.5 51.5Q15 110 15 358Q15 597 65 655.5Q115 714 191 714ZM191 105Q209 105 225.5 130Q242 155 242 358Q242 551 227 575.5Q212 600 191 600Q168 600 153 575.5Q138 551 138 358Q138 155 153.5 130Q169 105 191 105ZM68 798V735H310V798Z" glyph-name="Omacron" horiz-adv-x="381" unicode="&#332;" /><glyph d="M306 730 360 710 68 -21 13 0ZM191 714Q266 714 316 655Q366 596 366 358Q366 110 317 51.5Q268 -7 191 -7Q116 -7 65.5 51.5Q15 110 15 358Q15 597 65 655.5Q115 714 191 714ZM191 105Q209 105 225.5 130Q242 155 242 358Q242 551 227 575.5Q212 600 191 600Q168 600 153 575.5Q138 551 138 358Q138 155 153.5 130Q169 105 191 105Z" glyph-name="Oslash" horiz-adv-x="381" unicode="&#216;" /><glyph d="M306 730 360 710 68 -21 13 0ZM191 714Q266 714 316 655Q366 596 366 358Q366 110 317 51.5Q268 -7 191 -7Q116 -7 65.5 51.5Q15 110 15 358Q15 597 65 655.5Q115 714 191 714ZM191 105Q209 105 225.5 130Q242 155 242 358Q242 551 227 575.5Q212 600 191 600Q168 600 153 575.5Q138 551 138 358Q138 155 153.5 130Q169 105 191 105ZM231 736H120L149 793H300Q300 793 265.5 764.5Q231 736 231 736Z" glyph-name="Oslashacute" horiz-adv-x="381" unicode="&#510;" /><glyph d="M191 714Q266 714 316 655Q366 596 366 358Q366 110 317 51.5Q268 -7 191 -7Q116 -7 65.5 51.5Q15 110 15 358Q15 597 65 655.5Q115 714 191 714ZM191 105Q209 105 225.5 130Q242 155 242 358Q242 551 227 575.5Q212 600 191 600Q168 600 153 575.5Q138 551 138 358Q138 155 153.5 130Q169 105 191 105ZM244 816Q279 816 302 795.5Q325 775 325 734H264Q264 745 257 753.5Q250 762 234 762Q219 762 193 747Q167 732 135 732Q101 732 78 755.5Q55 779 55 813H113Q113 801 120.5 793Q128 785 143 785Q158 785 186 800.5Q214 816 244 816Z" glyph-name="Otilde" horiz-adv-x="381" unicode="&#213;" /><glyph d="M72 710Q237 710 292 649Q347 588 347 493Q347 394 286.5 336Q226 278 139 278V0H25V710ZM139 398Q181 398 207 420.5Q233 443 233 491Q233 544 212 568Q191 592 139 592Z" glyph-name="P" horiz-adv-x="357" unicode="P" /><glyph d="M157 -5 270 30Q293 13 307 -11Q321 -35 321 -62H197Q197 -40 190 -26.5Q183 -13 157 -5ZM191 714Q266 714 316 655Q366 596 366 358Q366 110 317 51.5Q268 -7 191 -7Q116 -7 65.5 51.5Q15 110 15 358Q15 597 65 655.5Q115 714 191 714ZM191 105Q209 105 225.5 130Q242 155 242 358Q242 551 227 575.5Q212 600 191 600Q168 600 153 575.5Q138 551 138 358Q138 155 153.5 130Q169 105 191 105Z" glyph-name="Q" horiz-adv-x="381" unicode="Q" /><glyph d="M233 0Q217 84 195.5 160.5Q174 237 155 278H138V0H25V710H121Q239 710 286.5 646.5Q334 583 334 496Q334 428 311 387Q288 346 256 327Q280 272 309.5 181Q339 90 356 0ZM217 498Q217 540 200 567.5Q183 595 138 595V398Q182 398 199.5 425.5Q217 453 217 498Z" glyph-name="R" horiz-adv-x="361" unicode="R" /><glyph d="M233 0Q217 84 195.5 160.5Q174 237 155 278H138V0H25V710H121Q239 710 286.5 646.5Q334 583 334 496Q334 428 311 387Q288 346 256 327Q280 272 309.5 181Q339 90 356 0ZM217 498Q217 540 200 567.5Q183 595 138 595V398Q182 398 199.5 425.5Q217 453 217 498ZM193 736H82L111 793H262Q262 793 227.5 764.5Q193 736 193 736Z" glyph-name="Racute" horiz-adv-x="361" unicode="&#340;" /><glyph d="M233 0Q217 84 195.5 160.5Q174 237 155 278H138V0H25V710H121Q239 710 286.5 646.5Q334 583 334 496Q334 428 311 387Q288 346 256 327Q280 272 309.5 181Q339 90 356 0ZM217 498Q217 540 200 567.5Q183 595 138 595V398Q182 398 199.5 425.5Q217 453 217 498ZM264 804 185 736H118L40 805H121L152 774L184 804Q184 804 224 804Q264 804 264 804Z" glyph-name="Rcaron" horiz-adv-x="361" unicode="&#344;" /><glyph d="M198 720Q231 720 258 712.5Q285 705 294 702V577Q277 586 252.5 594.5Q228 603 197 603Q173 603 158 587.5Q143 572 143 548Q143 522 168.5 481.5Q194 441 227 391Q276 319 296.5 270.5Q317 222 317 163Q317 89 272.5 40.5Q228 -8 140 -8Q103 -8 77.5 -0.5Q52 7 33 17V135Q50 126 74.5 116Q99 106 128 106Q161 106 177 119.5Q193 133 193 165Q193 198 180 224.5Q167 251 125 319Q79 393 49.5 441.5Q20 490 20 546Q20 628 67.5 674Q115 720 198 720Z" glyph-name="S" horiz-adv-x="337" unicode="S" /><glyph d="M203 720Q236 720 263 712.5Q290 705 299 702V577Q282 586 257.5 594.5Q233 603 202 603Q178 603 163 587.5Q148 572 148 548Q148 522 173.5 481.5Q199 441 232 391Q281 319 301.5 270.5Q322 222 322 163Q322 89 277.5 40.5Q233 -8 145 -8Q108 -8 82.5 -0.5Q57 7 38 17V135Q55 126 79.5 116Q104 106 133 106Q166 106 182 119.5Q198 133 198 165Q198 198 185 224.5Q172 251 130 319Q84 393 54.5 441.5Q25 490 25 546Q25 628 72.5 674Q120 720 203 720ZM232 736H121L150 793H301Q301 793 266.5 764.5Q232 736 232 736Z" glyph-name="Sacute" horiz-adv-x="347" unicode="&#346;" /><glyph d="M198 720Q231 720 258 712.5Q285 705 294 702V577Q277 586 252.5 594.5Q228 603 197 603Q173 603 158 587.5Q143 572 143 548Q143 522 168.5 481.5Q194 441 227 391Q276 319 296.5 270.5Q317 222 317 163Q317 89 272.5 40.5Q228 -8 140 -8Q103 -8 77.5 -0.5Q52 7 33 17V135Q50 126 74.5 116Q99 106 128 106Q161 106 177 119.5Q193 133 193 165Q193 198 180 224.5Q167 251 125 319Q79 393 49.5 441.5Q20 490 20 546Q20 628 67.5 674Q115 720 198 720ZM293 806 214 738H147L69 807H150L181 776L213 806Q213 806 253 806Q293 806 293 806Z" glyph-name="Scaron" horiz-adv-x="337" unicode="&#352;" /><glyph d="M203 720Q236 720 263 712.5Q290 705 299 702V577Q282 586 257.5 594.5Q233 603 202 603Q178 603 163 587.5Q148 572 148 548Q148 522 173.5 481.5Q199 441 232 391Q281 319 301.5 270.5Q322 222 322 163Q322 89 277.5 40.5Q233 -8 145 -8Q108 -8 82.5 -0.5Q57 7 38 17V135Q55 126 79.5 116Q104 106 133 106Q166 106 182 119.5Q198 133 198 165Q198 198 185 224.5Q172 251 130 319Q84 393 54.5 441.5Q25 490 25 546Q25 628 72.5 674Q120 720 203 720ZM211 -67H94L121 3H221Z" glyph-name="Scedilla" horiz-adv-x="347" unicode="&#350;" /><glyph d="M10 597V710H292V597H208V0H94V597H10Z" glyph-name="T" horiz-adv-x="302" unicode="T" /><glyph d="M10 597V710H292V597H208V0H94V597H10ZM262 803 183 735H116L38 804H119L150 773L182 803Q182 803 222 803Q262 803 262 803Z" glyph-name="Tcaron" horiz-adv-x="302" unicode="&#356;" /><glyph d="M341 360Q341 196 288.5 124.5Q236 53 133 53V0H25V710H133V658Q236 658 288.5 584.5Q341 511 341 360ZM138 156Q188 156 210 202Q232 248 232 360Q232 474 210 512Q188 550 138 550Z" glyph-name="Thorn" horiz-adv-x="356" unicode="&#222;" /><glyph d="M229 710H342V289Q342 98 293.5 45Q245 -8 181 -8Q117 -8 68.5 45.5Q20 99 20 289V710H132V289Q132 145 147.5 125.5Q163 106 181 106Q200 106 214.5 125.5Q229 145 229 289Z" glyph-name="U" horiz-adv-x="362" unicode="U" /><glyph d="M229 710H342V289Q342 98 293.5 45Q245 -8 181 -8Q117 -8 68.5 45.5Q20 99 20 289V710H132V289Q132 145 147.5 125.5Q163 106 181 106Q200 106 214.5 125.5Q229 145 229 289ZM227 735H116L145 792H296Q296 792 261.5 763.5Q227 735 227 735Z" glyph-name="Uacute" horiz-adv-x="362" unicode="&#218;" /><glyph d="M229 710H342V289Q342 98 293.5 45Q245 -8 181 -8Q117 -8 68.5 45.5Q20 99 20 289V710H132V289Q132 145 147.5 125.5Q163 106 181 106Q200 106 214.5 125.5Q229 145 229 289ZM221 816Q221 806 216 798.5Q211 791 200 791H162Q150 791 144.5 798Q139 805 139 816H75Q75 776 100 755.5Q125 735 170 735H194Q240 735 263 755.5Q286 776 286 816Z" glyph-name="Ubreve" horiz-adv-x="362" unicode="&#364;" /><glyph d="M229 710H342V289Q342 98 293.5 45Q245 -8 181 -8Q117 -8 68.5 45.5Q20 99 20 289V710H132V289Q132 145 147.5 125.5Q163 106 181 106Q200 106 214.5 125.5Q229 145 229 289ZM67 736 146 804H213L291 735H210L179 766L147 736Q147 736 107 736Q67 736 67 736Z" glyph-name="Ucircumflex" horiz-adv-x="362" unicode="&#219;" /><glyph d="M229 710H342V289Q342 98 293.5 45Q245 -8 181 -8Q117 -8 68.5 45.5Q20 99 20 289V710H132V289Q132 145 147.5 125.5Q163 106 181 106Q200 106 214.5 125.5Q229 145 229 289ZM52 795H159V736H52V795ZM197 795H304V736H197V795Z" glyph-name="Udieresis" horiz-adv-x="362" unicode="&#220;" /><glyph d="M229 710H342V289Q342 98 293.5 45Q245 -8 181 -8Q117 -8 68.5 45.5Q20 99 20 289V710H132V289Q132 145 147.5 125.5Q163 106 181 106Q200 106 214.5 125.5Q229 145 229 289ZM144.9516 735H255.9923L226.9817 792H75.9263Q75.9263 792 110.4389 763.5Q144.9516 735 144.9516 735Z" glyph-name="Ugrave" horiz-adv-x="362" unicode="&#217;" /><glyph d="M229 710H342V289Q342 98 293.5 45Q245 -8 181 -8Q117 -8 68.5 45.5Q20 99 20 289V710H132V289Q132 145 147.5 125.5Q163 106 181 106Q200 106 214.5 125.5Q229 145 229 289ZM78 799H178L153 735H61Q61 735 69.5 767Q78 799 78 799ZM281 735H190L212 799H311Q311 799 296 767Q281 735 281 735Z" glyph-name="Uhungarumlaut" horiz-adv-x="362" unicode="&#368;" /><glyph d="M229 710H342V289Q342 98 293.5 45Q245 -8 181 -8Q117 -8 68.5 45.5Q20 99 20 289V710H132V289Q132 145 147.5 125.5Q163 106 181 106Q200 106 214.5 125.5Q229 145 229 289ZM62 798V735H304V798Z" glyph-name="Umacron" horiz-adv-x="362" unicode="&#362;" /><glyph d="M293 -138H194Q151 -138 131.5 -110.5Q112 -83 120 -47Q129 -6 136.5 29.5Q144 65 144 65L225 -4L216 -43H271ZM229 710H342V289Q342 98 293.5 45Q245 -8 181 -8Q117 -8 68.5 45.5Q20 99 20 289V710H132V289Q132 145 147.5 125.5Q163 106 181 106Q200 106 214.5 125.5Q229 145 229 289Z" glyph-name="Uogonek" horiz-adv-x="362" unicode="&#370;" /><glyph d="M229 710H342V289Q342 98 293.5 45Q245 -8 181 -8Q117 -8 68.5 45.5Q20 99 20 289V710H132V289Q132 145 147.5 125.5Q163 106 181 106Q200 106 214.5 125.5Q229 145 229 289ZM168 726Q131 726 110.5 742.5Q90 759 90 797Q90 835 110 853Q130 871 169 871H206Q242 871 261.5 854Q281 837 281 797Q281 759 261.5 742.5Q242 726 206 726ZM168 816Q158 816 153.5 811Q149 806 149 797Q149 789 153 784.5Q157 780 167 780H205Q213 780 217.5 784Q222 788 222 797Q222 806 218 811Q214 816 205 816Z" glyph-name="Uring" horiz-adv-x="362" unicode="&#366;" /><glyph d="M227 0H141Q81 140 54.5 288.5Q28 437 15 710H132Q134 556 147.5 429Q161 302 184 204Q208 302 219.5 429Q231 556 235 710H352Q340 434 312.5 287Q285 140 227 0Z" glyph-name="V" horiz-adv-x="367" unicode="V" /><glyph d="M196 0H119Q74 128 47 311.5Q20 495 20 710H136Q136 587 143 464.5Q150 342 173 231Q195 342 201.5 434Q208 526 216 710H300Q308 530 315.5 438Q323 346 348 231Q369 342 374.5 464.5Q380 587 380 710H495Q495 495 467 311.5Q439 128 399 0H318Q294 65 281.5 109.5Q269 154 258 207Q248 154 234.5 109.5Q221 65 196 0Z" glyph-name="W" horiz-adv-x="515" unicode="W" /><glyph d="M196 0H119Q74 128 47 311.5Q20 495 20 710H136Q136 587 143 464.5Q150 342 173 231Q195 342 201.5 434Q208 526 216 710H300Q308 530 315.5 438Q323 346 348 231Q369 342 374.5 464.5Q380 587 380 710H495Q495 495 467 311.5Q439 128 399 0H318Q294 65 281.5 109.5Q269 154 258 207Q248 154 234.5 109.5Q221 65 196 0ZM305 735H194L223 792H374Q374 792 339.5 763.5Q305 735 305 735Z" glyph-name="Wacute" horiz-adv-x="515" unicode="&#7810;" /><glyph d="M201 0H124Q79 128 52 311.5Q25 495 25 710H141Q141 587 148 464.5Q155 342 178 231Q200 342 206.5 434Q213 526 221 710H305Q313 530 320.5 438Q328 346 353 231Q374 342 379.5 464.5Q385 587 385 710H500Q500 495 472 311.5Q444 128 404 0H323Q299 65 286.5 109.5Q274 154 263 207Q253 154 239.5 109.5Q226 65 201 0ZM136 736 215 804H282L360 735H279L248 766L216 736Q216 736 176 736Q136 736 136 736Z" glyph-name="Wcircumflex" horiz-adv-x="515" unicode="&#372;" /><glyph d="M196 0H119Q74 128 47 311.5Q20 495 20 710H136Q136 587 143 464.5Q150 342 173 231Q195 342 201.5 434Q208 526 216 710H300Q308 530 315.5 438Q323 346 348 231Q369 342 374.5 464.5Q380 587 380 710H495Q495 495 467 311.5Q439 128 399 0H318Q294 65 281.5 109.5Q269 154 258 207Q248 154 234.5 109.5Q221 65 196 0ZM129 794H236V735H129V794ZM274 794H381V735H274V794Z" glyph-name="Wdieresis" horiz-adv-x="515" unicode="&#7812;" /><glyph d="M196 0H119Q74 128 47 311.5Q20 495 20 710H136Q136 587 143 464.5Q150 342 173 231Q195 342 201.5 434Q208 526 216 710H300Q308 530 315.5 438Q323 346 348 231Q369 342 374.5 464.5Q380 587 380 710H495Q495 495 467 311.5Q439 128 399 0H318Q294 65 281.5 109.5Q269 154 258 207Q248 154 234.5 109.5Q221 65 196 0ZM207.9516 735H318.9923L289.9817 792H138.9263Q138.9263 792 173.4389 763.5Q207.9516 735 207.9516 735Z" glyph-name="Wgrave" horiz-adv-x="515" unicode="&#7808;" /><glyph d="M385 710Q363 581 331 498.5Q299 416 266 354Q301 294 333.5 212Q366 130 397 0H267Q253 66 239.5 113Q226 160 202 229Q178 160 165 113.5Q152 67 137 0H10Q43 133 73.5 214.5Q104 296 138 353Q104 416 73.5 498.5Q43 581 19 710H148Q154 645 164 594.5Q174 544 203 476Q230 544 241.5 595Q253 646 259 710H385Z" glyph-name="X" horiz-adv-x="407" unicode="X" /><glyph d="M360 710Q346 584 312.5 472Q279 360 242 278V0H128V278Q90 360 57 470.5Q24 581 7 710H126Q135 626 150.5 547.5Q166 469 185 424Q206 469 220 547.5Q234 626 242 710H360Z" glyph-name="Y" horiz-adv-x="367" unicode="Y" /><glyph d="M360 710Q346 584 312.5 472Q279 360 242 278V0H128V278Q90 360 57 470.5Q24 581 7 710H126Q135 626 150.5 547.5Q166 469 185 424Q206 469 220 547.5Q234 626 242 710H360ZM234 735H123L152 792H303Q303 792 268.5 763.5Q234 735 234 735Z" glyph-name="Yacute" horiz-adv-x="367" unicode="&#221;" /><glyph d="M360 710Q346 584 312.5 472Q279 360 242 278V0H128V278Q90 360 57 470.5Q24 581 7 710H126Q135 626 150.5 547.5Q166 469 185 424Q206 469 220 547.5Q234 626 242 710H360ZM73 736 152 804H219L297 735H216L185 766L153 736Q153 736 113 736Q73 736 73 736Z" glyph-name="Ycircumflex" horiz-adv-x="367" unicode="&#374;" /><glyph d="M360 710Q346 584 312.5 472Q279 360 242 278V0H128V278Q90 360 57 470.5Q24 581 7 710H126Q135 626 150.5 547.5Q166 469 185 424Q206 469 220 547.5Q234 626 242 710H360ZM56 794H163V735H56V794ZM201 794H308V735H201V794Z" glyph-name="Ydieresis" horiz-adv-x="367" unicode="&#376;" /><glyph d="M360 710Q346 584 312.5 472Q279 360 242 278V0H128V278Q90 360 57 470.5Q24 581 7 710H126Q135 626 150.5 547.5Q166 469 185 424Q206 469 220 547.5Q234 626 242 710H360ZM144.9516 736H255.9923L226.9817 793H75.9263Q75.9263 793 110.4389 764.5Q144.9516 736 144.9516 736Z" glyph-name="Ygrave" horiz-adv-x="367" unicode="&#7922;" /><glyph d="M140 114H312V0H15Q15 148 60 320.5Q105 493 179 596H15V710H312V609Q225 461 186.5 336.5Q148 212 140 114Z" glyph-name="Z" horiz-adv-x="327" unicode="Z" /><glyph d="M140 114H312V0H15Q15 148 60 320.5Q105 493 179 596H15V710H312V609Q225 461 186.5 336.5Q148 212 140 114ZM204 735H93L122 792H273Q273 792 238.5 763.5Q204 735 204 735Z" glyph-name="Zacute" horiz-adv-x="327" unicode="&#377;" /><glyph d="M140 114H312V0H15Q15 148 60 320.5Q105 493 179 596H15V710H312V609Q225 461 186.5 336.5Q148 212 140 114ZM275 803 196 735H129L51 804H132L163 773L195 803Q195 803 235 803Q275 803 275 803Z" glyph-name="Zcaron" horiz-adv-x="327" unicode="&#381;" /><glyph d="M140 114H312V0H15Q15 148 60 320.5Q105 493 179 596H15V710H312V609Q225 461 186.5 336.5Q148 212 140 114ZM109 793H227V735H109V793Z" glyph-name="Zdotaccent" horiz-adv-x="327" unicode="&#379;" /><glyph d="M125 0H15Q15 182 39.5 362.5Q64 543 132 710H234Q299 543 325.5 363.5Q352 184 352 0H243Q243 149 226 296Q209 443 183 551Q157 443 141 295.5Q125 148 125 0ZM110 261H257V161H113Z" glyph-name="a" horiz-adv-x="367" unicode="a" /><glyph d="M125 0H15Q15 182 39.5 362.5Q64 543 132 710H234Q299 543 325.5 363.5Q352 184 352 0H243Q243 149 226 296Q209 443 183 551Q157 443 141 295.5Q125 148 125 0ZM110 261H257V161H113ZM234 735H123L152 792H303Q303 792 268.5 763.5Q234 735 234 735Z" glyph-name="aacute" horiz-adv-x="367" unicode="&#225;" /><glyph d="M125 0H15Q15 182 39.5 362.5Q64 543 132 710H234Q299 543 325.5 363.5Q352 184 352 0H243Q243 149 226 296Q209 443 183 551Q157 443 141 295.5Q125 148 125 0ZM110 261H257V161H113ZM220 814Q220 804 215 796.5Q210 789 199 789H161Q149 789 143.5 796Q138 803 138 814H74Q74 774 99 753.5Q124 733 169 733H193Q239 733 262 753.5Q285 774 285 814Z" glyph-name="abreve" horiz-adv-x="367" unicode="&#259;" /><glyph d="M125 0H15Q15 182 39.5 362.5Q64 543 132 710H234Q299 543 325.5 363.5Q352 184 352 0H243Q243 149 226 296Q209 443 183 551Q157 443 141 295.5Q125 148 125 0ZM110 261H257V161H113ZM70 735 149 803H216L294 734H213L182 765L150 735Q150 735 110 735Q70 735 70 735Z" glyph-name="acircumflex" horiz-adv-x="367" unicode="&#226;" /><glyph d="M132 659H21L50 716H201Q201 716 166.5 687.5Q132 659 132 659Z" glyph-name="acute" horiz-adv-x="220" unicode="&#769;" /><glyph d="M125 0H15Q15 182 39.5 362.5Q64 543 132 710H234Q299 543 325.5 363.5Q352 184 352 0H243Q243 149 226 296Q209 443 183 551Q157 443 141 295.5Q125 148 125 0ZM110 261H257V161H113ZM55 794H162V735H55V794ZM200 794H307V735H200V794Z" glyph-name="adieresis" horiz-adv-x="367" unicode="&#228;" /><glyph d="M240 710H530V601H353V401H478V293H353V108H530V0H240ZM115 0H5Q21 229 86 416.5Q151 604 240 710V518Q199 452 165 313.5Q131 175 115 0ZM100 272H247V172H103Z" glyph-name="ae" horiz-adv-x="545" unicode="&#230;" /><glyph d="M240 710H530V601H353V401H478V293H353V108H530V0H240ZM115 0H5Q21 229 86 416.5Q151 604 240 710V518Q199 452 165 313.5Q131 175 115 0ZM100 272H247V172H103ZM367 733H256L285 790H436Q436 790 401.5 761.5Q367 733 367 733Z" glyph-name="aeacute" horiz-adv-x="545" unicode="&#509;" /><glyph d="M125 0H15Q15 182 39.5 362.5Q64 543 132 710H234Q299 543 325.5 363.5Q352 184 352 0H243Q243 149 226 296Q209 443 183 551Q157 443 141 295.5Q125 148 125 0ZM110 261H257V161H113ZM128.9516 735H239.9923L210.9817 792H59.9263Q59.9263 792 94.4389 763.5Q128.9516 735 128.9516 735Z" glyph-name="agrave" horiz-adv-x="367" unicode="&#224;" /><glyph d="M125 0H15Q15 182 39.5 362.5Q64 543 132 710H234Q299 543 325.5 363.5Q352 184 352 0H243Q243 149 226 296Q209 443 183 551Q157 443 141 295.5Q125 148 125 0ZM110 261H257V161H113ZM58 798V735H300V798Z" glyph-name="amacron" horiz-adv-x="367" unicode="&#257;" /><glyph d="M385 425V327H329Q344 296 348.5 267.5Q353 239 353 203Q353 89 302 40.5Q251 -8 189 -8Q122 -8 75 46Q28 100 28 202Q28 263 45.5 308Q63 353 92 374Q63 392 45.5 427.5Q28 463 28 525Q28 605 73.5 660Q119 715 206 715V605Q174 605 158 582Q142 559 142 514Q142 474 169 449.5Q196 425 235 425L250 519H351L327 425ZM196 103Q215 103 233 123.5Q251 144 251 203Q251 241 248.5 268.5Q246 296 237 327Q175 327 158.5 289Q142 251 142 211Q142 145 159 124Q176 103 196 103Z" glyph-name="ampersand" horiz-adv-x="394" unicode="&amp;" /><glyph d="M352 -133H305Q238 -133 217.5 -103Q197 -73 202 -38Q207 3 230 40.5Q253 78 253 78L317 2Q308 -6 302.5 -15.5Q297 -25 295 -37H352ZM125 0H15Q15 182 39.5 362.5Q64 543 132 710H234Q299 543 325.5 363.5Q352 184 352 0H243Q243 149 226 296Q209 443 183 551Q157 443 141 295.5Q125 148 125 0ZM110 261H257V161H113Z" glyph-name="aogonek" horiz-adv-x="367" unicode="&#261;" /><glyph d="M125 0H15Q15 182 39.5 362.5Q64 543 132 710H234Q299 543 325.5 363.5Q352 184 352 0H243Q243 149 226 296Q209 443 183 551Q157 443 141 295.5Q125 148 125 0ZM110 261H257V161H113ZM166 656Q129 656 108.5 672.5Q88 689 88 727Q88 765 108 783Q128 801 167 801H204Q240 801 259.5 784Q279 767 279 727Q279 689 259.5 672.5Q240 656 204 656ZM166 746Q156 746 151.5 741Q147 736 147 727Q147 719 151 714.5Q155 710 165 710H203Q211 710 215.5 714Q220 718 220 727Q220 736 216 741Q212 746 203 746Z" glyph-name="aring" horiz-adv-x="367" unicode="&#229;" /><glyph d="M125 0H15Q15 182 39.5 362.5Q64 543 132 710H234Q299 543 325.5 363.5Q352 184 352 0H243Q243 149 226 296Q209 443 183 551Q157 443 141 295.5Q125 148 125 0ZM110 261H257V161H113ZM166 656Q129 656 108.5 672.5Q88 689 88 727Q88 765 108 783Q128 801 167 801H204Q240 801 259.5 784Q279 767 279 727Q279 689 259.5 672.5Q240 656 204 656ZM166 746Q156 746 151.5 741Q147 736 147 727Q147 719 151 714.5Q155 710 165 710H203Q211 710 215.5 714Q220 718 220 727Q220 736 216 741Q212 746 203 746ZM239 816H128L157 873H308Q308 873 273.5 844.5Q239 816 239 816Z" glyph-name="aringacute" horiz-adv-x="367" unicode="&#507;" /><glyph d="M464 279H373L283 169V664H213V169L116 279H25L248 36Z" glyph-name="arrowdown" horiz-adv-x="489" unicode="&#8595;" /><glyph d="M243 146V236L142 327H468V397H142L243 490V585L10 362Z" glyph-name="arrowleft" horiz-adv-x="498" unicode="&#8592;" /><glyph d="M255 584V494L356 403H30V333H356L255 240V145L488 368Z" glyph-name="arrowright" horiz-adv-x="498" unicode="&#8594;" /><glyph d="M25 425H116L206 535V40H276V535L373 425H464L241 668Z" glyph-name="arrowup" horiz-adv-x="489" unicode="&#8593;" /><glyph d="M5 506 94 710H139L230 505H167L116 628L66 506Q66 506 35.5 506Q5 506 5 506Z" glyph-name="asciicircum" horiz-adv-x="235" unicode="^" /><glyph d="M35 430H105Q105 409 114 393Q123 377 149 377Q182 377 227 404.5Q272 432 312 432Q357 432 387.5 399.5Q418 367 418 315H344Q344 337 332.5 349.5Q321 362 305 362Q272 362 240.5 338.5Q209 315 148 315Q100 315 67.5 345.5Q35 376 35 430Z" glyph-name="asciitilde" horiz-adv-x="451" unicode="~" /><glyph d="M155 590 189 545 138 505 104 550 73 505 21 543 52 588 0 604 19 665 74 649V707H136V651L187 667L209 606L155 590Z" glyph-name="asterisk" horiz-adv-x="209" unicode="*" /><glyph d="M254 352Q254 428 259 436.5Q264 445 274 445Q284 445 289 436.5Q294 428 294 353Q294 273 289.5 265Q285 257 274 257Q265 257 259.5 265Q254 273 254 352ZM177 351Q177 250 208 216.5Q239 183 276 183Q314 183 344.5 215.5Q375 248 375 368Q375 577 323.5 645.5Q272 714 199 714Q124 714 71.5 648Q19 582 19 349Q19 107 69.5 45.5Q120 -16 199 -16Q261 -16 306 30Q351 76 359 148H242Q234 124 223.5 109.5Q213 95 196 95Q167 95 149 127Q131 159 131 349Q131 532 148 567.5Q165 603 196 603Q225 603 236 582.5Q247 562 251 521Q231 518 204 489.5Q177 461 177 351Z" glyph-name="at" horiz-adv-x="394" unicode="@" /><glyph d="M125 0H15Q15 182 39.5 362.5Q64 543 132 710H234Q299 543 325.5 363.5Q352 184 352 0H243Q243 149 226 296Q209 443 183 551Q157 443 141 295.5Q125 148 125 0ZM110 261H257V161H113ZM233 817Q268 817 291 796.5Q314 776 314 735H253Q253 746 246 754.5Q239 763 223 763Q208 763 182 748Q156 733 124 733Q90 733 67 756.5Q44 780 44 814H102Q102 802 109.5 794Q117 786 132 786Q147 786 175 801.5Q203 817 233 817Z" glyph-name="atilde" horiz-adv-x="367" unicode="&#227;" /><glyph d="M247 390Q281 372 309 330.5Q337 289 337 219Q337 119 282.5 59Q228 -1 97 0H25V710H80Q211 710 264.5 660.5Q318 611 318 532Q318 472 297 438.5Q276 405 247 390ZM130 110Q168 110 194 136Q220 162 220 219Q220 276 196 304Q172 332 130 332ZM206 522Q206 573 186 587Q166 601 130 601V437Q165 437 185.5 454.5Q206 472 206 522Z" glyph-name="b" horiz-adv-x="352" unicode="b" /><glyph d="M147 0 5 710H70L216 0Z" glyph-name="backslash" horiz-adv-x="221" unicode="\" /><glyph d="M35 710H95V0H35Z" glyph-name="bar" horiz-adv-x="130" unicode="|" /><glyph d="M72 540Q72 673 120.1493 721.5Q168.2985 770 247 770V646Q221.6269 646 204.3134 622Q187 598 187 533Q187 419 175 393Q163 367 126 349Q163 327 175 288Q187 249 187 175Q187 109 204.1493 84.5Q221.2985 60 247 60V-61Q185.806 -61 128.903 -10.5Q72 40 72 178Q72 248 55.5 278.5Q39 309 15 309V387Q38 387 55 418.5Q72 450 72 540Z" glyph-name="braceleft" horiz-adv-x="267" unicode="{" /><glyph d="M195 170Q195 37 146.8507 -11.5Q98.7015 -60 20 -60V64Q45.3731 64 62.6866 88Q80 112 80 177Q80 291 92 317Q104 343 141 361Q104 383 92 422Q80 461 80 535Q80 601 62.8507 625.5Q45.7015 650 20 650V771Q81.194 771 138.097 720.5Q195 670 195 532Q195 462 211.5 431.5Q228 401 252 401V323Q229 323 212 291.5Q195 260 195 170Z" glyph-name="braceright" horiz-adv-x="267" unicode="}" /><glyph d="M238 768V655H141V58H238V-54H28V768H238Z" glyph-name="bracketleft" horiz-adv-x="256" unicode="[" /><glyph d="M19 768H228V-54H19V58H116V655H19V768Z" glyph-name="bracketright" horiz-adv-x="256" unicode="]" /><glyph d="M154 654Q154 644 149 636.5Q144 629 133 629H95Q83 629 77.5 636Q72 643 72 654H8Q8 614 33 593.5Q58 573 103 573H127Q173 573 196 593.5Q219 614 219 654Z" glyph-name="breve" horiz-adv-x="227" unicode="&#774;" /><glyph d="M35 329H95V0H35ZM35 710H95V376H35Z" glyph-name="brokenbar" horiz-adv-x="130" unicode="&#166;" /><glyph d="M140 425Q173 425 201 398.5Q229 372 229 336Q229 298 200 272Q171 246 140 246Q107 246 78.5 272Q50 298 50 336Q50 371 78 398Q106 425 140 425Z" glyph-name="bullet" horiz-adv-x="279" unicode="&#8226;" /><glyph d="M196 713Q224 713 247 708Q270 703 284 696V580Q271 585 256.5 589.5Q242 594 224 594Q184 594 159 555.5Q134 517 134 353Q134 162 162 138Q190 114 216 114Q242 114 255.5 119Q269 124 284 129V12Q270 3 245.5 -2.5Q221 -8 196 -8Q130 -8 72.5 53Q15 114 15 353Q15 578 68 645.5Q121 713 196 713Z" glyph-name="c" horiz-adv-x="304" unicode="c" /><glyph d="M196 713Q224 713 247 708Q270 703 284 696V580Q271 585 256.5 589.5Q242 594 224 594Q184 594 159 555.5Q134 517 134 353Q134 162 162 138Q190 114 216 114Q242 114 255.5 119Q269 124 284 129V12Q270 3 245.5 -2.5Q221 -8 196 -8Q130 -8 72.5 53Q15 114 15 353Q15 578 68 645.5Q121 713 196 713ZM232 735H121L150 792H301Q301 792 266.5 763.5Q232 735 232 735Z" glyph-name="cacute" horiz-adv-x="321" unicode="&#263;" /><glyph d="M269 1013 190 945H123L45 1014H126L157 983L189 1013Q189 1013 229 1013Q269 1013 269 1013Z" glyph-name="caron" horiz-adv-x="263" unicode="&#780;" /><glyph d="M196 713Q224 713 247 708Q270 703 284 696V580Q271 585 256.5 589.5Q242 594 224 594Q184 594 159 555.5Q134 517 134 353Q134 162 162 138Q190 114 216 114Q242 114 255.5 119Q269 124 284 129V12Q270 3 245.5 -2.5Q221 -8 196 -8Q130 -8 72.5 53Q15 114 15 353Q15 578 68 645.5Q121 713 196 713ZM288 802 209 734H142L64 803H145L176 772L208 802Q208 802 248 802Q288 802 288 802Z" glyph-name="ccaron" horiz-adv-x="308" unicode="&#269;" /><glyph d="M196 713Q224 713 247 708Q270 703 284 696V580Q271 585 256.5 589.5Q242 594 224 594Q184 594 159 555.5Q134 517 134 353Q134 162 162 138Q190 114 216 114Q242 114 255.5 119Q269 124 284 129V12Q270 3 245.5 -2.5Q221 -8 196 -8Q130 -8 72.5 53Q15 114 15 353Q15 578 68 645.5Q121 713 196 713ZM243 -68H126L153 2H253Z" glyph-name="ccedilla" horiz-adv-x="304" unicode="&#231;" /><glyph d="M196 713Q224 713 247 708Q270 703 284 696V580Q271 585 256.5 589.5Q242 594 224 594Q184 594 159 555.5Q134 517 134 353Q134 162 162 138Q190 114 216 114Q242 114 255.5 119Q269 124 284 129V12Q270 3 245.5 -2.5Q221 -8 196 -8Q130 -8 72.5 53Q15 114 15 353Q15 578 68 645.5Q121 713 196 713ZM122 793H240V735H122V793Z" glyph-name="cdotaccent" horiz-adv-x="304" unicode="&#267;" /><glyph d="M136 -43H19L46 27H146Z" glyph-name="cedilla" horiz-adv-x="188" unicode="&#807;" /><glyph d="M186 583Q214 583 237 578Q260 573 274 566V454Q261 459 246.5 463.5Q232 468 214 468Q174 468 154 427.5Q134 387 134 303Q134 212 157 187Q180 162 206 162Q232 162 245.5 167Q259 172 274 177V62Q260 53 235.5 47.5Q211 42 186 42Q120 42 70 103Q20 164 20 303Q20 448 65.5 515.5Q111 583 186 583ZM126.9301 623H229.2517V565H126.9301V623ZM127.9301 60H230.2517V2H127.9301V60Z" glyph-name="cent" horiz-adv-x="294" unicode="&#162;" /><glyph d="M-9 607 70 675H137L215 606H134L103 637L71 607Q71 607 31 607Q-9 607 -9 607Z" glyph-name="circumflex" horiz-adv-x="205" unicode="&#770;" /><glyph d="M83 534Q99 534 113 521.5Q127 509 127 491Q127 473 113 460Q99 447 83 447Q68 447 54 460.5Q40 474 40 491Q40 508 53.5 521Q67 534 83 534ZM84 242Q100 242 114 229.5Q128 217 128 199Q128 181 114 168Q100 155 84 155Q69 155 55 168.5Q41 182 41 199Q41 216 54.5 229Q68 242 84 242Z" glyph-name="colon" horiz-adv-x="168" unicode=":" /><glyph d="M20 114H80V-66H20V114Z" glyph-name="comma" horiz-adv-x="100" unicode="," /><glyph d="M20 -30H80V-144H20V-30Z" glyph-name="commaaccent" horiz-adv-x="100" /><glyph d="M311 77Q426 77 511 156Q596 235 596 364Q596 492 512 570.5Q428 649 313 649Q201 649 115.5 570.5Q30 492 30 364Q30 234 114 155.5Q198 77 311 77ZM313 134Q219 134 155.5 197Q92 260 92 364Q92 464 155.5 527Q219 590 313 590Q408 590 472.5 529.5Q537 469 537 364Q537 263 472.5 198.5Q408 134 313 134ZM317 223Q357 223 388.5 242.5Q420 262 435 299L378 321Q371 302 354 290.5Q337 279 317 279Q287 279 272 300.5Q257 322 257 360Q257 408 276.5 427.5Q296 447 317 447Q339 447 355 433.5Q371 420 377 399L433 419Q422 456 389.5 480Q357 504 317 504Q263 504 228 464Q193 424 193 363Q193 299 228 261Q263 223 317 223Z" glyph-name="copyright" horiz-adv-x="626" unicode="&#169;" /><glyph d="M191 644Q266 644 316 585Q366 526 366 368Q366 192 317 133.5Q268 75 191 75Q116 75 65.5 133.5Q15 192 15 368Q15 527 65 585.5Q115 644 191 644ZM191 187Q209 187 225.5 212Q242 237 242 368Q242 481 227 505.5Q212 530 191 530Q168 530 153 505.5Q138 481 138 368Q138 237 153.5 212Q169 187 191 187ZM22 660 77 690 164 531 109 501ZM220 171 275 201 362 42 307 12ZM362 660 275 501 220 531 307 690ZM164 171 77 12 22 42 109 201Z" glyph-name="currency" horiz-adv-x="381" unicode="&#164;" /><glyph d="M125 710Q232 710 288.5 630Q345 550 345 360Q345 170 288.5 85Q232 0 126 0H25V710ZM142 113Q194 113 209 175Q224 237 224 360Q224 480 209 538.5Q194 597 142 597Z" glyph-name="d" horiz-adv-x="360" unicode="d" /><glyph d="M20 637H210V582H20ZM87 390V710H143V390Z" glyph-name="dagger" horiz-adv-x="230" unicode="&#8224;" /><glyph d="M125 710Q232 710 288.5 630Q345 550 345 360Q345 170 288.5 85Q232 0 126 0H25V710ZM142 113Q194 113 209 175Q224 237 224 360Q224 480 209 538.5Q194 597 142 597ZM268 803 189 735H122L44 804H125L156 773L188 803Q188 803 228 803Q268 803 268 803Z" glyph-name="dcaron" horiz-adv-x="360" unicode="&#271;" /><glyph d="M200 405V292H0V405ZM125 710Q232 710 288.5 630Q345 550 345 360Q345 170 288.5 85Q232 0 126 0H25V710ZM142 113Q194 113 209 175Q224 237 224 360Q224 480 209 538.5Q194 597 142 597Z" glyph-name="dcroat" horiz-adv-x="360" unicode="&#273;" /><glyph d="M127 480Q73 480 39.5 515Q6 550 6 599Q6 648 39 683Q72 718 127 718Q181 718 214.5 683Q248 648 248 599Q248 550 214.5 515Q181 480 127 480ZM127 642Q109 642 97 630Q85 618 85 599Q85 581 97 568.5Q109 556 127 556Q144 556 156 568.5Q168 581 168 599Q168 618 156 630Q144 642 127 642Z" glyph-name="degree" horiz-adv-x="254" unicode="&#176;" /><glyph d="M2 637H109V578H2V637ZM147 637H254V578H147V637Z" glyph-name="dieresis" horiz-adv-x="278" unicode="&#776;" /><glyph d="M25 374H284V317H25ZM151 496Q167 496 181 483.5Q195 471 195 453Q195 435 181 422Q167 409 151 409Q136 409 122 422.5Q108 436 108 453Q108 470 121.5 483Q135 496 151 496ZM155 275Q171 275 185 262.5Q199 250 199 232Q199 214 185 201Q171 188 155 188Q140 188 126 201.5Q112 215 112 232Q112 249 125.5 262Q139 275 155 275Z" glyph-name="divide" horiz-adv-x="309" unicode="&#247;" /><glyph d="M211 720Q244 720 271 712.5Q298 705 307 702V577Q290 586 265.5 594.5Q241 603 210 603Q186 603 171 587.5Q156 572 156 548Q156 522 181.5 481.5Q207 441 240 391Q289 319 309.5 270.5Q330 222 330 163Q330 89 285.5 40.5Q241 -8 153 -8Q116 -8 90.5 -0.5Q65 7 46 17V135Q63 126 87.5 116Q112 106 141 106Q174 106 190 119.5Q206 133 206 165Q206 198 193 224.5Q180 251 138 319Q92 393 62.5 441.5Q33 490 33 546Q33 628 80.5 674Q128 720 211 720ZM130 765H248V707H130V765ZM97 2H215V-56H97V2Z" glyph-name="dollar" horiz-adv-x="347" unicode="$" /><glyph d="M-7 645H111V587H-7V645Z" glyph-name="dotaccent" horiz-adv-x="102" unicode="&#775;" /><glyph d="M25 710H139V0H25V710Z" glyph-name="dotlessi" horiz-adv-x="164" unicode="&#305;" /><glyph d="M25 0V710H294V597H138V447H240V334H138V113H294V0H25Z" glyph-name="e" horiz-adv-x="309" unicode="e" /><glyph d="M25 0V710H294V597H138V447H240V334H138V113H294V0H25ZM204 735H93L122 792H273Q273 792 238.5 763.5Q204 735 204 735Z" glyph-name="eacute" horiz-adv-x="309" unicode="&#233;" /><glyph d="M196 815Q196 805 191 797.5Q186 790 175 790H137Q125 790 119.5 797Q114 804 114 815H50Q50 775 75 754.5Q100 734 145 734H169Q215 734 238 754.5Q261 775 261 815ZM25 0V710H294V597H138V447H240V334H138V113H294V0H25Z" glyph-name="ebreve" horiz-adv-x="309" unicode="&#277;" /><glyph d="M25 0V710H294V597H138V447H240V334H138V113H294V0H25ZM269 803 190 735H123L45 804H126L157 773L189 803Q189 803 229 803Q269 803 269 803Z" glyph-name="ecaron" horiz-adv-x="309" unicode="&#283;" /><glyph d="M25 0V710H294V597H138V447H240V334H138V113H294V0H25ZM40 736 119 804H186L264 735H183L152 766L120 736Q120 736 80 736Q40 736 40 736Z" glyph-name="ecircumflex" horiz-adv-x="309" unicode="&#234;" /><glyph d="M25 0V710H294V597H138V447H240V334H138V113H294V0H25ZM32 794H139V735H32V794ZM177 794H284V735H177V794Z" glyph-name="edieresis" horiz-adv-x="309" unicode="&#235;" /><glyph d="M25 0V710H294V597H138V447H240V334H138V113H294V0H25ZM93 793H211V735H93V793Z" glyph-name="edotaccent" horiz-adv-x="309" unicode="&#279;" /><glyph d="M25 0V710H294V597H138V447H240V334H138V113H294V0H25ZM116.9516 735H227.9923L198.9817 792H47.9263Q47.9263 792 82.4389 763.5Q116.9516 735 116.9516 735Z" glyph-name="egrave" horiz-adv-x="309" unicode="&#232;" /><glyph d="M181 718Q253 718 297 667Q341 616 341 525Q341 478 324.5 438.5Q308 399 289 377Q312 353 326.5 314Q341 275 341 207Q341 99 293 46Q245 -7 181 -7Q116 -7 68 47Q20 101 20 207Q20 271 37 314.5Q54 358 77 377Q55 399 37.5 438.5Q20 478 20 525Q20 611 66 664.5Q112 718 181 718ZM181 612Q161 612 147 590Q133 568 133 521Q133 478 147 454.5Q161 431 181 431Q201 431 214.5 454.5Q228 478 228 521Q228 571 215 591.5Q202 612 181 612ZM133 208Q133 142 147 121.5Q161 101 181 101Q201 101 214.5 121.5Q228 142 228 208Q228 290 214.5 308.5Q201 327 181 327Q161 327 147 306.5Q133 286 133 208Z" glyph-name="eight" horiz-adv-x="361" unicode="8" /><glyph d="M176 79Q192 79 206 66.5Q220 54 220 36Q220 18 206 5Q192 -8 176 -8Q161 -8 147 5.5Q133 19 133 36Q133 53 146.5 66Q160 79 176 79ZM53 79Q69 79 83 66.5Q97 54 97 36Q97 18 83 5Q69 -8 53 -8Q38 -8 24 5.5Q10 19 10 36Q10 53 23.5 66Q37 79 53 79ZM296 79Q312 79 326 66.5Q340 54 340 36Q340 18 326 5Q312 -8 296 -8Q281 -8 267 5.5Q253 19 253 36Q253 53 266.5 66Q280 79 296 79Z" glyph-name="ellipsis" horiz-adv-x="350" unicode="&#8230;" /><glyph d="M28 0V710H297V597H141V447H243V334H141V113H297V0H28ZM38 798V735H280V798Z" glyph-name="emacron" horiz-adv-x="312" unicode="&#275;" /><glyph d="M30 374H455V313H30Z" glyph-name="emdash" horiz-adv-x="485" unicode="&#8212;" /><glyph d="M25 374H284V317H25Z" glyph-name="endash" horiz-adv-x="309" unicode="&#8211;" /><glyph d="M25 0V710H294V597H138V447H240V334H138V113H294V0H25ZM239 -108H163Q119 -108 100 -84.5Q81 -61 89 -25Q97 16 104.5 44Q112 72 112 72L186 3L176 -36H239Z" glyph-name="eogonek" horiz-adv-x="309" unicode="&#281;" /><glyph d="M40 427H304V357H40ZM40 302H304V232H40Z" glyph-name="equal" horiz-adv-x="344" unicode="=" /><glyph d="M200 405V292H0V405ZM125 710Q232 710 288.5 630Q345 550 345 360Q345 170 288.5 85Q232 0 126 0H25V710ZM142 113Q194 113 209 175Q224 237 224 360Q224 480 209 538.5Q194 597 142 597Z" glyph-name="eth" horiz-adv-x="360" unicode="&#240;" /><glyph d="M85 130 40 366V710H159V366L114 130ZM100 79Q116 79 130 66.5Q144 54 144 36Q144 18 130 5Q116 -8 100 -8Q85 -8 71 5.5Q57 19 57 36Q57 53 70.5 66Q84 79 100 79Z" glyph-name="exclam" horiz-adv-x="199" unicode="!" /><glyph d="M104 583 149 347V3H30V347L75 583ZM89 634Q73 634 59 646.5Q45 659 45 677Q45 695 59 708Q73 721 89 721Q104 721 118 707.5Q132 694 132 677Q132 660 118.5 647Q105 634 89 634Z" glyph-name="exclamdown" horiz-adv-x="199" unicode="&#161;" /><glyph d="M25 0V710H318V597H139V439H264V327H139V0H25Z" glyph-name="f" horiz-adv-x="328" unicode="f" /><glyph d="M207 481Q273 481 312 432Q351 383 351 244Q351 85 305.5 38.5Q260 -8 187 -8Q120 -8 75.5 37.5Q31 83 25 173H133Q138 129 152 116Q166 103 187 103Q206 103 220 118Q234 133 234 240Q234 327 220.5 348Q207 369 184 369Q164 369 151 356Q138 343 131 308H25L44 710H321V594H142L135 459Q143 470 163 475.5Q183 481 207 481Z" glyph-name="five" horiz-adv-x="366" unicode="5" /><glyph d="M316 710V261H361V151H316V0H204V151H5V223Q26 372 88.5 514Q151 656 202 710ZM118 261H204V544Q170 471 150 397Q130 323 118 261Z" glyph-name="four" horiz-adv-x="371" unicode="4" /><glyph d="M195 716Q262 716 309 663.5Q356 611 364 521H246Q243 558 230 579Q217 600 195 600Q172 600 154.5 571.5Q137 543 137 353Q137 159 155.5 132.5Q174 106 196 106Q221 106 236 134Q251 162 253 277H196V391H366V299Q366 111 318 51Q270 -9 195 -9Q116 -9 65.5 54.5Q15 118 15 353Q15 596 70 656Q125 716 195 716Z" glyph-name="g" horiz-adv-x="381" unicode="g" /><glyph d="M195 716Q262 716 309 663.5Q356 611 364 521H246Q243 558 230 579Q217 600 195 600Q172 600 154.5 571.5Q137 543 137 353Q137 159 155.5 132.5Q174 106 196 106Q221 106 236 134Q251 162 253 277H196V391H366V299Q366 111 318 51Q270 -9 195 -9Q116 -9 65.5 54.5Q15 118 15 353Q15 596 70 656Q125 716 195 716ZM232 817Q232 807 227 799.5Q222 792 211 792H173Q161 792 155.5 799Q150 806 150 817H86Q86 777 111 756.5Q136 736 181 736H205Q251 736 274 756.5Q297 777 297 817Z" glyph-name="gbreve" horiz-adv-x="381" unicode="&#287;" /><glyph d="M195 717Q262 717 309 664.5Q356 612 364 522H246Q243 559 230 580Q217 601 195 601Q172 601 154.5 572.5Q137 544 137 354Q137 160 155.5 133.5Q174 107 196 107Q221 107 236 135Q251 163 253 278H196V392H366V300Q366 112 318 52Q270 -8 195 -8Q116 -8 65.5 55.5Q15 119 15 354Q15 597 70 657Q125 717 195 717ZM134 794H252V736H134V794Z" glyph-name="gdotaccent" horiz-adv-x="381" unicode="&#289;" /><glyph d="M317 403 367 625Q377 670 344 690Q311 710 258 710Q120 710 72.5 662.5Q25 615 25 541V0H149V537Q149 568 168 580Q187 592 241 592L184 322Q231 322 252.5 293.5Q274 265 274 211Q274 158 252 136.5Q230 115 190 115V0Q290 0 341.5 59.5Q393 119 393 211Q393 291 361 344.5Q329 398 317 403Z" glyph-name="germandbls" horiz-adv-x="399" unicode="&#223;" /><glyph d="M196.9516 574H307.9923L278.9817 631H127.9263Q127.9263 631 162.4389 602.5Q196.9516 574 196.9516 574Z" glyph-name="grave" horiz-adv-x="341" unicode="`" /><glyph d="M284 304 31 25V177L184 357L31 530V682L284 410V304Z" glyph-name="greater" horiz-adv-x="297" unicode="&gt;" /><glyph d="M281 194 155 319V418L281 545V438L218 369L281 299ZM146 194 20 319V418L146 545V438L83 369L146 299Z" glyph-name="guillemotleft" horiz-adv-x="321" unicode="&#171;" /><glyph d="M185 546 311 421V322L185 195V302L248 371L185 441ZM40 546 166 421V322L40 195V302L103 371L40 441Z" glyph-name="guillemotright" horiz-adv-x="331" unicode="&#187;" /><glyph d="M146 194 20 319V418L146 545V438L83 369L146 299Z" glyph-name="guilsinglleft" horiz-adv-x="171" unicode="&#8249;" /><glyph d="M25 546 151 421V322L25 195V302L88 371L25 441Z" glyph-name="guilsinglright" horiz-adv-x="171" unicode="&#8250;" /><glyph d="M224 439V710H339V0H224V326H140V0H25V710H140V439H224Z" glyph-name="h" horiz-adv-x="364" unicode="h" /><glyph d="M259 409V531H176V409ZM176 0H61V531H25V618H61V710H176V618H259V710H375V618H410V531H375V0H259V296H176Z" glyph-name="hbar" horiz-adv-x="435" unicode="&#295;" /><glyph d="M6 799H106L81 735H-11Q-11 735 -2.5 767Q6 799 6 799ZM209 735H118L140 799H239Q239 799 224 767Q209 735 209 735Z" glyph-name="hungarumlaut" horiz-adv-x="220" unicode="&#779;" /><glyph d="M20 374H201V311H20Z" glyph-name="hyphen" horiz-adv-x="221" unicode="-" /><glyph d="M25 710H139V0H25V710Z" glyph-name="i" horiz-adv-x="164" unicode="i" /><glyph d="M25 710H139V0H25V710ZM131 735H20L49 792H200Q200 792 165.5 763.5Q131 735 131 735Z" glyph-name="iacute" horiz-adv-x="164" unicode="&#237;" /><glyph d="M25 710H139V0H25V710ZM123 815Q123 805 118 797.5Q113 790 102 790H64Q52 790 46.5 797Q41 804 41 815H-23Q-23 775 2 754.5Q27 734 72 734H96Q142 734 165 754.5Q188 775 188 815Z" glyph-name="ibreve" horiz-adv-x="165" unicode="&#301;" /><glyph d="M25 710H139V0H25V710ZM-30 735 49 803H116L194 734H113L82 765L50 735Q50 735 10 735Q-30 735 -30 735Z" glyph-name="icircumflex" horiz-adv-x="164" unicode="&#238;" /><glyph d="M-10 818H73V736H-10V818ZM99 818H182V736H99V818ZM27 710H141V0H27V710Z" glyph-name="idieresis" horiz-adv-x="166" unicode="&#239;" /><glyph d="M34 710H148V0H34V710ZM40.9516 735H151.9923L122.9817 792H-28.0737Q-28.0737 792 6.4389 763.5Q40.9516 735 40.9516 735Z" glyph-name="igrave" horiz-adv-x="218" unicode="&#236;" /><glyph d="M183 794V736H-15V794ZM27 710H141V0H27V710Z" glyph-name="imacron" horiz-adv-x="168" unicode="&#299;" /><glyph d="M139 -136H79Q36 -136 17.5 -106Q-1 -76 5 -45Q14 -4 21 32Q28 68 28 68L100 2L99 -40H139ZM25 710H139V0H25V710Z" glyph-name="iogonek" horiz-adv-x="164" unicode="&#303;" /><glyph d="M91 710H208V263Q208 102 160.5 47Q113 -8 43 -8Q37 -8 25.5 -6.5Q14 -5 6 -2V113Q16 110 21.5 109.5Q27 109 34 109Q61 109 76 133.5Q91 158 91 263Z" glyph-name="j" horiz-adv-x="233" unicode="j" /><glyph d="M367 710 228 405Q265 349 309 227.5Q353 106 368 0H240Q232 79 207.5 165.5Q183 252 139 331V0H25V710H139V458L240 710H367Z" glyph-name="k" horiz-adv-x="368" unicode="k" /><glyph d="M139 114H293V0H25V710H139Z" glyph-name="l" horiz-adv-x="308" unicode="l" /><glyph d="M139 114H293V0H25V710H139ZM138 735H27L56 792H207Q207 792 172.5 763.5Q138 735 138 735Z" glyph-name="lacute" horiz-adv-x="308" unicode="&#314;" /><glyph d="M139 114H293V0H25V710H139ZM197 803 118 735H51L-27 804H54L85 773L117 803Q117 803 157 803Q197 803 197 803Z" glyph-name="lcaron" horiz-adv-x="308" unicode="&#318;" /><glyph d="M139 114H293V0H25V710H139ZM246 413Q262 413 276 400.5Q290 388 290 370Q290 352 276 339Q262 326 246 326Q231 326 217 339.5Q203 353 203 370Q203 387 216.5 400Q230 413 246 413Z" glyph-name="ldot" horiz-adv-x="323" unicode="&#320;" /><glyph d="M12 404 266 682V529L113 349L266 177V24L12 298V404Z" glyph-name="less" horiz-adv-x="297" unicode="&lt;" /><glyph d="M263 378 6 254 -20 309 237 433ZM152 114H306V0H38V710H152Z" glyph-name="lslash" horiz-adv-x="364" unicode="&#322;" /><glyph d="M223 426 345 710H419V0H306V382L224 206L139 382V0H25V710H99Q99 710 161 568Q223 426 223 426Z" glyph-name="m" horiz-adv-x="444" unicode="m" /><glyph d="M51 610V547H293V610Z" glyph-name="macron" horiz-adv-x="362" unicode="&#175;" /><glyph d="M25 374H284V317H25Z" glyph-name="minus" horiz-adv-x="309" unicode="&#8722;" /><glyph d="M306.6269 199.2565 40.0833 465.8001 78.3402 504.0569 344.8837 237.5134ZM345.7435 465.6269 79.1999 199.0833 40.9431 237.3402 307.4866 503.8837Z" glyph-name="multiply" horiz-adv-x="385.7435" unicode="&#215;" /><glyph d="M228 710H341V0H241Q224 215 200.5 298Q177 381 138 457V0H25V710H97Q148 645 179 591.5Q210 538 228 492Z" glyph-name="n" horiz-adv-x="366" unicode="n" /><glyph d="M228 710H341V0H241Q224 215 200.5 298Q177 381 138 457V0H25V710H97Q148 645 179 591.5Q210 538 228 492ZM222 735H111L140 792H291Q291 792 256.5 763.5Q222 735 222 735Z" glyph-name="nacute" horiz-adv-x="354" unicode="&#324;" /><glyph d="M228 710H341V0H241Q224 215 200.5 298Q177 381 138 457V0H25V710H97Q148 645 179 591.5Q210 538 228 492ZM292 801 213 733H146L68 802H149L180 771L212 801Q212 801 252 801Q292 801 292 801Z" glyph-name="ncaron" horiz-adv-x="366" unicode="&#328;" /><glyph d="M183 -7Q117 -7 69.5 38.5Q22 84 22 165H137Q137 130 150 117Q163 104 183 104Q204 104 217 138Q230 172 230 251Q219 245 204.5 241.5Q190 238 176 238Q115 238 67.5 291.5Q20 345 20 476Q20 604 68.5 661Q117 718 183 718Q249 718 297.5 661.5Q346 605 346 377Q346 120 297.5 56.5Q249 -7 183 -7ZM183 352Q202 352 214.5 362Q227 372 230 389V475Q230 557 217 582Q204 607 183 607Q163 607 148.5 586.5Q134 566 134 476Q134 387 151.5 369.5Q169 352 183 352Z" glyph-name="nine" horiz-adv-x="366" unicode="9" /><glyph d="M228 710H341V0H241Q224 215 200.5 298Q177 381 138 457V0H25V710H97Q148 645 179 591.5Q210 538 228 492ZM232 818Q267 818 290 797.5Q313 777 313 736H252Q252 747 245 755.5Q238 764 222 764Q207 764 181 749Q155 734 123 734Q89 734 66 757.5Q43 781 43 815H101Q101 803 108.5 795Q116 787 131 787Q146 787 174 802.5Q202 818 232 818Z" glyph-name="ntilde" horiz-adv-x="366" unicode="&#241;" /><glyph d="M303 709 292 640H338L328 580H282L270 505H316L306 445H260L249 377H189L200 445H124L113 377H53L64 445H10L20 505H74L86 580H32L42 640H96L107 709H167L156 640H232L243 709ZM222 580H146L134 505H210Z" glyph-name="numbersign" horiz-adv-x="348" unicode="#" /><glyph d="M191 714Q266 714 316 655Q366 596 366 358Q366 110 317 51.5Q268 -7 191 -7Q116 -7 65.5 51.5Q15 110 15 358Q15 597 65 655.5Q115 714 191 714ZM191 105Q209 105 225.5 130Q242 155 242 358Q242 551 227 575.5Q212 600 191 600Q168 600 153 575.5Q138 551 138 358Q138 155 153.5 130Q169 105 191 105Z" glyph-name="o" horiz-adv-x="381" unicode="o" /><glyph d="M191 714Q266 714 316 655Q366 596 366 358Q366 110 317 51.5Q268 -7 191 -7Q116 -7 65.5 51.5Q15 110 15 358Q15 597 65 655.5Q115 714 191 714ZM191 105Q209 105 225.5 130Q242 155 242 358Q242 551 227 575.5Q212 600 191 600Q168 600 153 575.5Q138 551 138 358Q138 155 153.5 130Q169 105 191 105ZM236 735H125L154 792H305Q305 792 270.5 763.5Q236 735 236 735Z" glyph-name="oacute" horiz-adv-x="381" unicode="&#243;" /><glyph d="M191 714Q266 714 316 655Q366 596 366 358Q366 110 317 51.5Q268 -7 191 -7Q116 -7 65.5 51.5Q15 110 15 358Q15 597 65 655.5Q115 714 191 714ZM191 105Q209 105 225.5 130Q242 155 242 358Q242 551 227 575.5Q212 600 191 600Q168 600 153 575.5Q138 551 138 358Q138 155 153.5 130Q169 105 191 105ZM232 815Q232 805 227 797.5Q222 790 211 790H173Q161 790 155.5 797Q150 804 150 815H86Q86 775 111 754.5Q136 734 181 734H205Q251 734 274 754.5Q297 775 297 815Z" glyph-name="obreve" horiz-adv-x="381" unicode="&#335;" /><glyph d="M191 714Q266 714 316 655Q366 596 366 358Q366 110 317 51.5Q268 -7 191 -7Q116 -7 65.5 51.5Q15 110 15 358Q15 597 65 655.5Q115 714 191 714ZM191 105Q209 105 225.5 130Q242 155 242 358Q242 551 227 575.5Q212 600 191 600Q168 600 153 575.5Q138 551 138 358Q138 155 153.5 130Q169 105 191 105ZM80 736 159 804H226L304 735H223L192 766L160 736Q160 736 120 736Q80 736 80 736Z" glyph-name="ocircumflex" horiz-adv-x="381" unicode="&#244;" /><glyph d="M191 714Q266 714 316 655Q366 596 366 358Q366 110 317 51.5Q268 -7 191 -7Q116 -7 65.5 51.5Q15 110 15 358Q15 597 65 655.5Q115 714 191 714ZM191 105Q209 105 225.5 130Q242 155 242 358Q242 551 227 575.5Q212 600 191 600Q168 600 153 575.5Q138 551 138 358Q138 155 153.5 130Q169 105 191 105ZM65 794H172V735H65V794ZM210 794H317V735H210V794Z" glyph-name="odieresis" horiz-adv-x="381" unicode="&#246;" /><glyph d="M257 710H535V602H364V401H482V293H364V108H535V0H257V30Q247 14 224 5.5Q201 -3 182 -3Q107 -3 61 53.5Q15 110 15 353Q15 589 60 651Q105 713 182 713Q202 713 224 705Q246 697 257 680ZM187 105Q206 105 223 119Q240 133 240 149V562Q240 578 223 591.5Q206 605 187 605Q165 605 150 580Q135 555 135 353Q135 149 150 127Q165 105 187 105Z" glyph-name="oe" horiz-adv-x="550" unicode="&#339;" /><glyph d="M320 -109H244Q200 -109 181 -85.5Q162 -62 170 -26Q178 15 185.5 43Q193 71 193 71L267 2L257 -37H320Z" glyph-name="ogonek" horiz-adv-x="436" unicode="&#808;" /><glyph d="M191 714Q266 714 316 655Q366 596 366 358Q366 110 317 51.5Q268 -7 191 -7Q116 -7 65.5 51.5Q15 110 15 358Q15 597 65 655.5Q115 714 191 714ZM191 105Q209 105 225.5 130Q242 155 242 358Q242 551 227 575.5Q212 600 191 600Q168 600 153 575.5Q138 551 138 358Q138 155 153.5 130Q169 105 191 105ZM149.9516 735H260.9923L231.9817 792H80.9263Q80.9263 792 115.4389 763.5Q149.9516 735 149.9516 735Z" glyph-name="ograve" horiz-adv-x="381" unicode="&#242;" /><glyph d="M191 714Q266 714 316 655Q366 596 366 358Q366 110 317 51.5Q268 -7 191 -7Q116 -7 65.5 51.5Q15 110 15 358Q15 597 65 655.5Q115 714 191 714ZM191 105Q209 105 225.5 130Q242 155 242 358Q242 551 227 575.5Q212 600 191 600Q168 600 153 575.5Q138 551 138 358Q138 155 153.5 130Q169 105 191 105ZM93 799H193L168 735H76Q76 735 84.5 767Q93 799 93 799ZM296 735H205L227 799H326Q326 799 311 767Q296 735 296 735Z" glyph-name="ohungarumlaut" horiz-adv-x="381" unicode="&#337;" /><glyph d="M191 714Q266 714 316 655Q366 596 366 358Q366 110 317 51.5Q268 -7 191 -7Q116 -7 65.5 51.5Q15 110 15 358Q15 597 65 655.5Q115 714 191 714ZM191 105Q209 105 225.5 130Q242 155 242 358Q242 551 227 575.5Q212 600 191 600Q168 600 153 575.5Q138 551 138 358Q138 155 153.5 130Q169 105 191 105ZM68 798V735H310V798Z" glyph-name="omacron" horiz-adv-x="381" unicode="&#333;" /><glyph d="M6 684 69 710H173V0H61V591H6V684Z" glyph-name="one" horiz-adv-x="198" unicode="1" /><glyph d="M15 673 66 710H129V250H50V623H15V693Z" glyph-name="onesuperior" horiz-adv-x="159" /><glyph d="M32 393Q38 482 62.5 578Q87 674 111 710H142Q164 674 190 578.5Q216 483 223 393H165Q161 462 152 515.5Q143 569 126 624Q109 569 100 515.5Q91 462 87 393ZM86 498H167V448H86ZM30 338H226V287H30Z" glyph-name="ordfeminine" horiz-adv-x="256" unicode="&#170;" /><glyph d="M25 338H236V287H25ZM128 707Q171 707 200.5 668Q230 629 230 548Q230 464 199.5 426.5Q169 389 128 389Q86 389 56.5 426.5Q27 464 27 548Q27 629 56.5 668Q86 707 128 707ZM83 548Q83 486 96 466Q109 446 128 446Q147 446 159 466Q171 486 171 548Q171 608 158 628.5Q145 649 127 649Q108 649 95.5 629Q83 609 83 548Z" glyph-name="ordmasculine" horiz-adv-x="261" unicode="&#186;" /><glyph d="M295 730 349 710 57 -21 2 0ZM180 714Q255 714 305 655Q355 596 355 358Q355 110 306 51.5Q257 -7 180 -7Q105 -7 54.5 51.5Q4 110 4 358Q4 597 54 655.5Q104 714 180 714ZM180 105Q198 105 214.5 130Q231 155 231 358Q231 551 216 575.5Q201 600 180 600Q157 600 142 575.5Q127 551 127 358Q127 155 142.5 130Q158 105 180 105Z" glyph-name="oslash" horiz-adv-x="445" unicode="&#248;" /><glyph d="M306 730 360 710 68 -21 13 0ZM191 714Q266 714 316 655Q366 596 366 358Q366 110 317 51.5Q268 -7 191 -7Q116 -7 65.5 51.5Q15 110 15 358Q15 597 65 655.5Q115 714 191 714ZM191 105Q209 105 225.5 130Q242 155 242 358Q242 551 227 575.5Q212 600 191 600Q168 600 153 575.5Q138 551 138 358Q138 155 153.5 130Q169 105 191 105ZM231 736H120L149 793H300Q300 793 265.5 764.5Q231 736 231 736Z" glyph-name="oslashacute" horiz-adv-x="381" unicode="&#511;" /><glyph d="M191 714Q266 714 316 655Q366 596 366 358Q366 110 317 51.5Q268 -7 191 -7Q116 -7 65.5 51.5Q15 110 15 358Q15 597 65 655.5Q115 714 191 714ZM191 105Q209 105 225.5 130Q242 155 242 358Q242 551 227 575.5Q212 600 191 600Q168 600 153 575.5Q138 551 138 358Q138 155 153.5 130Q169 105 191 105ZM244 816Q279 816 302 795.5Q325 775 325 734H264Q264 745 257 753.5Q250 762 234 762Q219 762 193 747Q167 732 135 732Q101 732 78 755.5Q55 779 55 813H113Q113 801 120.5 793Q128 785 143 785Q158 785 186 800.5Q214 816 244 816Z" glyph-name="otilde" horiz-adv-x="381" unicode="&#245;" /><glyph d="M72 710Q237 710 292 649Q347 588 347 493Q347 394 286.5 336Q226 278 139 278V0H25V710ZM139 398Q181 398 207 420.5Q233 443 233 491Q233 544 212 568Q191 592 139 592Z" glyph-name="p" horiz-adv-x="357" unicode="p" /><glyph d="M270 710Q165 710 95 649Q25 588 25 493Q25 394 81.5 338Q138 282 203 278V0H317V710ZM348 710H408V0H348Z" glyph-name="paragraph" horiz-adv-x="463" unicode="&#182;" /><glyph d="M207 765V639Q184 639 159.5 600Q135 561 135 350Q135 142 157 102Q179 62 207 62V-62Q126 -62 70.5 18.5Q15 99 15 350Q15 606 71.5 685.5Q128 765 207 765Z" glyph-name="parenleft" horiz-adv-x="232" unicode="(" /><glyph d="M25 -61V65Q48 65 72.5 104Q97 143 97 354Q97 562 75 602Q53 642 25 642V766Q106 766 161.5 685.5Q217 605 217 354Q217 98 160.5 18.5Q104 -61 25 -61Z" glyph-name="parenright" horiz-adv-x="232" unicode=")" /><glyph d="M402 710 116 0H52L341 710ZM339 -17Q292 -17 263 28Q234 73 234 145Q234 212 258.5 261.5Q283 311 339 311Q394 311 418.5 261.5Q443 212 443 145Q443 73 416.5 28Q390 -17 339 -17ZM340 245Q319 245 311.5 216.5Q304 188 304 144Q304 104 311.5 77Q319 50 340 50Q361 50 367 76.5Q373 103 373 144Q373 188 367 216.5Q361 245 340 245ZM120 390Q73 390 44 435Q15 480 15 552Q15 619 39.5 668.5Q64 718 120 718Q175 718 199.5 668.5Q224 619 224 552Q224 480 197.5 435Q171 390 120 390ZM121 652Q100 652 92.5 623.5Q85 595 85 551Q85 511 92.5 484Q100 457 121 457Q142 457 148 483.5Q154 510 154 551Q154 595 148 623.5Q142 652 121 652Z" glyph-name="percent" horiz-adv-x="458" unicode="%" /><glyph d="M53 79Q69 79 83 66.5Q97 54 97 36Q97 18 83 5Q69 -8 53 -8Q38 -8 24 5.5Q10 19 10 36Q10 53 23.5 66Q37 79 53 79Z" glyph-name="period" horiz-adv-x="107" unicode="." /><glyph d="M53 412Q69 412 83 399.5Q97 387 97 369Q97 351 83 338Q69 325 53 325Q38 325 24 338.5Q10 352 10 369Q10 386 23.5 399Q37 412 53 412Z" glyph-name="periodcentered" horiz-adv-x="107" unicode="&#183;" /><glyph d="M30 383H324V326H30ZM146 200V511H203V200Z" glyph-name="plus" horiz-adv-x="354" unicode="+" /><glyph d="M40 213H334V163H40ZM40 392H334V335H40ZM156 209V520H213V209Z" glyph-name="plusminus" horiz-adv-x="374" unicode="&#177;" /><glyph d="M157 -5 270 30Q293 13 307 -11Q321 -35 321 -62H197Q197 -40 190 -26.5Q183 -13 157 -5ZM191 714Q266 714 316 655Q366 596 366 358Q366 110 317 51.5Q268 -7 191 -7Q116 -7 65.5 51.5Q15 110 15 358Q15 597 65 655.5Q115 714 191 714ZM191 105Q209 105 225.5 130Q242 155 242 358Q242 551 227 575.5Q212 600 191 600Q168 600 153 575.5Q138 551 138 358Q138 155 153.5 130Q169 105 191 105Z" glyph-name="q" horiz-adv-x="381" unicode="q" /><glyph d="M167 717Q235 717 279 671.5Q323 626 323 554Q323 509 298.5 467Q274 425 249 386Q224 346 207 304.5Q190 263 186 208L181 142H131L118 216Q109 265 124.5 317Q140 369 169 420Q191 459 203.5 484.5Q216 510 216 551Q216 572 202 587Q188 602 167 602Q147 602 133 588.5Q119 575 119 532H5Q5 622 53 669.5Q101 717 167 717ZM159 79Q175 79 189 66.5Q203 54 203 36Q203 18 189 5Q175 -8 159 -8Q144 -8 130 5.5Q116 19 116 36Q116 53 129.5 66Q143 79 159 79Z" glyph-name="question" horiz-adv-x="344" unicode="?" /><glyph d="M177 -10Q109 -10 65 35.5Q21 81 21 153Q21 198 45.5 240Q70 282 95 321Q120 361 137 402.5Q154 444 158 499L163 565H213L226 491Q235 442 219.5 390Q204 338 175 287Q153 248 140.5 222.5Q128 197 128 156Q128 135 142 120Q156 105 177 105Q197 105 211 118.5Q225 132 225 175H339Q339 85 291 37.5Q243 -10 177 -10ZM185 628Q169 628 155 640.5Q141 653 141 671Q141 689 155 702Q169 715 185 715Q200 715 214 701.5Q228 688 228 671Q228 654 214.5 641Q201 628 185 628Z" glyph-name="questiondown" horiz-adv-x="344" unicode="&#191;" /><glyph d="M229 709H160V521L229 519V709ZM109 709H40V521L109 519V709Z" glyph-name="quotedbl" horiz-adv-x="269" unicode="&quot;" /><glyph d="M109 2H40V146L109 188V2ZM232 2H163V160L232 202V2Z" glyph-name="quotedblbase" horiz-adv-x="272" unicode="&#8222;" /><glyph d="M109 709H40V565L109 523V709ZM232 709H163V551L232 509V709Z" glyph-name="quotedblleft" horiz-adv-x="272" unicode="&#8220;" /><glyph d="M163 709H232V565L163 523V709ZM40 709H109V551L40 509V709Z" glyph-name="quotedblright" horiz-adv-x="272" unicode="&#8221;" /><glyph d="M109 709H40V551L109 509V709Z" glyph-name="quoteleft" horiz-adv-x="152" unicode="&#8216;" /><glyph d="M40 709H109V551L40 509V709Z" glyph-name="quoteright" horiz-adv-x="152" unicode="&#8217;" /><glyph d="M109 -1H40V157L109 199V-1Z" glyph-name="quotesinglbase" horiz-adv-x="149" unicode="&#8218;" /><glyph d="M109 709H40V531H109V709Z" glyph-name="quotesingle" horiz-adv-x="149" unicode="'" /><glyph d="M233 0Q217 84 195.5 160.5Q174 237 155 278H138V0H25V710H121Q239 710 286.5 646.5Q334 583 334 496Q334 428 311 387Q288 346 256 327Q280 272 309.5 181Q339 90 356 0ZM217 498Q217 540 200 567.5Q183 595 138 595V398Q182 398 199.5 425.5Q217 453 217 498Z" glyph-name="r" horiz-adv-x="361" unicode="r" /><glyph d="M233 0Q217 84 195.5 160.5Q174 237 155 278H138V0H25V710H121Q239 710 286.5 646.5Q334 583 334 496Q334 428 311 387Q288 346 256 327Q280 272 309.5 181Q339 90 356 0ZM217 498Q217 540 200 567.5Q183 595 138 595V398Q182 398 199.5 425.5Q217 453 217 498ZM193 736H82L111 793H262Q262 793 227.5 764.5Q193 736 193 736Z" glyph-name="racute" horiz-adv-x="361" unicode="&#341;" /><glyph d="M233 0Q217 84 195.5 160.5Q174 237 155 278H138V0H25V710H121Q239 710 286.5 646.5Q334 583 334 496Q334 428 311 387Q288 346 256 327Q280 272 309.5 181Q339 90 356 0ZM217 498Q217 540 200 567.5Q183 595 138 595V398Q182 398 199.5 425.5Q217 453 217 498ZM264 804 185 736H118L40 805H121L152 774L184 804Q184 804 224 804Q264 804 264 804Z" glyph-name="rcaron" horiz-adv-x="361" unicode="&#345;" /><glyph d="M304 85Q424 85 503.5 162Q583 239 583 365Q583 489 504.5 566Q426 643 307 643Q189 643 109.5 566Q30 489 30 365Q30 238 108.5 161.5Q187 85 304 85ZM307 140Q214 140 152 202.5Q90 265 90 365Q90 463 152 524.5Q214 586 307 586Q399 586 462 526.5Q525 467 525 365Q525 267 462 203.5Q399 140 307 140ZM213 229H267V326H314L362 229H415L365 335Q379 339 394 360.5Q409 382 409 409Q409 441 387 467.5Q365 494 325 494H213ZM267 378V442H308Q328 442 339.5 435Q351 428 351 409Q351 393 339.5 385.5Q328 378 308 378Z" glyph-name="registered" horiz-adv-x="613" unicode="&#174;" /><glyph d="M84 583Q47 583 26.5 599.5Q6 616 6 654Q6 692 26 710Q46 728 85 728H122Q158 728 177.5 711Q197 694 197 654Q197 616 177.5 599.5Q158 583 122 583ZM84 673Q74 673 69.5 668Q65 663 65 654Q65 646 69 641.5Q73 637 83 637H121Q129 637 133.5 641Q138 645 138 654Q138 663 134 668Q130 673 121 673Z" glyph-name="ring" horiz-adv-x="206" unicode="&#778;" /><glyph d="M198 720Q231 720 258 712.5Q285 705 294 702V577Q277 586 252.5 594.5Q228 603 197 603Q173 603 158 587.5Q143 572 143 548Q143 522 168.5 481.5Q194 441 227 391Q276 319 296.5 270.5Q317 222 317 163Q317 89 272.5 40.5Q228 -8 140 -8Q103 -8 77.5 -0.5Q52 7 33 17V135Q50 126 74.5 116Q99 106 128 106Q161 106 177 119.5Q193 133 193 165Q193 198 180 224.5Q167 251 125 319Q79 393 49.5 441.5Q20 490 20 546Q20 628 67.5 674Q115 720 198 720Z" glyph-name="s" horiz-adv-x="337" unicode="s" /><glyph d="M203 720Q236 720 263 712.5Q290 705 299 702V577Q282 586 257.5 594.5Q233 603 202 603Q178 603 163 587.5Q148 572 148 548Q148 522 173.5 481.5Q199 441 232 391Q281 319 301.5 270.5Q322 222 322 163Q322 89 277.5 40.5Q233 -8 145 -8Q108 -8 82.5 -0.5Q57 7 38 17V135Q55 126 79.5 116Q104 106 133 106Q166 106 182 119.5Q198 133 198 165Q198 198 185 224.5Q172 251 130 319Q84 393 54.5 441.5Q25 490 25 546Q25 628 72.5 674Q120 720 203 720ZM232 736H121L150 793H301Q301 793 266.5 764.5Q232 736 232 736Z" glyph-name="sacute" horiz-adv-x="347" unicode="&#347;" /><glyph d="M193 720Q226 720 253 712.5Q280 705 289 702V577Q272 586 247.5 594.5Q223 603 192 603Q168 603 153 587.5Q138 572 138 548Q138 522 163.5 481.5Q189 441 222 391Q271 319 291.5 270.5Q312 222 312 163Q312 89 267.5 40.5Q223 -8 135 -8Q98 -8 72.5 -0.5Q47 7 28 17V135Q45 126 69.5 116Q94 106 123 106Q156 106 172 119.5Q188 133 188 165Q188 198 175 224.5Q162 251 120 319Q74 393 44.5 441.5Q15 490 15 546Q15 628 62.5 674Q110 720 193 720ZM288 806 209 738H142L64 807H145L176 776L208 806Q208 806 248 806Q288 806 288 806Z" glyph-name="scaron" horiz-adv-x="372" unicode="&#353;" /><glyph d="M198 720Q231 720 258 712.5Q285 705 294 702V577Q277 586 252.5 594.5Q228 603 197 603Q173 603 158 587.5Q143 572 143 548Q143 522 168.5 481.5Q194 441 227 391Q276 319 296.5 270.5Q317 222 317 163Q317 89 272.5 40.5Q228 -8 140 -8Q103 -8 77.5 -0.5Q52 7 33 17V135Q50 126 74.5 116Q99 106 128 106Q161 106 177 119.5Q193 133 193 165Q193 198 180 224.5Q167 251 125 319Q79 393 49.5 441.5Q20 490 20 546Q20 628 67.5 674Q115 720 198 720ZM206 -67H89L116 3H216Z" glyph-name="scedilla" horiz-adv-x="337" unicode="&#351;" /><glyph d="M151.1698 522.5266Q175.5315 522.5266 195.4637 516.9899Q215.396 511.4532 222.04 509.2385V416.9595Q209.4901 423.6036 191.4034 429.8786Q173.3168 436.1535 150.4316 436.1535Q132.714 436.1535 121.6406 424.711Q110.5671 413.2684 110.5671 395.5508Q110.5671 376.3568 129.392 346.4584Q148.2169 316.5601 172.5785 279.6485Q208.7519 226.4958 223.8856 190.6916Q239.0194 154.8874 239.0194 111.3317Q239.0194 56.7026 206.1681 20.8984Q173.3168 -14.9059 108.3524 -14.9059Q81.0378 -14.9059 62.2129 -9.3691Q43.388 -3.8324 29.3616 3.5499V90.6612Q41.9116 84.0172 59.9982 76.6348Q78.0849 69.2525 99.4936 69.2525Q123.8553 69.2525 135.667 79.2187Q147.4787 89.1848 147.4787 112.8082Q147.4787 137.1698 137.8817 156.733Q128.2846 176.2961 97.2789 226.4958Q63.3203 281.1249 41.5425 316.9292Q19.7646 352.7334 19.7646 394.0744Q19.7646 454.6093 54.8306 488.568Q89.8966 522.5266 151.1698 522.5266ZM236.1698 719.5266Q260.5315 719.5266 280.4637 713.9899Q300.396 708.4532 307.04 706.2385V613.9595Q294.4901 620.6036 276.4034 626.8786Q258.3168 633.1535 235.4316 633.1535Q217.714 633.1535 206.6406 621.711Q195.5671 610.2684 195.5671 592.5508Q195.5671 573.3568 214.392 543.4584Q233.2169 513.5601 257.5785 476.6485Q293.7519 423.4958 308.8856 387.6916Q324.0194 351.8874 324.0194 308.3317Q324.0194 253.7026 291.1681 217.8984Q258.3168 182.0941 193.3524 182.0941Q166.0378 182.0941 147.2129 187.6309Q128.388 193.1676 114.3616 200.5499V287.6612Q126.9116 281.0172 144.9982 273.6348Q163.0849 266.2525 184.4936 266.2525Q208.8553 266.2525 220.667 276.2187Q232.4787 286.1848 232.4787 309.8082Q232.4787 334.1698 222.8817 353.733Q213.2846 373.2961 182.2789 423.4958Q148.3203 478.1249 126.5425 513.9292Q104.7646 549.7334 104.7646 591.0744Q104.7646 651.6093 139.8306 685.568Q174.8966 719.5266 236.1698 719.5266Z" glyph-name="section" horiz-adv-x="344.0194" unicode="&#167;" /><glyph d="M57 179H117V-1H57V179ZM83 441Q99 441 113 428.5Q127 416 127 398Q127 380 113 367Q99 354 83 354Q68 354 54 367.5Q40 381 40 398Q40 415 53.5 428Q67 441 83 441Z" glyph-name="semicolon" horiz-adv-x="167" unicode=";" /><glyph d="M8 599V710H320V635V633Q247 467 213.5 327.5Q180 188 168 0H57Q68 179 106 326.5Q144 474 198 599H8Z" glyph-name="seven" horiz-adv-x="328" unicode="7" /><glyph d="M183 716Q249 716 296.5 670.5Q344 625 344 544H229Q229 579 216 592Q203 605 183 605Q162 605 149 571Q136 537 136 458Q147 464 161.5 467.5Q176 471 190 471Q251 471 298.5 417.5Q346 364 346 233Q346 105 297.5 48Q249 -9 183 -9Q117 -9 68.5 47.5Q20 104 20 332Q20 589 68.5 652.5Q117 716 183 716ZM183 357Q164 357 151.5 347Q139 337 136 320V234Q136 152 149 127Q162 102 183 102Q203 102 217.5 122.5Q232 143 232 233Q232 322 214.5 339.5Q197 357 183 357Z" glyph-name="six" horiz-adv-x="366" unicode="6" /><glyph d="M5 0 152 710H212L70 0H5Z" glyph-name="slash" horiz-adv-x="216" unicode="/" /><glyph glyph-name="space" horiz-adv-x="130" unicode=" " /><glyph d="M150 112H293V0H39Q30 75 54.5 173Q79 271 79 335Q79 387 59 446Q39 505 39 556Q39 623 81.5 665Q124 707 208 710H248V596H214Q174 596 157 587Q140 578 140 556Q140 530 160 460Q180 390 180 335Q180 265 169 206.5Q158 148 150 112ZM30.0019 374H247.582V317H30.0019Z" glyph-name="sterling" horiz-adv-x="313" unicode="&#163;" /><glyph d="M10 597V710H292V597H208V0H94V597H10Z" glyph-name="t" horiz-adv-x="302" unicode="t" /><glyph d="M5 597V710H287V597H203V0H89V597H5ZM257 803 178 735H111L33 804H114L145 773L177 803Q177 803 217 803Q257 803 257 803Z" glyph-name="tcaron" horiz-adv-x="302" unicode="&#357;" /><glyph d="M341 360Q341 196 288.5 124.5Q236 53 133 53V0H25V710H133V658Q236 658 288.5 584.5Q341 511 341 360ZM138 156Q188 156 210 202Q232 248 232 360Q232 474 210 512Q188 550 138 550Z" glyph-name="thorn" horiz-adv-x="356" unicode="&#254;" /><glyph d="M283 365Q301 355 323 309Q345 263 345 206Q345 93 297.5 43Q250 -7 178 -7Q105 -7 61.5 42.5Q18 92 15 173H123Q131 130 145 116.5Q159 103 179 103Q208 103 221.5 125.5Q235 148 235 210Q235 270 207 289Q179 308 143 308V411Q178 411 202.5 431Q227 451 227 511Q227 562 214.5 582Q202 602 180 602Q158 602 146 586Q134 570 130 541H17Q21 622 64.5 667.5Q108 713 180 713Q251 713 297 660Q343 607 343 518Q343 458 321 415.5Q299 373 283 365Z" glyph-name="three" horiz-adv-x="360" unicode="3" /><glyph d="M206 490Q218 483 232 454Q246 425 246 388Q246 316 210.5 284Q175 252 129 252Q82 252 49.5 283.5Q17 315 15 367H94Q99 349 108 340.5Q117 332 130 332Q148 332 157 346.5Q166 361 166 391Q166 429 148 439.5Q130 450 107 450V526Q129 526 144.5 539Q160 552 160 583Q160 616 152 624Q144 632 130 632Q116 632 108.5 624Q101 616 98 598H16Q18 650 51 681.5Q84 713 130 713Q176 713 210.5 679Q245 645 245 588Q245 549 231 522Q217 495 206 490Z" glyph-name="threesuperior" horiz-adv-x="266" /><glyph d="M194 674Q229 674 252 653.5Q275 633 275 592H214Q214 603 207 611.5Q200 620 184 620Q169 620 143 605Q117 590 85 590Q51 590 28 613.5Q5 637 5 671H63Q63 659 70.5 651Q78 643 93 643Q108 643 136 658.5Q164 674 194 674Z" glyph-name="tilde" horiz-adv-x="281" unicode="&#771;" /><glyph d="M207 279Q190 251 163 201Q136 151 138 113H332V0H16Q9 147 51.5 236Q94 325 113 353Q154 415 186.5 467Q219 519 219 555Q219 580 207 592.5Q195 605 175 605Q155 605 141.5 592Q128 579 128 559V533H16V559Q16 624 61.5 671Q107 718 175 718Q242 718 288.5 673Q335 628 335 556Q335 493 297 431Q259 369 207 279Z" glyph-name="two" horiz-adv-x="351" unicode="2" /><glyph d="M159 88Q147 71 129.5 39Q112 7 112 -7H237V-89H16Q12 -15 43.5 46.5Q75 108 87 125Q113 165 133.5 198Q154 231 154 254Q154 270 146.5 278Q139 286 126 286Q114 286 105 277.5Q96 269 96 236H15Q15 304 49 335.5Q83 367 126 367Q169 367 203.5 336.5Q238 306 238 254Q238 214 218 179Q198 144 159 88Z" glyph-name="two.sub" horiz-adv-x="253" /><glyph d="M159 436Q147 419 129.5 387Q112 355 112 341H237V259H16Q12 333 43.5 394.5Q75 456 87 473Q113 513 133.5 546Q154 579 154 602Q154 618 146.5 626Q139 634 126 634Q114 634 105 625.5Q96 617 96 584H15Q15 652 49 683.5Q83 715 126 715Q169 715 203.5 684.5Q238 654 238 602Q238 562 218 527Q198 492 159 436Z" glyph-name="twosuperior" horiz-adv-x="253" /><glyph d="M229 710H342V289Q342 98 293.5 45Q245 -8 181 -8Q117 -8 68.5 45.5Q20 99 20 289V710H132V289Q132 145 147.5 125.5Q163 106 181 106Q200 106 214.5 125.5Q229 145 229 289Z" glyph-name="u" horiz-adv-x="362" unicode="u" /><glyph d="M229 710H342V289Q342 98 293.5 45Q245 -8 181 -8Q117 -8 68.5 45.5Q20 99 20 289V710H132V289Q132 145 147.5 125.5Q163 106 181 106Q200 106 214.5 125.5Q229 145 229 289ZM227 735H116L145 792H296Q296 792 261.5 763.5Q227 735 227 735Z" glyph-name="uacute" horiz-adv-x="362" unicode="&#250;" /><glyph d="M229 710H342V289Q342 98 293.5 45Q245 -8 181 -8Q117 -8 68.5 45.5Q20 99 20 289V710H132V289Q132 145 147.5 125.5Q163 106 181 106Q200 106 214.5 125.5Q229 145 229 289ZM221 816Q221 806 216 798.5Q211 791 200 791H162Q150 791 144.5 798Q139 805 139 816H75Q75 776 100 755.5Q125 735 170 735H194Q240 735 263 755.5Q286 776 286 816Z" glyph-name="ubreve" horiz-adv-x="362" unicode="&#365;" /><glyph d="M229 710H342V289Q342 98 293.5 45Q245 -8 181 -8Q117 -8 68.5 45.5Q20 99 20 289V710H132V289Q132 145 147.5 125.5Q163 106 181 106Q200 106 214.5 125.5Q229 145 229 289ZM67 736 146 804H213L291 735H210L179 766L147 736Q147 736 107 736Q67 736 67 736Z" glyph-name="ucircumflex" horiz-adv-x="362" unicode="&#251;" /><glyph d="M229 710H342V289Q342 98 293.5 45Q245 -8 181 -8Q117 -8 68.5 45.5Q20 99 20 289V710H132V289Q132 145 147.5 125.5Q163 106 181 106Q200 106 214.5 125.5Q229 145 229 289ZM52 795H159V736H52V795ZM197 795H304V736H197V795Z" glyph-name="udieresis" horiz-adv-x="362" unicode="&#252;" /><glyph d="M229 710H342V289Q342 98 293.5 45Q245 -8 181 -8Q117 -8 68.5 45.5Q20 99 20 289V710H132V289Q132 145 147.5 125.5Q163 106 181 106Q200 106 214.5 125.5Q229 145 229 289ZM144.9516 735H255.9923L226.9817 792H75.9263Q75.9263 792 110.4389 763.5Q144.9516 735 144.9516 735Z" glyph-name="ugrave" horiz-adv-x="362" unicode="&#249;" /><glyph d="M229 710H342V289Q342 98 293.5 45Q245 -8 181 -8Q117 -8 68.5 45.5Q20 99 20 289V710H132V289Q132 145 147.5 125.5Q163 106 181 106Q200 106 214.5 125.5Q229 145 229 289ZM78 799H178L153 735H61Q61 735 69.5 767Q78 799 78 799ZM281 735H190L212 799H311Q311 799 296 767Q281 735 281 735Z" glyph-name="uhungarumlaut" horiz-adv-x="362" unicode="&#369;" /><glyph d="M229 710H342V289Q342 98 293.5 45Q245 -8 181 -8Q117 -8 68.5 45.5Q20 99 20 289V710H132V289Q132 145 147.5 125.5Q163 106 181 106Q200 106 214.5 125.5Q229 145 229 289ZM62 798V735H304V798Z" glyph-name="umacron" horiz-adv-x="362" unicode="&#363;" /><glyph d="M0 0H291V-55H0V0Z" glyph-name="underscore" horiz-adv-x="291" unicode="_" /><glyph d="M195 716Q262 716 309 663.5Q356 611 364 521H246Q243 558 230 579Q217 600 195 600Q172 600 154.5 571.5Q137 543 137 353Q137 159 155.5 132.5Q174 106 196 106Q221 106 236 134Q251 162 253 277H196V391H366V299Q366 111 318 51Q270 -9 195 -9Q116 -9 65.5 54.5Q15 118 15 353Q15 596 70 656Q125 716 195 716ZM165 -30H225V-144H165V-30Z" glyph-name="uni0122" horiz-adv-x="381" /><glyph d="M195 716Q262 716 309 663.5Q356 611 364 521H246Q243 558 230 579Q217 600 195 600Q172 600 154.5 571.5Q137 543 137 353Q137 159 155.5 132.5Q174 106 196 106Q221 106 236 134Q251 162 253 277H196V391H366V299Q366 111 318 51Q270 -9 195 -9Q116 -9 65.5 54.5Q15 118 15 353Q15 596 70 656Q125 716 195 716ZM165 -30H225V-144H165V-30Z" glyph-name="uni0123" horiz-adv-x="380" /><glyph d="M367 710 228 405Q265 349 309 227.5Q353 106 368 0H240Q232 79 207.5 165.5Q183 252 139 331V0H25V710H139V458L240 710H367ZM153 -30H213V-144H153V-30Z" glyph-name="uni0136" horiz-adv-x="368" /><glyph d="M367 710 228 405Q265 349 309 227.5Q353 106 368 0H240Q232 79 207.5 165.5Q183 252 139 331V0H25V710H139V458L240 710H367ZM153 -30H213V-144H153V-30Z" glyph-name="uni0137" horiz-adv-x="368" /><glyph d="M139 114H293V0H25V710H139ZM125 -30H185V-144H125V-30Z" glyph-name="uni013B" horiz-adv-x="308" unicode="&#315;" /><glyph d="M139 114H293V0H25V710H139ZM125 -30H185V-144H125V-30Z" glyph-name="uni013C" horiz-adv-x="368" unicode="&#316;" /><glyph d="M228 710H341V0H241Q224 215 200.5 298Q177 381 138 457V0H25V710H97Q148 645 179 591.5Q210 538 228 492ZM156 -30H216V-144H156V-30Z" glyph-name="uni0145" horiz-adv-x="366" /><glyph d="M228 710H341V0H241Q224 215 200.5 298Q177 381 138 457V0H25V710H97Q148 645 179 591.5Q210 538 228 492ZM156 -30H216V-144H156V-30Z" glyph-name="uni0146" horiz-adv-x="366" /><glyph d="M233 0Q217 84 195.5 160.5Q174 237 155 278H138V0H25V710H121Q239 710 286.5 646.5Q334 583 334 496Q334 428 311 387Q288 346 256 327Q280 272 309.5 181Q339 90 356 0ZM217 498Q217 540 200 567.5Q183 595 138 595V398Q182 398 199.5 425.5Q217 453 217 498ZM154 -30H214V-144H154V-30Z" glyph-name="uni0156" horiz-adv-x="361" /><glyph d="M233 0Q217 84 195.5 160.5Q174 237 155 278H138V0H25V710H121Q239 710 286.5 646.5Q334 583 334 496Q334 428 311 387Q288 346 256 327Q280 272 309.5 181Q339 90 356 0ZM217 498Q217 540 200 567.5Q183 595 138 595V398Q182 398 199.5 425.5Q217 453 217 498ZM154 -30H214V-144H154V-30Z" glyph-name="uni0157" horiz-adv-x="361" /><glyph d="M194 -90H67L144 1H194ZM10 597V710H292V597H208V0H94V597H10Z" glyph-name="uni0162" horiz-adv-x="302" /><glyph d="M194 -90H67L144 1H194ZM10 597V710H292V597H208V0H94V597H10Z" glyph-name="uni0163" horiz-adv-x="302" /><glyph d="M284 0V710H15V597H171V447H69V334H171V113H15V0H284Z" glyph-name="uni01DD" horiz-adv-x="309" unicode="&#477;" /><glyph d="M198 720Q231 720 258 712.5Q285 705 294 702V577Q277 586 252.5 594.5Q228 603 197 603Q173 603 158 587.5Q143 572 143 548Q143 522 168.5 481.5Q194 441 227 391Q276 319 296.5 270.5Q317 222 317 163Q317 89 272.5 40.5Q228 -8 140 -8Q103 -8 77.5 -0.5Q52 7 33 17V135Q50 126 74.5 116Q99 106 128 106Q161 106 177 119.5Q193 133 193 165Q193 198 180 224.5Q167 251 125 319Q79 393 49.5 441.5Q20 490 20 546Q20 628 67.5 674Q115 720 198 720ZM125 -30H185V-144H125V-30Z" glyph-name="uni0218" horiz-adv-x="337" /><glyph d="M198 720Q231 720 258 712.5Q285 705 294 702V577Q277 586 252.5 594.5Q228 603 197 603Q173 603 158 587.5Q143 572 143 548Q143 522 168.5 481.5Q194 441 227 391Q276 319 296.5 270.5Q317 222 317 163Q317 89 272.5 40.5Q228 -8 140 -8Q103 -8 77.5 -0.5Q52 7 33 17V135Q50 126 74.5 116Q99 106 128 106Q161 106 177 119.5Q193 133 193 165Q193 198 180 224.5Q167 251 125 319Q79 393 49.5 441.5Q20 490 20 546Q20 628 67.5 674Q115 720 198 720ZM125 -30H185V-144H125V-30Z" glyph-name="uni0219" horiz-adv-x="337" /><glyph d="M10 597V710H292V597H208V0H94V597H10ZM122 -30H182V-144H122V-30Z" glyph-name="uni021A" horiz-adv-x="302" unicode="&#538;" /><glyph d="M10 597V710H292V597H208V0H94V597H10ZM122 -30H182V-144H122V-30Z" glyph-name="uni021B" horiz-adv-x="302" unicode="&#539;" /><glyph d="M293 -138H194Q151 -138 131.5 -110.5Q112 -83 120 -47Q129 -6 136.5 29.5Q144 65 144 65L225 -4L216 -43H271ZM229 710H342V289Q342 98 293.5 45Q245 -8 181 -8Q117 -8 68.5 45.5Q20 99 20 289V710H132V289Q132 145 147.5 125.5Q163 106 181 106Q200 106 214.5 125.5Q229 145 229 289Z" glyph-name="uogonek" horiz-adv-x="362" unicode="&#371;" /><glyph d="M229 710H342V289Q342 98 293.5 45Q245 -8 181 -8Q117 -8 68.5 45.5Q20 99 20 289V710H132V289Q132 145 147.5 125.5Q163 106 181 106Q200 106 214.5 125.5Q229 145 229 289ZM168 726Q131 726 110.5 742.5Q90 759 90 797Q90 835 110 853Q130 871 169 871H206Q242 871 261.5 854Q281 837 281 797Q281 759 261.5 742.5Q242 726 206 726ZM168 816Q158 816 153.5 811Q149 806 149 797Q149 789 153 784.5Q157 780 167 780H205Q213 780 217.5 784Q222 788 222 797Q222 806 218 811Q214 816 205 816Z" glyph-name="uring" horiz-adv-x="362" unicode="&#367;" /><glyph d="M227 0H141Q81 140 54.5 288.5Q28 437 15 710H132Q134 556 147.5 429Q161 302 184 204Q208 302 219.5 429Q231 556 235 710H352Q340 434 312.5 287Q285 140 227 0Z" glyph-name="v" horiz-adv-x="367" unicode="v" /><glyph d="M201 0H124Q79 128 52 311.5Q25 495 25 710H141Q141 587 148 464.5Q155 342 178 231Q200 342 206.5 434Q213 526 221 710H305Q313 530 320.5 438Q328 346 353 231Q374 342 379.5 464.5Q385 587 385 710H500Q500 495 472 311.5Q444 128 404 0H323Q299 65 286.5 109.5Q274 154 263 207Q253 154 239.5 109.5Q226 65 201 0Z" glyph-name="w" horiz-adv-x="515" unicode="w" /><glyph d="M196 0H119Q74 128 47 311.5Q20 495 20 710H136Q136 587 143 464.5Q150 342 173 231Q195 342 201.5 434Q208 526 216 710H300Q308 530 315.5 438Q323 346 348 231Q369 342 374.5 464.5Q380 587 380 710H495Q495 495 467 311.5Q439 128 399 0H318Q294 65 281.5 109.5Q269 154 258 207Q248 154 234.5 109.5Q221 65 196 0ZM305 735H194L223 792H374Q374 792 339.5 763.5Q305 735 305 735Z" glyph-name="wacute" horiz-adv-x="515" unicode="&#7811;" /><glyph d="M206 0H129Q84 128 57 311.5Q30 495 30 710H146Q146 587 153 464.5Q160 342 183 231Q205 342 211.5 434Q218 526 226 710H310Q318 530 325.5 438Q333 346 358 231Q379 342 384.5 464.5Q390 587 390 710H505Q505 495 477 311.5Q449 128 409 0H328Q304 65 291.5 109.5Q279 154 268 207Q258 154 244.5 109.5Q231 65 206 0ZM141 736 220 804H287L365 735H284L253 766L221 736Q221 736 181 736Q141 736 141 736Z" glyph-name="wcircumflex" horiz-adv-x="515" unicode="&#373;" /><glyph d="M196 0H119Q74 128 47 311.5Q20 495 20 710H136Q136 587 143 464.5Q150 342 173 231Q195 342 201.5 434Q208 526 216 710H300Q308 530 315.5 438Q323 346 348 231Q369 342 374.5 464.5Q380 587 380 710H495Q495 495 467 311.5Q439 128 399 0H318Q294 65 281.5 109.5Q269 154 258 207Q248 154 234.5 109.5Q221 65 196 0ZM129 794H236V735H129V794ZM274 794H381V735H274V794Z" glyph-name="wdieresis" horiz-adv-x="515" unicode="&#7813;" /><glyph d="M196 0H119Q74 128 47 311.5Q20 495 20 710H136Q136 587 143 464.5Q150 342 173 231Q195 342 201.5 434Q208 526 216 710H300Q308 530 315.5 438Q323 346 348 231Q369 342 374.5 464.5Q380 587 380 710H495Q495 495 467 311.5Q439 128 399 0H318Q294 65 281.5 109.5Q269 154 258 207Q248 154 234.5 109.5Q221 65 196 0ZM207.9516 735H318.9923L289.9817 792H138.9263Q138.9263 792 173.4389 763.5Q207.9516 735 207.9516 735Z" glyph-name="wgrave" horiz-adv-x="515" unicode="&#7809;" /><glyph d="M389 710Q367 581 335 498.5Q303 416 270 354Q305 294 337.5 212Q370 130 401 0H271Q257 66 243.5 113Q230 160 206 229Q182 160 169 113.5Q156 67 141 0H14Q47 133 77.5 214.5Q108 296 142 353Q108 416 77.5 498.5Q47 581 23 710H152Q158 645 168 594.5Q178 544 207 476Q234 544 245.5 595Q257 646 263 710H389Z" glyph-name="x" horiz-adv-x="407" unicode="x" /><glyph d="M360 710Q346 584 312.5 472Q279 360 242 278V0H128V278Q90 360 57 470.5Q24 581 7 710H126Q135 626 150.5 547.5Q166 469 185 424Q206 469 220 547.5Q234 626 242 710H360Z" glyph-name="y" horiz-adv-x="367" unicode="y" /><glyph d="M360 710Q346 584 312.5 472Q279 360 242 278V0H128V278Q90 360 57 470.5Q24 581 7 710H126Q135 626 150.5 547.5Q166 469 185 424Q206 469 220 547.5Q234 626 242 710H360ZM234 735H123L152 792H303Q303 792 268.5 763.5Q234 735 234 735Z" glyph-name="yacute" horiz-adv-x="367" unicode="&#253;" /><glyph d="M360 710Q346 584 312.5 472Q279 360 242 278V0H128V278Q90 360 57 470.5Q24 581 7 710H126Q135 626 150.5 547.5Q166 469 185 424Q206 469 220 547.5Q234 626 242 710H360ZM73 736 152 804H219L297 735H216L185 766L153 736Q153 736 113 736Q73 736 73 736Z" glyph-name="ycircumflex" horiz-adv-x="367" unicode="&#375;" /><glyph d="M360 710Q346 584 312.5 472Q279 360 242 278V0H128V278Q90 360 57 470.5Q24 581 7 710H126Q135 626 150.5 547.5Q166 469 185 424Q206 469 220 547.5Q234 626 242 710H360ZM56 794H163V735H56V794ZM201 794H308V735H201V794Z" glyph-name="ydieresis" horiz-adv-x="367" unicode="&#255;" /><glyph d="M360 710Q346 584 312.5 472Q279 360 242 278V0H128V278Q90 360 57 470.5Q24 581 7 710H126Q135 626 150.5 547.5Q166 469 185 424Q206 469 220 547.5Q234 626 242 710H360ZM56 187H315V130H56ZM56 293H315V236H56Z" glyph-name="yen" horiz-adv-x="367" unicode="&#165;" /><glyph d="M360 710Q346 584 312.5 472Q279 360 242 278V0H128V278Q90 360 57 470.5Q24 581 7 710H126Q135 626 150.5 547.5Q166 469 185 424Q206 469 220 547.5Q234 626 242 710H360ZM144.9516 736H255.9923L226.9817 793H75.9263Q75.9263 793 110.4389 764.5Q144.9516 736 144.9516 736Z" glyph-name="ygrave" horiz-adv-x="367" unicode="&#7923;" /><glyph d="M140 114H312V0H15Q15 148 60 320.5Q105 493 179 596H15V710H312V609Q225 461 186.5 336.5Q148 212 140 114Z" glyph-name="z" horiz-adv-x="327" unicode="z" /><glyph d="M140 114H312V0H15Q15 148 60 320.5Q105 493 179 596H15V710H312V609Q225 461 186.5 336.5Q148 212 140 114ZM204 735H93L122 792H273Q273 792 238.5 763.5Q204 735 204 735Z" glyph-name="zacute" horiz-adv-x="327" unicode="&#378;" /><glyph d="M140 114H312V0H15Q15 148 60 320.5Q105 493 179 596H15V710H312V609Q225 461 186.5 336.5Q148 212 140 114ZM275 803 196 735H129L51 804H132L163 773L195 803Q195 803 235 803Q275 803 275 803Z" glyph-name="zcaron" horiz-adv-x="327" unicode="&#382;" /><glyph d="M140 114H312V0H15Q15 148 60 320.5Q105 493 179 596H15V710H312V609Q225 461 186.5 336.5Q148 212 140 114ZM109 793H227V735H109V793Z" glyph-name="zdotaccent" horiz-adv-x="327" unicode="&#380;" /><glyph d="M191 714Q266 714 316 655Q366 596 366 358Q366 110 317 51.5Q268 -7 191 -7Q116 -7 65.5 51.5Q15 110 15 358Q15 597 65 655.5Q115 714 191 714ZM191 105Q209 105 225.5 130Q242 155 242 358Q242 551 227 575.5Q212 600 191 600Q168 600 153 575.5Q138 551 138 358Q138 155 153.5 130Q169 105 191 105Z" glyph-name="zero" horiz-adv-x="381" unicode="0" /></font>
</defs>
</svg>
